<?xml version="1.0" encoding="UTF-8" standalone="no"?>
<svg
   viewBox="0 0 228.81355 44.999999"
   version="1.1"
   id="svg5"
   inkscape:version="1.1 (ce6663b3b7, 2021-05-25)"
   sodipodi:docname="youbet.svg"
   width="228.81355"
   height="45"
   xmlns:inkscape="http://www.inkscape.org/namespaces/inkscape"
   xmlns:sodipodi="http://sodipodi.sourceforge.net/DTD/sodipodi-0.dtd"
   xmlns="http://www.w3.org/2000/svg"
   xmlns:svg="http://www.w3.org/2000/svg">
  <sodipodi:namedview
     id="namedview7"
     pagecolor="#ffffff"
     bordercolor="#666666"
     borderopacity="1.0"
     inkscape:pageshadow="2"
     inkscape:pageopacity="0.0"
     inkscape:pagecheckerboard="false"
     inkscape:document-units="px"
     showgrid="true"
     inkscape:zoom="1.4182101"
     inkscape:window-x="0"
     inkscape:window-y="27"
     inkscape:window-maximized="1"
     inkscape:current-layer="g1427"
     inkscape:snap-global="false"
     inkscape:cx="-176.27853"
     inkscape:cy="64.517942"
     inkscape:window-width="1920"
     inkscape:window-height="1016"
     showborder="true"
     lock-margins="true"
     borderlayer="true"
     fit-margin-top="0"
     fit-margin-left="0"
     fit-margin-right="0"
     fit-margin-bottom="0">
    <inkscape:grid
       type="xygrid"
       id="grid1440"
       originx="2.9640857e-06"
       originy="1.8749778e-05" />
  </sodipodi:namedview>
  <defs
     id="defs2" />
  <g
     inkscape:label="Camada 1"
     inkscape:groupmode="layer"
     id="layer1"
     style="display:inline">
    <g
       id="g67"
       transform="matrix(0.40360169,0,0,0.40360169,-45.911091,-72.462991)">
      <g
         id="g249"
         transform="matrix(5.1317453,0,0,5.1317453,-242.16729,-32.303576)">
        <g
           id="g1427">
          <g
             id="g1438"
             transform="matrix(0.73649945,0,0,0.73649945,69.356668,41.354815)">
            <path
               class="st0"
               d="m 36.8,0 c -7.5,0 -12.5,5.9 -12.5,14.7 0,8.8 5,14.7 12.5,14.7 7.5,0 12.4,-5.9 12.4,-14.7 C 49.2,5.8 44.3,0 36.8,0 Z m -0.1,22.6 c -3,0 -5.3,-2 -5.7,-5.1 h 11.4 c -0.2,3.1 -2.6,5.1 -5.7,5.1 z"
               id="path49" />
            <path
               class="st0"
               d="m 66.5,18.9 c 0,2.2 -1.2,3.6 -3,3.6 -1.8,0 -3.1,-1.5 -3.1,-3.6 V 0 h -7.3 v 19 c 0,6.1 4.1,10.2 10.3,10.2 6.1,0 10.2,-4.1 10.2,-10.2 V 0 h -7.2 v 18.9 z"
               id="path51" />
            <path
               class="st0"
               d="M 13.5,5.8 C 12.8,7.4 12.3,9.4 11.9,11 H 11.8 C 11.4,9.4 10.9,7.5 10.2,5.8 L 7.8,0 H 0 v 0.4 l 8.3,17.7 v 11.2 h 7.3 V 18.1 L 23.8,0.4 V 0 H 16 Z"
               id="path53" />
            <g
               id="g59">
              <path
                 id="polygon55"
                 class="st0"
                 style="fill:#f7a800"
                 d="M 149.6,21.2 150,-0.1 h -7.9 l 0.6,21.3 z" />
              <path
                 class="st0"
                 d="m 146,22.3 c -1.9,0 -3.5,1.4 -3.5,3.5 0,2.1 1.5,3.5 3.5,3.5 2.1,0 3.6,-1.3 3.6,-3.5 0,-2.2 -1.6,-3.5 -3.6,-3.5"
                 id="path57" />
            </g>
            <path
               id="polygon61"
               class="st0"
               style="fill:#f7a800"
               d="m 118.1,0 h -15.7 v 29.3 h 16.1 v -7 h -8.9 v -4.8 h 7.8 v -6.7 h -7.8 V 6.7 h 8.5 z" />
            <path
               id="polygon63"
               class="st0"
               style="fill:#f7a800"
               d="m 126.9,29.3 h 7 V 6.7 h 5.7 V 0 h -18.5 v 6.7 h 5.8 z" />
            <path
               class="st0"
               d="m 95.2,13.9 c 2,-1.3 2.7,-3.8 2.7,-5.6 0,-5.1 -3.5,-8.4 -8.7,-8.4 H 78.5 v 29.3 h 11.6 c 5.3,0 8.7,-3.3 8.7,-8.6 0,-2.6 -1.3,-5.1 -3.6,-6.7 z M 85.6,6.5 h 3 c 1.3,0 2.2,1 2.2,2.6 0,1.4 -0.9,2.4 -2.2,2.4 h -3 z m 3.9,16.2 h -3.9 v -5.2 h 3.9 c 1.2,0 2.2,1.1 2.2,2.7 0,1.5 -1,2.5 -2.2,2.5 z"
               id="path65"
               inkscape:transform-center-x="66.196117"
               inkscape:transform-center-y="-7.9947435" />
          </g>
        </g>
      </g>
    </g>
  </g>
  <style
     type="text/css"
     id="style47">
	.st0{fill:#F7A800;}
</style>
</svg>
