<?xml version="1.0" encoding="utf-8"?>
<!-- Generator: Adobe Illustrator 26.0.1, SVG Export Plug-In . SVG Version: 6.00 Build 0)  -->
<svg version="1.1" id="Layer_1" xmlns="http://www.w3.org/2000/svg" xmlns:xlink="http://www.w3.org/1999/xlink" x="0px" y="0px"
	 viewBox="0 0 180 110" style="enable-background:new 0 0 180 110;" xml:space="preserve">
<style type="text/css">
	.st0{fill-rule:evenodd;clip-rule:evenodd;fill:#FFCE1E;}
	.st1{fill:#FFFFFF;}
	.st2{fill-rule:evenodd;clip-rule:evenodd;fill:#FFFFFF;}
	.st3{fill-rule:evenodd;clip-rule:evenodd;fill:#FFE380;}
	.st4{fill-rule:evenodd;clip-rule:evenodd;}
	.st5{fill:#0F0F0F;}
	.st6{fill-rule:evenodd;clip-rule:evenodd;fill:#303030;}
	.st7{fill-rule:evenodd;clip-rule:evenodd;fill:#F5F5F5;}
	.st8{fill-rule:evenodd;clip-rule:evenodd;fill:#FFBF1E;}
</style>
<g>
	<path class="st0" d="M23.3,100.4c15.5,2.2,34.4,2.8,51.8,3.9c15.6,1,33.6,3.9,43.3-6c5.9-6.1,8.7-36,8.2-65.2
		c-0.3-16.4-1.2-27.3-11.6-28.9C89.3,0.3,66.3,2.1,45.2,0.4C21.8-1.5,8,3.3,7.2,12.5c-1.8,21.7-7,57.2-1.9,73.9
		C7.5,93.8,15.1,99.2,23.3,100.4z"/>
	<path class="st1" d="M39.1,83.6c-0.1,0-0.1,0-0.2,0c-0.4-0.1-0.6-0.4-0.5-0.8s0.4-0.6,0.8-0.5s0.6,0.4,0.5,0.8
		C39.7,83.4,39.5,83.6,39.1,83.6z M79.8,82.3c-0.4-0.1-0.6-0.4-0.6-0.8c0-0.2,0.2-0.4,0.4-0.5c0.3-0.2,0.7-0.1,0.9,0.2
		c0.2,0.3,0.1,0.7-0.2,0.9c-0.1,0.1-0.2,0.1-0.3,0.1C80,82.2,79.9,82.3,79.8,82.3L79.8,82.3z M82.2,81.5c-0.3,0-0.5-0.2-0.6-0.4
		c-0.1-0.3,0.1-0.7,0.4-0.8c0.3-0.2,0.7-0.1,0.9,0.2c0.2,0.3,0.1,0.7-0.2,0.9c-0.1,0.1-0.2,0.1-0.3,0.1
		C82.4,81.5,82.3,81.5,82.2,81.5L82.2,81.5z M39.3,81.2c-0.4,0-0.7-0.3-0.7-0.7s0.3-0.7,0.7-0.7s0.7,0.3,0.7,0.7
		S39.7,81.2,39.3,81.2z M84.5,80.6c-0.4,0-0.6-0.4-0.6-0.8c0-0.2,0.2-0.4,0.4-0.5c0.3-0.1,0.7,0,0.9,0.4l0,0
		c0.1,0.3-0.1,0.7-0.4,0.9C84.7,80.6,84.6,80.6,84.5,80.6L84.5,80.6z M86.8,79.7c-0.4,0-0.6-0.4-0.6-0.8c0-0.2,0.2-0.4,0.3-0.5
		c0.3-0.2,0.7,0,0.9,0.4l0,0c0.1,0.3,0,0.7-0.4,0.9C87,79.7,87,79.8,86.8,79.7L86.8,79.7z M89.1,78.8c-0.4,0-0.7-0.3-0.7-0.7
		s0.3-0.7,0.7-0.7c0.3,0,0.5,0.2,0.6,0.4c0.1,0.3,0,0.7-0.3,0.9C89.3,78.8,89.2,78.8,89.1,78.8L89.1,78.8z M39.3,78.7
		c-0.4,0-0.7-0.3-0.7-0.6c0-0.4,0.3-0.7,0.6-0.7c0.4,0,0.7,0.3,0.7,0.6C40.1,78.3,39.8,78.7,39.3,78.7
		C39.4,78.7,39.4,78.7,39.3,78.7L39.3,78.7z M91.4,77.8c-0.3,0-0.5-0.2-0.6-0.4c-0.2-0.3,0-0.7,0.3-0.9c0.3-0.2,0.7,0,0.9,0.3
		c0.2,0.3,0,0.7-0.3,0.9l0,0C91.6,77.8,91.5,77.8,91.4,77.8L91.4,77.8z M93.7,76.7c-0.4,0-0.6-0.4-0.6-0.7c0-0.2,0.1-0.4,0.3-0.5
		c0.3-0.2,0.7-0.1,0.9,0.3l0,0c0.2,0.3,0,0.7-0.3,0.9C93.9,76.7,93.8,76.7,93.7,76.7L93.7,76.7z M39.2,76.2c-0.3,0-0.6-0.3-0.7-0.6
		c0-0.4,0.2-0.7,0.6-0.8l0,0c0.3,0,0.6,0.3,0.7,0.6C39.8,75.8,39.6,76.2,39.2,76.2L39.2,76.2z M95.9,75.6c-0.4,0-0.7-0.4-0.6-0.7
		c0-0.2,0.1-0.4,0.3-0.5c0.3-0.2,0.7-0.1,0.9,0.2l0,0c0.2,0.3,0,0.7-0.3,0.9C96.1,75.6,96,75.6,95.9,75.6L95.9,75.6z M98,74.4
		c-0.2,0-0.4-0.1-0.6-0.3c-0.2-0.3-0.1-0.7,0.2-0.9c0.3-0.3,0.7-0.3,1,0s0.3,0.7,0,1c-0.1,0.1-0.2,0.2-0.3,0.2
		C98.3,74.4,98.2,74.4,98,74.4L98,74.4z M38.9,73.7c-0.3,0-0.6-0.2-0.7-0.6s0.2-0.7,0.6-0.8c0.4,0,0.7,0.2,0.7,0.6
		C39.6,73.3,39.4,73.7,38.9,73.7C39,73.7,39,73.7,38.9,73.7L38.9,73.7z M100.1,73c-0.4,0-0.7-0.4-0.6-0.7c0-0.2,0.1-0.4,0.3-0.5
		c0.3-0.2,0.7-0.1,0.9,0.2l0,0c0.2,0.3,0.1,0.7-0.2,0.9C100.4,73,100.3,73.1,100.1,73L100.1,73z M102.2,71.6c-0.4,0-0.7-0.4-0.6-0.7
		c0-0.2,0.1-0.3,0.2-0.5c0.3-0.2,0.7-0.2,1,0.1c0.2,0.3,0.1,0.7-0.1,0.9C102.5,71.6,102.3,71.7,102.2,71.6L102.2,71.6z M38.6,71.2
		c-0.3,0-0.6-0.2-0.7-0.6s0.2-0.7,0.6-0.8l0,0c0.4-0.1,0.7,0.2,0.8,0.6C39.3,70.9,39.1,71.2,38.6,71.2L38.6,71.2z M104.1,70.1
		c-0.4,0-0.7-0.4-0.6-0.7c0-0.2,0.1-0.3,0.2-0.4c0.3-0.3,0.7-0.3,1,0l0,0c0.2,0.3,0.2,0.7-0.1,0.9C104.5,70,104.3,70.1,104.1,70.1
		L104.1,70.1z M38.5,68.9c-0.4,0-0.7-0.3-0.7-0.7c0-0.4,0.3-0.7,0.7-0.7c0.4,0,0.6,0.3,0.6,0.7C39.2,68.5,38.9,68.8,38.5,68.9z
		 M105.9,68.5c-0.2,0-0.3-0.1-0.4-0.2c-0.3-0.3-0.3-0.7,0-0.9c0.2-0.3,0.7-0.3,1-0.1l0,0c0.2,0.3,0.2,0.7,0,0.9
		C106.3,68.4,106.1,68.5,105.9,68.5L105.9,68.5z M107.5,66.6c-0.4,0-0.7-0.3-0.7-0.7c0-0.4,0.3-0.7,0.7-0.7c0.1,0,0.3,0.1,0.4,0.1
		c0.3,0.2,0.3,0.6,0.1,0.9C107.9,66.5,107.7,66.6,107.5,66.6L107.5,66.6z M38.7,66.4c-0.4,0-0.7-0.3-0.7-0.7s0.3-0.7,0.7-0.7
		c0.4,0,0.6,0.4,0.6,0.7C39.3,66.1,39,66.4,38.7,66.4L38.7,66.4z M108.9,64.6c-0.1,0-0.2,0-0.3-0.1c-0.3-0.2-0.4-0.6-0.2-0.9
		c0.1-0.4,0.5-0.5,0.9-0.4s0.5,0.5,0.4,0.9c0,0.1-0.1,0.1-0.1,0.2C109.4,64.4,109.2,64.5,108.9,64.6L108.9,64.6z M38.9,63.9
		c-0.4,0-0.7-0.3-0.7-0.7s0.3-0.7,0.7-0.7c0.3,0,0.6,0.3,0.6,0.7C39.5,63.6,39.2,63.9,38.9,63.9z M110.1,62.3
		c-0.4,0-0.7-0.3-0.7-0.7s0.3-0.7,0.7-0.7c0.1,0,0.2,0,0.3,0.1c0.3,0.2,0.5,0.5,0.3,0.9C110.6,62.2,110.3,62.3,110.1,62.3
		L110.1,62.3z M39.1,61.4c-0.4,0-0.7-0.3-0.7-0.7s0.3-0.7,0.7-0.7c0.4,0,0.7,0.3,0.7,0.7C39.7,61.1,39.4,61.4,39.1,61.4z M111,60.1
		c-0.1,0-0.1,0-0.2,0c-0.4-0.1-0.6-0.5-0.5-0.8c0.1-0.4,0.5-0.6,0.8-0.5c0.4,0.1,0.6,0.5,0.5,0.8C111.5,59.9,111.3,60,111,60.1
		L111,60.1z M39.1,59c-0.4,0-0.7-0.3-0.7-0.7s0.3-0.7,0.7-0.7s0.7,0.3,0.7,0.7S39.5,59,39.1,59z M111.6,57.7h-0.1
		c-0.3-0.1-0.6-0.4-0.5-0.8c0.1-0.4,0.4-0.6,0.8-0.5c0.4,0.1,0.6,0.4,0.5,0.8C112.2,57.4,112,57.7,111.6,57.7z M39,56.5
		c-0.4,0-0.7-0.3-0.7-0.7s0.3-0.7,0.7-0.7c0.4,0,0.7,0.2,0.7,0.6C39.7,56.1,39.4,56.4,39,56.5L39,56.5z M112,55.2L112,55.2
		c-0.5,0-0.7-0.4-0.7-0.7c0-0.4,0.4-0.6,0.7-0.6c0.4,0,0.6,0.4,0.6,0.7C112.7,55,112.4,55.2,112,55.2z M38.6,54
		c-0.3,0-0.6-0.2-0.7-0.5l0.7-0.1l-0.7,0.1c-0.1-0.4,0.1-0.7,0.5-0.8s0.7,0.2,0.8,0.5c0.1,0.4-0.1,0.7-0.5,0.8H38.6z M112.2,52.7
		c-0.4,0-0.7-0.3-0.7-0.7s0.3-0.7,0.7-0.7s0.7,0.3,0.7,0.7C112.9,52.4,112.6,52.7,112.2,52.7z M37.9,51.7c-0.3,0-0.5-0.2-0.6-0.4
		c-0.2-0.3,0-0.7,0.4-0.9c0.3-0.2,0.7,0,0.9,0.4c0.2,0.3,0,0.7-0.4,0.9l0,0C38.1,51.7,38,51.7,37.9,51.7z M112.2,50.3
		c-0.4,0-0.6-0.3-0.7-0.6c0-0.4,0.2-0.7,0.6-0.7l0,0c0.4,0,0.7,0.3,0.7,0.6C112.9,49.9,112.6,50.2,112.2,50.3L112.2,50.3z
		 M36.7,49.5c-0.2,0-0.4-0.1-0.5-0.3c-0.2-0.3-0.2-0.7,0.1-1l0,0c0.3-0.2,0.7-0.1,1,0.2c0.2,0.3,0.1,0.7-0.2,1
		C37,49.5,36.8,49.5,36.7,49.5z M112,47.8c-0.3,0-0.6-0.2-0.7-0.6c-0.1-0.4,0.2-0.7,0.6-0.8l0,0c0.4,0,0.7,0.2,0.8,0.6
		S112.4,47.8,112,47.8L112,47.8z M35,47.7c-0.2,0-0.3-0.1-0.4-0.1c-0.3-0.2-0.4-0.7-0.1-1c0.2-0.3,0.7-0.4,1-0.1
		c0.3,0.2,0.4,0.7,0.1,1l0,0C35.4,47.7,35.2,47.7,35,47.7z M32.9,46.5c-0.4,0-0.7-0.2-0.8-0.6c0-0.4,0.2-0.7,0.6-0.8
		c0.1,0,0.3,0,0.4,0.1c0.3,0.2,0.5,0.6,0.3,0.9C33.3,46.3,33.1,46.4,32.9,46.5z M30.6,45.7c-0.1,0-0.1,0-0.2,0
		c-0.4-0.1-0.6-0.4-0.5-0.8c0.1-0.4,0.4-0.6,0.8-0.5s0.6,0.4,0.5,0.8l0,0C31.1,45.5,30.9,45.6,30.6,45.7L30.6,45.7z M111.6,45.4
		c-0.3,0-0.6-0.2-0.7-0.5c-0.1-0.4,0.2-0.7,0.5-0.8l0,0c0.4-0.1,0.7,0.2,0.8,0.5C112.3,44.9,112.1,45.3,111.6,45.4L111.6,45.4z
		 M28.2,45c-0.1,0-0.1,0-0.2,0c-0.4-0.1-0.6-0.5-0.5-0.8c0.1-0.4,0.5-0.6,0.8-0.5c0.4,0.1,0.6,0.5,0.5,0.8l0,0
		C28.7,44.8,28.5,45,28.2,45z M25.8,44.2c-0.1,0-0.2,0-0.2,0c-0.4-0.1-0.5-0.5-0.4-0.9l0,0c0.1-0.3,0.5-0.5,0.9-0.4
		c0.3,0.2,0.5,0.6,0.3,0.9C26.3,44,26.1,44.2,25.8,44.2z M23.6,43.2c-0.1,0-0.2,0-0.3-0.1c-0.3-0.2-0.5-0.6-0.3-0.9
		c0.2-0.3,0.6-0.5,0.9-0.3c0.3,0.2,0.5,0.6,0.3,0.9l0,0C24.1,43,23.8,43.2,23.6,43.2z M111.2,42.9c-0.3,0-0.6-0.2-0.7-0.5
		c-0.1-0.4,0.1-0.7,0.5-0.8l0,0c0.4-0.1,0.7,0.1,0.8,0.5s-0.1,0.7-0.5,0.8l0,0C111.2,42.9,111.2,42.9,111.2,42.9z M21.4,42
		c-0.1,0-0.2,0-0.3-0.1c-0.3-0.2-0.4-0.6-0.3-0.9c0.2-0.3,0.6-0.4,0.9-0.3c0.3,0.2,0.4,0.6,0.3,0.9l0,0C21.8,41.9,21.6,42,21.4,42z
		 M19.4,40.6c-0.1,0-0.3-0.1-0.4-0.1c-0.3-0.2-0.4-0.6-0.2-1l0,0c0.2-0.3,0.6-0.3,0.9-0.1c0.3,0.2,0.4,0.6,0.2,1l0,0
		C19.8,40.5,19.6,40.6,19.4,40.6L19.4,40.6z M110.5,40.5c-0.3,0-0.6-0.2-0.6-0.5c-0.1-0.4,0.1-0.7,0.5-0.9l0,0
		c0.4-0.1,0.7,0.1,0.8,0.5s-0.1,0.7-0.4,0.9l0,0H110.5z M17.5,39c-0.4,0-0.7-0.3-0.7-0.7c0-0.2,0.1-0.4,0.2-0.5c0.3-0.3,0.7-0.3,1,0
		s0.3,0.7,0,1C17.9,38.9,17.7,38.9,17.5,39z M109.9,38.2c-0.4,0.1-0.7-0.2-0.8-0.6s0.2-0.7,0.6-0.8c0.3-0.1,0.7,0.1,0.8,0.4
		c0.1,0.4-0.1,0.7-0.4,0.9l0,0C110,38.1,109.9,38.2,109.9,38.2L109.9,38.2z M15.9,37.1c-0.4,0-0.7-0.3-0.7-0.7
		c0-0.2,0.1-0.4,0.3-0.5c0.3-0.2,0.7-0.2,0.9,0.1s0.2,0.7-0.1,1C16.2,37,16,37.1,15.9,37.1z M65.1,36.9c-0.4-0.1-0.6-0.4-0.5-0.8
		c0-0.2,0.2-0.4,0.5-0.5s0.7,0,0.9,0.4c0.1,0.3,0,0.7-0.4,0.9c-0.1,0-0.2,0.1-0.3,0L65.1,36.9z M62.6,36.9L62.6,36.9
		c-0.5,0-0.7-0.4-0.7-0.7c0.1-0.4,0.4-0.6,0.7-0.6c0.4,0,0.7,0.4,0.6,0.7l0,0C63.2,36.7,63,36.9,62.6,36.9L62.6,36.9z M67.5,36.4
		c-0.4,0-0.6-0.4-0.6-0.8c0-0.2,0.2-0.4,0.4-0.5c0.4-0.1,0.7,0,0.9,0.4l0,0c0.1,0.3-0.1,0.7-0.4,0.8C67.7,36.4,67.6,36.4,67.5,36.4
		L67.5,36.4z M60.3,36.2c-0.1,0-0.2,0-0.3-0.1c-0.3-0.1-0.5-0.5-0.4-0.9l0,0c0.2-0.3,0.5-0.5,0.9-0.3c0.3,0.2,0.5,0.6,0.3,0.9
		C60.7,36.1,60.5,36.2,60.3,36.2z M109.1,35.8c-0.3,0-0.5-0.2-0.6-0.4c-0.1-0.4,0-0.7,0.4-0.9s0.7,0,0.9,0.4c0.1,0.4,0,0.7-0.4,0.9
		l0,0C109.2,35.8,109.1,35.8,109.1,35.8L109.1,35.8z M69.8,35.5c-0.4,0-0.7-0.3-0.7-0.7s0.3-0.7,0.7-0.7c0.3,0,0.5,0.2,0.6,0.4
		c0.2,0.3,0,0.7-0.3,0.9C70,35.4,69.9,35.5,69.8,35.5z M14.5,35c-0.2,0-0.5-0.1-0.6-0.3c-0.2-0.3-0.1-0.7,0.2-0.9l0,0
		c0.3-0.2,0.8-0.1,0.9,0.3c0.2,0.3,0.1,0.8-0.3,0.9C14.8,35,14.7,35,14.5,35z M58.2,34.9c-0.2,0-0.3-0.1-0.4-0.2
		c-0.3-0.2-0.3-0.7-0.1-1l0,0c0.2-0.3,0.7-0.3,1-0.1s0.3,0.7,0.1,1C58.6,34.8,58.4,34.9,58.2,34.9z M71.9,34.1
		c-0.4,0-0.7-0.4-0.6-0.7c0-0.2,0.1-0.4,0.2-0.5c0.3-0.2,0.7-0.2,1,0.1l0,0c0.2,0.3,0.1,0.7-0.1,0.9S72,34.1,71.9,34.1z M108.2,33.4
		c-0.4,0-0.7-0.3-0.7-0.7s0.3-0.7,0.7-0.7c0.3,0,0.6,0.2,0.7,0.4c0.1,0.3,0,0.7-0.4,0.9l0,0C108.4,33.4,108.3,33.5,108.2,33.4
		L108.2,33.4z M56.6,33c-0.4,0-0.7-0.3-0.7-0.7c0-0.2,0.1-0.4,0.3-0.6c0.3-0.2,0.7-0.1,0.9,0.2c0.2,0.3,0.1,0.7-0.2,1
		C56.8,32.9,56.7,33,56.6,33z M13.5,32.8c-0.4,0-0.7-0.3-0.7-0.7c0-0.3,0.2-0.5,0.4-0.6c0.3-0.1,0.7,0,0.9,0.4
		c0.2,0.3,0,0.7-0.3,0.9c0,0,0,0-0.1,0C13.7,32.8,13.6,32.8,13.5,32.8z M73.8,32.5c-0.4,0-0.7-0.4-0.6-0.7c0-0.1,0.1-0.3,0.2-0.4
		c0.3-0.3,0.7-0.3,1,0l0,0c0.2,0.3,0.2,0.7,0,0.9C74.1,32.5,74,32.6,73.8,32.5L73.8,32.5z M107.3,31.2c-0.4,0-0.7-0.3-0.7-0.7
		c0-0.4,0.3-0.7,0.7-0.7c0.3,0,0.5,0.1,0.6,0.4c0.2,0.3,0,0.7-0.3,0.9l0,0C107.5,31.2,107.4,31.2,107.3,31.2L107.3,31.2z M55.4,30.9
		c-0.4,0-0.7-0.3-0.7-0.7c0-0.3,0.2-0.5,0.4-0.6c0.3-0.1,0.7,0,0.9,0.3c0.2,0.3,0,0.7-0.3,0.9C55.5,30.9,55.5,30.9,55.4,30.9
		L55.4,30.9z M75.5,30.7c-0.1,0-0.3,0-0.4-0.1c-0.3-0.2-0.4-0.7-0.1-1c0.2-0.3,0.7-0.4,1-0.1c0.3,0.2,0.3,0.6,0.1,0.9
		C75.9,30.6,75.7,30.7,75.5,30.7z M12.9,30.4c-0.4,0-0.7-0.2-0.8-0.6c0-0.4,0.2-0.7,0.6-0.8c0.4-0.1,0.7,0.1,0.8,0.5
		s-0.1,0.7-0.5,0.8l0,0L12.9,30.4z M106.3,28.9c-0.3,0-0.5-0.2-0.6-0.4c-0.2-0.3,0-0.7,0.3-0.9c0.3-0.2,0.7,0,0.9,0.3s0,0.7-0.3,0.9
		C106.5,28.9,106.4,28.9,106.3,28.9L106.3,28.9z M76.8,28.7c-0.1,0-0.2,0-0.3-0.1c-0.3-0.2-0.4-0.6-0.3-0.9c0.2-0.3,0.6-0.5,0.9-0.3
		l0,0c0.3,0.2,0.4,0.6,0.3,0.9C77.3,28.5,77.1,28.7,76.8,28.7z M54.6,28.6c-0.3,0-0.6-0.2-0.6-0.5c-0.1-0.4,0.1-0.7,0.5-0.8l0,0
		c0.4-0.1,0.7,0.2,0.8,0.5c0.1,0.4-0.1,0.7-0.5,0.8l0,0H54.6z M12.5,28c-0.3,0-0.6-0.3-0.7-0.6c0-0.4,0.2-0.7,0.6-0.7
		c0.3,0,0.6,0.3,0.7,0.6C13.1,27.6,12.9,27.9,12.5,28z M105.2,26.7c-0.3,0-0.5-0.1-0.6-0.4c-0.3-0.3-0.2-0.7,0-1
		c0.3-0.3,0.7-0.2,1,0c0.1,0.1,0.1,0.2,0.2,0.3c0.2,0.3,0.1,0.7-0.3,0.9l0,0C105.4,26.7,105.3,26.7,105.2,26.7z M77.8,26.4
		c-0.1,0-0.1,0-0.2,0c-0.3-0.1-0.5-0.5-0.4-0.8c0.1-0.4,0.5-0.6,0.9-0.4c0.3,0.1,0.5,0.5,0.4,0.8C78.3,26.2,78.1,26.4,77.8,26.4
		L77.8,26.4z M54.3,26.1c-0.4,0-0.7-0.3-0.7-0.6c0-0.4,0.3-0.7,0.6-0.7l0,0c0.4,0,0.7,0.3,0.7,0.6C55,25.7,54.7,26.1,54.3,26.1
		L54.3,26.1z M12.4,25.5c-0.4,0-0.7-0.3-0.7-0.7s0.3-0.7,0.7-0.7s0.6,0.3,0.6,0.7C13.1,25.1,12.8,25.4,12.4,25.5z M104,24.5
		c-0.2,0-0.4-0.1-0.6-0.3c-0.2-0.3-0.1-0.7,0.2-0.9c0.3-0.2,0.7-0.1,0.9,0.2c0.2,0.3,0.1,0.7-0.2,0.9
		C104.3,24.5,104.2,24.5,104,24.5z M78.4,24L78.4,24c-0.5-0.1-0.7-0.4-0.7-0.7c0-0.4,0.4-0.6,0.7-0.6l0,0c0.4,0.1,0.6,0.4,0.6,0.7
		S78.7,24,78.4,24z M54.4,23.6L54.4,23.6c-0.5-0.1-0.7-0.4-0.7-0.7c0-0.4,0.4-0.6,0.8-0.6c0.3,0.1,0.6,0.4,0.6,0.7
		C55,23.3,54.8,23.6,54.4,23.6z M12.7,23L12.7,23c-0.5-0.1-0.7-0.4-0.6-0.8c0-0.4,0.4-0.6,0.8-0.6c0.4,0.1,0.6,0.4,0.6,0.7
		C13.3,22.8,13,23,12.7,23z M102.8,22.4c-0.2,0-0.4-0.1-0.5-0.3c-0.2-0.3-0.1-0.7,0.2-0.9c0.3-0.2,0.7-0.1,0.9,0.2
		c0.2,0.3,0.1,0.7-0.2,0.9C103,22.4,102.9,22.4,102.8,22.4z M78.5,21.5c-0.3,0-0.6-0.3-0.7-0.6c0-0.4,0.2-0.7,0.6-0.8l0,0
		c0.4,0,0.6,0.3,0.7,0.6C79.1,21.2,78.9,21.5,78.5,21.5L78.5,21.5z M55,21.2c-0.1,0-0.1,0-0.2,0c-0.3-0.1-0.5-0.5-0.4-0.8
		c0.1-0.4,0.5-0.6,0.8-0.5l0,0c0.3,0.1,0.5,0.5,0.4,0.8C55.6,21,55.3,21.2,55,21.2z M13.2,20.6c-0.1,0-0.1,0-0.2,0
		c-0.3-0.1-0.6-0.5-0.5-0.8c0-0.4,0.3-0.7,0.7-0.7s0.7,0.3,0.7,0.7c0,0.1,0,0.2-0.1,0.3C13.8,20.4,13.5,20.6,13.2,20.6L13.2,20.6z
		 M101.4,20.4c-0.2,0-0.4-0.1-0.5-0.3c-0.2-0.3-0.2-0.7,0.1-1l0,0c0.3-0.2,0.7-0.1,0.9,0.1c0.2,0.3,0.2,0.7-0.1,1l0,0
		C101.6,20.3,101.5,20.4,101.4,20.4z M78,19.1c-0.3,0-0.6-0.2-0.6-0.5c-0.1-0.4,0.1-0.7,0.4-0.9l0,0c0.4-0.1,0.7,0.1,0.8,0.5
		c0.1,0.4-0.1,0.7-0.5,0.8C78.2,19.1,78.1,19.1,78,19.1z M56,19c-0.1,0-0.2,0-0.3-0.1c-0.3-0.2-0.4-0.6-0.3-0.9
		c0.2-0.3,0.6-0.5,0.9-0.3l0,0c0.3,0.2,0.4,0.6,0.3,0.9C56.5,18.8,56.3,18.9,56,19L56,19z M99.8,18.4c-0.2,0-0.4-0.1-0.5-0.2
		c-0.3-0.3-0.2-0.7,0-1c0.3-0.3,0.7-0.2,1,0s0.2,0.7,0,1l0,0C100.1,18.4,100,18.4,99.8,18.4z M14,18.3c-0.1,0-0.2,0-0.2,0
		c-0.3-0.1-0.5-0.5-0.4-0.9s0.5-0.5,0.9-0.4c0.3,0.1,0.5,0.5,0.4,0.8C14.6,18,14.3,18.2,14,18.3z M57.3,16.8c-0.4,0-0.7-0.3-0.6-0.7
		c0-0.1,0-0.2,0.1-0.3c0.2-0.3,0.6-0.4,0.9-0.2s0.4,0.6,0.2,0.9C57.7,16.7,57.5,16.8,57.3,16.8z M77.2,16.8c-0.3,0-0.5-0.2-0.6-0.4
		c-0.2-0.3,0-0.7,0.3-0.9l0,0c0.3-0.1,0.7,0,0.9,0.3c0.2,0.3,0,0.7-0.3,0.9l0,0C77.4,16.8,77.3,16.8,77.2,16.8z M98.1,16.6
		c-0.2,0-0.3-0.1-0.5-0.2c-0.3-0.3-0.3-0.7,0-1s0.7-0.3,1,0s0.3,0.7,0,1C98.5,16.6,98.3,16.6,98.1,16.6z M15,16
		c-0.1,0-0.2,0-0.3-0.1c-0.3-0.2-0.4-0.5-0.3-0.8c0.1-0.4,0.4-0.6,0.8-0.5c0.4,0.1,0.6,0.4,0.5,0.8c0,0.1-0.1,0.2-0.1,0.3
		C15.5,15.8,15.3,16,15,16L15,16z M96.3,14.9c-0.2,0-0.3-0.1-0.4-0.2c-0.3-0.2-0.3-0.7-0.1-1c0.2-0.3,0.6-0.3,0.9-0.1
		c0.3,0.2,0.3,0.7,0.1,1C96.7,14.8,96.5,14.9,96.3,14.9L96.3,14.9z M58.8,14.8c-0.2,0-0.3-0.1-0.4-0.2c-0.3-0.2-0.3-0.7-0.1-0.9
		c0.2-0.3,0.7-0.3,1-0.1l0,0c0.3,0.2,0.3,0.7,0.1,0.9C59.2,14.8,59,14.9,58.8,14.8L58.8,14.8z M76,14.6c-0.2,0-0.4-0.1-0.6-0.3
		c-0.2-0.3-0.1-0.7,0.2-0.9c0.3-0.2,0.7-0.1,0.9,0.2c0.2,0.3,0.1,0.7-0.2,0.9l0,0C76.3,14.5,76.2,14.6,76,14.6L76,14.6z M16.2,13.8
		c-0.4,0-0.7-0.3-0.7-0.7s0.3-0.7,0.7-0.7c0.4,0,0.7,0.3,0.7,0.7c0,0.1,0,0.2-0.1,0.3C16.7,13.7,16.5,13.8,16.2,13.8z M94.4,13.4
		c-0.4,0-0.7-0.3-0.7-0.7c0-0.1,0-0.3,0.1-0.4c0.2-0.3,0.6-0.3,0.9-0.1s0.4,0.7,0.1,1C94.7,13.3,94.6,13.4,94.4,13.4z M60.5,13.1
		c-0.4,0-0.7-0.3-0.6-0.7c0-0.2,0.1-0.3,0.2-0.4c0.3-0.3,0.7-0.3,1,0l0,0c0.2,0.3,0.2,0.7,0,0.9C60.9,13,60.7,13.1,60.5,13.1z
		 M74.5,12.6c-0.4,0-0.7-0.3-0.7-0.7c0-0.2,0.1-0.4,0.2-0.5c0.3-0.2,0.7-0.2,0.9,0.1c0.3,0.3,0.3,0.7,0,1
		C74.9,12.6,74.7,12.6,74.5,12.6z M92.3,12c-0.1,0-0.2,0-0.3-0.1c-0.3-0.2-0.4-0.6-0.2-0.9c0.2-0.3,0.6-0.4,0.9-0.2s0.4,0.6,0.2,0.9
		C92.7,11.9,92.5,12,92.3,12L92.3,12z M17.7,11.8c-0.4,0-0.7-0.3-0.6-0.7c0-0.1,0-0.2,0.1-0.3c0.2-0.3,0.6-0.4,1-0.2l0,0
		c0.3,0.2,0.3,0.6,0.1,0.9C18.1,11.7,17.9,11.8,17.7,11.8z M62.4,11.5c-0.4,0-0.7-0.4-0.6-0.7c0-0.2,0.1-0.3,0.2-0.5
		c0.3-0.2,0.7-0.2,1,0.1c0.2,0.3,0.2,0.7-0.1,0.9C62.8,11.4,62.6,11.5,62.4,11.5z M72.8,10.9c-0.2,0-0.3-0.1-0.4-0.2
		c-0.3-0.2-0.3-0.7-0.1-1c0.2-0.3,0.7-0.3,1-0.1s0.3,0.7,0.1,1C73.2,10.8,73,10.9,72.8,10.9z M90.2,10.7c-0.1,0-0.2,0-0.3-0.1
		c-0.3-0.2-0.5-0.6-0.3-0.9c0.2-0.3,0.6-0.4,0.9-0.3c0.3,0.2,0.4,0.6,0.2,0.9C90.6,10.6,90.4,10.7,90.2,10.7L90.2,10.7z M64.5,10.1
		c-0.2,0-0.4-0.1-0.6-0.3c-0.2-0.3-0.1-0.7,0.2-0.9c0.3-0.2,0.7-0.1,0.9,0.2l0,0c0.2,0.3,0.1,0.7-0.2,0.9
		C64.7,10.1,64.6,10.1,64.5,10.1z M19.3,9.9c-0.4,0-0.7-0.3-0.6-0.7c0-0.1,0.1-0.3,0.2-0.4c0.2-0.3,0.6-0.5,0.9-0.3s0.5,0.6,0.3,0.9
		C20,9.5,20,9.6,19.9,9.6C19.7,9.9,19.5,9.9,19.3,9.9z M88,9.6c-0.1,0-0.2,0-0.3-0.1c-0.3-0.2-0.5-0.6-0.3-0.9l0,0
		c0.2-0.3,0.6-0.5,0.9-0.3s0.5,0.6,0.3,0.9C88.5,9.4,88.3,9.6,88,9.6z M70.9,9.4c-0.1,0-0.3,0-0.4-0.1c-0.3-0.2-0.4-0.6-0.2-0.9
		s0.6-0.4,0.9-0.2c0.3,0.2,0.4,0.6,0.2,0.9l0,0C71.3,9.2,71.1,9.3,70.9,9.4L70.9,9.4z M66.6,8.9c-0.4,0-0.6-0.4-0.6-0.7
		c0-0.2,0.1-0.4,0.3-0.5c0.4-0.2,0.8-0.1,1,0.3c0.2,0.3,0,0.7-0.3,0.9C66.9,8.9,66.8,8.9,66.6,8.9L66.6,8.9z M85.8,8.6
		c-0.1,0-0.2,0-0.3-0.1C85.1,8.4,85,8,85.1,7.6l0,0c0.1-0.3,0.5-0.5,0.9-0.4c0.3,0.1,0.5,0.5,0.4,0.9l0,0C86.3,8.4,86,8.5,85.8,8.6
		L85.8,8.6z M21.1,8.3c-0.2,0-0.4-0.1-0.5-0.2c-0.2-0.3-0.2-0.7,0.1-0.9c0.3-0.3,0.7-0.2,1,0.1l0,0c0.2,0.3,0.2,0.7-0.1,0.9
		C21.4,8.2,21.3,8.3,21.1,8.3L21.1,8.3z M68.8,8c-0.1,0-0.2,0-0.3-0.1C68.2,7.7,68,7.3,68.2,7l0,0c0.1-0.2,0.2-0.3,0.4-0.3h0.1
		c0.3-0.1,0.7,0,0.9,0.4l0,0c0.1,0.3,0,0.7-0.4,0.8C69.1,8,68.9,8,68.8,8L68.8,8z M83.5,7.6c-0.1,0-0.2,0-0.2,0
		c-0.4-0.1-0.5-0.5-0.4-0.9c0.1-0.3,0.5-0.5,0.9-0.4c0.3,0.2,0.5,0.6,0.3,0.9C83.9,7.5,83.7,7.6,83.5,7.6z M71.3,7.2
		c-0.4-0.1-0.6-0.4-0.6-0.8c0-0.2,0.2-0.4,0.4-0.5c0.3-0.2,0.7-0.1,0.9,0.2c0.2,0.3,0.1,0.7-0.2,0.9c-0.1,0.1-0.2,0.1-0.3,0.1
		C71.4,7.2,71.3,7.2,71.3,7.2L71.3,7.2z M81.1,6.9h-0.2c-0.4-0.1-0.6-0.4-0.5-0.8l0,0c0.1-0.4,0.4-0.6,0.8-0.5s0.6,0.4,0.5,0.8l0,0
		C81.7,6.7,81.4,6.9,81.1,6.9z M66.6,6.9c-0.4,0-0.7-0.3-0.7-0.7c0-0.1,0-0.2,0.1-0.3c0.2-0.3,0.5-0.5,0.9-0.3
		c0.3,0.1,0.5,0.5,0.4,0.9l0,0C67.1,6.7,66.9,6.9,66.6,6.9z M23.2,6.9c-0.4,0-0.7-0.3-0.7-0.7c0-0.4,0.3-0.7,0.7-0.7
		s0.7,0.3,0.7,0.7c0,0.2-0.1,0.4-0.3,0.6C23.4,6.8,23.3,6.8,23.2,6.9L23.2,6.9z M73.7,6.7c-0.3,0-0.6-0.2-0.7-0.6s0.2-0.7,0.6-0.8
		c0.4-0.1,0.7,0.2,0.8,0.6c0,0.4-0.2,0.7-0.6,0.7L73.7,6.7z M78.7,6.5c-0.4,0-0.7-0.3-0.7-0.7l0,0c0-0.4,0.4-0.7,0.7-0.6
		s0.7,0.4,0.6,0.7C79.3,6.2,79,6.5,78.7,6.5L78.7,6.5z M76.2,6.4c-0.4,0-0.7-0.3-0.7-0.6c0-0.4,0.3-0.7,0.6-0.7
		c0.4,0,0.7,0.3,0.7,0.6C76.9,6.1,76.6,6.4,76.2,6.4L76.2,6.4z M64.3,5.9c-0.1,0-0.2,0-0.2,0c-0.4-0.1-0.6-0.5-0.4-0.9l0,0
		c0.1-0.3,0.5-0.5,0.9-0.4s0.5,0.5,0.4,0.9C64.8,5.8,64.6,5.9,64.3,5.9L64.3,5.9z M25.4,5.7c-0.3,0-0.5-0.2-0.6-0.4
		c-0.1-0.3,0-0.7,0.4-0.9c0.3-0.2,0.7,0,0.9,0.3c0.1,0.3,0,0.7-0.4,0.9C25.5,5.7,25.4,5.7,25.4,5.7L25.4,5.7z M62,5.1
		c-0.1,0-0.1,0-0.2,0c-0.4,0-0.7-0.3-0.7-0.7s0.3-0.7,0.7-0.7c0.1,0,0.2,0,0.3,0.1c0.4,0.1,0.6,0.5,0.5,0.8l0,0
		C62.5,4.9,62.2,5.1,62,5.1L62,5.1z M27.7,4.9c-0.4,0-0.7-0.3-0.7-0.7c0-0.4,0.3-0.7,0.7-0.7c0.3,0,0.6,0.2,0.6,0.5
		C28.4,4.3,28.2,4.7,27.7,4.9C27.8,4.9,27.7,4.9,27.7,4.9L27.7,4.9z M59.6,4.5c-0.1,0-0.1,0-0.2,0c-0.4-0.1-0.6-0.4-0.5-0.8l0,0
		c0.1-0.3,0.5-0.6,0.8-0.5c0.4,0,0.6,0.4,0.5,0.8C60.1,4.2,59.9,4.4,59.6,4.5L59.6,4.5z M30.1,4.3c-0.4-0.1-0.6-0.4-0.6-0.8
		c0-0.2,0.2-0.4,0.4-0.5c0.4-0.1,0.7,0.1,0.8,0.5l0,0c0.1,0.4-0.1,0.7-0.5,0.8C30.2,4.2,30.1,4.2,30.1,4.3L30.1,4.3z M57.2,3.9
		L57.2,3.9c-0.5-0.1-0.7-0.4-0.7-0.8c0.1-0.4,0.4-0.6,0.8-0.5c0.4,0.1,0.6,0.4,0.6,0.8l0,0C57.7,3.7,57.5,3.9,57.2,3.9L57.2,3.9z
		 M32.5,3.8c-0.4-0.1-0.6-0.4-0.6-0.8c0-0.2,0.2-0.4,0.4-0.5C32.7,2.4,33,2.7,33.1,3l0,0c0.1,0.4-0.2,0.7-0.5,0.8
		C32.6,3.7,32.5,3.7,32.5,3.8L32.5,3.8z M54.7,3.5L54.7,3.5c-0.5,0-0.7-0.4-0.7-0.8l0,0c0.1-0.4,0.4-0.6,0.8-0.6s0.6,0.4,0.6,0.8
		l0,0C55.3,3.2,55,3.5,54.7,3.5z M35,3.3c-0.3,0-0.6-0.2-0.7-0.6c0-0.4,0.2-0.7,0.6-0.7c0.4-0.1,0.7,0.2,0.8,0.6l0,0
		c0,0.4-0.2,0.7-0.6,0.7H35z M52.3,3.1L52.3,3.1c-0.5,0-0.7-0.4-0.7-0.7c0-0.4,0.4-0.6,0.7-0.6c0.4,0,0.7,0.4,0.6,0.7l0,0
		C52.9,2.9,52.6,3.1,52.3,3.1z M37.4,3c-0.4-0.1-0.6-0.4-0.5-0.8c0-0.2,0.2-0.4,0.4-0.5c0.3-0.1,0.7,0,0.9,0.4
		c0.1,0.3,0,0.7-0.4,0.9C37.7,3,37.6,3.1,37.4,3L37.4,3z M49.8,2.9c-0.4,0-0.7-0.3-0.7-0.7c0-0.3,0.3-0.6,0.7-0.6
		c0.4,0,0.7,0.3,0.7,0.7l0,0C50.5,2.6,50.1,2.9,49.8,2.9L49.8,2.9z M39.9,2.8c-0.4,0-0.7-0.3-0.6-0.7s0.3-0.7,0.7-0.6
		c0.4,0,0.7,0.3,0.6,0.7C40.6,2.5,40.3,2.8,39.9,2.8L39.9,2.8z M47.4,2.7c-0.4,0-0.7-0.3-0.7-0.7s0.3-0.7,0.7-0.7s0.7,0.3,0.7,0.7
		S47.7,2.7,47.4,2.7z M42.4,2.7c-0.4-0.1-0.6-0.5-0.5-0.8c0.1-0.2,0.3-0.4,0.5-0.5c0.4-0.1,0.7,0.1,0.9,0.4c0.1,0.4-0.1,0.7-0.4,0.9
		C42.7,2.7,42.6,2.7,42.4,2.7L42.4,2.7z M44.9,2.7c-0.4,0-0.7-0.3-0.7-0.7s0.3-0.7,0.7-0.7s0.7,0.3,0.7,0.7
		C45.6,2.4,45.3,2.7,44.9,2.7L44.9,2.7L44.9,2.7z"/>
	<path class="st2" d="M41.3,102.3l38.1,4.1c0,0,9.9,3.9,16,2.4c6-1.5,10-7,8.8-14.4C103,87,96.3,66.1,90.5,60.3S70,50.4,70,50.4
		c-1-1-1.8-2.2-2.3-3.6c-0.4-1.1-0.6-2.2-0.6-3.4c0,0,2.5-1.6,2.6-3.2c0.1-1.6,0.8-1.5,0.8-1.5s4.4-7.5,0-13.1
		c-4.3-5.6-4.9-4.5-4.9-4.5l1.5-3.5L64.4,19l-1.2-3.9l-1.4,3.5c0,0-8.6-2.8-13.3,1.4c-4.7,4.2-4.8,6.9-6.4,7.4c-1,0.3-2,0.5-3.1,0.5
		l1.4,2.7l-3,1.2c0,0,2.8,2.2,4.1,2.6c0.9,0.3,1.7,0.7,2.3,1.3c0.5,3.1,1.3,6.2,2.6,9.2c1,2.3,2.5,4.4,4.4,6.1c0,0-7.3,0.6-10,2.5
		S31.4,62,31.4,62S31,59,31,57.3s1.3-6.1,0.5-6.4c-0.4-0.2-0.9-0.2-1.3,0L25,57c0,0-13.3-3.9-14.2-2.7s0.1,2.9,0.1,2.9
		c-0.1,0.6-0.2,1.2-0.3,1.8c0,0.6,0.1,1.3,0.4,1.9c-0.1,0.5,0,1.1,0.2,1.5c0.2,0.6,0.5,1.2,0.8,1.7c0,0-0.6,3.3,1.9,5.4
		c2.4,2.1,4.9,3.5,4.6,4.1c-0.3,0.6-4.3,7.8-5.5,13.2c-1.2,5.3-2.1,11.1,2.9,13.7c5,2.5,11.3,0.3,14.7-2.2
		c3.4-2.5,9.7-13.2,9.7-13.2L41.3,102.3z"/>
	<path class="st3" d="M15.4,83.9c1.3,1.5,3.3,2.3,5.4,2.1c3.3-0.4,6.7-2.8,6.7-2.8s2.6-6.6,3.2-8.3c0.6-1.8,0.6-7.5,0.6-7.5
		s6-11,11.1-12.7c3.3-1.1,6.7-1.6,10.1-1.6c0,0,0.3,8.6,8.9,8s13.8-6.9,13.8-6.9s11.5,4,16,10.5s10.4,20.1,11,30
		c0.5,8.9-1.3,11.7-6,13.6c-5.2,2.1-11.5-0.4-11.5-0.4s2.1-3.8,2.4-6.9c0.1-2.7,0-5.4-0.4-8.1l-3.3-1.6l-13.9-3
		c0,0-0.5-9.9-3.6-12.4c-1.7-1.5-4.1-1.9-6.2-1.2l-6.4,0.6l-1.7,2.5l-2.6,7l5,6.6l8.9,2.7c0,0-0.4,1.8,0.4,2.8s11.4,7.3,12.5,7.6
		c1.1,0.3,1.7,2.1,1.7,2.1l-36.6-4.3l-0.3-17.7c0,0-5.1,11.4-10.9,14.2c-5.8,2.9-14.6,5-17.9-2.5c-1.8-4.1,2.6-14.1,2.6-14.1
		L15.4,83.9z"/>
	<path class="st4" d="M43.5,34.4l-3.9-2.5l3.1-0.3l-1.4-1.9c1.2-0.1,2.4-0.8,2.9-1.9c1-1.9,4.8-9.1,11.9-8.5
		c4.9,0.4,5.2,1.1,5.2,1.1l1.4-3.6l0.6,2.8c0,0,3.4-1.6,3.2-1.4c-0.2,0.3-1.3,3-1.3,3s6.6,5.6,6.3,10.2c-0.2,2.8-0.7,5.6-1.7,8.2
		c0,0-1.5-2.7-2.8-2.2c-0.7,0.6-1.4,1.4-1.7,2.3L64,41.6l-2.4-8.1c0,0-0.1-3-2.3-3s-5,1.9-8,2.7c-3,0.9-6.7-0.8-6.7-0.8L43.5,34.4z"
		/>
	<path class="st4" d="M57.1,40c0.5-0.1,1.1,0.2,1.2,0.7l0.4,1.4c0.1,0.5-0.2,1.1-0.7,1.2c-0.5,0.1-1.1-0.2-1.2-0.7l0,0l-0.4-1.4
		C56.3,40.7,56.6,40.1,57.1,40z"/>
	<path class="st4" d="M48.6,39.9c0.5-0.1,1.1,0.2,1.2,0.7l0.4,1.4c0.1,0.5-0.2,1.1-0.8,1.2c-0.5,0.1-1.1-0.2-1.2-0.7l-0.4-1.4
		C47.7,40.6,48,40.1,48.6,39.9z"/>
	<path class="st2" d="M14.7,48.4h11.6c0.8,0,1.5,0.6,1.6,1.4l-1.2,16.3c0,0.4-0.3,0.7-0.7,0.7H15.7c-0.4,0-0.2-0.6-0.2-1l-0.7-2
		l0.2-1.7l-0.9-3.9l-1-8.4C13.2,49,13.9,48.4,14.7,48.4z"/>
	<path class="st5" d="M26,67.5H15.7c-0.2,0-0.4-0.1-0.6-0.3c-0.2-0.3-0.3-0.7-0.2-1.1V66l-0.7-2l0.2-1.8l-0.8-3.8l-1-8.5
		c0.1-1.2,1-2.1,2.2-2h11.5c1.2-0.1,2.1,0.8,2.2,2l-1.2,16.3C27.3,66.9,26.7,67.5,26,67.5z M16.1,66.3H26c0,0,0.1,0,0.1-0.1
		l1.2-16.4c-0.1-0.5-0.5-0.8-1-0.8H14.7c-0.5,0-0.9,0.3-1,0.8l1,8.4l0.9,3.9l-0.2,1.7l0.7,1.9v0.1C16.1,66,16.1,66.1,16.1,66.3
		L16.1,66.3z"/>
	<path class="st3" d="M14.3,55.4l12.8,0.1l-0.6,6.1H15L14.3,55.4z"/>
	<path class="st4" d="M63.9,18.5c0.6-0.2,1.1-0.5,1.7-0.8c0.5-0.3,2-1.2,2.2-0.3c0.2,0.6-0.4,1.4-0.7,1.9c-0.3,0.7-0.6,1.2-0.9,1.7
		c2.6,2.5,5.5,5.4,6.2,9.8c0.6,3.6-0.8,7.1-2.1,9.5c-0.8,1.4-1.3,2.8-2.8,3.4c0,2.4,1,4.7,2.8,6.2c1.3,0.2,2.6,0.5,3.9,1
		c8.5,3,15.7,7.2,20.2,14.3c1.3,2.1,2.4,4.3,3.3,6.5c2.2,4.6,4,9.4,5.3,14.4c0.8,2.7,1.3,5.5,1.5,8.4c0.4,6.9-1.5,11.2-6,13.6
		c-2.5,1.3-5.3,1.9-8.1,1.8c-2.8-0.1-5.6-0.7-8.2-1.6c-4.7-1.7-9.1-3.8-13.4-6.3c-1.9-1.1-4.3-2.3-5.8-4c-0.9-0.9-1.4-2.1-1.5-3.4
		c-0.1-1.5,0-3,0.4-4.4c-2.3-0.5-4.3,1-6.6,0.8c-1-0.1-2.1-0.7-1.8-2.1c-1.2,0.1-2.2-0.9-2.2-2.2c0-0.4,0.1-0.8,0.3-1.2
		c-0.6-0.6-1.5-0.9-1.3-2.3c0.2-1.3,1.6-2.5,2.9-3.2c1.5-0.7,3.1-1.2,4.7-1.3c-1.4-0.5-3,0.1-4.3-0.1c-1.7-0.2-3.3-2.7-1.4-3.7
		c1.6-0.9,5-0.9,7.4-0.7c4.1,0.2,6.9,1.2,8.3,3.9c0.5,1,0.7,2.1,0.8,3.3c0.3,2.3,0.8,4.6,1.3,6.8c4.1,0.9,8.3,1.6,12.4,2.5
		c-1-4.1-2.3-8-3.8-11.9c-0.2-0.6-1-2,0.1-2.1c0.6,0,0.8,0.7,1,1.4c1.2,2.9,2.2,5.8,3.1,8.8c0.4,1.2,0.7,2.4,1,3.7
		c0.1,0.2,0,0.5,0,0.7c1.7,0.6,3.5,1,5.3,1.3c0.6,0.1,1.4,0.1,1.4,0.7c0.1,1.3-2.3,0.3-3.1,0.3c0.5,2.6,0.5,5.4,0,8
		c-0.5,2.2-1.4,4.2-2.8,6c3.4,1.1,7.8,1.2,11,0.2c3.2-1.1,5.6-3,6.7-6c1.2-3.2,0.9-7.6,0.3-11.2c-1.3-7.2-3.8-13-6.4-18.9
		c-1.2-2.9-2.7-5.6-4.6-8.1c-3.8-4.7-9-7.8-14.9-10.4c-1.5,1.3-3,2.7-4.7,4s-3.6,2.3-5.6,3.1c-2.3,1-4.9,1.3-7.4,1.1
		c-4.1-0.7-7-3.2-7.3-7.9c-0.1-0.3,0-0.7,0.1-1c-0.4-0.4-1-0.3-1.5-0.3c-4.4,0.1-8,0.9-10.9,2.7c-2.7,1.8-5,4.2-6.7,7
		c-0.3,0.3-0.5,0.7-0.7,1.1c-0.1,0.6-0.1,1.2,0,1.8c-0.3,3.7-0.9,7.4-1.7,11c-0.6,2.9-1.3,5.9-2.1,8.8c-0.2,0.9-0.4,2.9-1.5,2.4
		c-0.9-0.5,0.4-2.5,0.4-3.2c-0.9,0.7-1.8,1.3-2.8,1.8c-1.2,0.6-2.5,0.9-3.8,0.8c-2.9-0.1-4.6-1.7-6.3-3.1c-0.8,1.9-1.5,3.8-1.9,5.8
		c-0.5,2.2-0.5,4.6,0,6.8c1.2,3.8,5.2,5.5,10.3,4.8c6.5-0.9,10.2-5.1,13.3-9.7c0.8-1.2,1.5-2.3,2.1-3.6c0.2-0.4,0.5-0.8,0.6-1.3
		c0-0.6-0.1-1.1-0.2-1.7c-0.3-2.7-0.6-5.5-0.9-8.3c-0.1-1-0.6-3,0.4-2.9c0.9,0.1,0.8,2.2,0.9,3.2c0.9,8.5,1.9,17.4,2.8,25.7
		c-0.4,0-0.9-0.1-1.3-0.1c-0.5-4.5-1-8.9-1.5-13.4c-2.3,4-5,7.8-8.8,10.5c-2.1,1.4-4.4,2.4-6.9,2.8c-6.2,1-11.4-1.4-12.4-6.5
		c-0.6-2.8,0-6,0.7-8.5c1.2-4.3,3.3-7.9,5.2-11.7c0.3-0.5,0.6-1.1,0.7-1.7c-0.1-0.6-1.5-1.3-2.1-1.7c-2-1.5-3.8-3.3-4.2-6.3
		c0-0.3,0-0.6,0-0.8c-0.2-0.4-0.4-0.9-0.7-1.3c-0.2-0.5-0.4-0.9-0.4-1.4c0-0.4,0.1-0.6,0.1-0.9c-0.1-0.3-0.2-0.6-0.4-0.9
		c-0.1-0.5-0.2-0.9-0.1-1.4c0.1-0.3,0.2-0.6,0.3-0.9c-0.1-0.3-0.2-0.5-0.4-0.8c-0.6-1.6,0.1-3.6,1.9-3.7c1.4,0,2.5,1,2.5,2.4
		c0,0.4-0.1,0.9,0,1.4c0.1,0.3,0.5,0.6,0.6,1s0.2,0.7,0.2,1.1c-0.1,0.3-0.1,0.6-0.1,0.9c0.1,0.4,0.5,0.7,0.7,1.1
		c0.3,0.8,0.3,1.7-0.1,2.5c0.2,0.3,0.4,0.7,0.6,1c0.3,0.9,0.5,3.6-0.5,3.7s-0.7-0.8-0.7-1.7c0.1-0.7,0-1.4-0.4-2.1
		c-0.3-0.4-0.9-0.7-1.4-0.5c-0.9,0.3-0.2,2.4,0,3c1.1,2.4,2.9,3.4,4.8,4.9c0.6,0.3,1,1,1,1.7c-0.1,0.8-0.4,1.5-0.8,2.2
		c-1,2.1-2.1,4-3.1,6.1c0.8,0.9,1.7,1.7,2.8,2.3c1.2,0.8,2.6,1.1,4,0.9c2-0.3,3.6-1.5,4.9-2.8c0.5-0.4,0.9-0.8,1.2-1.3
		c0.2-0.6,0.3-1.2,0.4-1.8c1-4.2,1.8-8.5,2.3-12.7c0.3-2.7,0.2-5.4-0.3-8c-0.3-1.3-0.3-2.6-0.1-3.9c0.2-1.2,0.6-2.3,0.7-3.5
		c-2.2,0.1-2.9,2.4-3,4.6c0,0.7,0,1.4,0,2.1c0,0.8,0.2,1.7-0.6,1.7c-0.9,0-0.8-2-0.8-3.1c0.1-2.6,0.5-4.4,1.9-5.7
		c0.7-0.7,3.1-1.6,3.7-0.1c0.3,0.7-0.1,1.8-0.3,2.5c-0.3,0.8-0.4,1.6-0.5,2.4c-0.1,2,0.5,3.3,0.6,5.2c3.8-5.4,8.6-9.7,17.6-9.9
		c-0.3-0.4-0.7-0.8-1.1-1.2c-2.2-2.5-3.6-5.9-4.3-10c-0.1-0.7-0.3-1.8,0.6-1.6c0.5,0.1,0.6,1,0.7,1.7c1,4.5,2.8,8.6,6,10.9
		c1,0.8,2.2,1.2,3.5,1.3c3.7,0.2,6-2.2,7.6-4.5c0.2-0.4,0.7-1.2,1.1-1.2c0.3,0,0.5,0.2,0.6,0.4c0.2,0.6-0.6,1.6-0.9,2
		c-1.2,1.8-2.9,3.2-4.9,4c0.2,0.5,0.4,0.9,0.6,1.4s1,1.8-0.1,1.8c-0.6,0-0.8-0.8-1.1-1.3c-0.3-0.6-0.4-1.1-0.7-1.6
		c-1.3,0.3-2.7,0.3-4-0.1c0.1,2.9,1.2,5,3.2,6.1c2.4,1.2,5.1,1.4,7.7,0.7c4.8-1.2,8.3-4.2,11.4-7.1c-0.8-0.3-1.5-0.6-2.3-0.8
		c-1-0.4-2-0.7-3-0.7c-0.4,0-1.1-0.9-1.4-1.3c-1.3-1.5-2.1-3.5-2.1-5.6c-0.4-0.1-0.9,0-1-0.6c-0.1-0.7,0.7-0.7,1.2-1
		c1-0.4,1.7-1.2,2.1-2.2c0.2-0.6,0.2-1.2,0-1.8c-0.3-0.6-1.1-0.9-1.7-0.6c-0.1,0-0.2,0.1-0.2,0.2c-0.5,0.4-0.6,1.1-0.8,1.9
		c-0.2,0.7-1.1,2.2-2,2.2c-1-0.1-1.1-1.6-1.3-2.7c-0.2-1.1-0.4-2.5-0.6-3.4c-0.4-1.9-1.3-4.6-2.9-5c-0.8-0.2-1.5,0.1-2.2,0.4
		c-1.9,0.8-3.8,1.5-5.7,2c-1.5,0.3-3.1,0.3-4.6,0c-0.7-0.1-1.3-0.4-1.8-0.7c-0.4-0.2-1.3-0.6-1.2-1.3c0.2-1.1,1.4,0,2,0.3
		c2.8,1.5,6.9,0.2,9.3-0.8c1.1-0.6,2.2-1,3.4-1.2c2.7-0.3,3.9,2.4,4.6,4.2c0.7,2,0.9,4,1.4,6.5c0.7-0.5,0.5-1.7,1.1-2.6
		c0.7-1.3,2.3-1.8,3.6-1.1l0,0c0.5,0.3,0.9,0.7,1.1,1.1c1.5-2.9,1.7-6.4,0.6-9.5c-0.8-1.9-2-3.7-3.5-5.2c-0.5-0.5-1-1-1.5-1.4
		c-0.3-0.2-0.7-0.2-0.8-0.5c-0.2-0.9,1-1.8,1-2.5c-0.8,0.1-1.7,1.3-2.6,1c-0.6-0.2-0.4-1.3-0.6-2.1c-0.6,0.4-0.5,1.6-1.2,1.8
		c-0.4,0.1-0.6-0.2-0.9-0.3c-4-1.4-8.2-0.4-11.2,1.2c-2.2,1.2-4,3-5,5.3c-0.8,1.8-1.9,3.3-4.5,3.4c0.1,0.8,1.3,1.5,1.2,2.4
		c-0.1,0.9-1.6,0.7-2.3,1.1c0.4,0.4,1,0.8,1.5,1.1c0.2,0.1,1.5,0.4,1.5,1c0,1.1-1.4,0.5-2,0.2c-0.8-0.4-1.6-0.9-2.3-1.5
		c-0.3-0.3-0.8-0.7-0.8-1.1c0-1,1.8-0.8,2.5-1.2c-0.2-0.4-0.5-0.9-0.8-1.3c-0.2-0.4-0.7-0.9-0.6-1.4c0.1-0.6,1-0.4,2-0.6
		c2.2-0.3,2.6-1.4,3.4-3.1c1.2-2.4,3.1-4.4,5.5-5.6c3-1.7,8-2.6,12-1c0.3-0.5,0.6-1.1,0.9-1.7c0.3-0.7,0.8-2.1,1.7-1.4
		C63.9,15.7,63.6,17.7,63.9,18.5z M12,55c-1.1-0.2-1.5,1.2-1,2.1c0.5-0.3,1.2-0.4,1.8-0.3C12.9,55.8,12.7,55.1,12,55L12,55z
		 M11.6,58.2c-0.5,0.5-0.6,1.2-0.4,1.9c0.7-0.4,1.6-0.5,2.4-0.4c0.2-0.7-0.2-1.4-0.9-1.6C12.3,58,11.9,58,11.6,58.2L11.6,58.2z
		 M11.6,61.7c-0.2,0.6,0.2,1.2,0.3,1.7c0.7-0.5,1.6-0.6,2.4-0.3C15.1,61.1,12.1,60.3,11.6,61.7L11.6,61.7z M67.9,83.8
		c-0.4-2.1-0.3-4.2-1.4-5.6s-3-2.2-5.2-2.5c-1.4-0.2-2.9-0.3-4.3-0.1c-1.5,0.2-3.2,0.1-4.2,0.8c0.3,1.7,2.6,0.8,4.4,0.9
		c0.8,0.1,1.5,0.3,2.2,0.5c0.6,0.3,1.3,0.6,1.9,0.8c0.9,0.2,1.7-0.2,1.8,0.7c0,0.8-1.7,0.6-2.7,0.7c-3.3,0.1-6.4,0.7-8,2.4
		c-0.4,0.3-0.6,0.8-0.7,1.3c0,0.5,0.5,0.5,0.8,0.9c1.9-1.4,4.8-2.2,8.1-2.3c1.1,0,2.8-0.2,2.8,0.7c0,0.5-0.5,0.6-1.3,0.6
		c-3.4,0-5.6,0.4-7.8,1.4c-0.8,0.4-1.9,1-1.8,1.9c0.2,0.6,0.8,1,1.4,0.8l0,0c0.3-0.1,0.7-0.5,0.9-0.7c1-0.7,2.1-1.2,3.3-1.4
		c1.1-0.2,5.2-0.6,5.3,0.6c0,0.9-1.2,0.6-2,0.5c-2.2-0.1-4.5,0.3-5.7,1.1c-0.6,0.3-0.9,0.9-1.1,1.5c0.3,0.3,0.8,0.4,1.3,0.3
		c1-0.1,1.9-0.5,3.1-0.7c0.6-0.1,1.2-0.1,1.8-0.1c0.6-0.1,1.2,0,1.8,0.1c0.8,0.4,0.3,1.5,0.2,2.3c-0.1,0.5-0.2,1.1-0.2,1.6
		c-0.3,4,2.2,5.3,4.6,6.8c5.1,3,9.9,5.7,16,7.7c1.3-1.8,2.3-3.8,2.8-5.9c0.5-2.7,0.4-5.4-0.1-8.1c-1.5-0.3-3-1-4.5-1.4
		c-1-0.3-2.1-0.4-3.1-0.6c-3.1-0.7-6.3-1.2-9.4-1.8C68.7,87.8,68.2,85.8,67.9,83.8L67.9,83.8z"/>
	<path class="st4" d="M56.1,34.6c1-0.1,2.1,0.1,3,0.6c0.5,0.3,1.2,0.7,1.2,1.2c0,0.3-0.2,0.6-0.6,0.7c-0.6,0-1-0.6-1.5-0.9
		c-1.1-0.4-2.2-0.4-3.3,0c-0.6,0.2-1.6,0.8-1.7-0.2c0-0.6,0.8-0.9,1.1-1C54.9,34.8,55.5,34.6,56.1,34.6z"/>
	<path class="st4" d="M44.4,35c2.6-0.3,4.4,1.2,5.7,2.6c1.6,1.7,2.8,4.7,1.8,7.6c-0.1,0.4-0.6,1.1-0.6,1.5c0.1,0.6,0.9,0.4,0.9,1.1
		c0.1,1.1-1.1,0.6-1.5,0.3c-1.6-1.2,0.1-2.9,0.3-4.6c0.1-1.8-0.6-3.6-1.8-4.9c-0.9-1.1-2.4-2.5-4.6-2.3c-0.6,0.1-1.2,0.4-1.8,0.7
		c-0.3,0.2-1.1,1-1.6,0.9c-0.3-0.1-0.5-0.3-0.5-0.6c-0.1-0.6,1-1.2,1.5-1.5C42.9,35.4,43.6,35.1,44.4,35z"/>
	<path class="st4" d="M57.7,47.5c1.6-0.1,0.6,1.4,0,1.9c-0.8,0.7-1.8,1-2.8,0.9c-0.4-0.2-0.5-0.6-0.4-0.9c0-0.1,0.1-0.2,0.2-0.3
		c0.4-0.3,1.2-0.2,1.6-0.4C57,48.4,57.1,47.9,57.7,47.5C57.6,47.5,57.6,47.5,57.7,47.5z"/>
	<path class="st2" d="M15,45.9c-0.4,0-0.7-0.3-0.7-0.7v-0.1l0.3-0.7c0.2-0.7,0.9-1.3,1.6-1.3h8c0.9,0,1.3,0.7,1.6,1.2l0.4,0.8v0.1
		c0,0.4-0.3,0.7-0.7,0.7H15z"/>
	<path class="st5" d="M24.3,43.6c0.6,0,0.8,0.4,1.2,1l0.3,0.7c0,0.1-0.1,0.2-0.2,0.2H15c-0.1,0-0.2-0.1-0.2-0.2l0.3-0.6
		c0.2-0.5,0.6-1,1.2-1L24.3,43.6z M24.3,42.6h-8c-1,0.1-1.8,0.7-2.1,1.6l-0.3,0.6L13.8,45v0.2c0,0.7,0.6,1.2,1.2,1.2h10.5
		c0.7,0,1.2-0.5,1.2-1.2V45l-0.1-0.2l-0.3-0.7C26,43.4,25.5,42.5,24.3,42.6L24.3,42.6z"/>
	<path class="st2" d="M12.2,50.3c-0.5,0-0.9-0.4-0.9-0.9v-0.1l0.5-1.4c0.5-1.5,1.4-2.4,2.4-2.4h12.6c1.3,0,1.8,1.1,2.3,2.3l0.5,1.5
		v0.1c0,0.5-0.4,0.9-0.9,0.9l0,0C28.7,50.3,12.2,50.3,12.2,50.3z"/>
	<path class="st5" d="M26.9,46.1c0.9,0,1.3,0.9,1.8,2l0.5,1.3c0,0.2-0.2,0.4-0.4,0.4l0,0H12.2c-0.2,0-0.4-0.2-0.4-0.4l0,0l0.5-1.3
		c0.3-1,1-2.1,1.9-2.1L26.9,46.1z M26.9,45.1H14.2c-1.2,0-2.2,1-2.8,2.7L10.9,49l-0.1,0.2v0.2c0,0.8,0.6,1.4,1.4,1.4h16.6
		c0.8,0,1.4-0.6,1.4-1.4v-0.2L30.1,49l-0.5-1.3C29.1,46.5,28.5,45.1,26.9,45.1L26.9,45.1z"/>
	<path class="st6" d="M27,69.1l28.9,2.8c1.5,0.1,2.7,0.8,2.9,1.4l4.5,21.3c0.1,0.6-0.9,1-2.4,0.9L32,92.7c-1.5-0.1-2.7-0.8-2.9-1.4
		L24.6,70C24.5,69.4,25.6,69,27,69.1z"/>
	<path d="M61.5,96c-0.2,0-0.4,0-0.6,0L32,93.2c-1.5-0.1-3.1-0.8-3.3-1.8l-4.5-21.3c-0.1-0.3,0-0.6,0.2-0.9c0.4-0.5,1.5-0.7,2.7-0.6
		L56,71.4c1.5,0.1,3.1,0.8,3.3,1.8l4.5,21.3c0.1,0.3,0,0.6-0.2,0.9C63,95.9,62.3,96.1,61.5,96z M26.4,69.6c-0.5-0.1-0.9,0.1-1.3,0.3
		l4.5,21.3c0,0.2,0.9,0.8,2.4,1L61,95c1.1,0.1,1.8-0.2,1.8-0.3l-4.5-21.3c0-0.2-0.9-0.8-2.4-1L27,69.6
		C26.8,69.6,26.6,69.6,26.4,69.6L26.4,69.6z"/>
	<path class="st7" d="M41.9,79.7c2,0,3.8,1.4,4.3,3.3c0.4,1.8-0.9,3.3-2.9,3.3S39.5,84.9,39,83C38.7,81.2,40,79.7,41.9,79.7z"/>
	<path class="st2" d="M122.9,57.8c0,0-3.3-3.5-2.9-6.1c0.4-2.7,0.8-2.6,0.1-2.7c-1.1-0.2-2.2,0.5-2.5,1.6c-0.4,1.5-0.6,2.7-0.6,2.7
		s-5-2.5-6.2-0.6c-0.5,0.7-0.5,1.6,0.1,2.3c-0.6,0-1.2,0.4-1.4,1c-0.3,1.1,0.7,2.4,0.7,2.4s-1.5,0.7-1.2,1.9s2.3,2.8,6.2,3.4
		c3.9,0.7,4,1.3,4,1.3c0.4,0.9,1.2,1.5,2.2,1.8c1.5,0.4,1.9,0.4,2.6-1.4c0.7-1.8,2.8-5.8,1.8-6.8s-1.2-1.3-1.9-1.1
		C123.2,57.7,122.9,57.8,122.9,57.8z"/>
	<path class="st3" d="M124.6,56.6c0,0-3.3-3.5-2.9-6.1c0.4-2.7,0.8-2.6,0.1-2.7c-1.1-0.2-2.2,0.5-2.5,1.6c-0.4,1.5-0.6,2.7-0.6,2.7
		s-5-2.5-6.2-0.6c-0.5,0.7-0.5,1.6,0.1,2.3c-0.6,0-1.2,0.4-1.4,1c-0.3,1.1,0.7,2.4,0.7,2.4s-1.6,0.7-1.2,1.9
		c0.3,1.2,2.3,2.8,6.2,3.4c3.9,0.7,4,1.3,4,1.3c0.4,0.9,1.2,1.5,2.2,1.8c1.5,0.4,1.9,0.4,2.6-1.4c0.7-1.8,2.8-5.8,1.8-6.8
		c-1-1.1-1.2-1.3-1.9-1.1S124.6,56.6,124.6,56.6z"/>
	<path class="st2" d="M110.7,6.3c-0.3,0.7,0.5,3.7,1.3,6.4s0.1,4.9,4.3,4.2c4.3-0.7,12.1-3.3,11.8-4.5s-2-10.3-3.3-10.2
		c-0.6,0-4.1,1.4-7.4,2.3S110.9,6,110.7,6.3z"/>
	<path class="st3" d="M112.2,6.2c-0.3,0.6,0.5,3.4,1.2,5.9s0.1,4.5,4,3.8c3.9-0.6,11.1-3,10.8-4.1s-1.8-9.4-3-9.3
		c-0.6,0-3.7,1.3-6.8,2.1S112.3,5.9,112.2,6.2z"/>
	<path class="st2" d="M74.2,15.2c0.1,0.5,0,1.1-0.2,1.6c-0.3,0.7-0.5,1.5-0.7,2.2c0.9-0.5,1.7-1,2.5-1.6s1.5-1.3,2.1-2.1
		c0,0,5.4,1.3,6.3-1.4s2.5-8.3,0-9.6S76.7,3.8,74,3.7s-6.8-1.9-7.4,1.1s-0.9,8.3,0.8,9.3C69.1,15.1,74.2,15.2,74.2,15.2z"/>
	<path class="st3" d="M75.8,13.9c0.1,0.5,0,1.1-0.2,1.6c-0.3,0.7-0.5,1.5-0.7,2.2c0.9-0.5,1.7-1,2.5-1.6s1.5-1.3,2.1-2.1
		c0,0,5.4,1.3,6.3-1.4s2.5-8.3,0-9.6s-7.5-0.5-10.2-0.6s-6.8-1.9-7.4,1.1s-0.9,8.3,0.8,9.3C70.8,13.9,75.8,13.9,75.8,13.9z"/>
	<path class="st2" d="M24.7,33.2c0,0,7.2,1.1,8-2.5c0.8-3.6,0.6-10.4-3.2-11.5S5.2,17.2,2.9,19C0.6,20.7-1,28.9,2.6,31.3
		s10,2.5,12.7,2.4s3.4,0.2,4.4,0.8c1,0.5,2.3,2.1,4,2.5c0.8,0.2,1.6,0.4,2.4,0.6c-0.5-0.8-0.9-1.6-1.3-2.5
		C24.7,34.5,24.6,33.8,24.7,33.2z"/>
	<path class="st3" d="M26.4,31.9c0,0,7.2,1.1,8-2.5S35,19,31.2,17.9S7,16,4.6,17.7S0.8,27.5,4.3,30s10,2.5,12.7,2.4s3.4,0.2,4.4,0.8
		c1,0.5,2.3,2.1,4,2.5c0.8,0.2,1.6,0.4,2.4,0.6c-0.5-0.8-0.9-1.6-1.3-2.5C26.4,33.2,26.3,32.5,26.4,31.9z"/>
	<path class="st2" d="M24.6,23c1,0,1.8,0.8,1.8,1.8s-0.8,1.8-1.8,1.8s-1.8-0.8-1.8-1.8l0,0C22.8,23.8,23.6,23,24.6,23L24.6,23z"/>
	<path class="st2" d="M17.3,22.9c1,0,1.8,0.8,1.8,1.8s-0.8,1.8-1.8,1.8s-1.8-0.8-1.8-1.8C15.6,23.7,16.3,22.9,17.3,22.9z"/>
	<path class="st2" d="M9.8,22.9c1,0,1.8,0.8,1.8,1.8s-0.8,1.8-1.8,1.8S8,25.7,8,24.7S8.8,22.9,9.8,22.9z"/>
	<path class="st2" d="M62.9,89.6c0,0,0.4,1.5,0.8,2.9h3.8V82.4h0.8c-0.3-1.8-0.8-3.5-1.5-5.2c-1.4-2.6-8.5-2.1-11.5-2
		s-3.3,1.3-2.9,2.1c0.5,0.8,3.1,0.7,4.6,0.4c1.5-0.2,4.2,1.7,4.2,1.7c-1.9,0.1-3.8,0.2-5.7,0.5c-2.6,0.4-4.6,2.3-4.4,3.5
		c0.2,0.9,0.6,1.7,1.1,2.5c-0.3,0.6-0.3,1.2-0.1,1.8c0.4,0.8,2.3,1.1,2.3,1.1c-0.2,0.6-0.1,1.2,0.3,1.6c0.6,0.6,2.6-0.6,4.4-0.8
		C60.3,89.6,61.6,89.6,62.9,89.6z"/>
	<path class="st4" d="M69.9,87.3c-0.4-1.6-0.7-3.1-1-4.7c-0.3-2.1-0.3-3.9-1.4-5.4c-1.4-1.9-4.1-2.9-7.2-3.1c-1.1-0.1-2.3-0.1-3.4,0
		c-1.9,0.2-4.8,0.1-5.4,1.6s1,2.8,2.2,2.9s2.9-0.5,4.3,0.1c-1.6,0.2-3.2,0.6-4.7,1.3c-1.3,0.6-2.7,1.8-2.9,3.1
		c-0.2,1.3,0.6,1.7,1.2,2.3c-0.6,1.1-0.3,2.5,0.8,3.1c0.3,0.2,0.7,0.3,1.1,0.3c-0.1,0.3,0,0.7,0.1,1c0.8,1.9,3.7,0.7,5.4,0.4
		c1-0.2,2.5-0.4,3.1-0.1s0.5,1.1,0.8,1.7c0-1,0.9-2.3,0.1-2.9c-0.6-0.5-2.8-0.2-3.6-0.1c-1.3,0.2-2.3,0.7-3.2,0.7
		c-0.6,0-1.1,0-1.4-0.4c0.9-2.1,3.7-2.8,7-2.6c0.8,0,1.6,0.3,1.8-0.4c0.2-0.9-0.9-0.9-1.7-0.9c-2.9-0.2-5.3,0.4-6.8,1.4
		c-0.4,0.3-0.5,0.6-0.9,0.7c-0.6,0.2-1.2-0.1-1.4-0.7v-0.1c0-0.8,1-1.5,1.8-1.9c1.9-0.9,3.9-1.4,6-1.4c1.2-0.1,3.1,0.3,3-0.7
		c-0.1-0.8-1.8-0.7-2.8-0.6c-3.4,0.1-6.2,1-8.1,2.3c-1.4-0.2-1-1.2-0.3-1.9c1.1-1,2.5-1.7,4-1.9c1.8-0.4,3.6-0.6,5.4-0.5
		c0.8,0,1.3,0,1.3-0.6c0-0.9-0.8-0.5-1.8-0.7c-0.3-0.1-0.6-0.3-0.9-0.4c-1-0.5-2.1-0.8-3.2-0.9c-1.8-0.1-4,0.7-4.4-0.9
		c0.8-0.5,1.7-0.8,2.7-0.8c4.5-0.4,9.1,0.1,11,2.4c1.2,1.4,1.1,3.6,1.4,5.6s0.8,4.1,1.3,5.8l0.8,0.2v-2.3H69.9z"/>
	<path class="st4" d="M62.7,92.6c0.1,0.1,0,0.3,0,0.4c-0.1,0-0.1-0.2-0.2-0.2C62.5,92.7,62.6,92.7,62.7,92.6z"/>
	<path class="st2" d="M84.3,29.5c-0.4,0.6-3,8.5-4.3,10.9s-2.4,5.2-1.4,6.3s11.9,5.7,13.8,6.3s2.8,0.9,3.5-0.3
		c0.7-1.2,7.1-15.2,6.7-15.9s-6.2-2.5-8.9-3.5C90.9,32.4,84.7,29,84.3,29.5z"/>
	<path class="st3" d="M86.1,28.2c-0.4,0.5-3,8.5-4.3,10.9c-1.3,2.4-2.4,5.2-1.4,6.3s11.9,5.7,13.8,6.3c1.8,0.6,2.8,0.9,3.5-0.3
		s7.1-15.2,6.7-15.8c-0.5-0.6-6.2-2.5-8.9-3.5C92.7,31.1,86.5,27.7,86.1,28.2z"/>
	<path class="st2" d="M100.9,41.2c0,0-1.4-1.7-2.2-1.1c-0.5,0.3-1,0.7-1.5,1.1c0,0-1.8-1.3-2.9-0.8c-0.6,0.2-1.1,0.6-1.5,1.1
		l6.4,2.5L100.9,41.2z"/>
	<path class="st2" d="M91.6,35.7c0.7,1.5,0.5,3.9-1.8,3.8c-2.2-0.1-3.5-1.7-3.2-3.4C87.1,34.5,90.9,34.3,91.6,35.7z"/>
	<path class="st2" d="M100.8,21c-1.5,2.2-4.1,7.8,3,9.5s9.7-4.6,8.2-8.5s-4.3-4.2-6.8-3.9C102.5,18.4,102.3,18.9,100.8,21z"/>
	<path class="st3" d="M102.5,19.7c-1.5,2.2-4.1,7.8,3,9.5s9.7-4.6,8.2-8.5s-4.3-4.2-6.8-3.9C104.2,17.1,104,17.6,102.5,19.7z"/>
	<path class="st2" d="M105.2,24.5c0,0,2.4-3.2,3.2-2.5c0.9,0.7-1.1,5.4-1.1,5.4s-2.8-0.4-3.9-1.3c-1.1-0.9-1.1-1.9-0.7-2.3
		S105.2,24.5,105.2,24.5z"/>
	<path class="st8" d="M111.4,7.6c1.1,0.8,2.3,1.6,3.5,2.2c0.8,0.5,1.8,1.1,2.7,1.6c0.3,0.2,0.7,0.4,1,0.4c0.4-0.1,0.6-1.1,0.8-1.6
		c0.4-1.1,0.9-2.1,1.6-3.1c0.2-0.3,0.6-1.3,1.2-1c0.7,0.3-0.3,1.4-0.4,1.7c-0.7,1.1-1.2,2.3-1.6,3.6c-0.2,0.6-0.5,1.3-1.1,1.4
		c-1,0.3-2-0.5-2.6-0.8c-1.6-0.9-2.8-1.6-4.4-2.6c-0.6-0.4-1.8-1-1.8-1.8s1.8-1.2,2.7-1.4c1.4-0.3,2.3-0.5,3.4-0.8
		c2.3-0.7,4.1-1.7,6.2-2.1c1.7-0.3,2.1,0.6,2.5,2c0.4,1.6,0.8,3.6,1.4,5.1c0.3,0.8,0.9,2,0.6,2.9c-0.3,0.8-1.4,1.2-2.4,1.6
		c-2,0.8-3.9,1.4-5.9,2c-1,0.4-2.1,0.6-3.2,0.8c-2.2,0.2-2.8-0.6-3.4-2.2c-0.6-1.7-1.1-3.4-1.5-5.2c-0.1-0.5-0.1-0.8,0.3-0.9
		c0.7-0.1,0.8,1,0.9,1.6c0.4,1.6,0.6,2.4,1.1,3.9c0.2,0.5,0.4,1.4,0.8,1.6c0.9,0.5,2.6,0,3.4-0.2c2.2-0.6,3.9-1.2,6.1-2
		c0.4-0.1,0.9-0.3,1.5-0.6c0.4-0.2,1.1-0.5,1.2-0.8c0-0.4-0.1-0.8-0.2-1.2c-0.6-1.8-1.2-3.6-1.6-5.5c-0.1-0.6-0.3-1.8-0.8-2
		c-0.8-0.4-2.4,0.4-3.1,0.7c-1,0.4-1.9,0.7-2.8,1C115.5,6.7,113.4,7,111.4,7.6z"/>
	<path class="st8" d="M73.7,15.6c-3,0.1-6.5-0.2-7.6-2.3c-0.5-1-0.5-3-0.5-4.6c0-2,0.2-3.8,1.1-4.9c1.4-1.6,4.3-1.2,6.8-0.9
		c1.2,0.1,2.4,0.3,3.8,0.3c3.3,0,7-0.3,8.2,1.7s0.6,7-0.3,9s-2.9,2.5-5.7,2.1c-0.4-0.1-0.8-0.2-1.2-0.2c-0.4,0-1,0.8-1.3,1
		c-0.9,0.8-1.5,1.4-2.4,2.2c-0.3,0.3-0.9,0.9-1.4,0.9c-0.8-0.2-0.3-1.4-0.1-2C73.3,17,73.5,16.4,73.7,15.6z M77.1,15.1
		c0.3-0.3,0.7-0.7,1.1-0.7s0.4,0.3,0.7,0.4c0.7,0.2,1.5,0.3,2.2,0.2c1.4-0.1,2.4-0.5,2.9-1.4c0.8-1.4,1.5-5.6,0.8-7.7
		c-0.7-2.2-4.7-1.7-7.5-1.7c-2.7,0-5.2-0.6-7.5-0.4c-0.6,0-1.2,0.1-1.8,0.4c-1,0.6-1.1,2.3-1.2,4c-0.1,1.6-0.2,3.3,0.3,4.5
		c0.8,1.7,4,2,6.6,1.9c0.5,0,1.1-0.1,1.3,0.2c0.4,0.6-0.6,2.2-0.6,2.9C75.2,16.9,76.2,15.9,77.1,15.1z"/>
	<path class="st8" d="M24.9,33.8c0.1,1.1,0.6,2.1,1.4,2.8c0.3,0.3,0.8,0.7,0.7,1.2c-0.2,0.7-1.6,0.4-2.3,0.1
		c-0.7-0.2-1.4-0.6-2.1-0.9c-1.4-0.7-2.3-1.7-3.5-2.4c-1.4-0.8-3.7-0.8-6-0.7c-5.8,0.3-10.5-0.6-12.3-4.4c-1.2-2.6-1.1-7,0.3-9.2
		c1.5-2.3,4.3-2.8,8.3-2.9c3.5-0.1,7.7,0.2,11.4,0.2s7.6,0.3,9.8,1.8c1.7,1.1,2.6,3.3,2.9,5.9c0.4,2.7,0.2,5.6-1.5,7
		C30.5,33.6,28,34,24.9,33.8z M24.7,36.3c-0.2-0.3-0.3-0.6-0.4-0.9c-0.2-0.5-0.8-2.1-0.3-2.5c0.3-0.3,1.3-0.1,1.8-0.1
		c2.6,0.1,5.1-0.4,6.2-1.7c1.2-1.4,1-4.5,0.6-6.4s-1.3-3.7-2.7-4.5c-3.3-2-10.2-1.4-15.4-1.6C10.3,18.3,5.2,18,2.8,20
		c-1.7,1.4-2.1,4.9-1.5,7.5c1.1,4.6,5.1,5.4,10.8,5.4c2.7,0,5.4-0.3,7.3,0.6c0.9,0.6,1.8,1.2,2.7,1.9s1.9,1.2,3,1.6
		C25.1,36.7,24.8,36.5,24.7,36.3z"/>
	<path class="st8" d="M105.1,17.7c2.1-0.2,4.2,0.4,5.9,1.7c1.4,1.2,2.2,3,2.1,5.5c-0.1,3.2-2.5,6-5.7,6.5c-3.6,0.7-7-0.8-8.3-3.5
		c-0.6-1.4-0.7-3-0.1-4.4c0.2-0.4,0.4-1.2,1-1c0.8,0.2,0,1.4-0.1,1.9c-1.4,5.1,5.7,7.6,9.6,5.1c2.2-1.4,3.7-5.8,1.5-8.6
		c-1.3-1.6-5.1-2.8-7.5-1.5c-0.6,0.3-1.2,0.7-1.6,1.2c-0.3,0.4-0.9,1.6-1.6,1.2c-0.7-0.4,0.4-1.6,0.7-1.9
		C101.9,18.6,103.4,17.9,105.1,17.7z"/>
	<path class="st8" d="M108.1,22.8c-1.1-0.1-1.7,0.7-2.1,1.6c-0.1,0.3-0.2,0.8-0.5,0.9c-0.5,0.1-0.9-0.3-1.2-0.5
		c-0.3-0.3-0.7-0.5-1.1-0.6c0.4,1.5,1.6,2.3,3.1,2.7c0.6,0.2,1.1,0.1,1.1,0.7c0,0.7-0.9,0.5-1.5,0.4c-1.7-0.5-3.3-1.5-3.8-3.2
		c-0.2-0.7-0.1-1.6,0.7-1.7s1.4,0.6,2.1,0.9c0.5-1,1.2-2.1,2.5-2.2c1.2-0.1,1.9,0.5,1.8,1.8c-0.1,0.7-0.3,1.4-0.6,2.1
		c-0.2,0.6-0.5,1.6-1,1.6c-1.2,0.1-0.1-1.8,0-2.3C108.1,24.2,108.2,23.5,108.1,22.8z"/>
	<path class="st8" d="M84.6,30.3c-1,2.4-1.9,4.9-2.9,7.3c1.7,0.7,3.2,1.3,4.4,2.7c1,1.2,1.7,3.3,2.9,4.2c1.3,0.8,3.4,0.5,4.8,1.2
		s2.1,1.7,2.9,3.1c0.8-1.4,1.4-2.8,2.1-4.3c-1.7-0.7-3.5-1.2-5.5-1.9c-0.5-0.2-1.5-0.4-1.5-0.9c0-0.7,1.7-1.6,2.3-1.8
		c1-0.2,2,0,2.7,0.8c0.5-0.4,1-0.7,1.5-1c0.8-0.2,1.6,0,2.2,0.6c0.2-0.5,0.3-0.8,0.5-1.3s0.2-1.1,0.8-1c0.8,0.1,0.1,1.6,0,1.9
		c-1.2,3.3-2.6,6.4-4.1,9.5c-0.3,0.6-0.6,1.2-0.9,1.8c-0.6,1.4-0.6,2.9-2.7,2.7c-1.7-0.1-3.2-0.9-4.6-1.5s-2.6-1.1-4.2-1.8
		c-1.3-0.6-2.8-1.1-4.2-1.8s-3.2-1.6-3.5-3c-0.2-0.9,0.4-1.9,0.7-2.8c1.7-4.2,3.4-8.6,5.1-13c0.1-0.4,0.3-1,0.7-1
		c0.8,0.1,1.7,0.4,2.4,0.8c4.9,1.9,10,3.8,14.9,5.7c0.5,0.2,0.9,0.3,0.9,0.7c0,1-1.7,0.1-2.1,0C95.1,34.3,89.8,32.2,84.6,30.3z
		 M79.3,43.8c-0.3,0.5-0.5,1.1-0.6,1.7c0.1,0.6,0.9,1.1,1.4,1.5c1.9,1.1,4,2.1,6.1,2.8c2.1,0.9,4,1.9,6.3,2.6
		c0.7,0.2,1.9,0.6,2.5,0.3c0.3-0.2,0.4-0.9,0.6-1.4c0.2-0.6,0.5-1,0.6-1.4c-0.8-1.5-1.6-2.9-3.2-3.5c-1.5-0.5-3.2-0.3-4.5-1.1
		c-1.4-0.9-2-3.1-3.2-4.4c-1-1.2-2.4-1.7-3.9-2.2C80.7,40.1,80,42.1,79.3,43.8z M99.1,40.6c-1.1-0.1-1.5,1.3-2.2,1.3
		S96,41,95.3,40.8c-0.6-0.1-1.3,0.1-1.8,0.6c2,0.6,3.8,1.4,5.8,2c0.2-0.7,0.6-1.4,0.8-2.1C99.8,41,99.6,40.7,99.1,40.6z"/>
	<path class="st8" d="M92.4,35.9c0,1.6-0.4,2.9-1.4,3.5c-2.1,1.4-5-0.6-4.9-2.9c0.1-1.4,1.2-2.5,2.6-2.6
		C90.7,33.8,91.5,35,92.4,35.9z M87.2,37c0.2,1.6,2.8,2.4,3.6,1.1c0.3-0.5,0.5-1.1,0.5-1.7c0-0.2-0.4-0.5-0.6-0.6
		c-0.5-0.4-1.1-0.7-1.8-0.7c-1,0-1.8,0.7-1.8,1.7C87.2,36.9,87.2,37,87.2,37z"/>
	<path class="st8" d="M119.7,49.3c-1.2,0.2-2,1.2-2,2.4c-0.1,0.8,0.3,2.1-0.4,2.2c-0.5,0.1-1.4-0.6-1.9-0.8
		c-0.9-0.4-1.9-0.6-2.9-0.6c-0.6,0.1-1.5,0.3-1.6,1c0,0.4,0.4,0.8,0.3,1.2c-0.1,0.6-1.3,0.9-1.4,1.7c0,0.4,0.2,0.8,0.4,1.1
		s0.5,0.6,0.5,1c0,0.7-1.4,1-1.4,1.9c0,0.7,1.1,1.1,1.7,1.4c1.4,0.7,3,1.2,4.5,1.5c0.7,0.2,2.1,0.3,2.1,0.9c0,0.9-1.7,0.3-2.4,0.1
		c-1.1-0.3-1.9-0.5-2.6-0.7c-1.5-0.5-3.7-1.3-4.2-2.5s0.4-2.1,1.1-2.8c-1-1.1-0.9-2.7,0.2-3.7c0.1-0.1,0.2-0.2,0.3-0.2
		c-0.2-0.4-0.2-0.9-0.1-1.4c0.7-2.3,5-1.7,6.7-0.6c-0.1-1.2,0.3-2.3,1-3.2c0.6-0.6,3-1.9,3.2,0c0.1,0.9-0.4,2-0.3,3.2
		c0.1,1.1,0.6,2.2,1.3,3.1c0.1,0.2,0.8,1.2,0.1,1.3c-0.8,0.2-1.3-1.3-1.6-1.8c-0.4-0.8-0.7-1.7-0.8-2.7
		C119.4,51.2,119.7,50.4,119.7,49.3z"/>
	<path class="st8" d="M123.4,57c1.5-0.2,2.8,0.8,3,2.3v0.1c-0.1,0.8-0.3,1.6-0.7,2.4c-0.3,0.7-0.6,1.5-0.8,2.2
		c-0.5,1.4-1,3.5-2.3,3.6c-0.8,0.1-2.1-0.5-1.9-1.2c0.2-0.7,1.3,0.2,1.8,0.1c0.4-0.1,0.8-0.9,1-1.5c0.5-1.2,0.8-2.5,1.3-3.7
		c0.3-0.6,0.5-1.3,0.5-2c-0.2-0.8-0.9-1.3-1.7-1.2c-0.6,0.1-1,1.2-1.3,1.7c-0.7,1.4-1.2,2.8-1.7,4.2c-0.2,0.6-0.4,1.9-1.1,1.8
		s-0.1-1.5,0.1-2.2c0.5-1.5,1.1-2.9,1.8-4.3C121.9,58.2,122.3,57.2,123.4,57z"/>
</g>
</svg>
