<?xml version="1.0" encoding="utf-8"?>
<!-- Generator: Adobe Illustrator 26.0.1, SVG Export Plug-In . SVG Version: 6.00 Build 0)  -->
<svg version="1.1" id="Layer_1" xmlns="http://www.w3.org/2000/svg" xmlns:xlink="http://www.w3.org/1999/xlink" x="0px" y="0px"
	 viewBox="0 0 180 110" style="enable-background:new 0 0 180 110;" xml:space="preserve">
<style type="text/css">
	.st0{fill-rule:evenodd;clip-rule:evenodd;fill:#FFCE1E;}
	.st1{fill-rule:evenodd;clip-rule:evenodd;fill:#FFFFFF;}
	.st2{fill-rule:evenodd;clip-rule:evenodd;fill:#F5F5F5;}
	.st3{fill-rule:evenodd;clip-rule:evenodd;fill:#FFE380;}
	.st4{fill-rule:evenodd;clip-rule:evenodd;}
	.st5{fill-rule:evenodd;clip-rule:evenodd;fill:#FFBF1E;}
	.st6{fill-rule:evenodd;clip-rule:evenodd;fill:#FFE68A;}
</style>
<g>
	<g id="Layer_2_00000013170385825678172460000012185295709042442655_">
		<g id="Layer_1-2">
			<g>
				<g>
					<path class="st0" d="M67.1,98.3c14.9,0.5,54.5-3.7,64-2.3c9.5,1.4,9.8-4.6,10.3-14.7c0.5-10,2.4-75-9.9-76.3
						c-9.7-1-70.7-0.7-98.9,0.5c-8.1,0.4-12.7,2.5-13.7,4c-3.1,4.6-0.2,42.5,0.9,68c0.5,11.3,1.8,19.7,4.5,20.9
						C29.5,100.7,51.9,97.8,67.1,98.3z"/>
					<path class="st1" d="M132.1,8.2c0,0,1.9-3.6,3-2.9s-0.9,6-0.9,6s-3.8-1.2-4.5-2c-0.6-0.8-1.1-2.7-0.1-2.3S132.1,8.2,132.1,8.2z
						"/>
					<path class="st2" d="M136.8,73.2c0,0-1.4-9,4.1-12.4s9-4,10.1-2s-1,11.9-5.9,13.5C142.4,73.2,139.5,73.5,136.8,73.2z"/>
					<path class="st2" d="M132.9,65.5c-4.8-2.5-8.1-7.1-9.1-12.5c-1.9-9.2-1.8-12,0-12.5c1.7-0.5,9.8,1.9,11.3,9.1
						C136.6,57,132.9,65.5,132.9,65.5z"/>
					<path class="st2" d="M137.7,49.3c0,0-4.6-3.5-1.3-10.2c3.3-6.6,6.1-9.8,7.3-9.2c1.2,0.6,1.8,10.1-0.6,13.9
						C141.8,46,139.9,47.9,137.7,49.3z"/>
					<path class="st2" d="M131.6,83.1c1,0.1,4.8-8,0.7-12s-6.8-6.4-8.6-5.9c-1.7,0.5-1.6,11.1,2.1,14.1
						C129.6,82.3,130.6,83,131.6,83.1z"/>
					<path class="st3" d="M138.5,73.3c0,0-1.3-9,4.1-12.4c5.4-3.3,9-4,10.1-2s-1,11.9-5.9,13.5C144.2,73.3,141.3,73.6,138.5,73.3z"
						/>
					<path class="st3" d="M139.4,49.3c0,0-4.6-3.5-1.3-10.2c3.3-6.6,6.1-9.8,7.3-9.2c1.2,0.6,1.8,10.1-0.5,13.9
						C143.6,46.1,141.7,48,139.4,49.3z"/>
					<path class="st3" d="M133.3,83.1c1,0.1,4.8-8,0.7-12s-6.8-6.4-8.6-5.9c-1.7,0.5-1.6,11.1,2.1,14.1
						C131.3,82.3,132.4,83.1,133.3,83.1z"/>
					<path class="st3" d="M134.6,65.6c-4.8-2.6-8.1-7.1-9.1-12.5c-1.9-9.2-1.8-12,0-12.5c1.7-0.5,9.8,1.9,11.3,9.1
						C138.4,57,134.6,65.6,134.6,65.6z"/>
					<path class="st1" d="M117.2,6.8c1.1-0.1,2.2,0.3,2.9,1.1c0.6,0.7,0.9,1.5,0.9,2.4c-0.1,1.2-0.9,2.3-2,2.7
						c-2,0.8-5.1-0.5-4.8-3.4C114.5,8.2,115.7,7,117.2,6.8z M115.8,10.7c0.6,1.7,3.8,1.5,4-0.4c0-1.2-1-2.1-2.2-2.1
						c-0.1,0-0.1,0-0.2,0c-1.1,0.1-1.8,1.1-1.7,2.2C115.7,10.5,115.7,10.6,115.8,10.7z"/>
					<path class="st4" d="M135.7,75.4c0.3-0.5,0.4-1.3,0.8-1.8c-1.1-7.2,2.1-12.2,6.7-14.7c2.1-1.2,6.8-2.9,8.4-0.2
						c1.2,2.1,0.1,5.7-0.8,7.7c-2.1,4.6-5.9,9-13,7.7c-1.8,4-2.4,10.6-1.8,16.6c0.1,1.2,0.6,2.9-0.9,2.3c-0.1,0.8,0.1,1.9-0.6,2
						c-0.4,0.1-0.7-0.2-0.8-0.6c0,0.7-0.1,1.3-0.2,2.1c-0.1,0.5-0.3,2.2-1.3,1.4c-0.3-0.3-0.1-1.3,0-1.8c0.6-4.4,0.3-10.4-0.9-13.6
						c-0.5,1.2-2.5,0-3.3-0.4c-2.5-1-4.8-2.4-6.9-4c-2.1-1.5-3.8-3.5-5.1-5.8c-0.5-0.8-0.8-1.7-1-2.6c0-0.6,0.1-1.2,0.1-1.8
						c0-0.6,0.1-1.2,0.2-1.8c0.3-0.5,0.7-1,1.3-1.2c2.9-1.6,7.5-0.1,9.8,1c2.6,1.2,5,3,6.8,5.3c-0.1-1.6-0.1-3.2-0.2-4.7
						c-1.7-1.2-3.2-2.6-4.5-4.2c-1.4-1.6-2.5-3.4-3.4-5.3c-0.9-2.1-1.6-4.4-2-6.7c-0.5-2.4-1.2-5-1-7.7c0.1-1.8,1-3.2,3.2-3.1
						c1.6,0.2,3.2,0.9,4.5,1.9c3.9,2.7,7.2,7.2,6.8,13.6c0.2-1.1,0.4-2.5,0.6-3.8c0.1-0.4,0.2-0.8,0.2-1.2c-0.2-0.5-0.5-1-0.8-1.4
						c-1-1.5-1.6-3.3-1.6-5.1c0.1-1.5,0.5-3,1.1-4.4c1.1-2.4,2.5-4.7,4.2-6.8c0.7-0.8,1.9-2.5,3.2-2.7c2.5-0.4,2.4,3.7,2.3,5.9
						c-0.3,7.1-2.7,11.8-7.1,14.7C137.3,58.3,136.4,66.7,135.7,75.4z M139.5,47.8c0.6-0.6,1.2-1.2,1.7-1.9c2-2.7,3.1-6.9,3.1-11.4
						c0-1.2-0.1-2.8-0.6-3.4c-0.8,0.2-2,1.5-2.7,2.4s-1.3,1.9-2,2.9c-1.3,2-2.8,4.4-2.8,7c0,1.6,0.5,3.2,1.4,4.5
						c0.1-1.2,0.4-2.3,0.6-3.6c0.1-0.8,0.1-3.1,1.1-3.1c1,0.1,0.5,1.3,0.4,2c-0.3,1.6-0.5,3.5-0.8,4.9
						C139.1,48.2,139.3,47.9,139.5,47.8z M134.1,48.8c-0.8-1.7-1.9-3.3-3.3-4.6c-1.3-1.4-3-2.5-4.8-3.1c-0.4-0.1-0.9-0.2-1.3-0.2
						c-1.5,0.1-1.5,2-1.3,3.7c0.1,1.2,0.3,2.4,0.6,3.6c0.4,2.3,1,4.5,1.7,6.7c1.3,3.6,3.6,6.7,6.5,9.2c0.2,0.2,0.5,0.4,0.5,0.3
						c-0.7-4-1.9-7.9-3.5-11.7c-0.3-0.6-1.2-2.1,0.1-2.1c0.5,0,0.7,0.6,0.9,1.1c1.5,3.3,2.7,6.8,3.6,10.4
						C135,58.4,135.8,52.8,134.1,48.8L134.1,48.8z M148.3,68.1c1.3-1.9,2.2-4.2,2.4-6.6c0.2-2.3-0.6-3.2-2.9-3
						c-1.5,0.2-2.9,0.7-4.1,1.5c-3.6,2.1-6,5.5-6,10.9c1.4-2.4,3.1-4.6,4.9-6.6c0.4-0.4,1.4-1.8,2.1-1.8c0.3,0,0.6,0.3,0.6,0.7
						s-0.6,0.8-0.9,1.1c-2.5,2.5-4.5,5.3-6.1,8.4C143.6,73.4,146.1,71.2,148.3,68.1L148.3,68.1z M134,65c0.4,2.6,0.4,6,0.4,8.7
						c0.3-5,0.9-10,1.4-14.6C135.4,61.2,134.8,63.1,134,65L134,65z M133.4,75.2c-0.4-1.8-1.3-3.5-2.7-4.8c-1.3-1.3-2.8-2.3-4.4-3.1
						c-1.8-1-3.7-1.6-5.7-1.8c-2.3-0.2-4.4,0.2-4.5,2.5c0,2,1.1,3.8,2,5.2c2.9,4.1,7.4,6.5,12.3,8.3c0.2,0.1,0.5,0.2,0.6,0.1
						c-1.2-3.4-3.3-5.9-5.7-8.1c-0.3-0.3-0.9-0.7-0.8-1.1c0.1-0.3,0.3-0.6,0.7-0.6s0.9,0.6,1.2,0.8c2.5,2.4,4.9,5.3,6,8.8
						C133.3,79.5,133.6,77.3,133.4,75.2L133.4,75.2z M133.3,82.7c-0.1,0.2-0.4,0.5-0.4,0.8c0.1,0.5,0.2,0.9,0.3,1.3
						c0.3,1.5,0.4,2.9,0.6,4.4c0-2.8,0.2-5.7,0.2-8.3C133.8,81.4,133.6,82.1,133.3,82.7L133.3,82.7z"/>
					<path class="st1" d="M128.1,30.4c2.7-0.3,2.7,3.8,0.6,4.3c-1.2,0.2-2.5-0.6-2.7-1.8c0-0.2,0-0.3,0-0.5
						C126.1,31.3,127,30.4,128.1,30.4z M128.3,33.3c0.7-0.1,0.8-1.6-0.1-1.5C127,31.9,127.5,33.4,128.3,33.3L128.3,33.3z"/>
					<path class="st1" d="M118.2,34.3c1-0.2,2,0.4,2.2,1.4c0.2,1.1-0.4,2.1-1.5,2.4c-0.7,0.2-1.5-0.1-2-0.7
						c-0.4-0.5-0.5-1.2-0.3-1.8C116.9,34.9,117.5,34.4,118.2,34.3z M118.7,36.7c0.6-0.2,0.3-1.1-0.2-1.1c-0.3,0-0.5,0.3-0.5,0.6
						S118.3,36.7,118.7,36.7C118.7,36.7,118.7,36.7,118.7,36.7z"/>
					<path class="st5" d="M131.9,0.5c3.2-0.3,6,1.1,7.3,2.9c1,1.4,1.4,3.2,1.2,4.9c-0.1,1.9-0.9,3.8-2.2,5.2c-1.8,1.8-5,2.6-7.9,1.8
						c-2.6-0.7-5.6-2.8-5.3-6.6c0.1-0.6,0.2-1.3,0.4-1.9c0.2-0.5,0.4-1.4,1.1-1.1c0.7,0.3-0.1,1.5-0.2,2.1c-1.2,4.8,4.3,7.8,8.7,6.3
						c2.4-0.8,4.1-3.1,4.2-5.6c0.3-3.9-1.8-6-4.9-6.6c-2.3-0.6-4.7,0.2-6.3,2c-0.3,0.4-0.7,1.4-1.4,1s0.1-1.3,0.4-1.6
						C128.2,1.7,130,0.7,131.9,0.5z"/>
					<path class="st5" d="M135.1,6.1c-1.1-0.2-1.8,0.7-2.2,1.5c-0.2,0.5-0.2,1.1-0.7,1.2s-0.9-0.4-1.2-0.6c-0.4-0.3-0.7-0.5-1.1-0.6
						c0.3,1.2,1.2,2.2,2.4,2.6c0.7,0.3,2.1,0.3,2.1,1c0,0.3-0.2,0.4-0.4,0.6c-1.3-0.1-2.6-0.6-3.6-1.4c-0.9-0.7-1.9-2-1.7-3.3
						c0.2-1.6,2.5-0.5,3.2,0.1c0.6-1.1,1.3-2.3,2.7-2.4c1.2-0.1,1.9,0.6,1.8,2c-0.1,0.8-0.3,1.6-0.6,2.3s-0.7,2.3-1.5,1.6
						c-0.6-0.4,0.3-1.7,0.4-2.1C135.1,7.8,135.2,7,135.1,6.1z"/>
					<path class="st5" d="M114.4,29.5c-1.5,0.9-3,1.8-4.7,2.8c-0.3,0.2-1.2,1-1.7,0.6s0.3-1.8,0.5-2.2c0.4-0.8,0.7-1.4,1-2.1
						c-1.3-0.2-2.6-0.5-3.9-0.9c-1.6-0.6-3.7-1.7-3.9-3.9c-0.2-1.9,0.4-3.8,0.8-5.4c0.5-2.2,1.3-4.4,3.7-4.6
						c1.7-0.2,3.3,0.4,4.7,0.8c1.4,0.4,2.8,0.8,4.3,1.1c3.8,0.8,9.4,0.7,9.4,5.3c-0.1,1.5-0.3,3-0.8,4.5c-0.7,2.3-1.8,5-4.6,5.2
						C117.6,30.6,115.9,30.2,114.4,29.5z M113.5,28.6c0.3-0.2,0.9-0.6,1.3-0.6s0.4,0.4,0.7,0.7c1,0.5,2.1,0.7,3.2,0.8
						c2.6,0,3.4-2.2,4-4.2c0.6-1.5,0.9-3.1,0.8-4.7c-0.2-1.9-1.9-2.4-3.8-2.8c-1.5-0.3-3.1-0.6-4.4-0.8c-1.5-0.3-2.9-0.7-4.1-1
						c-1.4-0.5-2.8-0.8-4.3-0.9c-0.9-0.1-1.9,0.4-2.3,1.2c-0.5,1.1-0.9,2.3-1,3.5c-0.3,1.4-0.9,3.4-0.3,4.7c0.8,1.7,3.6,2.5,5.9,2.8
						c0.5,0.1,1.9,0,2,0.6c0.2,0.6-0.4,1.1-0.6,1.5c-0.3,0.5-0.4,1-0.7,1.4C111.2,30.1,112.2,29.4,113.5,28.6z"/>
					<path class="st1" d="M72.2,98.4l0.7-6.2c0,0-1.9,0.4-2.1-0.7s-0.1-1.5-0.9-1.8s-2.4-0.7-3.4-1.8s-2.1-2.5-2.1-2.5
						S54.8,98,46.6,103.5s-15.1,7.1-18.3,2.7c-3.3-4.3-3.7-13-0.8-21.5s8.4-23.2,8.4-23.2c-0.6-1.5-2-2.4-3.5-2.5
						c-2.7,0-4.4,1.1-4.9,0.2c-0.3-0.6-0.4-1.3-0.3-2C26,56.4,25,55.3,24.3,54c-1-2-0.9-2.8,0.2-4c0.8-0.8,1.8-1.5,2.8-2.1
						c0,0-2.8-0.2-2.2-1.3s2.9-2.5,2.9-2.5s-2-1.2-4.7-2.9c-1.5-0.9-2.8-2-4-3.2l5-0.6l-0.7-1.5c-0.7-0.3-1.3-0.9-1.5-1.6
						c-0.2-1.1-0.4-2.1-0.4-2.1s-3.8-4.2-2-7.4s2.9-1.9,2.9-1.9l8.1,6.7c0,0,0.2-3.7,3.2-4c3.1-0.3,5.9,1.7,5.9,1.7l2-3l-0.5,4
						l2.5,1l-2.4,1.6c0,0,3.7,5.6,1,9.1c-1.7,2.2-4,3.8-6.6,4.6c2.9,0.5,5.8,1.6,8.3,3.1c3.8,2.3,6.1,4,5.8,9.3
						c-0.3,5.2-3.3,18.1-3.3,18.1s7.4-10.3,10-13.6c1.8-2.2,3.7-4.3,5.8-6.2c0,0-10.3-3-11.1-8.2c-0.8-5.2,1.6-8.4,5.7-10.4
						c4-2,4.2-6.5,4-11.3c-0.3-4.8,1.7-13.2,11.6-14.4c16.1-1.8,31.1,7.7,32.6,18.6c1.5,10.9-0.2,16.3,3.3,18.9
						c4.8,3.7,17.9,1.6,20.3,9.5c2.7,8.8-2.8,19.4-2.8,19.4s9.6,14.1,10.7,17.2c1.1,3.1,4.6,10.7-3,13.1s-51.5,0.9-53,1
						s-4.5-1-6.2-0.8s-4.1,1.5-6.5,1.2c-1.4-0.1-2.8-0.4-4.1-0.8c0,0-0.8,1.3-1.2,0.6c-0.4-0.7-2-2.1-1.1-3.2s2.3-3.5,4.3-4.3
						C67.9,100.6,72.2,98.4,72.2,98.4z"/>
					<path class="st4" d="M29.2,85.8c0,0-4.1,14.6,0.4,19.9c3.5,4.1,10.6,2.6,15.9-1.3C50.8,100.6,64,85.7,64,85.7s0.1,0.4,1.9,1.5
						c1.4,0.8,2.9,1.5,4.4,2.1c0,0,0,1.7,0.7,2.2s32-1.8,32-1.8c1.1-0.8,2-1.8,2.7-2.9c1-1.5,1.7-5,1.7-5l-3.9-6.3
						c0,0,1.5-1.8,1.7-1.4c0.2,0.3,7.8,14.7,10.9,19.8c0.1,0.1,4.7-0.4,4.8-0.3c1.8,0.8,0.3,1.3,0.3,1.3L112,96c0,0,3.8,4.4,3.4,6.8
						s-2.7,6.8-2.7,6.8s12.9-0.3,17.7-0.7s7.5-2.7,7.7-5.1s0.7-7.5-4.8-15.9c-6-9.1-12.9-19.7-14.9-22.9c-1.4-2.2-3-4.3-4.9-6.1
						c0,0-16.5,8.4-33.1,7.7s-22-2.7-22-2.7L45.2,80.1L44,84.2c0,0-2.2,3.8-6,4.3C34.8,88.9,31.6,87.9,29.2,85.8z"/>
					<path class="st3" d="M30.5,29.4c0,0,1-4.2,3.9-4.1c1.8,0.1,3.6,0.6,5.1,1.6l2.5-2.2l-0.9,3.5l2.6,1.4L41,30.7c0,0,5,5.4,1.5,9
						c-1.7,3.4-9.9,6.1-14.9,3.8c-2.9-1.3-5.6-3-8-5.2l4.1-1.1l0.3-1.3c-0.7-0.2-1.4-0.7-1.8-1.3c-0.3-0.7-0.5-1.3-0.7-2
						c0,0-3.5-2.9-2.5-5.6s2.9-5.2,3.9-4.5C23.8,23.3,30.5,29.4,30.5,29.4z"/>
					<path class="st6" d="M65.6,54.3c0,0-12.9-3.7-12-9.2c1.1-6.6,7.7-6.9,8.9-11.5c0.1-0.4-0.5-1.3-0.5-1.8c0-1.2,1-4,1-4.2
						c-0.2-4.8,0.2-9.5,3.8-11.9c4.6-3.1,10.5-4,16.9-2.5s18,5.3,20.6,14.4s-0.2,17.8,3,19.9c3.3,2,4.5,3.2,9.1,4s14,2,13.2,11.5
						s-3.4,13.8-3.4,13.8s-9.9-15-11.8-17.4c-1.9-2.4-9-8.5-13-7.7c-4.1,0.8-8.5,2.5-10.1,0.8s-2.9-8.9-2.9-8.9s4.4,1.4,6.5-2.1
						s0.2-5.9-1.8-5.5c-1.5,0.5-2.9,1.2-4.1,2.2c0,0-9.9-4.5-11.4-9.4c-0.8-2.7-1.8-5.3-2.9-7.8c0,0-1.4,1.3-2.9,2.6
						c-1.5,1.3-2.5,2.2-2.5,2.2s-4.3,0.1-5.8,1.4c-2,1.6-2,7.1,0,8.1c1.8,0.9,1.9,1.6,1.9,1.6s-1.2,6.8,2.1,9.6
						c2.3,1.8,5,2.8,7.9,2.8l0.9,4.6c0,0-6.3-0.3-7.9-0.3C67.5,53.5,66.5,53.8,65.6,54.3z"/>
					<path class="st4" d="M69.5,29.9c-0.6-0.1-1.3,0.3-1.4,0.9l0,0l-0.3,1.3c-0.2,0.6,0.2,1.3,0.8,1.5l0,0c0.6,0.1,1.3-0.3,1.4-0.9
						l0,0l0.3-1.3C70.5,30.8,70.1,30.1,69.5,29.9z"/>
					<path class="st4" d="M80.1,31.6c-0.7-0.2-1.5,0.2-1.6,1l-0.4,1.3c-0.2,0.7,0.3,1.4,1,1.6c0.7,0.2,1.4-0.2,1.6-0.9l0.4-1.3
						C81.3,32.5,80.9,31.8,80.1,31.6z"/>
					<g>
						<path class="st3" d="M67.1,25.8c3-0.1,5.6,2.2,5.7,5.3c0.1,3-2.2,5.6-5.3,5.7c-3,0.1-5.6-2.2-5.7-5.3c0-0.1,0-0.2,0-0.2
							C61.8,28.3,64.1,25.9,67.1,25.8z"/>
						<path d="M67.1,37.3c-3.3,0.1-6.1-2.5-6.3-5.8c-0.1-3.3,2.5-6.1,5.8-6.3s6.1,2.5,6.3,5.8c0,0.1,0,0.2,0,0.2
							C73,34.6,70.4,37.3,67.1,37.3z M67.1,26.4c-2.7-0.1-5,2-5.1,4.7s2,5,4.7,5.1s5-2,5.1-4.7c0-0.1,0-0.1,0-0.2
							C71.8,28.6,69.7,26.5,67.1,26.4z"/>
					</g>
					<g>
						<path class="st3" d="M78.9,28.1c3.2-0.1,5.9,2.4,6,5.6s-2.4,5.9-5.6,6s-5.9-2.4-6-5.6c0-0.1,0-0.1,0-0.2
							C73.3,30.7,75.8,28.1,78.9,28.1L78.9,28.1z"/>
						<path d="M78.9,40.3c-3.5,0.1-6.5-2.7-6.6-6.2s2.7-6.5,6.2-6.6s6.5,2.7,6.6,6.2c0,0.1,0,0.1,0,0.2
							C85.2,37.4,82.4,40.2,78.9,40.3z M78.9,28.7c-2.9-0.1-5.3,2.2-5.4,5c-0.1,2.9,2.2,5.3,5,5.4s5.3-2.2,5.4-5c0-0.1,0-0.1,0-0.2
							C84,31.1,81.8,28.7,78.9,28.7z"/>
					</g>
					<path class="st1" d="M70.3,25.4l1.1,5.4L70,33l-2,1l-2.3,0.4c0,0-1.4,3.7,1.4,3.3c1.9-0.4,3.6-1.3,4.9-2.7l0.7-1.5l0.6-2.4
						l0.1-3.8C73.3,27.3,70.6,23.8,70.3,25.4z"/>
					<path class="st4" d="M54.5,63.5c-0.4-0.6-2.8-0.7-2.7-1.8c0.1-0.9,1.1-0.5,1.7-0.3s1.2,0.6,1.8,0.9c1.8-2.2,3.5-4.7,5.7-6.6
						c-3.2-1.1-6-2.6-8.1-4.9c-1.9-2-3.7-6-1.8-9.7c1.5-3,4.8-3.8,7.2-5.9c2.5-2.2,2.2-6,2.2-10.7c0-4.5,1-7.5,3.2-9.8
						c2.4-2.2,5.4-3.7,8.7-4.3c8-1.7,15.9,0.8,21.1,3.8c5.4,3.2,9.9,7.5,12.1,14c0.6,1.7,1,3.6,1.1,5.4c0.2,4.1-0.6,9.1,0.8,12
						c1.4,2.7,4.7,4.2,8.3,4.7c1.9,0.2,3.7,0.5,5.6,0.9c3.1,0.8,5.8,2.8,7.6,5.5c1.7,2.8,2,7,1.3,10.9c-0.6,3.4-1.8,6.6-3.3,9.7
						c3.2,6.1,8,10.7,10.7,17.2c1.2,3,2.6,8,0.5,11.2c-1.8,2.7-9.9,4.1-9.4,3.7s-9.6,0.3-14.2,0.1c-9-0.4-17.5,0.2-26.9-0.1
						c-2.1-0.1-4.6,0-6.7,0c-1,0-2.1-0.1-3.1-0.4s-2-0.4-3.1-0.3c-2.2,0.3-5.5,2.5-7.6,0.8c-1.3,0.4-3,0.1-3.2-0.9
						c-0.3-1.3,1.1-2.5,1.8-3.2c2.2-2.1,4.8-3.3,8.4-4c0.8-0.2,1.7-0.2,1.7,0.4c0.1,1-2.1,1-3,1.2c-1.1,0.3-2.1,0.7-3.1,1.1
						c-1.9,0.9-3.4,2.2-4.5,3.9c0.3,0.3,1.1,0.1,1.5,0.2c1.7-2.3,4.6-3.8,7.9-4.6c0.8-0.2,3.2-1,3.2,0.2c0,0.8-1.8,1-2.5,1.1
						c-2.9,0.8-5.5,1.9-7.1,3.7c2.5,0.4,4-0.9,6-1.3c2.3-0.4,4,0.8,6.4,0.8c0.3,0,0.6-0.1,0.9-0.1c1.2-0.1,2.5,0.1,3.8,0.1
						c8.3,0,16.5,0.6,24.9,0.6c0.6,0.1,1.3,0.1,1.9,0c0.4-0.1,0.9-1.1,1.2-1.5c0.4-0.5,0.7-1.1,0.9-1.7c1.2-3.2-0.4-6.1-2-7.9
						c-0.4-0.4-0.8-0.9-1.3-1.3c-0.4-0.4-1.1-1.1-1.5-1.2c-0.6,0-1.2,0-1.8,0.1c-13.5,0.7-27.4,1.1-37.7,5c-1.7,0.6-3.3,1.5-4.8,2.6
						c-1.3,1.1-2.7,2.4-2.9,4.5c1.5-3.2,4.3-5.5,7.6-6.6c0.8-0.3,3.4-1.4,3.4-0.1c0,0.7-0.8,0.8-1.5,0.9c-4,1-6.5,3-8.2,6.3
						c-0.2,0.4-0.5,1.4-0.9,1.5c-0.5,0-0.9-0.1-1.3-0.3c-0.4-0.5-0.5-1.2-0.5-1.8c0-2.6,2.5-4.7,4-5.9c2-1.4,4.3-2.5,6.7-3.1
						c0.3-1.8,0.6-3.5,0.9-5.3c-0.6,0-1.2-0.2-1.7-0.6c-0.5-0.5-0.3-1.2-0.6-1.9c-0.2-0.4-1-0.6-1.6-0.8c-1.6-0.7-3-1.7-4.2-3
						c-4.3,5.7-9.3,10.9-14.7,15.6c-2.7,2.4-5.9,4.4-9.2,5.9c-3.4,1.4-8.7,2.6-11.8-0.1c-2.5-2.2-3.8-6.7-3.7-11.4
						c0.2-4.3,1-8.6,2.6-12.6c0.7-1.9,1.2-3.8,1.8-5.7c1.8-5.7,3.8-11.3,5.8-16.9c-1-0.8-2.3-1.3-3.6-1.3c-2.4-0.2-5.2,0.3-5.2-2.2
						c-1.6-1.4-4.3-4.4-2.7-7.3c0.5-0.8,1.2-1.4,2-1.8c0.3-0.1,0.6-0.1,0.8-0.4c-0.8-0.4-1.8-0.6-2-1.4c-0.4-1.5,1.4-2.4,2.5-2.9
						c-2.3-1-4.5-2.3-6.5-3.8c-0.6-0.5-1.8-1-1.7-1.9c0.1-0.8,1.3-0.9,2.1-1c0.9-0.1,1.7-0.3,2.5-0.6c0.1-0.4-0.4-0.5-0.5-0.6
						c-0.9-0.5-1.6-1.4-1.8-2.4c-0.1-0.2,0-0.6-0.1-0.8s-0.6-0.7-0.8-1c-1-1.1-1.5-2.4-1.5-3.8c0-1.9,0.7-3.8,2.1-5.1
						c0.6-0.6,1.5-0.9,2.3-0.8c0.7,0.2,1.2,1,1.7,1.5c1.7,1.7,3.5,2.9,5.3,4.4c0.7-1.9,2.4-3.1,4.3-3.3c1.8-0.1,3.6,0.4,5.1,1.5
						c0.4-0.3,0.8-0.7,1.2-1.1c0.4-0.3,0.8-1,1.4-1c0.8,0.1,0.6,1.1,0.5,1.9c-0.1,0.7-0.2,1.4-0.5,2.1c0.8,0.6,2.4,0.3,2.5,1.4
						s-1.3,1.2-2,1.6c0.8,1.6,1.9,3.4,1.7,5.9c-0.3,3.9-3.5,6.6-6.8,7.5c5.8,1.6,11.6,3.1,13,9c0.8,3.1,0.2,6.8-0.4,9.9
						c-0.6,3.2-1.4,6-2.1,9c0,0,0,0-0.1,0C50,69.6,52.3,66.4,54.5,63.5z M129.1,64.1c0.1-7.3-4.3-11-10.7-11.9
						c-2.2-0.2-4.3-0.6-6.4-1.2c-3.6-1.3-6.3-3.6-6.9-8.2c-0.1-2.4-0.1-4.8,0-7.3c0.1-2.2-0.3-4.5-0.9-6.6c-1.2-3.5-3.2-6.6-6-9.1
						c-2.7-2.5-5.7-4.6-9.1-6c-4-1.8-8.3-2.6-12.7-2.4c-4.5,0.2-8.3,1.5-10.9,3.6c-1.4,1-2.5,2.4-3.1,4.1c-0.7,1.7-0.8,3.8-0.8,6.4
						c0.1,2.3,0,4.6-0.3,6.9c-0.3,1.8-1.3,3.3-2.7,4.4c-2.6,2-6.8,3.1-7.1,7.3c-0.3,3.7,1.7,5.9,3.9,7.6c1.5,1.1,3.2,2,4.9,2.6
						c0.6,0.3,1.2,0.5,1.9,0.6c0.4,0,0.9-0.5,1.3-0.7c3.2-1.4,8.1-1.5,12.1-0.6c-0.3-1.2-0.7-2.4-0.9-3.7c-4.2,0.1-6.3-1.5-8-3.8
						c-1.3-2-2-4.5-1.9-6.9c0-1,0-2.2,0.8-2.2s0.6,0.4,0.6,1.7c-0.2,2,0.3,4.1,1.3,5.9c1.1,1.9,2.9,3.7,5.7,3.9c2,0.1,4-0.3,5.9-1.1
						c1-0.4,2.5-1.1,3.6-1.7c0.4-0.2,1.7-1,1.7,0.1c0,0.7-1.1,1-1.7,1.3c-2,1.2-4.3,2-6.6,2.5c0.5,2.1,1,4.1,1.7,6.1
						c0.2,0.6,0.5,1.7-0.4,1.7s-0.9-1.7-1.3-2.4c-3.9-1.1-9.3-1-12.4,0.6C61,57,59,59.5,57.3,61.9c-0.3,0.3-0.5,0.7-0.6,1.1
						c4.3,1.7,8.9,2.7,13.6,2.9c5.2,0.2,10.5,0,15.7-0.6c5.1-0.5,9.9-1,14.3-2.2c4.2-1.2,8.2-2.6,12.2-4.4c-0.9-1.2-2-2.2-3.3-3.1
						c-1.3-1-2.7-1.8-4.3-2.3C103,52.8,101,52.7,99,53c-1.9,0.3-3.6,1.1-5.6,0.9c-3.7-0.3-4.5-4.2-5.3-7.4c-0.3-0.9-0.5-1.8-0.6-2.7
						c0-0.5,0.1-1.2,0.6-1.3s0.6,0.2,0.9,0.3c2.5,1.3,5.8-1.1,6.1-3.3c0.2-1.1-0.5-2.2-1.6-2.6c-1.2-0.3-2.1,0.4-2.8,0.8
						c-0.4,0.2-0.7,0.5-1.1,0.8c-0.3,0.3-0.7,0.8-1.2,0.7s-0.4-0.6-0.7-0.8c-0.4-0.2-0.8-0.4-1.2-0.6c-1.2-0.6-2.4-1.3-3.5-2.1
						c-4.4-2.9-7.2-7.5-8.4-13.6c-1.5,1-2.9,2.2-4.1,3.6c0.4,0.4,0.7,0.8,0.9,1.3c0.9,2.2,0.4,4.7-1.2,6.4c-0.7,0.8-1.7,1.3-2.7,1.5
						c-0.9,0.2-3.3,0.8-3.3-0.4c0-0.9,1.2-0.6,2-0.8c2.4-0.3,4.1-1.6,4.3-4c0.1-1.6-0.6-3.1-1.9-4c1.6-2,3.5-3.7,5.7-5.1
						c-0.2-0.6,0-1.1,0.5-1.1c0.6,0,0.7,0.6,0.8,1.1c0.5,3.6,1.9,7,3.9,10c2.4,3.2,5.6,5,9.1,6.7c1.4-0.8,2.4-2,4.4-1.9
						s3.6,1.9,3.4,3.9c0,0.1,0,0.2,0,0.2c-0.3,2.6-3.3,5-6.1,5c-0.5,0-0.9-0.2-1.4-0.2c0.8,2.5,1.1,6.8,3.3,7.9
						c1.7,0.8,4.6-0.3,6.3-0.6c2.2-0.4,4.5-0.3,6.7,0.3c3.7,1.1,6.4,3.6,8.6,6.2c4.6,5.3,7.9,11.6,11.8,17.9
						C127.4,72.4,129.1,68.8,129.1,64.1L129.1,64.1z M34,31.7c0.3,0.2,0.8,0.7,0.8,1.1c0,0.3-0.3,0.6-0.6,0.6
						c-0.5,0-1.2-0.8-1.5-1.1c-3.3-3.1-7.1-6-10.1-8.9c-1,0.1-1.7,1.2-2,1.6c-0.4,0.7-0.7,1.5-0.8,2.3c-0.1,1.1,0.2,2.2,0.9,3.1
						c0.5,0.7,1.2,1,1.4,1.6c0.1,0.6,0.2,1.1,0.3,1.7c0.4,0.9,2,1.3,2.2,1.9c0.1,0.3,0,1,0.1,1.2c0.3,0.8,1.8,0.9,2.8,0.8
						c1-0.1,2.5-0.9,2.5,0.3c0,0.8-1.7,1-2.6,1.1c-1,0.1-1.9-0.1-2.8-0.5c-0.4-0.2-0.7-0.7-1-0.7c-0.5,0.1-1,0.2-1.5,0.3
						c-0.6,0.1-1.1,0.2-1.5,0.3c3.3,3,7.6,4.8,12.1,5.1c2.6,0.3,5.2-0.5,7.3-2.1c1.7-1.2,2.7-3.2,2.7-5.2c-0.1-1.6-0.6-3.1-1.5-4.3
						c-0.2-0.4-0.7-0.9-0.7-1.3c0-0.8,1.1-0.7,1.6-1.1c-0.7-0.3-1.8-0.4-1.8-1.2c0-0.6,0.6-1.1,0.6-1.8c-0.5,0.1-0.8,1.2-1.6,1.2
						c-0.4,0-0.6-0.3-0.9-0.5c-1.1-0.7-2.3-1.1-3.6-1.2c-1.8-0.1-3.5,1.2-3.8,3C31.9,29.8,33,30.8,34,31.7z M29.2,82.8
						c-0.2,0.4-0.4,0.9-0.5,1.4c0,0.4,1.1,1,1.4,1.3c1.7,1.4,3.7,2.2,5.9,2.4c2.6,0.2,4.6-1.2,6-2.3c0.5-0.4,1-0.8,1.5-1.3
						c0.2-0.6,0.3-1.1,0.4-1.7c0.9-3.9,1.9-7.8,2.8-11.5c1.1-4.6,2.4-8.7,2.6-13.8c0.4-8.4-6.4-10.2-13-11.6
						c-1.1-0.3-2.3-0.5-3.5-0.6c-2.7-0.2-6.3-0.6-7.2,1.4c2.2,1.1,5.7,0.7,8.2,1.6c1.1,0.4,2.2,1,3.1,1.8c0.7,0.5,2.5,1.3,2.6,2.4
						s-1,1.6-1.8,2c-1.8,0.9-3.8,1.1-6.3,1.3c-2.1,0.2-4.2,0.3-3.9,2.5c0.8,0.5,2,0.4,3.1,0.4c1,0,2.1,0.2,3.1,0.4
						c1.8,0.6,2.9,2,4.7,2.3c1.1,0.1,2.3,0,3.4-0.4c0.5-0.2,2.4-1.3,2.5-0.1c0,0.6-0.7,0.8-1.1,1c-2,0.9-5.2,1.4-6.9,0.1
						C33.8,68.8,31.4,75.7,29.2,82.8L29.2,82.8z M27.7,48.5c-0.8,1.1-1.3,2.4-1.4,3.7c0.1,1.1,0.4,2.1,1,3c0.3-0.1,0.6-0.3,0.9-0.5
						c-0.7-1.8-0.4-3.8,0.6-5.4c0.1-0.2,0.4-0.4,0.4-0.7C28.7,48.6,28.2,48.6,27.7,48.5z M29.7,54.5c1.2-0.2,2.4-0.3,3.7-0.3
						c0.2-1.1-0.2-3.3,0.9-3.3c1.1,0,0.4,2,0.5,3c1.3-0.2,2.5-0.7,3.5-1.5c-2.2-1.4-3.8-3.3-7.2-3.4C29.4,50.2,28.8,52.5,29.7,54.5z
						 M26,55.6c-0.9-1.6-1.2-3.4-0.8-5.2C23.5,51.8,24.8,54.7,26,55.6z M107.3,62.2c-2.1,0.8-4.2,1.5-6.5,2.1
						c-4.9,1.2-9.8,1.9-14.8,2.3c-5.4,0.6-10.8,0.8-16.2,0.6c-4.8-0.3-9.5-1.3-13.9-3.2c-2.6,3.2-5.3,7-7.9,10.4
						c-0.5,0.5-0.9,1-1.1,1.6c-1.4,5.7-2.9,12-4.3,18.1c-0.2,0.8-0.3,2.2-1.1,2.1c-1,0-0.5-1.4-0.3-2.1c0.6-2.6,1.2-4.9,1.7-7.4
						c-1.9,1.4-4.3,2.9-7.7,2.5c-2.3-0.4-4.5-1.4-6.3-2.9c-0.2-0.2-0.4-0.5-0.7-0.4c-0.9,2.8-1.6,5.7-1.9,8.6
						c-0.3,3.1,0,6.3,1.1,9.2c1.1,2.6,2.7,4.4,6.1,4.4c3.2,0,5.8-1.2,8.1-2.4c4.6-2.3,8.3-5.7,11.9-9.2c3.5-3.5,6.8-7.3,9.8-11.3
						c-1.8-2.5-2.7-6.3-2.4-10.7c0.1-1.1,0-3.5,1-3.4s0.5,1.9,0.4,2.6c-0.6,7,1.5,11.9,5.9,14.2c0.8,0.3,1.6,0.6,2.3,1
						c0.8,0.6,0.7,1.4,1.1,2.3c5,0.1,10.2-0.5,15.5-0.9c4.4-0.4,9.1-0.8,13.5-1.1c0.6,0,1.3,0,1.9-0.2c0.6-0.3,1.1-0.7,1.5-1.2
						c1.5-1.4,2.2-3.5,2.8-5.6c-1-1.6-1.9-3.2-2.8-4.8c-0.4-0.5-0.7-1.2-0.8-1.8c0.9-1.3,1.8,0.9,2.2,1.6c3.1,5.4,6.3,11.1,9.4,16.2
						c1,0.1,2.9-0.6,2.9,0.6c0,1-1.8,0.7-2.9,0.8c-1.3,0.1-2.6,0.2-3.5,0.2c1.9,1.6,3.3,3.8,4.1,6.1c0.6,2.4,0.2,5-1.3,7.1
						c-0.2,0.2-0.4,0.6-0.3,0.8c3.9,0.2,7.9,0.2,11.8-0.1c3.7-0.3,7.4-0.8,9.7-2.4c2.6-1.8,2.5-5.9,1.4-9.2
						c-1.9-6.2-5.9-10.3-9-15.2c-4.8-7.4-8.8-15.6-14.3-22.2h-0.1C111.5,60.6,109.4,61.4,107.3,62.2L107.3,62.2z M104.1,89.5
						c1,1.3,2.1,2.5,3.1,3.7c0,0.1,0.1,0.3,0.1,0.5c2-0.1,4.1-0.1,6.1-0.3c-1.9-3.1-3.6-6.4-5.6-9.5C107.3,86.1,106,88.2,104.1,89.5
						L104.1,89.5z M105.5,93.4c-0.4-0.5-0.7-0.9-1.1-1.4s-1.2-1.6-1.7-1.6c-0.1,0-0.1,0-0.2,0c-9,0.8-19.3,1.7-28.7,2.3
						c-0.3,1.6-0.6,3.3-0.8,4.9c9.5-2.7,21.1-3.3,32.8-3.8C105.9,93.5,105.6,93.4,105.5,93.4L105.5,93.4z"/>
					<path class="st4" d="M92.8,38.7c0.4-0.1,1.1,0.1,0.9,0.8c-0.1,0.5-1.1,0.7-1.8,0.9c-0.7,0.2-1.5,0.8-2,0.7
						c-0.3-0.1-0.6-0.3-0.6-0.6c0-0.7,1.1-1,1.6-1.1C91.5,39.1,92.1,38.8,92.8,38.7z"/>
					<path class="st4" d="M74.3,39.3c0.5-0.1,0.8,0.1,0.9,0.5c0.1,0.8-1.6,1.8-2.2,2s-3.2,0.8-3.2-0.4c0-0.8,0.7-0.7,1.4-0.7
						C72.7,40.6,73.4,39.8,74.3,39.3C74.3,39.3,74.3,39.3,74.3,39.3z"/>
					<path d="M140.4,109.9H21.8c-0.3,0-0.6-0.3-0.6-0.6c0-0.3,0.3-0.6,0.6-0.6h118.6c0.3,0,0.6,0.3,0.6,0.6
						C141,109.6,140.8,109.9,140.4,109.9L140.4,109.9z"/>
					<path class="st5" d="M16.4,19c0.3,0.9,0.6,1.7,1,2.5c0.2,0.5,1.2,2.2,0.3,2.5c-0.6,0.2-1.5-0.6-1.8-0.8
						c-1.7-1.2-3.3-2.3-4.9-3.4c-2.8,1.3-6.7,1.5-8.5-0.7c-0.9-1.3-1.5-2.7-1.8-4.2c-0.6-2.4-1.4-6.1,0.2-8s5.6-2.1,8.7-2.5
						c1.7-0.2,3.3-0.5,4.8-0.8c1.5-0.4,3.1-0.7,4.7-0.9c4.7-0.4,5.5,2.5,6.1,6.4c0.3,2.2,0.8,5.3-0.3,6.9C23,18.2,19.9,18.4,16.4,19
						z M15.2,19.9c-0.2-0.5-0.7-1.1-0.5-1.7c0.1-0.7,1.7-0.6,2.4-0.7c2.7-0.3,5.7-0.9,6.7-2.8c0.7-1.3,0.2-3.8-0.1-5.5
						c-0.4-3-0.8-5.5-4.1-5.3c-3.1,0.2-5.9,1.3-9,1.7C7.9,6,3.4,6,2,7.6c-0.5,0.6-0.8,1.9-0.7,3.2c0.2,2.4,1,5.7,2.1,7.2
						c0.6,0.8,1.5,1.3,2.4,1.3c1.4,0.1,2.8-0.1,4-0.6c0.3-0.2,0.4-0.7,0.8-0.6c0.4,0,1,0.5,1.3,0.8l2.5,1.7c0.4,0.3,0.8,0.6,1.3,0.8
						C15.6,20.9,15.4,20.4,15.2,19.9z"/>
					<path class="st1" d="M42.6,13.9c1,1,2.6,1.3,6.6,0.8s5.8-0.8,5.9-1.8s0.4-9-2.1-9.9c-2.6-1-8.5,0.7-9.4,0.8S41.8,3.3,41.8,5
						s0.5,2.8,0.4,4S41.6,12.9,42.6,13.9z"/>
					<path class="st3" d="M44.4,13c1,1,2.6,1.3,6.6,0.8s5.9-0.8,5.9-1.8s0.4-9-2.1-9.9s-8.4,0.8-9.4,0.8s-1.8-0.5-1.8,1.2
						s0.5,2.8,0.4,4S43.3,12,44.4,13z"/>
					<path d="M85.6,29.2c-0.1,0-0.2,0-0.3-0.1c-0.1-0.1-0.2-0.2-0.3-0.3c-0.3-0.8-1.4-2.5-4.4-2.9c-3.6-0.6-5.4,1.4-5.4,1.5
						c-0.2,0.2-0.5,0.2-0.8,0.1c-0.2-0.2-0.3-0.5-0.1-0.8c0.1-0.1,2.2-2.6,6.5-1.9c3.5,0.6,4.8,2.7,5.2,3.6c0.2,0.3,0.1,0.6-0.2,0.8
						C85.8,29.2,85.8,29.2,85.6,29.2L85.6,29.2z"/>
					<path class="st4" d="M36.2,27.6c0.6,0,1.1,0.5,1.1,1.1s-0.5,1.1-1.1,1.1s-1.1-0.5-1.1-1.1S35.6,27.6,36.2,27.6L36.2,27.6z"/>
				</g>
			</g>
		</g>
	</g>
</g>
</svg>
