<svg xmlns="http://www.w3.org/2000/svg" xmlns:xlink="http://www.w3.org/1999/xlink" id="Layer_1" x="0" y="0" version="1.1" viewBox="0 0 180 110" xml:space="preserve" style="enable-background:new 0 0 180 110"><style type="text/css">.st0{fill:#ffce1e}.st1,.st2{fill-rule:evenodd;clip-rule:evenodd;fill:#fff}.st2{fill:#bdbdbd}.st3{fill:#818181}.st3,.st4{fill-rule:evenodd;clip-rule:evenodd}.st5{fill:#0f0f0f}.st6,.st7{fill-rule:evenodd;clip-rule:evenodd;fill:#ffe278}.st7{fill:#ffce1e}</style><g><path d="M141.3,80.5H37.1c-2.1,0-3.8-1.7-3.8-3.8V3.8C33.3,1.7,35,0,37.1,0h104.2c2.1,0,3.8,1.7,3.8,3.8v73 C145,78.8,143.3,80.5,141.3,80.5z M37.1,1.2c-1.4,0-2.6,1.1-2.6,2.6v73c0,1.4,1.1,2.6,2.6,2.6h104.2c1.4,0,2.6-1.1,2.6-2.6v-73 c0-1.4-1.1-2.6-2.6-2.6C141.3,1.2,37.1,1.2,37.1,1.2z M135.7,74.6h-33.4c-0.3,0-0.6-0.2-0.6-0.6l0,0V42.7c0-0.3,0.3-0.6,0.6-0.6 h36.5c0.3,0,0.6,0.3,0.6,0.6l0,0v28.1C139.5,72.8,137.8,74.6,135.7,74.6z M102.9,73.4h32.8c1.4,0,2.6-1.1,2.6-2.6V43.2H103 L102.9,73.4L102.9,73.4z M40,43.2v27.6c0,1.4,1.1,2.6,2.6,2.6h52.3V43.2H40z M138.8,36.6h-36.5c-0.3,0-0.6-0.2-0.6-0.6l0,0V6.6 c0-0.3,0.3-0.6,0.6-0.6l0,0h33.4c2.1,0,3.8,1.7,3.8,3.8V36C139.5,36.4,139.2,36.6,138.8,36.6L138.8,36.6z M95.5,36.6h-56 c-0.3,0-0.6-0.3-0.6-0.6l0,0V9.7c0-2.1,1.7-3.8,3.8-3.8h52.9c0.3,0,0.6,0.2,0.6,0.6l0,0V36C96.1,36.4,95.8,36.6,95.5,36.6 L95.5,36.6z" class="st0"/><path d="M149.8,46c0,0-7.3-0.9-8.2,4.2s0,12.6,0,12.6l1.5,15.5c4.1-1.3,6.5-5.4,5.6-9.6c-1.2-7.6,7.6-3.2,7.6-14.6 C156.3,48.4,149.8,46,149.8,46z" class="st1"/><path d="M131.4,86.5c1.3-2.6-0.5-6.2,0.8-8.6c0.8-1.4,2.1-2.3,3.5-3.2c1-0.6,2.2-1.4,2.6-2.3c1.2-2.7-1.7-6-0.3-8.8 c0.4-0.6,0.9-1.1,1.5-1.4c2.1-1.2,5.4-1.5,6.9-3.4c0.5-0.8,1-1.7,1.2-2.5c0.2-0.6,0.2-2.7,1-2.7c0.9-0.1,0.8,1.1,0.6,1.8 c-0.5,2.3-1.4,4.1-2.8,5.3c-1.1,0.8-2.3,1.4-3.7,1.7c-1.2,0.4-3,0.8-3.5,1.9c-0.4,1,0,2.4,0.2,3.4c0.4,1.7,0.9,3.8,0.1,5.5 c-0.6,1.2-1.9,2-3.1,2.7c-1.2,0.7-2.6,1.6-3.1,2.8c-0.5,1.2-0.2,2.9-0.1,4.3c0.2,1.4,0,2.7-0.5,3.9c-0.5,1-1.1,2-1.7,2.9 c-2.3,3.7-2.2,10.3-1.9,16.2c0,0.6,0.1,1.4,0.2,2.2c0.1,0.5,0.2,1.5-0.5,1.5c-0.8,0.1-0.8-1.3-0.8-2.1c-0.5-7.1-0.6-15.8,2.7-19.7 c-1.1-1.3-2.1-2.7-3.1-4.1c-1.1-1.7-2.7-4.4-1.7-6.9c0.6-1.4,2.3-2.6,3.6-3.5c1.2-0.8,3.2-1.9,3.6-3.4c0.5-1.7-0.5-3.5-0.9-5.3 c-0.5-2.8-0.3-5.6,1.7-6.7c2-1.2,5.7-0.9,6.9-2.8c0.6-1,0.6-2.4,0.8-3.5c0.1-1.4,0.5-2.9,1.1-4.1c0.9-1.4,2.8-2.3,5-2.5 c2.6-0.2,5.2,0.8,6.9,2.9c1.7,2,2.6,4.4,2.6,7c0.1,2.6-0.8,5.1-2.6,7c-0.8,0.8-1.7,1.6-2.7,2.2c-0.9,0.5-2.5,1.1-2.8,2 c-0.2,0.8,0.2,1.9,0.5,2.8s0.5,1.8,0.5,2.7c0,2.2-1.1,4.1-2.9,5.3c-0.8,0.6-1.8,1-2.8,1.3s-2.3,0.5-2.7,1.4c-0.7,1.4,0.2,4-0.5,5.9 c-0.5,1.5-2,2.5-3.4,3.2c-0.7,0.3-1.3,0.5-2,0.8c-0.8,0.2-1.7,0.5-1.9-0.3s0.8-0.8,1.4-1c2.4-0.7,4.7-1.7,4.8-4.6 c0.1-2-0.4-3.9,0.7-5.1c0.8-0.9,2.4-1.2,3.7-1.7c1.9-0.6,3.4-2.1,4-4c0.2-1.2,0.2-2.4-0.3-3.6c-0.3-0.9-0.8-2.4-0.4-3.5 c0.6-1.7,2.8-2.3,4.1-3.2c1.5-1,2.6-2.5,3.2-4.1c1.5-4.1-0.2-8.9-2.9-10.7c-2.2-1.5-6.8-1.7-8.3,0.7c-1.7,2.6-0.5,6.9-2.9,8.7 c-1.1,0.7-2.3,1.1-3.5,1.3c-1.4,0.3-3.2,0.6-3.8,1.8c-1.4,2.9,1,6.3,0.9,9.1c-0.1,2.6-2.2,3.7-3.9,4.9c-1.6,1.1-3.6,2.1-3.8,4.1 c-0.2,1.7,0.9,3.5,1.7,4.7C129.4,84.2,130.3,85.4,131.4,86.5z" class="st2"/><path d="M3.3,98.9c0.8-1.4,2.1-2.3,2.3-4.4c0.1-1.3-0.3-2.6-0.3-4.2c0-2.8,1.4-4.5,2.9-6c0.3-0.3,1.8-1.9,2.1-0.6 c0.1,0.5-0.5,0.9-0.8,1.3c-1.3,1.2-2.7,2.9-2.7,5.2c0,1.3,0.3,2.9,0.3,4.1c0,4-3.3,4.4-3,8.7c0.2,1.9,0.8,3.7,1.7,5.3 c0.4,0.5,0.6,1.1,0.7,1.7c-0.3,0.2-0.9-0.1-1.4-0.1c-1.3-2.3-3-5.9-2.1-9.5c-1.5-1.1-2.9-2.1-3-4.4c0-0.8,0.2-1.7,0.6-2.4 c0.6-1.1,2.3-2,2.5-3.1c0.2-1.1-0.5-2.3-0.5-3.4c-0.2-2.7,0.8-5.3,2.8-7.2c1.4-1.6,3.4-2.6,5.5-2.9c4-0.3,6.6,3.9,4.9,7.6 c-0.6,1.2-1.5,2.3-2.5,3.2c-0.9,0.9-2.3,2-2.3,3.2c-0.1,1.1,0.6,2,1.1,2.8c0.6,1,1.4,2,1.1,3.6c-0.2,1.3-1.6,2.3-2.7,2.9 c-0.6,0.3-1.3,0.6-1.9,0.9c-0.7,0.3-1.7,0.6-1.8-0.2c-0.1-0.6,0.7-0.8,1.2-1s1.1-0.5,1.5-0.7c0.8-0.5,2.2-1.2,2.3-2.1 c0.2-1.3-0.8-2.3-1.2-3c-0.6-0.9-0.9-2-0.9-3.1c0.2-1.6,1.4-2.7,2.3-3.7c1.3-1.3,2.9-2.5,3-4.7c0.2-2.4-1.3-4.2-3.5-4.2 c-1.9,0.1-3.7,0.9-5,2.3c-1.8,1.6-2.7,3.8-2.6,6.2c0.1,1.4,0.8,2.5,0.5,3.7c-0.3,1.7-2.3,2.6-2.9,4.1C0.6,96.7,1.9,98,3.3,98.9z" class="st2"/><path d="M26.8,66.7h0.6c3.1,0.3,3.9,2.4,4.7,5.1c0.6,2.1,1.1,4.4,0,6.2c-0.6,0.9-1.4,1.7-2.2,2.5 c-0.9,0.9-2,1.8-2.2,3.4s0.5,3.2,0.7,5c0.4,4.8-1.7,7.5-4.5,9.4c-0.4,0.3-1.6,1.1-1.8,0.2c-0.2-0.7,0.8-1,1.2-1.3 c2.9-1.9,4.4-5.3,3.8-8.7c-0.2-1.9-1.1-3.7-0.5-5.6c0.9-2.7,3.7-3.6,4.6-6c0.6-1.7-0.2-3.8-0.7-5.4c-0.5-1.4-1.1-2.6-2.1-3 c-1.7-0.7-3.8,0.2-5,1c-1.8,1.1-3.5,2.7-3.7,5.1c-0.3,3.1,1.2,6.8-0.2,9.3c-1.1,2-3,3-4.1,5c-0.8,1.6-0.9,3.5-0.2,5.1 c0.7,1.4,2.2,2.3,3.5,2.9c-0.5-2.6-0.3-5.2,0.5-7s2.5-3.1,3.1-5c0.7-2.2-0.7-5.2,0.2-7.2c0.8-1.4,2.1-2.6,3.6-3.2 c0.5-0.2,1.4-0.5,1.4,0.2c0.2,0.8-1.5,1.3-2,1.7c-1.1,0.6-1.9,1.7-2,3c0,1.2,0.1,2.3,0.2,3.5c0.2,3.6-2.3,5.3-3.4,7.7 C19.5,92.4,19.7,95,20,97c0.5,3.5,1.1,7.5,0.8,11.9c0,0.5,0,1.1-0.8,1.1c-1.1-0.2-0.6-1.7-0.6-2.5c0.2-3-0.1-6-0.6-9 c-2.9-1.1-5.3-2.7-5.6-6.3v-0.9c0.2-1.7,0.9-3.3,2.1-4.5c1-1.1,2.4-2.1,3-3.6c1.1-2.5-0.3-5.6-0.1-8.4c0.2-2,1.2-3.9,2.9-5.2 C22.7,67.8,24.7,66.9,26.8,66.7z" class="st2"/><path d="M166.3,109.9H1.1c-0.3,0-0.6-0.2-0.7-0.5c0-0.3,0.2-0.6,0.5-0.7c0.1,0,0.1,0,0.2,0h165.2c0.3,0,0.6,0.4,0.5,0.7 C166.8,109.6,166.6,109.8,166.3,109.9z"/><path d="M86.7,107.7h41l4.7-35.4c0,0,2.1,21,2.5,26.7c0.4,5.7-0.3,9,2.6,9.9c2.9,0.9,11.3,0.7,11.8-0.1 c0.5-0.8-2.1-2-1.6-2c0.5,0.1,3.7-0.8,5.2,0.8s2.7,1.9,3.8,1.3s0.8-1.1,0.8-1.1c0.5,0.6,1.4,0.9,2.2,0.8c1.3-0.2,2.3-1,1.6-2.3 s-3.2-3.1-6.6-3.8c-3.5-0.7-7.4-1.3-7.4-1.3s-2.6-17.9-2.9-27.9s0.8-24.6-4.2-30.4c-5-5.9-9.1-4.7-12.6-3.8s-6,2.3-6.3,0.8 c-0.2-0.9,0-1.8,0.4-2.6c0,0,0.2-0.2,1.7-1.4c1.6-1.2,3.2-2.3,3.2-2.3s2.9,0.8,4-0.1c1.1-0.8,1.2-1.4,1.2-1.4s1.9-0.3,2.1-1.1 c0.2-0.8-0.6-2.1-0.6-2.1s3.3-3.2,3.2-4.9c-0.1-0.9-0.3-1.7-0.8-2.5c0,0,1.1-4.4-0.8-5.4c-1.9-1.1-2.3-0.5-2.3-0.5 s-2.3-5.6-4.7-4.7c-2.3,1-2.8,2.3-2.8,2.3s-2.1-4.8-4.8-3.9c-1.7,0.7-3.2,2-4,3.7c0,0-3.5,0.2-3.5,2.2c0.1,1.4,0.4,2.9,0.9,4.1 c0,0-3.8,5.2-3.2,9.6s2.3,6.8,2.3,6.8s1.1,2-1.4,2.6s-11.1-0.2-13.6,1.1c-1.4,0.7-2.7,1.5-4,2.3c0,0-0.1-1.1-1.7-1.5 c-1.4-0.4-2.7-0.5-4.1-0.5c-1.4,0.3-2.8,0.8-3.9,1.6c0,0,0-2.5,2-3s4.4-1.3,3.9-2.6c-0.5-1.4-5-1.7-7,0.9c-2,2.6-3.7,5.7-2.6,10.5 c1.1,4.8,0.8,8.3-0.4,11.7s-2.6,9-0.3,11.8c2.3,2.8,5.3,5.2,7.2,4.7s5.2-1.7,5.2-1.7L86.7,107.7z" class="st1"/><path d="M80.8,62c0,0-1.8,6,0.8,9.5c2.6,3.5,4.9,4.1,7,3.5c1.1-0.3,2.3-0.8,3.2-1.4l2.3-0.6l-4.5,25.4h9 c0,0,4.1-37.7,6.7-46.2c2.6-8.5,3.5-10.8,3.5-10.8c-2-0.6-3.9-1-6-1c-2,0.1-4,0.6-5.8,1.5l-0.7,9.3l-6.2,0.2 c0.1,1.5-0.1,3.1-0.5,4.6c-0.4,1.7-0.6,3.2-0.7,4.9c0,0-1.1,2.8-3.7,2.5c-1.4-0.1-2.8-0.6-4-1.4H80.8z" class="st3"/><path d="M121,43.3c0,0,10.8-4.2,16.1-1.2c4.6,2.6,5.9,7.8,6.1,10.5c0.2,2.6,1.8,33,1.8,33s-3.9-3.3-6.3-2.5 c-1.7,0.7-3.3,1.6-4.8,2.6l-1.5-15.1l-5.3,37.8l-17.3,0.2c0,0,6.2-34.7,8-54.2C118,50.5,119,46.7,121,43.3z" class="st3"/><path d="M114.5,16.1c0,0,0.3,1.4,2.2,1.4c1.9,0.1,2.9,0.1,2.9,0.1s-0.9,2.6,0.7,3.2c0.8,0.4,1.8,0.4,2.6,0.1 c-0.5,1.4,0.3,2.8,1.7,3.2c0.1,0,0.2,0.1,0.3,0.1c1.7,0.5,3.5,0.7,5.3,0.8c-1.3,1.3-2.6,2.7-3.7,4.1c-0.4,0.6-0.5,1.4-0.2,2.1 l1.7-1.1c0,0,2.8-0.2,3.1,0.6c0.2,0.6,0.2,1.2,0,1.7c0,0,2.4-0.5,2.5-1.7s-0.3-1.5-0.3-1.5s3.4-2.9,2.9-4.9 c-0.2-1.1-0.6-2.2-1.1-3.2c0,0,1.4-3.2,0.2-4.4c-0.8-0.8-1.9-1-2.9-0.8c0,0-2.3-3.4-4.2-3.2c-1.6,0.2-3.8,2.3-3.8,2.3 s-1.8-4.3-5-3.4c-2.3,0.6-2.1,3.4-2.1,3.4s-1.3-0.8-2.1-0.2C114.5,15.6,114.5,16.1,114.5,16.1z" class="st4"/><path d="M100.7,80.5c2.2,0.8,4.4,1.2,6.8,1.4c2.3,0.2,4.4,0.1,6.7-0.2l-3.6,23.5H97L100.7,80.5z" class="st4"/><path d="M84.9,34.3h11.2c0.8,0,1.5,0.6,1.5,1.4l-1.2,16c0,0.4-0.3,0.7-0.6,0.7H85.2c-0.4,0-0.7-0.3-0.6-0.7l-1.2-15.9 C83.5,34.9,84.2,34.3,84.9,34.3z" class="st1"/><path d="M95.8,53.1H85.2c-0.8,0-1.4-0.7-1.4-1.4l-1.2-15.9c0-1.2,1-2.2,2.3-2.2l0,0h11.2c1.2,0,2.2,0.9,2.3,2.1 l-1.2,16C97.2,52.5,96.6,53.1,95.8,53.1z M85.3,51.6h10.5l1.2-16c0-0.3-0.4-0.6-0.8-0.6H84.9c-0.4,0-0.8,0.2-0.8,0.7L85.3,51.6 L85.3,51.6z" class="st5"/><path d="M85.2,32.2c-0.5,0-1-0.4-1-0.9c0-0.1,0-0.2,0.1-0.3l0.3-0.6c0.2-0.8,1-1.4,1.8-1.4h7.8c1,0,1.4,0.8,1.7,1.4 c0.1,0.1,0.3,0.8,0.3,0.8c0.1,0.1,0.1,0.2,0.1,0.3c0,0.5-0.5,0.9-1,0.9L85.2,32.2z" class="st1"/><path d="M94.2,29.6c0.6,0,0.8,0.5,1.1,1l0.3,0.7c0,0.1-0.1,0.2-0.2,0.2l0,0H85.2c-0.1,0-0.2-0.1-0.2-0.2l0.3-0.6 c0.2-0.5,0.6-1,1.1-1L94.2,29.6z M94.2,28.1h-7.8c-1.1,0.1-2.1,0.8-2.5,1.9l-0.3,0.6c-0.1,0.2-0.2,0.4-0.2,0.6 c0,0.9,0.8,1.7,1.7,1.7l0,0h10.2c0.9,0,1.7-0.8,1.7-1.7l0,0c0-0.2-0.1-0.4-0.2-0.6l-0.3-0.7c0-0.1,0-0.1-0.1-0.2 C96.2,28.8,95.2,28.1,94.2,28.1L94.2,28.1z" class="st5"/><path d="M82.5,36.5c-0.6,0-1.1-0.5-1.1-1.1l0,0c0-0.1,0-0.2,0.1-0.2l0.5-1.3c0.5-1.6,1.4-2.5,2.5-2.5h12.3 c1.4,0,1.9,1.2,2.4,2.4l0.5,1.4c0,0.1,0,0.2,0.1,0.2c0,0.6-0.5,1.1-1.1,1.1l0,0C98.7,36.5,82.5,36.5,82.5,36.5z" class="st1"/><path d="M96.7,32.1c0.9,0,1.3,0.8,1.7,2l0.5,1.3c0,0.2-0.2,0.4-0.3,0.4l0,0h-16c-0.2,0-0.4-0.2-0.4-0.4l0.5-1.3 c0.3-1,0.9-2,1.8-2H96.7L96.7,32.1z M96.7,30.6H84.5c-0.8,0-2.3,0.4-3.2,3l-0.5,1.2c-0.1,0.2-0.1,0.3-0.1,0.5c0,1,0.8,1.8,1.8,1.8 l0,0h16c1,0,1.8-0.8,1.8-1.8l0,0c0-0.2,0-0.3-0.1-0.5l-0.5-1.3l-0.1-0.2C99.3,32.2,98.5,30.6,96.7,30.6L96.7,30.6z" class="st5"/><path d="M83.9,41.1l12.7,0.1l-0.5,6H83.9C83.9,47.2,83.9,41.1,83.9,41.1z" class="st6"/><path d="M82.7,36.8l3.6-1.6l2.1-0.1l1.4,0.4c0,0,0.6,0.8,0.4,0.9c-0.2,0.2-0.6,0.8-0.7,0.8c-0.4,0.2-0.8,0.4-1.2,0.5 s-3.2,1.2-3.2,1.3c-0.2,0.3-0.5,0.5-0.6,0.8c0,0.1-0.2,1.1-0.2,1.2s3.6-0.8,3.6-0.8c0.8-0.1,1.7,0,2.6,0.1c0.4,0.2,0.9,0.4,1.4,0.6 c0.5,0.2,1.1,0.5,1.2,0.8c0.1,0.3,0.2,1.1-0.3,1.2c-0.5,0.2-1.3,0.3-1.4,0.3c-0.2,0,1.1,0.8,1.1,1s0.2,0.5,0.2,0.9s-0.1,0.7-0.3,1 c-0.2,0.2-1.3,0.9-1.3,0.9s0.4,1.1,0.4,1.2c0,0.1,0.2,0.9-0.1,1c-0.8,0.4-1.7,0.8-2.6,1.1c-1.1,0.2-2,0.6-3,1.1 c-0.4,0.3-1,0.9-1,0.9s-1.4,1.4-1.8,0.8c-0.5-0.6-1.4-10.7-1.4-10.7L82.7,36.8z" class="st1"/><path d="M161.5,105.9c-0.9-2-3.5-2.9-6-3.6c-2.6-0.7-5.3-1.2-8.1-1.4c-1.7-13.5-2.6-27.7-3.2-42.4 c-0.3-7.5-1.2-14-5-17.9c-2.1-2.3-5.2-3.3-8.3-2.9c-3.5,0.3-5.9,1.7-9.3,2.1c-0.2-0.9,0.2-1.8,0.4-2.6c1.3-0.5,2.5-1.1,3.5-2 c0.4-0.3,0.8-0.8,1.1-0.8c0.4,0,0.7,0.1,1.1,0.2c1.1,0.2,2-0.1,2.9-0.6c0.5-0.3,0.8-0.7,1.1-1c1-0.6,2.2-0.9,2.5-2.2 c0.1-0.6,0-1.2-0.2-1.8c0.3-0.5,0.7-0.8,1.1-1.2c1-1.1,2.3-2.9,1.7-5c-0.2-0.6-0.5-1.2-0.8-1.8c1.1-2.4,0.5-6.1-2.8-5.6 c-0.4-0.7-0.6-1.6-1-2.3c-1.4-2.5-5.7-3.7-7.1-0.6c-1-1.7-2-3.2-4.4-3.4h-0.5c-2.4,0.2-3.5,1.8-4.1,3.8c-1.8,0.2-3.5,0.8-4,2.4 c-0.2,0.9-0.2,3.7,1,3.4c0.7-0.2,0.4-1,0.3-1.5c-0.4-2.3,0.8-2.8,2.6-3c0.4-0.1,0.8,0,1.1-0.2c0.4-0.4,0.5-1.2,0.8-1.7 c0.7-1.5,2.5-2.2,4-1.5c0.1,0,0.2,0.1,0.2,0.1c1,0.5,1.4,1.3,2,2.3c0.3,0.5,0.8,1.1,1.3,1.1c1.1,0,1.4-1.9,2.3-2.2 c1.3-0.2,2.6,0.3,3.4,1.4c0.6,0.9,0.8,2.8,1.8,3.2c0.4,0.2,1.2,0,1.8,0.2c0.9,0.5,0.8,2.2,0.5,3.2c-0.2,0.4-0.3,0.8-0.3,1.1 c0.1,0.8,0.9,1.6,1,2.8c0,1.6-1.2,2.9-2.1,3.8c-0.4,0.3-0.9,0.7-1,1c-0.1,0.5,0.5,0.9,0.5,1.5c0,0.5-0.3,0.9-0.8,1.1 c-0.2-0.9-0.5-2-1.7-2.2c-1.1-0.3-3.3,0.2-3.2,1.3c0.2,1.1,2-0.2,2.9,0.1c0.8,0.3,0.7,1.3,0.5,1.7c-0.3,1-2,1.4-3.2,1.2 c-0.5-0.1-0.8-0.4-1.1-0.4s-1,0.6-1.4,1c-1.9,1.5-4.8,3.2-8.6,2.7c-3.5-0.5-6-3.8-5.6-8c0.2-1.8,0.9-3.5,2-5 c0.2-0.4,1.1-1.4,0.3-1.7c-0.8-0.3-1.3,0.7-1.5,1c-1.1,1.7-1.9,3.5-2.2,5.6c-0.2,2.2,0.4,4.3,1.7,6.1c0.3,0.4,1,1.1,1,1.4 c0,0.8-0.4,1.6-1,2c-0.9,0.6-2.9,0.5-4.6,0.4c-3.3-0.2-6.9-0.3-9.3,0.6c0,0.2,0.1,0.5,0.1,0.7s0,0.5,0,0.7c1-0.4,2-0.6,3.1-0.8 c2.9-0.4,5.9,0.2,8.3,0.2c0.1,0.3-0.2,0.5-0.3,0.8c-2.2,4.1-3.5,9.4-4.6,14.8c-3.4,17.1-5.1,36.2-7.6,54.3c0.5,0.1,0.9,0.1,1.3,0.1 c1.2-9.3,2.3-18.8,3.6-28.1c0.5,0,0.9,0.2,1.4,0.3c3.6,1.1,7.5,1.2,11.1,0.5c-1.4,9-2.9,18-4.1,27.2c0.5,0.1,0.9,0.1,1.4,0.1 c2.4-18.1,5.9-35.3,7.7-54.2c0.5-4.8,0.7-9.5,3-12.5c0.8-1,1.7-1.8,2.7-2.5c1.1-0.5,2.1-0.8,3.2-1c1.1-0.3,2.3-0.5,3.5-0.7 c2.3-0.3,4.7,0.3,6.5,1.8c6.2,5,5.3,17,5.9,27.6c0.3,5.3,0.6,10.6,1.1,15.6c-0.3,0.1-0.6-0.4-1-0.6c-1.4-0.8-2.9-1.1-4.4-0.8 c-1.7,0.5-3.4,1.2-4.9,2.2c-0.8-7.9-1.4-15.8-2.3-23.8c-0.1-0.9-0.1-2.8-1-2.8s-0.5,1.9-0.5,2.8c0.2,2.5,0.5,4.2,0.7,6.6 c0.2,1.1,0.3,2.3,0.3,3.4c-0.3,3.2-0.8,6.3-1.4,9.6c-1.1,7.9-2.3,16-3.3,24c-0.1,0.5-0.2,1.4-0.3,2.4c-0.1,0.5-0.5,2,0.5,2 c1.1,0.1,1.1-2.7,1.1-3.5c1.4-9.9,2.6-18.8,3.9-28.8c0.8,7.7,1.6,16,2.2,24.2c0.2,2,0.2,4.2,0.6,6c1.1,3.5,5.3,3.1,10.1,3.1 c1.9,0,4.7,0.2,5.1-1.5c0.1-0.2,0.1-0.5-0.1-0.8c-0.1-0.2-0.4-0.3-0.2-0.5c3.2-0.1,4.7,3.5,8,1.8c0.5,0.1,1,0.2,1.4,0.1 c0.2,0,0.4-0.2,0.6-0.2c0.2-0.1,0.5,0.1,0.6,0c1.1-0.2,1.8-1.3,1.6-2.4C161.7,106.3,161.6,106.1,161.5,105.9z M117.4,53.3 c-0.9,9.5-2,19-3.5,27.9c-4.1,0.9-8.5,0.6-12.5-0.8c1.9-13.3,3.2-27.2,7.8-38c1.6,2.6,6.5,3.6,10,2.2 C118,47.1,117.7,50.2,117.4,53.3z M120.9,41.9c-0.2,0.3-0.5,0.6-0.7,0.8c-0.8,0.4-1.5,0.7-2.3,0.8c-3.3,0.9-7-0.2-8.1-2.5 c0.2-0.5,0.5-0.8,0.7-1.3c1.7-0.2,2.6-1.4,3-2.9c1.6,1.1,4.6,1.4,7,0.8c-0.5,1.3-0.5,3.3,1,3.4C121.5,41.3,121.1,41.6,120.9,41.9z M157.9,107.7c-0.8-2.7-3.9-3.6-7.6-3.9c-1-0.1-2.3-0.3-2.3,0.6s1.4,0.6,2.3,0.7c2.7,0.2,5.3,0.8,6.1,2.9c-1.7,0.5-2.9-1-4.3-1.5 s-2.9-0.8-4.4-0.6c-0.4,0-0.8,0.2-1.2,0.2c-0.8,0-1.6-0.3-2.6-0.5s-2.2-0.4-2.2,0.5c0,0.7,0.7,0.7,1.5,0.8c1.8,0.1,3.5,0.5,5.2,1.3 c-1.4,0.8-3.6,0.5-5.7,0.5c-2.5,0-5.3,0.2-6.3-1.1c-0.8-1.1-0.8-3.3-0.9-5c-0.4-5.3-0.9-11-1.4-16.1c1.5-0.9,3.2-2.3,5.4-2.6 c2.5-0.2,3.7,1.1,4.9,2.4c0.5,4.9,0.9,9.8,1.4,14.5c-0.7-0.1-1.4-0.1-1.4,0.5c-0.2,1,1.7,0.8,2.6,0.9c1.3,0.2,2.3,0.3,3.2,0.5 c0.2,0.2,0.3,0.4,0.5,0.5c0.7,0.2,1.4,0.4,2,0.5c2.5,0.7,5,1.7,5.9,4.1C158.5,107.8,158.3,107.7,157.9,107.7z M160.2,107.5 c-0.3-1.1-1.1-2-2-2.7c0.6,0.2,1.9,0.9,2.2,1.8C160.4,106.7,160.5,107.3,160.2,107.5z" class="st4"/><path d="M126.6,30.1c0.3,0.5,0.6,1.4-0.2,1.4s-1.1-0.8-1.1-1.5c0.2-2,3-3.2,3.8-4.7c-3.5,0.2-6.1-0.8-6.4-3.8 c-2.3,1.1-4.4-0.9-3.6-3.4c-1.3,0.4-2.9,0.6-3.9-0.1c-0.3-0.2-1.1-0.8-1-1.4c0.1-0.3,0.3-0.5,0.6-0.6c0.6,0,0.8,0.8,1.3,1 c0.2,0.1,0.5,0.2,0.6,0.2c1.3,0.2,3.7-1.4,3.9,0.2c0.1,0.6-0.3,1.2-0.3,1.8s0.3,1.2,0.8,1.3c1.1,0.2,1.4-0.8,2.3-0.6 c0.8,0.2,0.6,2,0.9,2.6c0.7,1.5,2.7,1.6,4.8,1.6c0.6,0,1.5,0,1.7,0.7s-0.5,1.3-0.8,1.7C128.8,27.7,127.7,28.5,126.6,30.1z" class="st4"/><path d="M113.9,19.9c2.5-0.2,4.1,1.7,4.2,4.2c0.1,2.9-1.7,4.1-3.8,4.7c-0.5,0.2-2,0.6-1.9-0.4c0-0.8,2-0.9,2.9-1.5 c1.1-0.8,1.5-2,1.4-3.2c-0.2-1.1-0.9-2.4-2-2.6c-1-0.2-3.2,1.1-3.3-0.1C111.4,20,113.2,19.9,113.9,19.9z" class="st4"/><path d="M115.1,24.6c0.4-0.2,0.8,0,0.9,0.5c-0.2,0.8-0.8,1.6-1.4,2c-0.3,0.1-0.7-0.1-0.8-0.4c0-0.1,0-0.1,0-0.2 C114,25.8,114.4,25.2,115.1,24.6z" class="st4"/><path d="M120.9,28c0.2-0.1,0.8-0.1,0.8,0.5c0.1,0.5-0.9,1.7-1.4,1.7c-0.4,0.2-0.8-0.1-0.8-0.5c0-0.1,0-0.1,0-0.2 C119.5,29.1,120.5,28.1,120.9,28z" class="st4"/><path d="M117.2,33.1c-1,0-2-0.2-2.9-0.5c-0.5-0.2-1.4-0.5-1.4-1.2c0.1-0.2,0.3-0.5,0.5-0.5c0.8,0,1.7,0.9,3.1,0.9 c1.1,0,2.6-0.4,2.7,0.6c0,0.4-0.2,0.8-0.4,1c-0.5,0.5-0.9,0.8-1.5,1c-0.7,0.2-2.4,0.6-2.2-0.5C115.6,33,116.6,33.5,117.2,33.1z" class="st4"/><path d="M129.4,31c0.3,0,0.8-0.1,0.8,0.5c0.1,0.5-0.3,0.6-0.8,0.8s-1.7,0.7-1.7-0.3C127.8,31.3,128.8,31,129.4,31z" class="st4"/><path d="M94.9,52.1c-0.1,0.4-0.1,0.8-0.2,1.2c-1.1,6.9-2,13.3-3.1,20c-1.7,0.8-3.5,1.7-6,1.4c-2-0.3-3.7-1.4-4.8-3 c-1.3-1.7-2-3.8-1.8-6c0.2-1.4,0.5-2.7,1.1-3.9c0.7,1.4,2,2.4,3.6,2.7c1.7,0.3,3.5-0.2,4.8-1.2c-0.1,0.9-0.2,1.6-0.3,2.6 c-0.1,0.6-0.4,2.2,0.6,2.1c0.8-0.1,0.8-2.3,0.8-3.2c0.3-2.6,0.6-4.6,1-7c0.2-0.8,0.8-3-0.1-3.2c-1.1-0.2-1.1,2-1.2,2.9 c-0.2,1.1-0.5,2.3-0.6,3.5c-0.9,0.9-2,2.1-3.6,2.3c-2.6,0.2-4.1-1.6-4.4-3.8c1-3.8,1.2-7.8,0.7-11.8c-0.2-1.3-0.4-2.6-0.5-3.8 c-0.1-4.4,1.7-6.8,5.1-7.8c1-0.3,2.6-0.7,3.5,0.2c-1.1,1.4-3.2,1.1-4.7,2c-0.6,0.5-1.1,1-1.3,1.7c-0.1,0.4-0.2,0.8-0.2,1.2 c-0.2,0.3-0.9,0.6-0.8,1.3c0.2,0.8,1.1,0.2,1.4,0c1.4-1.2,3.2-1.8,5-1.7c1.7,0,3.4,0.1,3.7,1.6c-0.5,0.5-1.4,0.5-2.3,0.5 c-1.6,0.1-3.2,0.4-4.7,0.8c-0.6,0.2-1.8,0.4-1.7,1.1c0.1,0.8,1.2,0.4,1.7,0.2c2.1-0.7,4.2-1,6.4-1c0.4,0.4,0.7,0.6,0.6,1.3 c-0.1,1.4-2.1,1-3.6,1.1c-1.1,0.2-2.1,0.4-3.1,0.8c-0.8,0.3-2.3,0.8-2.3,1.6c0.1,0.8,0.8,0.5,1.4,0.2c1.7-1,3.8-1.4,5.7-1.3 c0.3,0.3,0.5,0.6,0.6,1c-1.2,1.1-3.8,0.8-5.3,1.7c-0.5,0.3-0.8,0.7-1.1,1.1c-0.3,0.4-1.4,1.7-0.8,2.3c0.5,0.5,1-0.2,1.1-0.4 c0.5-0.8,1.1-1.5,1.8-2c1.9-0.9,5.5-0.4,5.6-2.6c0-0.5-0.2-1-0.4-1.4c1.5-0.2,2-2.7,1-3.8c0.5-0.3,0.8-0.8,0.8-1.3 c0.1-3.5-6.4-3.2-9-2.1c0.8-1.7,3.8-1.4,5.1-2.5c0.5-0.4,0.8-1.1,0.8-1.7c-0.2-1.4-1.9-1.7-3.6-1.6c-2,0.2-3.8,1-5.2,2.3 c-1.4,1.4-2.3,3.2-2.3,5.2c-0.2,2.6,0.2,4.6,0.5,6.8c0.3,2.4,0.3,4.7,0.1,7.2c-0.3,2-0.8,4.1-1.4,6c-0.7,2.1-1.2,4.1-0.7,6.3 c0.4,1.9,1.3,3.5,2.6,5c1.3,1.4,3.1,2.4,5,2.6c2.3,0.2,3.9-0.5,5.6-1.1c-2,11.2-3.7,21.8-5.6,33.1c-0.2,0.8-0.5,1.7,0.4,1.8 c0.8,0.1,0.8-0.7,0.9-1.4c0.3-2,0.6-3.8,0.9-5.6c2.6-16.2,5.5-31.9,8-48.3c0.1-0.3,0.2-0.9,0.3-1.5C95.8,52.7,95.4,52.4,94.9,52.1z" class="st4"/><path d="M113.2,106.1l5.7-32.5c0.1-0.3,0.3-0.5,0.6-0.4l2,0.3c1.4,0.2,2.3,1.5,2.1,2.9l0,0l-5,28.6 c-0.2,1.4-1.6,2.3-2.9,2l-2-0.3C113.3,106.6,113.1,106.3,113.2,106.1L113.2,106.1z" class="st7"/><path d="M116,107.6c-0.2,0-0.4,0-0.5-0.1l-2-0.3c-0.3-0.1-0.6-0.2-0.8-0.5c-0.2-0.3-0.2-0.5-0.2-0.8l5.7-32.5 c0.1-0.6,0.7-1,1.3-0.9l2,0.3c0.8,0.2,1.6,0.6,2,1.3c0.5,0.7,0.7,1.4,0.5,2.3l-5,28.6C118.8,106.4,117.5,107.6,116,107.6z M113.8,106l1.9,0.3c1.1,0.2,2-0.5,2.3-1.6l5-28.6c0.1-0.5,0-1-0.3-1.4c-0.3-0.5-0.8-0.7-1.3-0.8l-2-0.3L113.8,106z"/><path d="M113.2,105.4H83.9c-0.3,0-0.5,0.2-0.5,0.5l0,0v2c0,1.4,1.2,1.6,2.6,1.6h29.8c1.4,0,2.6-0.2,2.6-1.6v-1.4 l0.2-1.2L113.2,105.4z" class="st7"/><path d="M115.7,110H86c-1,0-3.2,0-3.2-2.2v-2c0-0.6,0.5-1.1,1.1-1.1l0,0h29.3c0.3,0,0.6,0.3,0.6,0.6c0,0.3-0.3,0.6-0.6,0.6H84v1.9 c0,0.5,0.2,1,2,1h29.8c1.8,0,2-0.4,2-1v-1.4v-0.1l0.2-1.2c0.1-0.3,0.4-0.5,0.7-0.5c0.3,0.1,0.5,0.4,0.5,0.7l-0.2,1.2v1.4 C118.9,110,116.8,110,115.7,110z"/><path d="M71.5,106.3c0,0,7.5,0.8,11.8,0.5c4.4-0.4,8.4-1.4,9.6-1.4c1.2-0.1,3.8,0.6,4.1-0.3c0.3-0.9-1.7-2.9-1.7-2.9 s3.3-0.7,4.7,0.7c1.4,1.4,2.8,2.6,3.4,2.2c0.3-0.2,0.5-0.6,0.5-1.1c0,0,2.6,1.1,2.6,0c0.1-1.1-0.9-3.7-3.9-4.4 c-3-0.7-7.1-1.1-7.9-1.3c-2.6,0-5.3,0.2-8,0.6c-1.7,0.2-6.4,0.8-6.4,0.8l6.9-7.4c0,0,0.2,1.6,1.4,1.7c1,0,1.9-0.5,2.4-1.3 c0.1-0.3,0.2-0.6,0.2-0.9c0.6-0.5,1.1-1.2,1.4-2c0.2-1.1,0.2-2.1,0.1-3.2c0,0,1.6,2.9,3,2.4c1.4-0.5,1.1-2.4,0.1-4 c-1-1.7-2.7-3.4-4.1-3.7c-1.3-0.2-2.6-0.3-3.9-0.3c0,0,2.7-1.7,4.9-1.4c2.2,0.2,3.5-0.5,3-1.3c-1-1.7-3-2.6-5-2 c-2.7,0.9-7.5,4.1-10.8,7.9c-3.4,3.8-7.5,6.8-8.7,7.2c-0.8,0.3-1.6,0.5-2.4,0.8c0,0-2.9-17-4.3-21.9c-1.4-4.9-4.1-6.6-5.8-7.6 c-1.7-1-5.1-1.6-5.1-1.6l1.4-3.2c0,0,7.3,0.7,8.1-3.8c0.8-4.5,0.4-5.3,0.5-6s0.6-2.3,0.6-2.3s-2.2,0.9-2.8-0.1 c-0.6-1-1.1-1.5-1.1-1.5s2.1-4.9,1.4-6.9s-5.3-4.9-12.3-4.1s-12.3,3.2-13.6,6.2s-1.1,8-2.6,8.9s-4.5,2.3-4.7,4.6 c-0.4,3.5,2.7,5.3,2.7,5.3s-7.6,2-7.8,5.8c-0.2,5.5,5.3,7.5,5.3,7.5s-0.2,6.9-2.7,10.1s-5,6.3-4.1,8.7c0.6,1.7,4.6,3.3,4.6,3.3 s-7.5,4.2-10,6.9c-2.3,2.4-4.1,5.1-5.6,8.1h43.4l-1.1-5c0,0,6.9,4.8,11.1,4.7C66.8,108.2,69.2,107.5,71.5,106.3z" class="st1"/><path d="M29.6,94.2c0,0-7,3.2-11,7.8c-2.1,2.3-4,4.8-5.6,7.5l40.8,0.1l-0.5-5.7c0,0-4.1-3.7-5.4-5 c-1.4-1.4-2.6-3-2.6-3s-5.7-0.2-8.9-0.5C33.2,94.8,29.6,94.2,29.6,94.2z" class="st4"/><path d="M28.5,94.4c0,0-5.6-2.6-2.8-6.9s5.5-8.1,5.8-13c0.3-4.8,2.6-9.8,8.4-11.5s8.1-4.9,8.1-4.9l5.7,1.7l-0.2,1.5 c0,0,8.2,1.5,10.3,6.9c2.1,5.4,5.5,24,5.5,24l-0.2,1.2l0.2-0.5l-6,2.1c0,0-19.1-19.8-20.6-21.7c-1.4-1.7,0.7-2.4,2-0.9 c0.7,0.8,20.2,21.8,20.2,21.8l5-1.6c0,0-4.2,6.6-1,8.7c2,1.2,4.1,2.1,6.3,2.8c0,0-6.7,5.6-13.7,3.8s-17.3-13-17.3-13 s-2.1,1-6.1,0.7C34,95.3,28.5,94.4,28.5,94.4z" class="st1"/><path d="M28.5,71.1c0,0,1.7-6.6,5.4-7.6c3.8-1,8.9-1.9,10.8-3.8c1.2-1.4,2.2-2.9,2.9-4.7c0,0-5.6-0.9-4.5-4 s3.8-1.1,3.8-1.1s5-2.3,6.8-5.3c1.1-1.9,2-3.9,2.8-6c0,0,0.8,0.2,1.6,1.5l1.5,2.6c0,0,3.5-2.9,2.4-5c-1.1-2.2-13.8-3.9-18.9-1.3 c-6,3.1-6.9,6.7-7.9,11s-3.8,2.9-5.3,6.3c-1,2.3,0.4,4.7,0.4,4.7s-8.2,5-6.1,9.9C25.8,72.2,28.5,71.1,28.5,71.1z" class="st4"/><path d="M56.7,40.1c-1.4,4.5-4.4,7.5-8.3,9.6c0.2,0.4,0.1,0.9-0.2,1.1c-0.5,0.2-1.2-0.3-1.7-0.5 C45.2,50,44,50.5,44.2,52c0.2,1.1,1.4,1.7,2.2,2c0.6,0.2,1.3,0.2,1.9,0.2c0.6,0,1.4-0.1,1.3,0.6c0,0.5-0.5,0.7-1.2,0.7 c-0.4,1.6-1.1,3.1-2.2,4.3c-1.1,1.2-2.8,1.7-4.7,2c-5.6,1.3-10.2,2.9-11.8,8.4C29.2,72,29,74,28.6,75.9c-0.3,1.7-0.9,3.5-1.7,5 c-0.8,1.4-1.8,2.6-2.9,3.8c-0.7,0.8-2.5,3-2.2,4.7c0.2,1.1,1.4,1.7,2.3,2.3c0.8,0.5,2.3,1.2,2.3,2.2s-1.4,1.7-2,2 c-1.1,0.5-1.8,0.8-2.6,1.4c-4.5,2.6-8,6.5-10.8,10.9c-0.3,0.5-0.8,1.3-1.4,0.8s0.7-2,1-2.6c1.5-2.3,3.2-4.4,5.2-6.3 c2.7-2.5,5.8-4.5,9.2-6c-1.6-1.7-4.9-2.1-4.6-5.5c0.3-1.5,1-2.9,2-4.1c0.9-1.2,2-2.2,2.7-3.3c1.8-2.6,2.1-5.8,2.7-9.3 c-2.4-1.1-5-2.3-5.3-5.6c-0.5-5.2,3.4-6.9,7.3-8.1c-0.4-0.5-0.8-0.8-1.1-1.2c-0.8-1.1-1.9-3.2-1-5c1-2,3.9-2.7,4.9-4.6 c1-1.9,0.9-4.3,1.7-6.3c0.8-1.8,2-3.3,3.7-4.4c3.2-2.3,7.7-3.6,12.6-3.8c4.7-0.2,9.6,0.5,11.4,3.4c1.4,2.4,0.1,5.9-0.9,7.9 c0.3,0.5,0.2,0.8,0.7,1.1c0.9,0.5,2.9-0.6,2.9,0.5c0,1-2.3,1.1-3.2,0.8c-1.7-0.6-1.7-2.9-2.6-4.4C58.2,41.3,57.5,40.6,56.7,40.1z M60.5,36.5c-1.5-1.9-5.7-2.5-9.1-2.3c-5,0.2-9.1,1.2-12.4,3.5c-1.7,1-2.9,2.5-3.6,4.3c-0.7,2-0.6,4.4-1.7,6.3 c-0.4,0.6-0.8,1.1-1.4,1.6c-1.1,0.9-2.9,1.5-3.5,2.9c-0.5,1.4,0.3,3.2,1.1,3.9c0.5,0.6,1.6,1.1,1.5,1.8c0,1.2-2,1.4-3.1,1.8 c-2.3,0.9-4.2,2.1-4.4,4.9c-0.3,3.4,2,4.7,4.4,5.6c1.1-6.1,5.6-8.4,11.4-9.8c2-0.5,4.1-0.7,5.3-1.8c1-1,1.7-2.3,2-3.7 c-1.6-0.1-3.1-1-3.8-2.4c-1.1-2.5,1.4-4.9,4.1-3.8c0.1-0.2,0.3-0.5,0.5-0.6c0.9-0.6,1.9-1.1,2.7-1.7c0.8-0.7,1.6-1.4,2.3-2.2 c1.5-1.7,2.5-3.7,2.9-5.9c0.6-0.6,0.2-2.5,1.3-2.4c1.1,0.1,0.5,1.6,0.2,2.4c1.4,0.9,2.5,2.2,3.3,3.6C61.3,40.3,61.7,37.9,60.5,36.5 z" class="st4"/><path d="M56,45.7c0.1,0,0.2-0.1,0.3-0.1c0.4,0.1,1.5,1.1,1.5,1.6c0,0.4-0.3,0.6-0.6,0.6c-0.1,0-0.1,0-0.2,0 C56.7,47.8,54.7,46.1,56,45.7z" class="st4"/><path d="M97.3,87v1.1c-0.2,1.1-0.7,2-1.7,2c-1,0.1-1.7-0.8-2.3-1.6c-0.2,1.4-0.7,2.6-1.6,3.7c0.2,1.8-3.1,3.4-4.4,2 c-0.3-0.3-0.4-0.8-0.3-1.1c-3.8,4.6-8.4,9.3-13.8,12.7c-2.6,1.7-6,3.3-10,3.1c-3.5-0.2-6.2-1.7-8.3-3.3c-0.3-0.2-0.6-0.7-0.9-0.6 c0.2,0.8,0.5,1.6,0.6,2.6c0.2,0.7,0.8,2.1-0.2,2.3c-0.9,0.2-1.2-2.1-1.4-2.8c-0.3-1.4-0.7-2.3-0.5-3.2c-2.1-1.8-4.1-3.8-6.3-5.9 c-0.5-0.5-1.6-1.9-2.1-2c-0.8,0-1.5,0.1-2.2,0.2c-3.7,0.2-7.5-0.2-11.1-0.9c-0.9-0.2-3.5-0.5-3.4-1.5c0.1-0.7,0.9-0.5,1.6-0.3 c4.5,1.2,9.3,1.7,13.9,1.4c-2.9-3.1-6.6-6.8-9.7-10.1c-0.4-0.5-1.3-1.1-1.2-1.7c0.1-0.2,0.3-0.5,0.5-0.5c0.8-0.1,1.7,1.4,2.3,2 c0.8,0.8,1.4,1.5,2.1,2.2c4.2,4.4,8.7,8.7,13,13c2.9,2.9,6,5.8,9.9,7.3c4.6,1.7,9.4-0.3,12.5-2.2c0.2-0.2,0.5-0.3,0.5-0.5 c-4.8-0.1-7.5-6.6-4.7-10.5c-0.8,0.3-1.7,0.8-2.9,1.1c-0.6,0.2-2.8,1.4-2.8,0.1c0-0.8,1.1-0.8,1.7-1c-0.8-0.9-1.6-1.8-2.6-2.6 C55.9,85.7,50.3,80,45,74c-0.5-0.5-1.7-1.8-0.5-2c0.7-0.2,1.3,0.9,1.8,1.4c3.7,4,7.4,8.1,11.1,11.8c1.7-1.7,3.8-2.9,3.6-6.6 c-0.2-2-1-3.8-2.1-5.5c-0.3-0.6-1.6-2-0.3-2.1c0.7-0.1,1.1,0.9,1.4,1.4c1.3,1.9,2.1,4.1,2.3,6.3c0.3,3.8-2.3,5.6-4,7.5 c2.4,2.6,5,4.8,7.3,7.4c0.9-0.4,1.8-0.8,2.7-1.1c-0.7-6.4-1.9-12.7-3.5-18.9C64,70.7,63,67.9,61.2,66c-1.8-1.9-4.2-3-7.5-3.8 c-0.3,0.5-0.4,1.6-1.1,1.5c-0.8-0.1-0.5-0.9-0.2-1.5s0.5-1.1,0.7-1.7c-0.9-0.2-1.7-0.6-2.6-0.9c-0.7-0.2-2.4-0.4-2.3-1.3 c0.1-0.6,0.7-0.5,1.1-0.5c1.6,0.5,2.9,1,4.4,1.4c0.2-0.3,0.3-0.6,0.5-1c-0.5-0.2-1.1-0.4-1.7-0.7c-0.3-0.2-1.4-0.5-1.2-1.3 s1.4-0.2,1.7,0c0.8,0.5,1.7,0.8,2.6,1c0.3,0.1,0.6,0.2,0.9,0.2c4.2,0.3,6.8-1.9,6.9-5.6c0-1.2-0.7-3.2,0.2-3.4 c0.7-0.1,0.8,0.7,1,1.6c1,6-3,9.3-8.8,8.6c-0.5,0.8-0.8,1.6-1.1,2.3c3.3,0.8,5.8,1.8,7.7,3.8c1.9,2,2.9,4.6,3.8,7.7 c1.8,6.3,3,12.8,3.6,19.4c4.7-2.1,7.8-5.3,11.5-9.3c1.7-1.9,3.5-3.5,5.6-4.7c2.3-1.3,6.5-2.7,8.9-1.1c1.4,0.9,1.3,3.6-0.4,4.1 c-1.5,0.5-3.1-0.6-4.7-0.1C94,81.4,96.4,83.4,97.3,87z M92.1,77.2c-2.7,0.1-4.7,1.4-6.6,2.7c-1.7,1.4-3.3,2.8-4.7,4.4 c-3.2,3.4-6.2,6.3-10.2,8.1c-1.2,1.6-2.4,3-2.3,5.1c0,2.5,2,5.3,4.4,5.4c2.3,0.2,3.5-0.9,4.7-1.9c3.2-2.7,6-5.7,8.7-9 c0.4-0.6,0.8-1.1,1.4-1.7c0.8-0.3,2.1-0.2,2.2,0.8c0.1,1-1.1,1.4-1.2,2.2c3.5,0.2,2-4.1,0.5-5c-0.8-0.4-1.8-0.6-2.7-0.7 s-1.7,0.1-1.6-0.7c0.1-1.1,2.9-0.5,3.6-0.2c1.6,0.4,2.9,1.6,3.5,3.1c1.2-3-1-5.6-4.1-5.6c-0.9,0-2.5,0.6-2.4-0.5 c0.1-0.9,2.1-0.9,3.3-0.8c1.8,0.2,2.6,1.1,3.8,1.9c0.5,0.4,1,0.8,1.4,1.3c0.7,0.8,0.8,2.1,2,2.6c0.4-0.7,0.5-1.4,0.3-2.2 c-0.7-3-4-5-7.8-4.8c-0.6,0.1-2,0.6-2-0.5c0-0.5,0.7-0.7,1.1-0.8c1.3-0.9,2.8-1.4,4.4-1.5c1.1,0,2.2,0.5,3.2,0.3 C96,77.8,93.9,77.2,92.1,77.2L92.1,77.2z" class="st4"/><path d="M46.3,51.1c0.6,0,1.3,0.1,1.8,0.4c0.5,0.2,1.4,0.3,1.4,0.8c0.3,1.4-1.7,0.6-2.3,0.4c-0.5-0.2-1.4-0.2-1.4-0.8 C45.9,51.4,46,51.1,46.3,51.1z" class="st4"/><path d="M57.2,52.8c0.2,0.6,0.5,0.8,0.9,1c0.2,0.1,1.1,0.4,1.1,0.8c0.2,0.3-0.1,0.7-0.4,0.8l0,0 c-1.1,0.3-2.9-1.4-3-2.6c-0.1-0.9,0.2-1.7,1.3-1.5c0.5,0.2,0.8,0.4,1.2,0.7c0.5,0.2,0.8,0.5,1.4,0.6c0.5,0.2,1.2,0.1,1.2,0.8 c0,1.1-2,0.5-2.7,0.1C57.8,53.2,57.5,53,57.2,52.8z" class="st4"/><path d="M91.8,97.9h1c2.9,0.3,6.3,0.1,9,0.8c1.6,0.4,3,1.1,4.1,2.3c0.6,0.7,1.6,2.1,1,3.2c-0.2,0.5-0.8,0.8-1.4,0.8 c-0.4,0-0.8-0.2-1.2-0.1s-0.8,0.6-1.2,0.6c-0.9,0.1-1.5-0.5-2.2-1.1c-1.1-0.9-2-1.7-3.8-1.7c-0.1,0.2,0.2,0.4,0.5,0.6 c0.5,0.7,0.6,1.5,0.2,2.3c-0.7,1-2.6,0.5-4.2,0.5c-3.3,0-6.6,1.1-9.7,1.1H73.6c-0.7-0.3-3.2,0.5-3.2-0.8c0-0.9,1.9-0.6,2.8-0.6 c3.5,0,7.2,0.2,10.5,0c4-0.2,7.1-1.1,11.1-1c0.5,0,1.2,0.2,1.6-0.2c-0.2-1.4-2-1.8-3.7-2c-0.9-0.1-1.8-0.1-2.7,0 c-0.8,0.1-2.2,0.4-2.2-0.5c0-1.1,3.5-0.8,4.6-0.8c0.6,0,1.1,0.2,1.6,0.2s0.9-0.2,1.4-0.2c0.5-0.1,1.1-0.1,1.7-0.1 c2.8,0.2,3.8,1.7,5.7,2.8c0.8-1.1-0.1-2-0.8-2.5c-4.7-3.5-13.6-2.6-20-1.4c-0.8,0.2-2.9,0.8-3-0.2c0-0.8,1.7-0.9,2.6-1.1 C85.1,98.4,88.5,98,91.8,97.9z M104.6,103.6c0.4,0.1,0.8,0.1,1.1-0.1c-0.4-1.9-1.9-2.9-3.5-3.4 C103.4,100.9,104.6,101.8,104.6,103.6L104.6,103.6z" class="st4"/></g></svg>