<svg version="1.1" id="svg5" width="228.814" height="45" xmlns="http://www.w3.org/2000/svg"><g id="layer1" display="inline"><g id="g67" transform="translate(-45.911 -72.463) scale(.4036)"><g id="g249" transform="translate(-242.167 -32.304) scale(5.13175)"><g id="g1427"><g id="g1438" transform="translate(69.357 41.355) scale(.7365)"><path class="st0" d="M36.8 0c-7.5 0-12.5 5.9-12.5 14.7 0 8.8 5 14.7 12.5 14.7s12.4-5.9 12.4-14.7C49.2 5.8 44.3 0 36.8 0zm-.1 22.6c-3 0-5.3-2-5.7-5.1h11.4c-.2 3.1-2.6 5.1-5.7 5.1z" id="path49"/><path class="st0" d="M66.5 18.9c0 2.2-1.2 3.6-3 3.6s-3.1-1.5-3.1-3.6V0h-7.3v19c0 6.1 4.1 10.2 10.3 10.2 6.1 0 10.2-4.1 10.2-10.2V0h-7.2v18.9z" id="path51"/><path class="st0" d="M13.5 5.8c-.7 1.6-1.2 3.6-1.6 5.2h-.1c-.4-1.6-.9-3.5-1.6-5.2L7.8 0H0v.4l8.3 17.7v11.2h7.3V18.1L23.8.4V0H16z" id="path53"/><g id="g59"><path id="polygon55" class="st0" d="M149.6 21.2L150-.1h-7.9l.6 21.3z" fill="#f7a800"/><path class="st0" d="M146 22.3c-1.9 0-3.5 1.4-3.5 3.5s1.5 3.5 3.5 3.5c2.1 0 3.6-1.3 3.6-3.5s-1.6-3.5-3.6-3.5" id="path57"/></g><path id="polygon61" class="st0" d="M118.1 0h-15.7v29.3h16.1v-7h-8.9v-4.8h7.8v-6.7h-7.8V6.7h8.5z" fill="#f7a800"/><path id="polygon63" class="st0" d="M126.9 29.3h7V6.7h5.7V0h-18.5v6.7h5.8z" fill="#f7a800"/><path class="st0" d="M95.2 13.9c2-1.3 2.7-3.8 2.7-5.6 0-5.1-3.5-8.4-8.7-8.4H78.5v29.3h11.6c5.3 0 8.7-3.3 8.7-8.6 0-2.6-1.3-5.1-3.6-6.7zm-9.6-7.4h3c1.3 0 2.2 1 2.2 2.6 0 1.4-.9 2.4-2.2 2.4h-3zm3.9 16.2h-3.9v-5.2h3.9c1.2 0 2.2 1.1 2.2 2.7 0 1.5-1 2.5-2.2 2.5z" id="path65"/></g></g></g></g></g><style type="text/css" id="style47">.st0{fill:#f7a800}</style></svg>
