<?xml version="1.0" encoding="utf-8"?>
<!-- Generator: Adobe Illustrator 26.5.0, SVG Export Plug-In . SVG Version: 6.00 Build 0)  -->
<svg version="1.1" id="Camada_1" xmlns="http://www.w3.org/2000/svg" xmlns:xlink="http://www.w3.org/1999/xlink" x="0px" y="0px"
	 viewBox="0 0 3000 2675.9" style="enable-background:new 0 0 3000 2675.9;" xml:space="preserve">
<style type="text/css">
	.st0{fill:#FFFFFF;}
	.st1{fill:#1B1464;}
	.st2{fill:#2C84D1;}
	.st3{fill:#9659FF;}
	.st4{opacity:0.5;fill:#9659FF;enable-background:new    ;}
</style>
<g transform="translate(52.85714285714286 268.57142857142856) rotate(0.0 1432.857142857143 506.4285714285715) scale(1.42635581306121 1.4252645735312892)">
	<path class="st0" d="M503.8,546.4h352.7v174H503.8V546.4z"/>
	<path class="st0" d="M2013.8,724.2V308.2h-126.2v206.1h-99.7V407.4h-373.1v-151h-207.4v276.5H1163V158.6h-118.9v290.9H844.7v270.8
		L2013.8,724.2z"/>
	<path class="st1" d="M2013.8,727.4c-1.8,0-3.2-1.4-3.2-3.2V311.3h-119.8v202.9c0,1.8-1.4,3.2-3.2,3.2h-99.7c-1.8,0-3.2-1.4-3.2-3.2
		V410.6h-369.9c-1.8,0-3.2-1.4-3.2-3.2V259.5h-201v273.3c0,1.8-1.4,3.2-3.2,3.2H1163c-1.8,0-3.2-1.4-3.2-3.2V161.8h-112.6v287.8
		c0,1.8-1.4,3.2-3.2,3.2l0,0h-83.5c-1.8,0-3.2-1.4-3.2-3.2s1.4-3.2,3.2-3.2l0,0h80.4V158.6c0-1.8,1.4-3.2,3.2-3.2h118.9
		c1.8,0,3.2,1.4,3.2,3.2v371.1h38.2V256.4c0-1.8,1.4-3.2,3.2-3.2H1415c1.8,0,3.2,1.4,3.2,3.2v147.9H1788c1.8,0,3.2,1.4,3.2,3.2
		v103.7h93.3V308.2c0-1.8,1.4-3.2,3.2-3.2h126.2c1.8,0,3.2,1.4,3.2,3.2v416.1C2017,726,2015.6,727.4,2013.8,727.4z"/>
	<path class="st2" d="M1919.3,351.8h20.8v209.6h-20.8V351.8z"/>
	<g>
		<path class="st3" d="M1382.7,289.5v20.8h-141.1v-20.8H1382.7z M1382.7,334.4v20.8h-141.1v-20.8H1382.7z M1382.7,379.4v20.8h-141.1
			v-20.8H1382.7z M1382.7,424.3v20.8h-141.1v-20.8H1382.7z"/>
	</g>
	<path class="st2" d="M1962.5,351.8h20.8v209.6h-20.8V351.8z"/>
	<path class="st0" d="M-4.7,724.2V506.3h56.1V266.5c0-40.9,19.8-120.6,47.7-120.6s48.4,85.7,48.4,120.6v115.9h228.6v204.4h27.1
		V319.6H508v408L-4.7,724.2L-4.7,724.2z"/>
	<path class="st1" d="M508,730.8L508,730.8l-512.7-3.4c-1.7,0-3.2-1.5-3.2-3.2V506.3c0-1.8,1.4-3.2,3.2-3.2h52.9V266.5
		c0-21.8,5.4-52.6,13.5-76.6c7.3-21.5,19.6-47.1,37.3-47.1c17.5,0,30.2,26.8,37.7,49.4c8.1,24.5,13.8,55.1,13.8,74.4v112.8h225.4
		c1.8,0,3.2,1.4,3.2,3.2v201.2H400V319.6c0-1.8,1.4-3.2,3.2-3.2H508c1.8,0,3.2,1.4,3.2,3.2v408C511.2,729.4,509.7,730.8,508,730.8
		L508,730.8L508,730.8z M-1.5,721.2l506.3,3.4V322.7h-98.5v264.1c0,1.8-1.4,3.2-3.2,3.2h-27.1c-1.8,0-3.2-1.4-3.2-3.2V385.6H147.5
		c-1.8,0-3.2-1.4-3.2-3.2V266.5c0-37.6-21.5-117.4-45.2-117.4s-44.5,73.1-44.5,117.4v239.8c0,1.8-1.4,3.2-3.2,3.2H-1.5V721.2
		L-1.5,721.2z"/>
	<path class="st1" d="M99.1,149.1c-1.8,0-3.2-1.4-3.2-3.2V-17c0-1.8,1.4-3.2,3.2-3.2c1.8,0,3.2,1.4,3.2,3.2v163
		C102.3,147.7,100.9,149.1,99.1,149.1z"/>
	<path class="st2" d="M88.7,411.9h20.8v99.2H88.7V411.9z M88.7,332.9h20.8v49.7H88.7V332.9z M99.1,253.8c5.7,0,10.5,4.7,10.5,10.5
		v39.2H88.7v-39.2C88.7,258.5,93.4,253.8,99.1,253.8L99.1,253.8z"/>
	<path class="st1" d="M2063,727.4h-2117c-1.8,0-3.2-1.4-3.2-3.2c0-1.8,1.4-3.2,3.2-3.2h2117c1.8,0,3.2,1.4,3.2,3.2
		C2066.2,726,2064.8,727.4,2063,727.4L2063,727.4z"/>
</g>
<g transform="translate(170.0 358.57142857142856) rotate(0.0 537.8571428571429 1062.1428571428573) scale(1.4240590714075794 1.423580758434429)">
	<path class="st0" d="M722.6,636.2c-12.6-6.4-25.6-23.6-32.7-25.8c-5-1.5-20.5-9.3-34.3-18.8l-16.3-13.8c-6.9,0-39.2,25-39.2,25
		c8.9,6.3,7.9,20.9,10.8,29.3c3.1,8.8,4.2,19.2-0.2,25.9c-4,5.9,13.9,5.2,17.8,1.2s6.1-26.6,17.2-29.5l0,0c2.4,0.8,5.2,1.5,7.9,2.2
		c2.6,5.4,10.6,24.6,22.5,28.5c3.7,1.3,21.8,3.3,26.4-2.2l0,0c3.3,1.4,6.3,2.5,8.8,3.1c13.8,3.1,24,1.3,25.8-1.1l0.3,0.2
		c11.9,0,14.2-0.4,14.2-5.6C751.7,649.8,739.7,644.8,722.6,636.2L722.6,636.2z"/>
	<path class="st1" d="M617,665.7c-3.4,0-6.5-0.7-8.3-2.1c-2.2-1.9-2.5-4.7-0.8-7.4c3.2-4.8,3.2-13.4-0.1-22.9
		c-1-2.8-1.5-6.1-2.1-9.5c-1.3-7.8-2.6-16-9-19.1c-1.7-0.9-2.3-2.9-1.4-4.4c0.8-1.5,2.8-2.2,4.3-1.5c9.5,4.6,11.2,15.3,12.7,23.9
		c0.6,3.2,1,6.2,1.8,8.4c2.3,6.6,5.2,18.7,0,27.8c3.2,0.7,10.4-0.2,12.1-1.9c0.8-0.8,2-4.7,3-7.6c2.8-8.6,6.6-20.4,15.8-22.9
		c1.8-0.4,3.5,0.7,4,2.4c0.4,1.8-0.6,3.4-2.3,4c-5.6,1.5-8.8,11.3-11.1,18.5c-1.5,4.8-2.6,8.4-4.5,10.2
		C628.4,664,622.4,665.7,617,665.7L617,665.7z"/>
	<path class="st1" d="M725.3,666.3c-4.6,0-9.8-0.6-14.8-1.8c-10.9-2.4-30.5-13.6-43.2-26.4c-15.2-2.2-33.1-8.4-36.8-10.8
		c-1.5-1-2-3.1-0.9-4.6c1-1.5,3-1.9,4.5-1c2.5,1.7,19.9,7.8,35.3,9.9c0.8,0.1,1.4,0.4,2,1c11.6,12.2,30.7,23.2,40.7,25.4
		c8.3,1.9,14.7,1.8,18.6,1.2c-13.7-3.9-34-21-37.3-24.8c-1.1-1.2-2.1-2.5-3-3.7c-2.5-3.3-4.8-6.5-9.5-8.6c-1.7-0.8-2.4-2.8-1.7-4.4
		s2.8-2.4,4.4-1.7c6.2,2.9,9.3,6.9,12,10.7c0.9,1.2,1.8,2.3,2.6,3.3c3.4,3.9,23.4,20.3,34.9,23c7.2,1.8,8,5,7.5,7.3
		C739.7,664.6,733.3,666.3,725.3,666.3L725.3,666.3z"/>
	<path class="st1" d="M737.5,663.8c-1.9,0-3.3-1.4-3.3-3.3c0-1.9,1.4-3.3,3.3-3.3c3.4,0,9.8,0,10.8-0.9c0,0,0.1-0.3,0.1-1.5
		c-0.3-2.3-10.7-7.5-19.1-11.6c-2.5-1.3-5.3-2.6-8.2-4.1c-6.9-3.5-13.9-10-19.8-15.8c-4.7-4.4-9.6-9-12.3-9.9
		c-7.4-2.3-37.6-17.7-52-33.5c-1.2-1.3-1.1-3.4,0.3-4.6c1.3-1.2,3.3-1.1,4.5,0.2c13.3,14.7,42.3,29.5,49,31.6
		c4.2,1.3,8.9,5.7,15,11.5c5.7,5.4,12.2,11.5,18.4,14.7c2.9,1.4,5.6,2.9,8.2,4.1c14.7,7.3,22.7,11.2,22.7,17.5
		C755,663.8,748.4,663.8,737.5,663.8L737.5,663.8z M676.1,663.8c-0.3,0-0.7,0-1-0.1c-12.3-4-19.9-20.4-23.1-27.3
		c-0.4-1-0.9-2-1.1-2.3c-0.9-1.5-0.3-3.6,1.2-4.5c1.5-0.9,3.6-0.3,4.5,1.2c0,0,0,0,0,0.1c0.3,0.7,0.8,1.5,1.3,2.8
		c2.9,6.2,9.7,20.8,19.2,23.9c1.8,0.6,2.6,2.4,2.1,4.2C678.8,662.8,677.5,663.8,676.1,663.8L676.1,663.8z"/>
	<path class="st0" d="M225.7,140.9c10.6,16,8.8,84.4-3.1,117.8c-13.3,37.3-54,68.6-58.7,115.7c-4.4,44,41.8,76.8,35,66.8
		c-6.7-10-3.3-58.5,16.7-83.5s78.4-83,84.8-135.8c4.6-38.4-16.9-84.6-24.7-107.4s4.8-51.4,7.3-79.3C285.9,3.3,273-24.3,273-42.8
		c-51.1,0-107.1,16.6-129.8,47.7c-17.6,24.1-18.4,44.6-14,95.1c4.4,49.8,8,89.9,0.9,117.2c-6.8,25.7-32.8,38.7-30.8,67.9
		c2,29.2,29,47,39,72.1c10,25-8.2,38.8-10.2,57.3c-2.8,23.6,18.6,35.4,25.3,40.3 M223,978.9c0,55.1,10.5,88.9,7.8,107.4
		c-5.5,38.3-14.4,114.7,0,175.4c13.7,57.4,32.2,154.2,34.9,179.2c2.8,25,80.3,35.3,84.7,9.5c6.7-39,40.1-238.3,40.1-319.5
		c0-54.6-8.4-111.9-22.3-147.5C354.4,947.7,223,933.1,223,978.9L223,978.9z"/>
	<path class="st1" d="M318.8,1468.7c-0.9,0-1.9,0-2.9,0c-24.9-0.8-51.8-11.2-53.5-27.4c-0.2-1.8,1.1-3.4,2.9-3.6
		c1.8-0.2,3.4,1.1,3.6,2.9c0,0,0,0,0,0.1c1.3,11.9,26,20.9,47.3,21.5c13.2,0.3,29.3-2.5,31-12.2c6.7-39,40-237.6,40-318.9
		c0-55.4-8.5-111.5-22-146.3c-4-10-19.9-19.5-42.9-25.4c-22.3-5.7-47.8-7.2-66.4-3.6C242.2,958,226,964.2,226,979
		c0,29.7,3.1,52.9,5.5,71.5c2.1,16,3.6,27.4,2.3,36.4c-10.4,72.2-10.5,130.7-0.1,174.1c0.4,1.8-0.7,3.5-2.5,4
		c-1.8,0.4-3.5-0.7-4-2.4c-10.6-44.2-10.6-103.7-0.1-176.6c1.1-8-0.4-19.7-2.3-34.6c-2.4-18.8-5.5-42.2-5.5-72.4
		c0-15.1,12.4-25.7,35.1-30c41.3-7.8,106.4,7.2,116.7,33.2c13.9,35.5,22.5,92.5,22.5,148.7c0,81.9-33.4,280.9-40.1,320
		C351.7,1462.1,338.9,1468.7,318.8,1468.7L318.8,1468.7z"/>
	<path class="st0" d="M531.2,994.6L360.5,1039c-0.4,14.2,4.3,56.5,6.6,76.3c-9.4,4.4-27.4,18-40.3,30.4
		c-26.8,25.8-99.9,146.4-103.8,171.4c-3.9,25,37.3,76.8,66.3,62.4c29-14.4,93.5-63.6,143.6-112c50.5-48.9,78.6-88.9,95.8-139
		C545.9,1078.5,541.8,1035.2,531.2,994.6L531.2,994.6z"/>
	<path class="st1" d="M278.5,1385.4c-8,0-16.9-3.3-25.8-9.7c-20.2-14.8-35.7-42.3-33.1-58.9c4.2-27.1,84.8-154.8,110.4-179.4
		c26-25,47.6-30.5,58.2-31.5c1.8-0.2,3.4,1.1,3.6,3c0.2,1.8-1.1,3.4-3,3.6l0,0c-9.7,1-29.7,6.2-54.3,29.7
		c-26.8,25.7-104.8,152-108.4,175.6c-2.2,14.2,12.3,39.3,30.4,52.6c6.6,4.8,19.5,12.1,31.1,6.3c29.6-14.8,92.9-64,141-109.8
		c55.1-52.3,87-100.7,100.7-152.4c13.8-52.4,5.7-97.8-4.1-135.3c-0.4-1.8,0.7-3.5,2.4-4c1.8-0.4,3.5,0.6,4,2.3
		c10,38.3,18.3,84.7,4.1,138.6c-14,52.9-46.5,102.2-102.5,155.4c-49.4,46.9-112,95.6-142.6,110.9
		C286.9,1384.5,282.8,1385.4,278.5,1385.4L278.5,1385.4z"/>
	<path class="st1" d="M367.1,1118.7c-1.7,0-3-1.2-3.3-2.8c-1.3-8-7.3-60.3-6.7-77c0-1.9,1.5-3.3,3.4-3.2c1.9,0,3.3,1.5,3.2,3.4
		c0,0,0,0,0,0.1c-0.6,15.4,5.1,66.4,6.6,75.8c0.3,1.8-1,3.5-2.8,3.7C367.4,1118.7,367.3,1118.7,367.1,1118.7L367.1,1118.7z"/>
	<path class="st2" d="M498.3,623.8c8,25.4,26.4,79.5,34.8,143.6c6.7,51.4,24.1,190.3,18.2,239.8c-26.8,32.3-134,60.6-198,53.7
		c-55.6-5.9-114.1-36.9-157-44.1c1.4-11.8,3.9-83.5-3.3-115.2c-8-35-37.5-74-46.7-139.7c-10.6-74.6,19.4-141.1,26.8-157
		C243,576,455.2,617.3,498.3,623.8L498.3,623.8z"/>
	<path class="st0" d="M71.5,638.9c4.1,7.7,2.9,23.4-5,23.4H-7.3c-12.8,0-24.9-4.7-28.9-7.3c-15.2,5-24.9,7.3-32.2,7.3
		c-5.4,0-8.4-8-2.1-11.2c10.2-5.2,23.6-14.3,28.5-17.6c5.8-4,33.9,0,39.6,0s26.6-12.2,31.3-20.3C33.7,605.1,68.6,633.4,71.5,638.9z"
		/>
	<path class="st1" d="M66.5,665.5H-7.3c-11.9,0-23.6-3.9-29.2-7.1c-15.3,5-24.6,7.1-31.7,7.1c-4.1,0-7.7-2.9-8.7-7.1s1-8.4,5.1-10.5
		c9.4-4.8,21.8-13.2,27.2-16.7l1-0.7c5-3.3,18.4-2.5,34-1.1c3.3,0.3,6.2,0.6,7.4,0.6c4.1,0,24.1-11.3,28.4-18.7
		c0.7-1.2,2.4-3.1,6.1-3.1c11.3,0.2,39.2,23.4,42.3,29.1c3.5,6.7,3.6,17.5,0,23.4C72.6,663.9,69.7,665.5,66.5,665.5L66.5,665.5z
		 M-36.2,651.7c0.7,0,1.3,0.2,1.9,0.6c3.5,2.3,15,6.7,27,6.7h73.8c0.3,0,1.3,0,2.3-1.7c2.3-3.9,2.2-12.2-0.2-16.9
		c-0.9-1.8-8.4-8.8-17.5-15.4c-12.3-8.9-18.1-10.4-19.4-10.1c-5.3,8.6-26.9,21.7-33.9,21.7c-1.5,0-4.2-0.2-7.9-0.6
		c-7.8-0.7-26.3-2.3-29.7,0l-1,0.7c-5.4,3.6-18.1,12.2-27.9,17.2c-1.8,0.9-1.9,2.1-1.7,3c0.2,1,1.1,2,2.3,2c6.6,0,15.9-2.1,31.1-7.2
		C-36.8,651.7-36.5,651.7-36.2,651.7L-36.2,651.7z"/>
	<path class="st0" d="M221.9,450.2C188,557.9,82.8,628.4,71.5,638.9c-12.2-2-32.4-15.6-42.5-25.9c10.4-24.8,30.4-83.2,44.8-116
		C97,444.1,124,419.5,131,403c8.2-19.3,24.1-81.3,34.9-123.9c10.9-42.6,45.1-120,74.4-110.9s61.8,9,52.6,66.7
		S226.4,435.8,221.9,450.2L221.9,450.2z"/>
	<path class="st1" d="M71.5,642.2c-0.2,0-0.3,0-0.6,0c-13.8-2.2-34.6-17.1-44.4-26.9c-1-1-1.2-2.4-0.7-3.6
		c4.3-10.2,10.2-26.4,16.6-43.6c9.3-24.9,19.7-53.1,28.2-72.5c14.9-33.8,31.2-56,43-72.2c6.6-8.9,11.8-16.1,14.2-21.7
		c8.4-19.7,25.6-87.3,34.8-123.5c9.1-36.1,34.8-96.2,60.7-110.7c6.2-3.4,12.1-4.3,17.8-2.5c3.6,1.1,7.4,2.1,11,3.1
		c25.8,6.8,52.3,14,43.8,67.2c-7.3,45.8-44.4,144.4-62.2,191.8c-4.6,12.3-7.9,21.2-8.9,24.1C195.1,546.5,109.8,613,81.7,634.8
		c-4,3.1-6.7,5.3-8,6.5C73.1,641.9,72.4,642.2,71.5,642.2L71.5,642.2z M32.8,612.2c10.1,9.6,27.2,20.7,37.7,23.1
		c1.7-1.3,4-3.2,7.2-5.7c27.7-21.6,111.7-87.1,140.9-180.5c1-3.1,4.2-11.6,9-24.5c17.7-47.2,54.6-145.3,61.8-190.5
		c7.6-47.4-13-52.9-39-59.8c-3.7-1-7.5-2-11.2-3.2c-3.9-1.2-8-0.6-12.7,2c-23.1,12.9-48.3,70.2-57.5,106.5
		c-12.9,50.5-27.2,105.8-35.1,124.4c-2.8,6.4-8.2,13.8-14.9,23.1c-11.7,16-27.7,37.8-42.3,70.9c-8.5,19.2-18.8,47.3-28.1,72.1
		C42.7,586.6,37.1,601.9,32.8,612.2L32.8,612.2z M221.9,450.2L221.9,450.2L221.9,450.2z"/>
	<path class="st0" d="M372.2,95.5C371,85.8,361.1,43.1,360,37s1.4-18.5,0-25c-1.4-6.2-9.6-3.1-20.6-6.2
		c-16.4-4.4-8.6-13.8-15.9-20.6c-10.2-9.7-23.7-15.5-40.3-23.4c-6.5-3.1-35.8-2.5-62,7.6S155.3,23,174.5,69.9
		c19.2,46.8,43.8,44.6,43.8,53.4s1.2,50.9-0.9,56.4c-2.1,5.4,103.9,5.4,103.9,5.4l17.4-74.6C354.3,108,373.1,103.4,372.2,95.5
		L372.2,95.5z"/>
	<path class="st0" d="M481.4,551.8c6.1,20.2,9.8,31.5,16.7,71.9c-23-0.2-220.1-47.4-325.2-19.1c10.2-23.1,33.1-59.7,27.1-99.5
		c-6.7-45.4-21.7-61.8-27.1-91c-8.3-45.6-25.2-125.5-11.3-171.9c13.9-46.4,37.8-82.4,69.5-82.4c45.6,0,74.4,20.3,93.6,8
		c19.3-12.2,74.9,30.3,99.9,124.3S474.5,528.6,481.4,551.8L481.4,551.8z"/>
	<path class="st0" d="M299,166.5c6.5,2.3,21.7,7.3,30.3,0c8.6-7.3,45.5-32.2,61.1-23.2s47.7,58.6,63.1,128.3
		c15.4,69.7,37.1,114.6,49.7,145.9c11.2,18.7,62.4,75.4,86.3,101.7c26.6,29.3,37.3,40.4,49.8,60.6c4.7,7.6-24.9,43.5-31.1,41.3
		c-25.7-8.9-65-21.6-110.1-55.4c-39.1-29.4-64.8-64.4-74.8-78.2c-25.3-34.6-71.9-127.2-79.7-143.6c-7.9-16.7-67.9-127.8-73-151.3
		C266.1,171.8,284,161.1,299,166.5L299,166.5z"/>
	<path class="st3" d="M275.8,114.4c-7.8-22.8,4.8-51.4,7.3-79.3C285.9,3.3,273-24.3,273-42.8c-51.1,0-95.5,17.5-117.9,48.7
		c-13.7,18.9-21.2,37.8-16.7,88.2c4.4,49.8-0.9,91-5.8,129.6c-3.4,26.3-26.8,32.8-24.8,62.1c2,29.2,20.3,46.4,30.3,71.4
		s-8.2,38.8-10.2,57.3c-2.8,23.6,18.6,35.4,25.3,40.3c6.7,5,34.8,11.7,37.6,11.9c-5.2-15.1-18.6-43.7-22.8-63.5
		c10.5,28.2,36.2,45.5,31.1,37.9c-6.7-10-3.3-58.5,16.7-83.5s78.4-83,84.8-135.8C305.1,183.4,283.7,137.2,275.8,114.4L275.8,114.4z"
		/>
	<g>
		<path class="st1" d="M320.3,115.9c-1.9,0-3.3-1.4-3.3-3.3c0-1.8,1.3-3.2,3.1-3.3c15.8-1.2,42.9-5.5,48.3-12
			c0.7-0.8,0.6-1.2,0.6-1.4c-0.8-6.2-5.4-26.9-8.7-42.1c-1.8-7.9-3.1-14.1-3.5-16.3c-0.6-3.3-0.3-7.7,0-12.4s0.7-9.6,0-12.6
			c-0.2-1.1-1.1-1.5-6.6-1.9c-3.2-0.2-7.2-0.6-11.7-1.8c-12.1-3.3-13.3-9.6-14.3-14.7c-0.6-2.8-0.9-4.8-3-6.7
			c-10.6-10-23-17.2-39.1-22.7c-1.8-0.6-2.6-2.5-2.1-4.2c0.6-1.8,2.4-2.6,4.2-2.1c17.1,5.8,30.3,13.4,41.5,24.1
			c3.5,3.3,4.3,7.2,4.8,10.2c0.9,4.4,1.4,7.3,9.6,9.6c3.9,1.1,7.4,1.3,10.5,1.5c5.5,0.4,11.1,0.9,12.6,7.1c0.9,4,0.6,9.3,0.1,14.4
			c-0.3,4.1-0.6,8.3-0.1,10.8c0.3,2,1.8,8.5,3.5,16.1c3.4,15.2,8,36.1,8.8,42.6c0.2,1.5,0,4-2,6.4c-8.8,10.8-48.4,14.1-52.8,14.4
			C320.6,115.9,320.5,115.9,320.3,115.9L320.3,115.9z M307.9,117.7h-7.3c-1.9,0-3.3-1.4-3.3-3.3s1.4-3.3,3.3-3.3h7.3
			c1.9,0,3.3,1.4,3.3,3.3S309.7,117.7,307.9,117.7z"/>
		<path class="st1" d="M324.9,171.4c-1.9,0-3.3-1.4-3.3-3.3c0-0.1,0-0.1,0-0.2c0.3-6.1,13.4-54.4,14.5-58.5c0.6-1.8,2.3-2.8,4.1-2.2
			l0,0c1.8,0.6,2.8,2.3,2.2,4.1c-1.9,6.6-14.1,52.3-14.3,57C328.1,170,326.6,171.4,324.9,171.4L324.9,171.4z"/>
		<path class="st1" d="M608.7,624.3c-0.4,0-1-0.1-1.4-0.2c-22.6-7.4-64.7-21.2-111.1-56c-39.6-29.7-65.7-65.4-75.5-78.9
			c-16.1-21.9-40-65.9-57.6-99.7c-0.2,2.3-0.4,4.5-0.7,6.8c-0.2,1.8-1.9,3.1-3.6,3c-1.8-0.2-3.1-1.9-3-3.6c0,0,0,0,0-0.1
			c0.7-5.7,1.1-11.6,1.4-17.4c-8.5-16.4-14.7-29-16.5-32.9c-4.1-8.6-2.4-15.5,0.6-19.2c2.3-2.9,5.7-4.2,9-3.4
			c3,0.7,8.4,3.5,11.2,15.4c2.2,9.1,3,23.4,2.4,38.8c17.7,34.5,44.6,84.8,62.1,108.6c9.7,13.2,35.4,48.4,74.1,77.4
			c45.2,33.9,86.4,47.5,108.7,54.9c3.6-1,16-13.6,23.5-26c4-6.7,4.3-9.7,4.1-10.4c-11.1-17.8-20.8-28.6-42.3-52.1
			c-2.2-2.4-4.6-5.1-7.2-7.8c-18.5-20.4-74.7-82.3-86.7-102.2c-0.1-0.1-0.2-0.3-0.2-0.4c-2.2-5.4-4.6-11.3-7.3-17.6
			c-12.6-30-29.7-70.9-42.5-128.8c-6.9-31.3-18-62.2-31.2-87.1c-13.3-25.1-24.6-36.8-30.7-39.2c-13.6-5.5-42.1,12.8-54.2,20.6
			c-2.1,1.3-3.9,2.5-5.2,3.3c-10.7,6.4-29.3,1.1-36.1-2.3c-1.7-0.8-2.3-2.8-1.4-4.4c0.8-1.7,2.8-2.3,4.4-1.4
			c6.6,3.3,22.3,7.1,29.7,2.5c1.2-0.8,3-1.9,5.1-3.2c15.2-9.8,43.5-28,60.3-21.2c19.2,7.8,50.9,63.6,65.9,131.1
			c12.7,57.3,29.7,97.9,42.2,127.7c2.6,6.2,5.1,12,7.2,17.4c11.9,19.6,67.4,80.8,85.7,100.9c2.5,2.8,4.8,5.4,7.2,7.8
			c21.7,23.8,31.6,34.7,43.1,53.2c3.7,6.1-4.2,18.6-11.7,28C625,613,615.1,624.3,608.7,624.3L608.7,624.3z M348.6,328.9
			c-0.9,0-1.5,0.6-2,1.2c-1.8,2.2-2.3,6.8,0.2,12.2c1.4,3,5.3,10.9,10.8,21.8c-0.1-9.8-0.9-18.5-2.3-24.6
			c-1.7-7.2-4.4-10.1-6.3-10.6C348.8,328.9,348.7,328.9,348.6,328.9L348.6,328.9z"/>
		<path class="st1" d="M153.1,458.1c-0.7,0-1.4-0.2-2-0.7c-0.9-0.7-1.7-1.2-2.5-1.8c-8.7-6.1-26.8-18.6-24.1-41.6
			c0.9-7.1,3.7-13.4,6.6-19.5c5.1-10.9,9.9-21.3,3.9-36.1c-3.9-9.6-10.2-18.1-17.1-27c-10.2-13.6-20.9-27.5-22.1-46.1
			c-1.2-18.3,7.7-30.6,16.4-42.5c6.2-8.5,11.9-16.4,14.5-26.4c6.9-26.2,3.5-64.6-0.7-113.3l-0.2-2.9c-4.3-49-4.2-71.6,14.7-97.3
			c24.8-33.9,84.4-49.1,132.5-49.1c1.9,0,3.3,1.4,3.3,3.3c0,6.9,2,15.4,4.2,25.1c3.6,15.6,7.7,33.3,5.9,53.1c-0.9,9.7-2.9,19.5-5,29
			c-3.7,17.8-7.3,34.8-2.5,48.9c1.3,4,3.1,8.5,5.1,13.8c9.5,24.9,23.7,62.6,19.8,95.2c-5.4,44.8-47.3,93.1-72.4,122
			c-5.3,6.1-9.8,11.2-13.2,15.5c-19.1,23.9-22.3,71.1-16.5,79.7c1.5,2.2,1.7,4.1,0.4,5.6c-0.6,0.7-2.1,2.1-5,0.9
			c-8.6-3.6-40.3-34.4-36.5-71.7c3-29,18.7-51.8,34-73.8c10-14.4,19.6-28.1,24.8-42.7c12.3-34.4,12.8-100.8,3.4-114.8
			c-1-1.5-0.6-3.5,0.9-4.6c1.5-1,3.5-0.6,4.6,0.9l0,0c11.3,17.1,9.7,85.8-2.8,120.7c-5.5,15.4-15.3,29.4-25.6,44.3
			c-14.9,21.4-30.2,43.4-32.9,70.6c-2.9,27.9,15.9,50.9,26.3,60.5c-3.4-18.4,1.8-57.2,19.6-79.5c3.5-4.4,8-9.6,13.3-15.8
			c24.6-28.3,65.7-75.7,70.7-118.4c3.7-31-10.2-67.8-19.4-92c-2-5.3-3.7-9.9-5.2-14C267.2,99.6,271,81.9,275,63
			c2-9.3,4-18.9,4.8-28.2c1.7-18.7-2.3-35.8-5.8-51c-2-8.7-3.7-16.4-4.2-23.4c-45.8,0.7-101,15-123.9,46.3
			C129.2,29.5,128,48,132.5,99.6l0.2,2.9c4.3,49.2,7.7,88.1,0.4,115.5c-3,11.2-9.4,20.2-15.6,28.6c-8.4,11.5-16.2,22.4-15.2,38.2
			c1.1,16.5,10.7,29.2,20.8,42.5c6.7,8.9,13.8,18.1,18,28.5c7.1,17.5,1.1,30.2-4.1,41.4c-2.8,5.9-5.3,11.5-6.1,17.5
			c-2.2,19.1,13.1,29.6,21.3,35.4c1.1,0.8,2,1.4,2.8,2c1.4,1.1,1.8,3.2,0.7,4.6C155.1,457.5,154.1,458.1,153.1,458.1L153.1,458.1z"
			/>
		<path class="st1" d="M196.8,245.7c-1.9,0-3.3-1.4-3.3-3.3c0-0.6,0.1-1.1,0.3-1.5C210,210.3,220.3,150,183,108.7
			c-1.2-1.3-1.1-3.4,0.3-4.6c1.3-1.2,3.4-1.1,4.6,0.2c39.7,43.6,28.9,107.4,11.9,139.6C199.2,245,198.1,245.7,196.8,245.7
			L196.8,245.7z M297.3,9.2c-1.8,0-3.2-1.3-3.3-3.1c-0.9-11.1,5-17,10.7-18.7c1.8-0.6,3.6,0.4,4.2,2.2s-0.4,3.6-2.2,4.2
			c-2.1,0.7-6.7,3.1-6.1,11.9c0.1,1.9-1.2,3.4-3,3.5C297.4,9.2,297.3,9.2,297.3,9.2L297.3,9.2z M336.5,70.1
			c-7.8,0-15.8-8.7-20.4-16.3c-0.9-1.5-0.4-3.6,1.1-4.5s3.6-0.4,4.5,1.1l0,0c4.6,7.8,11,13.4,15,13.1c2-0.1,3.9-2.1,5.3-5.7
			c0.7-1.7,2.5-2.5,4.3-1.9c1.7,0.7,2.5,2.5,1.9,4.3v0.1c-3.1,7.7-7.7,9.6-10.9,9.8C337,70.1,336.8,70.1,336.5,70.1L336.5,70.1z
			 M498.3,627.1L498.3,627.1c-5.4,0-18.7-2.3-38.8-5.8c-66.4-11.5-204.6-35.3-285.7-13.3c-1.8,0.4-3.5-0.6-4.1-2.3
			c-0.2-0.8-0.1-1.5,0.2-2.2c1.8-3.9,3.7-8.2,5.9-12.7c10.8-22.3,25.7-52.8,20.9-85.1c-4-26.9-10.4-43.2-16.5-58.9
			c-4.1-10.4-7.8-20.1-10.5-31.8c-0.4-1.8,0.8-3.5,2.5-4s3.5,0.8,4,2.5l0,0c2.5,11.3,6.3,20.8,10.2,31c5.9,15.3,12.8,32.7,16.9,60.4
			c5.1,34.2-10.2,65.8-21.5,88.9c-1,2.1-2.1,4.2-3,6.3c83.2-19.3,216.6,3.7,281.7,14.9c15.2,2.6,27,4.6,33.7,5.4
			c-6.4-36.2-9.5-47.6-16-67.3c-0.6-1.8,0.3-3.6,2.1-4.2c1.8-0.6,3.6,0.3,4.2,2.1v0.1c6.7,20.7,10,32.4,16.9,72.4
			c0.3,1.8-0.9,3.5-2.8,3.9C498.6,627.1,498.4,627.1,498.3,627.1L498.3,627.1z"/>
		<path class="st1" d="M374,1065.1c-7.5,0-14.5-0.3-21-1c-31.9-3.4-65.4-15.2-95-25.6c-22.6-7.9-44-15.4-62.1-18.5
			c-1.8-0.3-3-1.9-2.8-3.6c1.3-10.7,4-82.4-3.3-114.1c-3-13.1-9-26.8-16-42.5c-11.1-25.1-25-56.4-30.7-97.5
			c-9-63.7,12.6-120.1,22.9-147.2c1.9-4.8,3.3-8.6,4.1-11.1c0.6-1.8,2.4-2.8,4.2-2.2c1.7,0.6,2.6,2.3,2.2,4.1
			c-0.8,2.8-2.3,6.6-4.2,11.6c-10.1,26.6-31.3,82-22.5,144c5.7,40.1,18.7,69.6,30.3,95.7c7.2,16.1,13.3,30.1,16.4,43.7
			c6.9,30.2,5.1,95.6,3.6,113.3c18.1,3.4,38.6,10.7,60.3,18.3c30.6,10.8,62.2,21.9,93.5,25.2c63.2,6.8,167.8-21.2,194.4-51.8
			c3.7-34.2-2.6-118.5-18.3-238c-6.9-52.9-18.3-87.8-26.6-113.4c-1.7-5.1-3.2-9.8-4.5-14.1c-0.6-1.8,0.4-3.6,2.2-4.1
			c1.8-0.6,3.6,0.4,4.1,2.2l0,0c1.3,4.3,2.9,9,4.5,14c8.4,25.8,19.8,61,26.9,114.6c11.1,85.7,23.4,197,18.2,240.6
			c-0.1,0.7-0.3,1.2-0.8,1.8c-13.1,15.8-44.6,31.3-86.7,42.6C434.9,1060.5,401.7,1065.1,374,1065.1L374,1065.1z"/>
	</g>
	<path class="st0" d="M251.1,1414.1c45.1,26.8,108,10,122,7.3c-7.2,23.4-8.6,46.2-10.7,58.5c-2.1,12.3,56.1,45.9,81.4,60.7
		c23.5,13.7,52.6,28.1,81.9,18.9c14.5-4.5-15.3,35-35.6,35H325c-8.4,0-6.1-15.2-16.3-15.2c-6.6,0-7.8,15.2-15.3,15.2h-47.8
		c-6.2,0-17.3-65.7-12.8-93.5C237.3,1473.2,257.2,1430.3,251.1,1414.1L251.1,1414.1z"/>
	<path class="st1" d="M489.9,1597.8H325c-6.1,0-8.5-5.2-10.2-8.9c-2-4.4-3.2-6.3-6.1-6.3c-1.2,0-3,3.2-4.2,5.5
		c-2.3,4.3-5.3,9.7-11.1,9.7h-47.8c-1,0-2.4-0.3-3.7-1.9c-7.4-8.7-16.4-70.1-12.3-95.4c1.8-10.8,5.7-23.8,9.6-36.4
		c6.1-19.6,12.3-39.9,8.9-48.8c-0.7-1.7,0.2-3.6,1.9-4.3l0,0c1.7-0.7,3.6,0.2,4.3,1.9l0,0c4.2,11.1-2.1,31.5-8.8,53.1
		c-3.9,12.3-7.7,25.1-9.4,35.5c-4.1,25.3,5.4,82.4,10.5,89.7h46.9c1.9,0,3.6-3.2,5.3-6.3c2.3-4.2,4.8-8.9,10-8.9
		c7.5,0,10.1,5.8,12.1,10.1c1.8,3.9,2.6,5.1,4.2,5.1h164.9c6.7,0,16.1-5.5,25.2-14.7c5.7-5.8,9-10.8,10.4-13.6
		c-29.1,8.6-57.3-4.3-83.4-19.6l-1.7-1c-51.8-30.2-83.4-51.2-81.3-63.1c0.6-3.2,1-7.1,1.7-11.6c1.4-11.3,3.4-26.3,7.6-42
		c-13.4,2.9-42.4,8.9-72.3,5.7c-1.8-0.2-3.1-1.9-3-3.6l0,0c0.2-1.8,1.8-3.2,3.6-3c29.9,3.2,59.2-3.2,71.6-5.9c1.7-0.3,3-0.7,4.1-0.9
		c1.8-0.3,3.5,0.8,3.9,2.6c0.1,0.6,0.1,1.1-0.1,1.7c-5.2,17-7.4,33.9-8.9,46.3c-0.6,4.6-1.1,8.5-1.7,11.8
		c-0.1,0.6-0.1,6.3,27.9,25.3c16.9,11.5,36.9,23.2,50.2,31l1.7,1c25.1,14.7,52.1,27.1,79.2,18.6c3.9-1.2,5.8,0,6.9,1.1
		c1.7,1.9,1.7,4.5,0,8.2C527,1575.4,506.8,1597.8,489.9,1597.8L489.9,1597.8z"/>
	<path class="st0" d="M158.5,1370c7.7-11.7,26-22,31.1-29.9c5.1-7.8,22.9-32.6,30.1-43.3c6.2-9,44-4.5,69.1,19.9
		c23.4,22.7,28.6,59.9,27.3,77.3c-10,7.8-25.8,12.4-38.8,20.9c3.4,14.1,13.2,48.5,10.9,82.1c-1.7,25,2.8,60.7,11.1,69.1
		c8.4,8.4,37.3,28.4,29,28.4H271L158.5,1370z"/>
	<path class="st1" d="M328.2,1597.8h-57.3c-1.2,0-2.4-0.7-3-1.9l-112.4-224.5c-0.6-1.1-0.4-2.3,0.2-3.3c4.5-6.8,12.2-13.1,18.9-18.6
		c5.2-4.2,10-8.2,12-11.2c2.9-4.4,9.8-14.3,16.5-23.8c5.2-7.3,10.5-14.9,13.7-19.5c2.1-3.1,6.2-5,12-5.5c16-1.7,43.1,6.5,62,24.9
		c23.5,22.9,29.7,60.4,28.3,80c-0.1,0.9-0.6,1.8-1.2,2.3c-5.6,4.4-12.7,7.7-20.2,11.2c-5.6,2.6-11.5,5.4-16.9,8.7
		c0.2,0.8,0.4,1.7,0.7,2.4c4.2,16.6,11.9,47.6,9.8,78.2c-1.8,26.7,3.3,59.6,10.1,66.4c2.6,2.6,7.5,6.5,12.6,10.7
		c16.1,12.9,19.9,16.6,18.6,20.6C332.5,1595.8,331.4,1597.8,328.2,1597.8L328.2,1597.8z M272.9,1591.2h50.9
		c-3.4-3.3-9.4-8-13.8-11.6c-5.3-4.3-10.2-8.3-13.1-11.1c-9.8-9.8-13.7-48.3-12.1-71.6c2-29.6-5.6-59.9-9.7-76.2
		c-0.4-1.8-0.9-3.4-1.2-4.8c-0.3-1.3,0.2-2.8,1.4-3.5c6.3-4.1,13.1-7.3,19.6-10.4c6.6-3.1,12.9-6.1,17.7-9.6
		c1-18.7-5.1-52.6-26.3-73.3c-17.4-17-42.3-24.6-56.7-23.1c-5.4,0.6-6.9,2.2-7.3,2.6c-3.2,4.7-8.3,12-13.7,19.6
		c-6.6,9.5-13.6,19.3-16.3,23.6c-2.5,4-7.6,8-13.4,12.8c-5.8,4.7-12.4,10-16.5,15.5L272.9,1591.2L272.9,1591.2z M363.1,852.7
		c-5.8,0-13-1.9-20.5-3.9c-5.2-1.3-10.6-2.8-15.2-3.4c-24.5-3.5-55.3-3.6-65.1,4.3c-1.4,1.1-3.5,0.9-4.6-0.6
		c-1.1-1.4-0.9-3.5,0.6-4.6c12.2-9.8,45.4-9.3,70.2-5.7c5,0.7,10.6,2.2,16,3.5c8.8,2.3,19.8,5.2,23.4,2.6c0.4-0.3,1.1-1,1.2-2.8
		c0.2-2.8-1.7-5.8-5.5-9c-22.5-18.6-99.2-31.9-132.3-22.9c-1.8,0.4-3.5-0.7-4-2.4c-0.4-1.7,0.6-3.4,2.3-4
		c35.4-9.6,114.1,4.3,138.3,24.2c5.6,4.6,8.3,9.6,7.8,14.7c-0.2,3.4-1.7,5.9-4,7.7C369.3,852.1,366.4,852.7,363.1,852.7L363.1,852.7
		z"/>
	<path class="st4" d="M295.3,56c-4.5,0-8.3-3.6-8.3-8.3c0-2.9,1.4-5.4,3.7-6.9l0.8-0.6c3.9-2.5,5.5-3.5,11.2-7.5
		c3.7-2.5,8.9-1.7,11.5,2.1s1.7,8.9-2.1,11.5c0,0,0,0-0.1,0.1c-5.9,4-7.6,5.1-11.6,7.7l-0.8,0.6C298.4,55.4,296.9,56,295.3,56
		L295.3,56z"/>
	<path class="st1" d="M319.5,14.1C319.6,14.4,319.6,14.2,319.5,14.1c0,0.1,0,0.2,0,0.3c0,0.2,0,0.3,0,0.6c0,0.3,0-0.1,0,0.2
		c0,0.2-0.1,0.4-0.1,0.7c-0.1,0.3,0-0.1-0.1,0.2c-0.1,0.2-0.2,0.3-0.2,0.4c-0.2,0.4-0.1,0.2-0.6,0.7c-1,1-2.5,1.9-3.9,2.4
		c-3.3,1.3-6.9,2-10.5,2.8c-1.1,0.2-2.6,0.4-3.6,1.1c-1.8,1.2-0.1,4.1,1.7,2.9c0.1,0,0.1-0.1,0.2-0.1c0.3-0.2-0.3,0.1-0.1,0
		c0.2-0.1,0.4-0.1,0.8-0.2c0.7-0.2,1.3-0.3,1.9-0.4c1.8-0.3,3.6-0.8,5.4-1.2c3.6-0.9,8-2.1,10.7-5.1c1.5-1.8,2.1-3.7,1.7-6.1
		c-0.1-0.9-1.2-1.3-2-1.1C319.7,12.4,319.4,13.2,319.5,14.1L319.5,14.1z M270.9,1594.5c0,0-8.4-1.7-11.7-10
		c-6.2-15.5-29-111.7-32.3-123.6c-3.3-11.8,10.8-18.3,8.7-27.8c-2.1-9.5-8.3-9.6-12.9-11.6c-0.9-6.2-6.4-31.4-9.5-44.3
		c-6.4-26.9-60-24.5-56.2,2.8c3.1,21.6,6.2,40.2,9.7,53.8c6.3,0.1,11.8,1.8,13.8,11.8c2,10-10.4,10.7-7.1,25.4
		c6.3,28.4,18.9,123.6,49.5,123.6L270.9,1594.5L270.9,1594.5z"/>
	<path class="st1" d="M270.9,1597.8H223c-28.8,0-41.8-68.7-49.6-109.9c-1.2-6.5-2.3-12.1-3.2-16.3c-2.1-9.7,1.7-14.7,4.4-18.2
		c2.2-2.9,3.2-4.4,2.6-7.3c-1.4-7.5-4.8-9-10.6-9.1c-1.4,0-2.8-1-3.1-2.4c-3.2-12.4-6.4-29.6-9.8-54.1c-1.8-12.2,6.7-21.9,21.4-24.8
		c16.7-3.2,37.2,3.9,41.2,20.8c2.6,11,7.7,33.9,9.3,42.6l0.7,0.2c4.4,1.4,10.4,3.4,12.6,13.1c1.3,5.7-1.9,10.5-4.7,14.7
		c-2.9,4.3-5.4,8.2-4.1,13c1,3.5,3.7,14.5,7.2,28.5c8.3,33.4,20.7,83.9,25,94.6c2.6,6.5,9,7.9,9.3,8c1.7,0.3,2.8,1.9,2.6,3.6
		C274,1596.6,272.5,1597.8,270.9,1597.8L270.9,1597.8z M169.4,1430.4c5.9,0.7,12.2,3.3,14.4,14.3c1.1,5.9-1.7,9.6-3.9,12.6
		c-2.5,3.3-4.6,6.2-3.2,12.8c0.9,4.2,2,9.9,3.2,16.4c6.4,33.9,19.7,104.6,43.1,104.6h36.5c-1.4-1.7-2.5-3.5-3.3-5.5
		c-4.4-11.1-17-61.9-25.3-95.5c-3.4-13.9-6.2-24.9-7.2-28.3c-2.2-7.8,1.8-13.7,5-18.5c2.3-3.5,4.4-6.5,3.7-9.6
		c-1.3-5.9-4.2-6.9-8.2-8.3c-0.9-0.3-1.9-0.7-2.9-1c-1.1-0.4-1.9-1.4-2-2.5c-0.9-5.8-6.3-30.7-9.4-44.1
		c-3.1-13.1-19.8-18.4-33.6-15.9c-4.2,0.8-18,4.4-16.1,17.3C163.5,1402.1,166.4,1418.4,169.4,1430.4L169.4,1430.4z"/>
</g>
<g transform="translate(930.0 261.42857142857144) rotate(0.0 300.0 1117.857142857143) scale(1.4344218204247323 1.4331832566099512)">
	<path class="st1" d="M105.9,640.1C92,638.7-9,625.1-4.9,589.2c4.2-35.9,125.6-48.6,155.9-46.7C181.3,544.4,130.5,642.8,105.9,640.1
		z"/>
	<path class="st1" d="M106.9,643.5c-0.4,0-0.9,0-1.3-0.1c-0.9-0.1-86-9.5-108.3-37.2c-4.3-5.4-6.2-11.2-5.4-17.3
		c2-17.2,25.8-30.7,70.7-40.3c36.4-7.8,74.4-10.1,88.7-9.4c5,0.3,8.6,2.6,10.7,6.9c6.7,14-7.2,48.5-23.9,72.3
		C131.2,627.9,118.4,643.5,106.9,643.5L106.9,643.5z M106.2,636.8c6.1,0.7,16.2-7.9,26.3-22.4c17.1-24.2,28.2-55.5,23.4-65.6
		c-1-2.1-2.5-3.1-5.1-3.2c-13.9-0.8-51.1,1.5-86.9,9.1c-40.7,8.7-64,21-65.6,34.7c-0.6,4.3,0.8,8.4,4.1,12.4
		C19.5,623.4,83.1,634.4,106.2,636.8L106.2,636.8z"/>
	<path class="st0" d="M397,66.1c-6.2,1.3-9.5,50.5-16.2,50.2c-6.7-0.2-11.7-51.6-12.2-58.4c-0.6-6.8-6.9-10.5-10.2-10.5
		c-1.1-5.3-9.6-10.6-11.5-3.3c-1.9,7.3,9.5,69.1,4.1,70.2S331.9,47.1,324.1,49c-7.8,1.9,8.9,57.2,8.9,63.1s2.6,31.6-4.1,35.1
		c-6.7,3.5-17.1-13.2-21-19.4c-7.6-11.8-21.2-9.9-18.4-3.3c4,9.5,22.8,39.8,25,44.7c1.9,4.2,17.3,22.5,26.6,28.1
		c-9,18.5-79.4,171.4-79.7,180.3c-0.4,19.7,5.3,107,10.7,103c53.9-40.7,113.7-249.9,117.2-290.2c4.4-1.1,8.2-10.9,10.5-21.5
		C403.8,150.6,401.6,65.3,397,66.1L397,66.1z M249.7,45.6c-0.4-11.2-1.9-56-32.1-64.7S103.2-50.7,89,15.1c-14.2,66,9,104.7,9,104.7
		l-3,66.3l87.8,34.8l2.5-38.6c5.5,1.5,9.7,2.1,11.2,0.7c8.4-7.6,37.6-48.9,41.3-62.2c3.1-10.9-0.4-18.8,1.7-27.3
		c2.1-8.6,10.5-9.4,10-16.1C249.3,70.7,250.4,64.8,249.7,45.6L249.7,45.6z"/>
	<path class="st1" d="M228.6,85.7c1.5,0.1,2.6,1.3,3.3,2.8c0.7,1.3,1,3.1,0.7,4.8c-0.1,0.4-0.3,1.1-0.4,1.5c-1,2.9-2.4,3.9-4.7,4.5
		c-1.5,0.4-3.9-0.3-4.5-1.9c-0.8-1.5-0.6-3.3-0.2-5.1C223.2,89.4,225.2,85.4,228.6,85.7L228.6,85.7z"/>
	<path class="st1" d="M238.8,93.1C238.6,93.1,238.7,93,238.8,93.1c-0.1,0,0.3,0.1,0.2,0.1c-0.2-0.1,0.2,0.2,0.1,0.1
		C239.1,93.2,239.1,93.1,238.8,93.1c0.3,0.2,0-0.2-0.1-0.4c-0.1-0.2-0.3-0.6-0.4-0.8c-0.8-1.4-1.5-2.8-2.8-3.9
		c-1.5-1.5-3.5-2.5-5.7-3.1c-2.6-0.6-5.2-0.2-7.5,1.2c-1.4,0.9-2.9,2-4.1,3.2c-1.4,1.5,0.9,4,2.3,2.3c0.8-0.9,1.8-1.7,2.8-2.3
		c2-1.2,3.9-1.7,6.2-1.1c1.8,0.4,3.2,1.3,4.3,2.6c0.7,0.8,1.3,2.1,2,3.2s1.7,2.4,3.1,2.2c0.9-0.1,1.7-0.7,1.7-1.7
		C240.5,93.9,239.7,93,238.8,93.1L238.8,93.1z"/>
	<path class="st0" d="M233.3,96.8c-5.3-1.2-13.4-2.5-15.6-2.6c1.1,2,3.9,8,5.4,8.4c1.3,0.2,6.3,0.2,7.5,0.3
		C232.7,102.9,235.6,97.3,233.3,96.8L233.3,96.8z"/>
	<path class="st4" d="M226.3,119.5c-4.5,0-8.3-3.7-8.3-8.3c0-4.1,3-7.6,7.1-8.2l6.9-1c4.5-0.7,8.7,2.5,9.4,7.1
		c0.7,4.5-2.5,8.7-7.1,9.4l0,0l-6.9,1C227.2,119.5,226.7,119.5,226.3,119.5L226.3,119.5z"/>
	<g>
		<path class="st1" d="M193.9,187.2c-4.1,0-11.6-1.7-26-7.8c-12.6-5.3-25.8-12.2-31-15.4c-9.6-6.2-15-18.4-15.2-18.9
			c-0.8-1.7,0-3.6,1.7-4.4c1.7-0.8,3.6,0,4.4,1.7v0.1c0,0.1,4.8,10.9,12.8,16c4.6,3,16.9,9.3,28.6,14.4c20.1,8.6,24.8,7.9,25.4,7.7
			c8.6-7.9,36.8-48.4,40.2-60.6c1.5-5.4,1.3-10.1,1-14.7c-0.2-4.1-0.4-8.2,0.7-12.6c1.2-5.2,4.3-8,6.8-10.2c2.4-2.2,3.2-3.1,3.1-4.8
			c-0.2-4.1-0.2-7.8-0.1-14.2c0.1-4.4,0.1-9.9,0.1-17.7c0-1.9,1.4-3.3,3.3-3.3c1.9,0,3.3,1.4,3.3,3.3c0,7.8-0.1,13.4-0.1,17.8
			c-0.1,6.4-0.1,9.8,0.1,13.7c0.3,5-2.8,7.8-5.3,10.1c-2.1,2-4.1,3.7-4.8,6.9c-0.9,3.4-0.7,6.7-0.4,10.7c0.2,4.8,0.6,10.4-1.2,16.9
			c-4.1,14.3-33.8,56.1-42.3,63.8C198.2,186.2,197.1,187.2,193.9,187.2L193.9,187.2z"/>
		<path class="st1" d="M204.9,127.7c-1.9,0-3.3-1.4-3.3-3.3c0-1.5,1-2.8,2.4-3.2c2.4-0.7,3.2-1.9,3.6-2.8c1.3-2.8,0.3-7.4-1.1-10.4
			c-0.2-0.4-0.4-0.8-0.6-1.1c-2.3-4.3-3.6-8.5,1.5-22.4c0.7-1.8,2.5-2.5,4.3-2c1.8,0.6,2.5,2.5,2,4.3c-4.5,12.2-3.3,14.5-2,17
			c0.2,0.4,0.6,1,0.8,1.5c0.7,1.5,4.1,9.5,1.1,16c-1.4,3.1-4.2,5.3-7.8,6.3C205.6,127.7,205.2,127.7,204.9,127.7L204.9,127.7z
			 M190.9,64c-1.7,0-3.1-1.3-3.3-3c-0.6-4.8-5.4-7.8-8.5-8.7c-2-0.4-3.9,0.3-6.8,1.7c-1.1,0.4-2.1,1-3.3,1.4
			c-1.7,0.7-3.6-0.1-4.3-1.9c-0.7-1.7,0.1-3.6,1.9-4.3c0,0,0,0,0.1,0c1-0.3,1.9-0.8,2.9-1.3c3.2-1.5,6.8-3.2,11.2-2.1
			c5.9,1.5,12.7,6.6,13.4,14.4c0.2,1.8-1.1,3.4-3,3.6C191.1,63.9,191,64,190.9,64L190.9,64z M221.5,75.3c-1.9,0-3.3-1.4-3.3-3.3
			c0-0.9,0.4-1.8,1.1-2.4c4.1-3.7,8.2-5.6,12.2-5.6c6.8-0.1,9.9,2.5,10.5,3.1l-4.6,4.7c0,0,0,0,0.1,0.1c0,0-1.7-1.3-5.8-1.3
			c-2.5,0-5,1.3-7.8,3.9C223.2,75,222.4,75.3,221.5,75.3L221.5,75.3z M237.5,71.8L237.5,71.8L237.5,71.8z M181.9,138.2
			c-0.2,0-0.6,0-0.8-0.1c-10.9-2.8-24.6-15.8-20.6-32.2c0.4-1.8,2.2-2.9,4-2.4c1.8,0.4,2.9,2.2,2.4,4l0,0
			c-3.1,12.7,8.5,22.4,15.8,24.2c1.8,0.4,2.9,2.2,2.4,4.1C184.7,137.2,183.4,138.2,181.9,138.2L181.9,138.2z M181.7,67.9
			c-1.2-1.1-3-1.4-4.5-1.1c-1.5,0.2-3.2,1.1-4.4,2.4c-0.3,0.3-0.7,0.9-0.9,1.3c-1.5,2.5-1.4,4.3-0.3,6.6c0.8,1.5,2.9,3,4.6,2.6
			c1.8-0.3,3.1-1.5,4.3-2.9C182.5,74.5,184.3,70.4,181.7,67.9L181.7,67.9z"/>
		<path class="st1" d="M165.4,67c1.3,2,3.7,1.9,5.8,1.4c0.8-0.1,2-0.4,2.5-0.4c1.1-0.1,2.3,0.2,3.3,0.6c2.2,0.7,5,1.7,6.3,3.7
			c0.7,1,1.1,2,1.2,3.2c0.1,1.4,0,2.8,0,4.2c0,2.1,3.3,2.1,3.3,0c0-1.5,0.1-3,0-4.5c-0.1-1.4-0.6-2.6-1.2-3.9
			c-0.7-1.2-1.4-2.3-2.5-3.1c-1.1-0.8-2.4-1.4-3.6-2c-2.4-1-5.2-2-7.7-1.5c-1,0.1-2,0.4-2.9,0.6c-0.4,0.1-0.9,0.1-1.3,0
			c0.1,0-0.3-0.1-0.3-0.1c0.2,0.1,0-0.1,0,0C167,63.6,164.1,65.3,165.4,67L165.4,67z"/>
	</g>
	<path class="st0" d="M167.9,69.6c2.3,0.7,13.8,10.9,15.9,13.2c-2.3,0.4-5.4,0.7-7.6,1.3c-1.4,0.4-1.1,0.7-2.3-0.4
		c-1-0.9-1.9-2.1-2.6-3.1c-1.8-2.3-4.6-4.7-5.8-7.4c-0.6-1.3-0.9-0.6,0.1-1.9C165.9,71,168.1,69.2,167.9,69.6L167.9,69.6z"/>
	<path class="st4" d="M161.8,94.9c-2.3,0-4.4-0.9-5.9-2.5c-4.5-4.7-8.9-9.5-13.2-14.2c-3.1-3.3-2.9-8.6,0.4-11.7
		c3.3-3.1,8.6-2.9,11.7,0.4l0.1,0.1c2.9,3.2,7.4,8,13,14c3.2,3.3,3,8.5-0.2,11.7C165.9,94.1,163.9,94.9,161.8,94.9L161.8,94.9z"/>
	<path class="st1" d="M211.6-36.6c22.6,3.7,41.2,28.2,45.5,36.7c5.4,11,10.6,45.5,10.6,58.1c-5.6-0.7-10.1-1.2-17.8-1.3
		c1.2-14.5-3-20.6-5.8-22.7c-3-2.1-4,3.6-5.6,8.8c-5.6-2.6-8.7-3.5-13.9-5.1c-0.6-9.9-2.2-31.5-7.8-34c-4.4,10.1-4.1,17.7-11.6,30.1
		c-4.4-1.4-10.4-2.8-16-3.7c-1.3-5.8-7.4-15.5-12.2-17.3C169.2,26,153,45.8,133.2,46.6c-14.4,0.7-20.3,20.2-21.5,35.7
		c-0.9,11.1-0.4,27.9,15.9,42.1c-27.1,6.8-61.1-7.2-81.9-28.1C23.9,74.3,6.5,66.1-6.1,62.7c-4.1-1.1,90.6-90.9,117.7-104
		C134.9-52.5,176.8-53.3,211.6-36.6L211.6-36.6z"/>
	<path class="st1" d="M112.7,129.5c-23.6,0-50.3-11.5-69.5-30.7C25.8,81.2,9.4,70.4-7.1,66c-1.4-0.3-2.4-1.5-2.5-3.1
		c-0.1-1.8-0.3-3.2,15.4-18.8c9.4-9.3,21.8-21.2,34.4-32.6c15.4-14.1,53.2-47.6,69.8-55.6c23-11.1,65.6-13.1,102.5,4.4
		c23.8,4.3,43.1,29.6,47.4,38.4c5.8,12,10.9,47.3,10.9,59.5c0,1.9-1.4,3.3-3.3,3.3c-0.1,0-0.3,0-0.4,0c-5.9-0.8-10.2-1.1-17.5-1.2
		c-1.9,0-3.3-1.5-3.3-3.3c0-0.1,0-0.1,0-0.2c0.8-9.7-1-15.6-3.2-18.5c-0.3,1-0.8,2.3-1,3.3c-0.2,0.9-0.6,1.8-0.8,2.6
		c-0.6,1.8-2.4,2.6-4.2,2.1c-0.1,0-0.2-0.1-0.4-0.1c-5.4-2.5-8.3-3.4-13.4-4.8c-1.3-0.3-2.3-1.5-2.4-3c-0.8-15-2.4-22.8-3.7-26.9
		c-0.4,1.5-0.9,3-1.3,4.5c-1.7,5.8-3.4,12-8.3,19.9c-0.8,1.3-2.3,1.9-3.9,1.4c-3.7-1.2-9.4-2.5-15.5-3.6c-1.3-0.2-2.3-1.2-2.6-2.5
		c-1-4.4-4.7-10.6-7.9-13.4c-6.5,10.1-22.7,31.6-44.7,32.5c-11.8,0.4-17.2,17.8-18.3,32.6c-0.9,11.6,0,26.4,14.8,39.3
		c1.3,1.2,1.5,3.3,0.3,4.6c-0.4,0.6-1,0.9-1.7,1C123.3,128.9,118.1,129.5,112.7,129.5L112.7,129.5z M-1,60.9
		C15.2,66.2,31.2,77.2,48,94c17.2,17.3,46.7,31.7,72.6,28.3c-12.6-13.9-13.1-29.4-12.3-40.2c1.3-18.3,8.6-38,24.7-38.8
		c16.7-0.7,32.3-17.1,41.1-32.2c0.8-1.4,2.5-2,4-1.4c5.7,2.2,11.5,11.2,13.7,17.5c3.5,0.7,7.9,1.7,11.8,2.8c3.4-6.2,4.8-11,6.3-16.2
		c1-3.5,2.1-7.3,3.9-11.3c0.8-1.7,2.6-2.4,4.3-1.8l0,0c3.6,1.7,7.9,7.1,9.7,34.5c3.1,0.9,5.5,1.7,8.7,3c1.1-3.7,2.2-6.8,5-7.7
		c0.9-0.3,2.6-0.6,4.6,0.8c3.1,2.2,7.9,7.9,7.5,22.1c4.2,0.1,7.5,0.3,10.9,0.8c-0.8-14.5-5.6-43.5-10.1-52.9
		c-3.7-7.7-21.8-31.4-43.1-34.9c-0.3,0-0.7-0.1-0.9-0.3c-35.1-16.4-75.5-14.7-97.2-4.2C102.3-33,77.6-13.3,46.9,14.5
		C22.8,36.3,4.9,53.9-1,60.9L-1,60.9z"/>
	<path class="st0" d="M133.7,47.7c-11.2-17.2-25.1-4.6-28.1-0.8c-7.8,10-0.3,25.3,10.2,30.1"/>
	<path class="st1" d="M136.6,46.1c-3.5-5.3-8.5-9.8-15.1-10.4c-4.5-0.3-9,1.4-12.7,4c-3.2,2.3-6.2,5.1-7.8,8.7
		c-2.5,5.5-2.3,11.7,0,17.2c2.5,6.1,7.2,11.6,13.2,14.4c1.7,0.8,3.5,0.4,4.5-1.2c0.9-1.4,0.4-3.7-1.2-4.5c-4.3-2-7.4-5.1-9.6-9.3
		c-0.7-1.2-0.8-1.7-1.2-2.9c-0.3-1.1-0.7-2.3-0.9-3.4c0.1,0.7,0-0.6,0-0.6c-0.1-0.8-0.1-1.7,0-2.4c0-0.3,0-0.6,0.1-0.9
		c0.1-0.7-0.1,0.8,0-0.3c0.1-0.7,0.3-1.3,0.4-2c0.1-0.4,0.3-1,0.3-1c0.2-0.4,0.4-1,0.8-1.4c0.2-0.3,0.4-0.7,0.6-0.9
		c0.4-0.7,0.1-0.2,0,0c0.2-0.2,0.3-0.4,0.6-0.7c0.9-1,1.9-1.9,2.9-2.6c0.1-0.1,0.8-0.6,0.1-0.1c0.1-0.1,0.2-0.2,0.3-0.3
		c0.3-0.2,0.7-0.4,1-0.7c0.8-0.6,1.7-1,2.4-1.4c0.1-0.1,0.3-0.1,0.4-0.2c-0.7,0.3-0.1,0,0.1,0c0.3-0.1,0.8-0.3,1.1-0.4
		c0.7-0.2,1.4-0.3,2.1-0.4c-0.6,0.1-0.1,0,0.2,0c0.6,0,1.1,0,1.7,0c0.2,0,0.3,0,0.6,0c-0.8-0.1,0.1,0,0.2,0c0.6,0.1,1.2,0.3,1.8,0.4
		c0.9,0.3-0.3-0.1,0.2,0.1c0.3,0.1,0.7,0.3,1,0.6c1.2,0.7,1.9,1.2,2.9,2.1c1.2,1.2,2.2,2.4,3.2,3.9c1,1.4,2.9,2.1,4.5,1.2
		C136.9,49.7,137.6,47.5,136.6,46.1L136.6,46.1z M95.2,189.5h-0.1c-1.9-0.1-3.2-1.7-3.2-3.4l3.3-75.5c0.1-1.9,1.7-3.2,3.4-3.2l0,0
		c1.9,0.1,3.2,1.7,3.2,3.4l-3.3,75.5C98.4,188.1,96.9,189.5,95.2,189.5L95.2,189.5z"/>
	<path class="st0" d="M331.7,637.6c-0.6-31.5-38-129.6-47.6-147.3c-28.4-52.6-194.2,10.4-181.8,41.2c9.6,23.8,22.6,35.9,22.1,60.5
		c-0.2,15.2-30.1,48.8-48,93.5c-14.9,37.1,172,22.4,234.9-19.4c-9.7-21.3-17.6-37.2-22.3-45.3c-16.4-28.4-33.1-120.4-35.6-149.1
		c2.5,28.8,19.2,120.7,35.6,149.1c4.6,8,12.6,24,22.3,45.3C324.2,657.7,331.9,648.2,331.7,637.6L331.7,637.6z"/>
	<path class="st3" d="M76.4,685.6c-18,44.6-6.3,98.9,0,113.6s-16.2,122-18.6,188.7c-2.5,66.8,3.3,84.6,0,109.1
		c-3.3,24.5-28.3,101.1-22.3,175.2c5.3,63.5,45.9,202.9,50.9,222.1c5,19.2,70.6,13.6,67.6-14.1c-8.2-74.5-7.2-270.4,5.7-303.1
		c7.4-18.6,18.8-51.4,20.5-79.9c1.7-28.4,59.7-180.8,63.1-257.6c2.8-62.6,18.7-166.2,9.3-230.9c-50.7,3.2-136.6,24.8-163.8,50.5
		C84.5,667.4,80.2,676.4,76.4,685.6L76.4,685.6z"/>
	<path class="st1" d="M86.5,1497.6c-1.5,0-2.9-1-3.2-2.4c-0.7-2.6-2.1-7.5-4-14.3c-11.6-41.9-42.5-153.4-47-208.3
		c-4.7-56.8,8.8-115.3,16.9-150.4c2.5-11.1,4.6-19.8,5.4-25.6c1.5-11.2,1.1-20.9,0.4-35.5c-0.8-16-1.8-37.9-0.4-73.4
		c1.2-31.9,6.8-72.7,11.9-108.7c5-35.3,10-71.7,7.1-78.6c-6.4-15-18.4-70.4,0-116.1c9.1-22.8,21.4-42.7,31.2-58.7
		c8.8-14.4,16.5-27,16.6-33.6c0.2-15.8-5.4-26.4-11.9-38.7c-3.3-6.3-6.8-12.7-9.9-20.6c-0.7-1.7,0.2-3.6,1.9-4.3
		c1.7-0.7,3.5,0.1,4.3,1.9c3.1,7.5,6.4,13.9,9.7,19.9c6.9,13.1,13,24.3,12.7,41.9c-0.1,8.5-7.5,20.4-17.6,37
		c-9.7,15.8-21.7,35.5-30.6,57.7c-17.6,43.7-6.2,96.7,0,111.1c3.5,8.2-0.1,35.1-6.6,82.1c-5,35.8-10.7,76.5-11.8,108.1
		c-1.3,35.1-0.3,56.8,0.4,72.8c0.7,14.4,1.1,24.8-0.4,36.7c-0.8,6.1-2.9,14.9-5.5,26.1c-7.9,34.6-21.4,92.5-16.7,148.3
		c4.5,54.3,35.3,165.4,46.9,207.1c1.9,6.8,3.2,11.7,4,14.4c0.4,1.8-0.6,3.5-2.3,4.1C87,1497.6,86.8,1497.7,86.5,1497.6L86.5,1497.6z
		"/>
	<path class="st3" d="M151,786.3c5.6,10.9,23.1,20.8,27.3,20.8s22.6,86.8,60.9,156.1s65.9,122.3,58.4,145.8
		c-7.5,23.4-34.3,34.3-50,120.2c-36.1,197.1-23.7,154-43.5,198.3c-13.2,29.6,47.6,73.5,68.4,23.4c20.8-50.1,64.2-129.1,82.6-165.4
		c20.1-39.3,40.3-103.1,49.5-112.8c9.1-9.7,20.1-22.3,19.3-41.5c-0.9-19.2,1.3-132.9-30.4-244.8s-88.2-237.1-104.7-265.5"/>
	<path class="st1" d="M243.2,1477c-13.2,0-27.5-7.6-36.6-19.8c-7.6-10.4-9.6-21.6-5.4-31c2.4-5.5,4.4-9.7,5.9-13
		c5-10.7,10.4-32.6,16.2-66c4.3-24.6,10.7-61.6,21-118.4c11-60.3,27.2-83.7,39-100.9c5-7.3,8.9-13,11.1-19.7
		c7.2-22.4-22-78-58.2-143.1c-25.9-46.6-42.3-100-52.2-132c-3.1-10.1-6.1-19.8-7.5-22.7c-7.1-1.5-23-11.7-28.6-22.5
		c-0.9-1.7-0.2-3.6,1.4-4.4c1.7-0.8,3.5-0.2,4.4,1.4c5.3,10,21.5,18.9,24.5,19.1c3.7,0,4.5,2.3,12.1,27.1
		c9.8,31.6,26.1,84.7,51.7,130.8c38.1,68.7,66.7,123.4,58.6,148.3c-2.4,7.6-6.8,14-11.9,21.4c-11.5,16.6-27.2,39.6-37.9,98.4
		c-7.3,39.4-14.2,78.9-21,118.4c-5.8,33.9-11.5,56.5-16.7,67.8c-2,4.3-4,8.6-5.9,12.9c-3.2,7.2-1.4,16,4.7,24.3
		c8.5,11.5,22.6,18.4,34.5,17c10.1-1.2,18.2-8.4,23.2-20.6c15.6-37.7,44.2-91.9,65-131.4c7.1-13.4,13.2-25.1,17.8-34.2
		c9.5-18.7,19.1-43,27.5-64.3c10.7-27.1,17.5-44,22.5-49.2c9.7-10.2,19.2-21.8,18.4-39.1c-0.1-2.3-0.1-5.8-0.2-10.7
		c-0.6-36.9-2.1-135.1-30-233.3c-30.8-109-87.1-235-104.3-264.7c-0.9-1.5-0.4-3.6,1.2-4.5c1.5-0.9,3.6-0.4,4.5,1.2l0,0
		c17.3,30,73.9,156.8,105,266.3c28.1,99.2,29.6,197.9,30.3,235.1c0.1,4.6,0.1,8.3,0.2,10.5c1,21.6-12.2,35.6-20.2,44
		c-4.4,4.6-12.6,25.2-21.2,47.2c-8.5,21.5-18.2,45.9-27.8,64.9c-4.6,9.1-10.8,20.7-17.8,34.3c-21,39.3-49.4,93.3-65,130.8
		c-7.7,18.4-19.7,23.6-28.5,24.6C245.9,1477,244.6,1477,243.2,1477L243.2,1477z M178.4,810.4L178.4,810.4L178.4,810.4z M88.2,663.8
		c-1.9,0-3.3-1.4-3.3-3.3c0-0.8,0.3-1.5,0.9-2.2c13.8-15.4,50.7-31.4,98.7-42.5c43.8-10.1,84.3-13.6,100.7-8.5
		c1.8,0.6,2.8,2.3,2.2,4.1c-0.6,1.8-2.3,2.8-4.1,2.2h-0.1c-31.4-9.8-163.6,16.6-192.5,49.1C90,663.5,89.1,663.8,88.2,663.8z
		 M345.6,202.3c-9.7,0-31.6-26.3-34-31.7c-0.8-1.9-4.6-8.3-8.6-15.1c-6.5-11.2-14-23.9-16.4-29.7c-1.4-3.5-0.2-7.1,3-8.7
		c5.5-3,15.4,0,21.2,8.9l0.4,0.7c11.6,18.1,15.4,18,16.3,17.5c1.3-0.7,3.5-5.2,2.4-27.4c-0.1-2-0.2-3.6-0.2-4.7
		c0-1.4-1.7-8.5-3.2-14.7c-8.8-36.6-10.6-49.9-3.2-51.7c6.7-1.7,10.7,9.5,19.6,39.3c1.9,6.2,4.2,13.8,6.1,19.3
		c-0.4-8.5-2-21.8-3.1-30.8c-2.1-17-3.2-26.8-2.2-30.2c1-3.7,3.6-5.9,7.1-5.9c0.1,0,0.1,0,0.2,0c4,0.1,8,3.3,9.9,7.2
		c4.8,1.3,10.5,6.1,11,13.1c1.5,18.6,5.5,46.5,8.9,54c1.9-4.2,3.9-14.5,5.3-21.8c3.7-19.2,5.5-26,10.1-27c1.2-0.2,2.5,0.1,3.4,1
		c1,1,4.1,4.1,5.2,48.5c0.4,20.1,0.2,47-1.9,57.2c-2.1,10-6.1,22.3-12.9,24c-1.8,0.4-3.5-0.7-4-2.4s0.7-3.5,2.4-4
		c1.3-0.3,5.2-5.4,7.9-18.9c3.2-15.1,2.1-72.9-0.4-93.3c-1.3,4.7-2.5,11.2-3.5,16.2c-3.7,19.4-5.9,28.6-11.9,28.4
		c-4.4-0.1-7.7-5.1-11.6-29.5c-2.1-13.6-3.5-28-3.9-31.9c-0.4-5.2-5.4-7.4-6.9-7.4c-1.5,0-2.9-1.1-3.2-2.6c-0.3-1.3-1.7-3.1-3.2-3.9
		c-0.8-0.4-1.3-0.4-1.3-0.3c0,0-0.3,0.3-0.6,1.1c-0.7,2.4,1.1,16.4,2.4,27.7c4.5,37.1,4.3,43.8-0.9,44.9c-5,1-7.2-4.5-15-30.6
		c-3.1-10.4-8-26.8-11.3-32.8c-0.3,8.3,5.2,31.2,7.7,41.6c2.3,9.5,3.4,14.1,3.4,16.2c0,0.9,0.1,2.5,0.2,4.4
		c0.8,15.8,0.9,30.1-5.9,33.6c-9.1,4.7-19.4-11.2-24.9-19.8l-0.4-0.7c-3.1-4.8-7.3-6.7-10.1-7.1c-1.4-0.1-2.2,0.2-2.5,0.3
		c0,0.1,0,0.1,0.1,0.2c2.3,5.5,9.9,18.5,16.1,29c4.8,8.4,7.9,13.7,8.9,15.8c2.6,5.8,23.1,27.8,28,27.8c1.9,0,3.3,1.4,3.3,3.3
		C348.9,200.4,347.5,202.3,345.6,202.3L345.6,202.3z"/>
	<path class="st1" d="M359.3,172.9c-1.5,0-2.9-1.1-3.2-2.5c-1.1-4.3-12-13.4-16.7-15.3c-1.7-0.7-2.5-2.5-1.9-4.3s2.5-2.5,4.3-1.9
		l0,0c5.1,2,18.8,12,20.8,19.8c0.4,1.8-0.7,3.5-2.4,4C359.8,172.9,359.6,172.9,359.3,172.9L359.3,172.9z M350.1,138.2
		c-1.9,0-3.3-1.4-3.3-3.3c0-1.4,1-2.8,2.3-3.2c5.1-1.5,24.5-1.1,29.2-0.1c1.8,0.4,2.9,2.2,2.5,4c-0.3,1.8-2.2,2.9-4,2.5
		c-4.4-1-22.6-1.1-25.9-0.1C350.8,138.2,350.4,138.2,350.1,138.2L350.1,138.2z M271.9,484.1c-0.7,0-1.2-0.1-1.8-0.4
		c-2.1-1.1-5.2-2.6-8.9-48c-1.9-22.5-3.2-47.9-3-57.9c0.2-11.7,78.7-179.1,79.4-180.3c1-1.5,3-2,4.5-1c1.5,1,2,3,1,4.5
		c-4.8,8.3-77.6,167.7-78.4,177c-0.4,20.4,4.2,83.7,8,98.1c51.7-44.3,109.7-245.7,113.3-285.8c0.1-1.8,1.8-3.2,3.5-3l0,0
		c1.9,0.1,3.2,1.8,3,3.5c-1.9,21.3-18.3,84.9-39.9,145.9C333.4,391,304.1,460.8,274,483.4C273.5,483.8,272.8,484.1,271.9,484.1
		L271.9,484.1z"/>
	<path class="st2" d="M411.9,309.3c-6.7-1.1-99.6-56.3-103.6-46.8c-3.9,9.5-41.6,90.1-44.5,95.7c-7.5,14.5-45.9,158.3-17.8,168.7
		c28.1,10.2,54-11.1,64.6-26.1c8.7-12.2,30.1-64,40.7-90.8c7.5-18.8,24.7-36.1,30.8-44.1c5.7,2.1,9.8,3.3,10.4,2.3
		C394.6,364.4,418.5,310.4,411.9,309.3L411.9,309.3z"/>
	<path class="st1" d="M310.6,504.1c-1.9,0-3.3-1.4-3.3-3.3c0-0.8,0.2-1.5,0.8-2.1c8.9-10.9,28.6-60.8,39.2-87.7l0.9-2.2
		c6.3-15.8,17.4-28.1,24.1-35.5c0.3-0.3,0.7-0.8,1-1.1c-5.8,0.7-14.7,1.2-23.4,1.1c-21.8-0.2-26.4-4.2-28.1-7.2
		c-1.1-2.1-1.7-5.5,2.5-9.8c11-11.5,37.3-1.7,54.8,4.8c4.2,1.5,8.9,3.3,11.1,3.9c4.3-8.7,19.6-45.1,19.5-53
		c-3.4-1.2-10.8-5.2-26.6-13.6c-13.7-7.3-30.6-16.4-44.8-23.2c-19.4-9.4-25.6-10.6-27.4-10.6c-5,11.5-34.2,73.4-38.4,78.9
		c-1.1,1.4-3.2,1.8-4.6,0.7s-1.8-3.2-0.7-4.6c0,0,0-0.1,0.1-0.1c3.3-4.3,33.6-67.8,38-78.2c0.6-1.3,1.5-2.2,3-2.8
		c7.3-2.6,31.1,8.9,78.2,34.3c11.8,6.3,23.9,12.9,26.1,13.3c1.4,0.2,2.6,1.1,3.3,2.5c0.9,1.8,2.6,5.4-8.2,32.8
		c-5,12.8-11.1,26.3-12.3,28.5c-1.7,3-4.8,2.5-12.1,0c-0.7,2-2.8,4.2-6.1,7.9c-6.4,7.1-17.1,18.8-22.8,33.4l-0.9,2.2
		c-14.9,37.6-31.5,78.6-40.2,89.3C312.5,503.6,311.5,504.1,310.6,504.1L310.6,504.1z M327.6,363.2c0.7,1,5.7,3.5,22.3,3.6
		c8.2,0.1,16.5-0.4,22.1-1c-14.9-5.4-35.7-12.1-42.9-4.6C327.9,362.3,327.6,362.9,327.6,363.2L327.6,363.2z"/>
	<path class="st0" d="M264.4,823.4c-6.5,2.1-66.7,32.9-78.2,38.4c-11.6,5.5-23.7,5.8-31.2-12.1c-7.5-18-47.6-102.7-52.2-112.7
		c-4.6-10,8.8-22.6,37.6-31.3c28.8-8.7,145.3-44.3,162.8-50.9c28.8-10.9,71.8-17.1,81-17.1c10.1,0,32.2,32.6,37.1,64.3
		c5,31.7,12.1,65.6,13.3,74.7c1.2,9.1-70.2,22.1-85.2,25C334.5,804.7,282.5,817.7,264.4,823.4L264.4,823.4z"/>
	<path class="st1" d="M173.5,868.4c-2.5,0-5-0.4-7.3-1.3c-6.1-2.3-10.9-7.7-14.3-16.1c-5.5-13.3-28.9-62.9-42.7-92.5
		c-4.7-10.1-8.3-17.5-9.4-20.2c-1.7-3.5-1.5-7.5,0.1-11.2c4.2-9.4,18.3-18.2,39.4-24.6c14.7-4.5,144.2-44,162.6-50.9
		c29.6-11.2,73.2-17.3,82.2-17.3c13.7,0,35.6,36.4,40.4,67.1c3,18.6,6.6,38.3,9.4,52.7c2,10.2,3.4,18.3,4,22.1
		c0.9,6.2-5,12.9-83.9,28c-1.5,0.3-2.9,0.6-3.9,0.8c-15.5,3-67.1,16-84.8,21.6c-3.9,1.2-31.1,14.9-51,24.9
		c-12.1,6.1-22.6,11.3-26.9,13.3C182.4,867.3,177.8,868.4,173.5,868.4L173.5,868.4z M384.2,640.9c-8.5,0-51.3,6.2-79.9,16.9
		c-18.6,7.1-148.3,46.5-163.1,51c-18.8,5.7-32.1,13.6-35.4,20.9c-1,2.1-1,4-0.1,5.8c1.2,2.5,4.6,9.9,9.4,20.1
		c13.9,29.6,37.2,79.3,42.9,92.8c2.8,6.6,6.4,10.8,10.7,12.4c4.3,1.7,9.6,1,16.1-2.1c4.2-2,14.5-7.2,26.7-13.2
		c27-13.6,47.8-24,51.9-25.3c17.8-5.6,69.8-18.7,85.5-21.8c1-0.2,2.3-0.4,3.9-0.8c10-1.9,28.6-5.5,45.8-9.7
		c26.7-6.5,31.8-10.4,32.8-11.5c-0.6-3.9-2-11.6-3.9-21.3c-2.8-14.4-6.5-34.2-9.4-52.9C413,670.2,391,640.9,384.2,640.9L384.2,640.9
		z M264.4,823.4L264.4,823.4L264.4,823.4z"/>
	<path class="st1" d="M239.6,762.5c-24.3,0-48.7-5.3-62.6-15.4c-19.5-14.1-45.5-9.5-52.8-6.3c-1.7,0.8-3.6,0-4.4-1.7l0,0
		c-0.8-1.7,0-3.6,1.7-4.4l0,0c9.6-4.3,38-8.6,59.4,6.9c20.5,14.9,72.6,20.6,106.6,5.5c1.7-0.8,3.6,0,4.4,1.7c0.8,1.7,0,3.6-1.7,4.4
		l0,0C276.2,759.5,257.9,762.5,239.6,762.5L239.6,762.5z M357,730.3c-1.9,0-3.3-1.4-3.3-3.3c0-1.5,1.1-2.9,2.6-3.2
		c10.1-2.1,33.6-31.8,30.8-51c-0.2-1.8,1-3.5,2.8-3.7c1.8-0.2,3.5,1,3.7,2.8c3.2,22.3-21.8,55.5-36,58.5
		C357.5,730.3,357.3,730.3,357,730.3L357,730.3z"/>
	<path class="st0" d="M334.9,660.5c3.1,9.5,32.2,94.4,33.8,105.7c1.7,11.2-0.9,54.3-1.7,58.1c-0.8,3.7-6.3,5.4-9.1,6.3
		s-4.1,6.7-11,6.7c-6.9,0-9.5-2.5-16.5,0c-7.1,2.5-9.3,6.1-13.8,6.3c-6.7,0.3-34.3-14.7-38.4-15.9c-4.2-1.2-9.6,0.4-14.7-1.2
		c-5-1.7-0.4-10,8.8-11.2s21.3-0.4,25.4-1.2c4.2-0.8,7.9-43.8,12.9-48.5c5-4.6-34.7-77.2-38-88.9
		C269.4,664.9,331.6,650.3,334.9,660.5L334.9,660.5z"/>
	<path class="st1" d="M316.4,846.8c-5.2,0-16.2-5.2-30.1-11.8c-4-1.9-8-3.9-9.1-4.2c-1.4-0.4-3.4-0.4-5.4-0.3
		c-2.9,0.1-6.1,0.1-9.3-1c-3-1-4.5-3.4-4.3-6.5c0.4-4.6,5.6-10.1,13.7-11.2c5.3-0.7,11.1-0.8,16.3-0.9c3.2,0,6.2-0.1,7.9-0.2
		c1.3-2.9,3.1-12.7,4.4-19.9c2.9-15.6,4.6-23.8,7.3-27.1c-0.1-6.2-15-36.6-23.9-55c-7.3-15-13.1-26.8-14.4-31.3
		c-2.4-8.4,11.7-14.7,23.8-18.4c0.4-0.1,40.5-12.2,44.7,0.6c0.6,1.8,2.1,6.3,4.2,12.6c9.3,27.3,28.3,84.3,29.7,93.6
		c1.7,11.3-0.8,54.8-1.8,59.3c-1.3,5.8-8.5,7.8-11.5,8.7c-0.2,0.1-0.8,0.8-1.2,1.3c-1.8,2.1-4.7,5.5-10.7,5.5
		c-2.8,0-4.8-0.3-6.7-0.7c-3-0.6-5-0.9-8.7,0.4c-3,1-5,2.3-6.7,3.4c-2.4,1.5-4.7,2.9-7.9,3.1C316.6,846.8,316.5,846.8,316.4,846.8
		L316.4,846.8z M273.5,823.8c1.9,0,3.7,0.1,5.5,0.7c1.5,0.4,4.5,1.9,10.1,4.6c7.6,3.6,23.5,11.3,27.2,11.1c1.5-0.1,2.6-0.8,4.8-2.1
		c2-1.2,4.4-2.8,8-4c5.4-1.9,8.7-1.3,12-0.8c1.7,0.3,3.4,0.6,5.6,0.6c3,0,4.2-1.4,5.7-3.2c1.1-1.3,2.4-2.8,4.4-3.4
		c5.3-1.5,6.7-2.9,6.8-3.9c0.8-3.3,3.3-45.8,1.7-56.8c-1.3-8.8-21-67.4-29.4-92.5c-2.1-6.2-3.5-10.7-4.2-12.6c-1-1-6.9-2.3-20.1-0.1
		c-11.1,1.8-22.8,5.4-29.9,9.1c-5.3,2.8-6.2,4.7-6.1,5c1.1,4,7.4,16.7,14,30.2c23.4,47.8,27.2,58.3,23.1,62
		c-1.8,2-4.3,15.9-5.8,24.1c-3.6,19.7-4.8,24.3-8.7,25.1c-2.2,0.4-5.7,0.4-10.1,0.6c-5,0-10.7,0.1-15.5,0.8c-4.8,0.7-7.5,3.6-7.9,5
		c2.1,0.7,4.4,0.6,6.7,0.6C272.2,823.8,272.9,823.8,273.5,823.8L273.5,823.8z M331.8,661.7L331.8,661.7L331.8,661.7z M331.7,661.6
		L331.7,661.6L331.7,661.6z"/>
	<path class="st0" d="M309.9,1643.3c0-6.3,11-37.6-6.3-42.6c-19.6-5.6-85.2-24.5-102.7-34.9s-28-96.2-27.5-109.1
		c0.2-5.9-119.9,12.6-119.9,17c0.1,9.1,25,63.6,24.2,77.3c-0.8,13.8-12.6,47.2-10.9,61.8c0.4,4,1,9.6,1.5,15.5h70.7
		c15,0,34.6,15,36.9,15H309.9L309.9,1643.3z"/>
	<path class="st1" d="M309.9,1646.6H176c-1.5,0-2.9-0.8-7.4-3.4c-6.8-4.1-19.7-11.6-29.5-11.6H68.4c-1.7,0-3.1-1.3-3.3-3
		c-0.7-6.6-1.1-11.8-1.5-15.4c-1.1-9.3,2.5-24.2,6.1-38.8c2.3-9.4,4.4-18.2,4.7-23.6c0.4-7.2-7.7-28.9-14.2-46.3
		c-6.2-16.4-9.9-26.7-10-31c0-0.7,0.2-2,1.4-3c7.3-5.8,107.9-20.9,121.1-18.1c1.8,0.4,2.9,2.1,2.5,4c-0.3,1.8-2.1,2.9-4,2.5l0,0
		c-11.6-2.5-101,11.5-114.2,16.2c1.1,5,5.4,16.5,9.4,27c8.9,23.6,15.1,41,14.7,48.9c-0.3,5.9-2.5,15.1-5,24.7
		c-3.2,13.3-6.8,28.4-5.9,36.5c0.3,3.1,0.8,7.3,1.3,12.6h67.8c11.7,0,25,7.8,32.9,12.4c1.8,1,3.6,2.1,4.4,2.5h130.4
		c0.2-1.1,0.4-2.4,0.8-4c2-10.1,5.7-29-5-32.1l-1.9-0.6c-36.1-10.5-86-25.4-101.6-34.7c-11.6-6.8-19.3-39.2-23.8-65.2
		c-0.3-1.8,0.9-3.5,2.8-3.7c1.8-0.3,3.4,0.9,3.7,2.6c5.8,33.7,13.6,56.4,20.6,60.6c16.6,9.9,79.4,28.1,100,34l1.9,0.6
		c16.6,4.8,12.1,27.5,9.7,39.8c-0.6,2.6-1,5.1-1,6.1C313.2,1645.2,311.7,1646.6,309.9,1646.6L309.9,1646.6z"/>
	<path class="st1" d="M176,1643.3c3,5.9,8.6,19.2,10.2,19.2h126.3v-19.2H176L176,1643.3z"/>
	<path class="st1" d="M312.5,1665.9H186.3c-3.1,0-4.4-2.4-10.2-14.9c-1.1-2.3-2.1-4.5-2.9-6.1c-0.9-1.7-0.2-3.6,1.4-4.4
		c0.4-0.2,1-0.3,1.5-0.3h136.5c1.9,0,3.3,1.4,3.3,3.3v19.2C315.8,1664.4,314.4,1665.9,312.5,1665.9L312.5,1665.9z M187.6,1659.3
		h121.7v-12.6h-128l0.7,1.5C183.6,1651.7,186.2,1657.2,187.6,1659.3L187.6,1659.3z M68.4,1628.3c1.4,15.8,3,34.2,3,34.2h66.4
		c0,0,1.2-25,1.2-34.2H68.4L68.4,1628.3z"/>
	<path class="st1" d="M137.8,1665.9H71.5c-1.8,0-3.2-1.3-3.3-3.1c0-0.2-1.5-18.6-3-34.2c-0.2-1.8,1.2-3.4,3-3.6c0.1,0,0.2,0,0.3,0
		h70.6c1.9,0,3.3,1.4,3.3,3.3c0,9.1-1.2,33.3-1.2,34.4C141.1,1664.5,139.6,1665.9,137.8,1665.9L137.8,1665.9z M74.5,1659.3h60.3
		c0.3-6.1,0.9-19.5,1.1-27.5H72C73,1642.6,74,1653.9,74.5,1659.3L74.5,1659.3z"/>
	<path class="st0" d="M364.8,1643.7c2.2-5.8,23.8-31.1,9.5-42c-16.2-12.3-70.6-53.4-83.3-69.5c-12.6-16.1,12-80.2,17.1-92.1
		c2.3-5.4-104.8-46.2-106.3-42c-3.2,8.6-14.7,63.5-20.4,76c-5.7,12.6-28.6,39.6-32.4,53.8c-1,3.9-2.5,9.3-4.1,15l65.9,25.4
		c14,5.4,26.9,26.4,29.1,27.2L364.8,1643.7L364.8,1643.7z"/>
	<path class="st1" d="M364.8,1647c-0.4,0-0.8-0.1-1.2-0.2l-124.8-48.1c-1.4-0.6-2.4-1.8-5.6-5.8c-5-6.3-14.2-17.8-23.5-21.5
		l-65.9-25.4c-1.5-0.7-2.4-2.3-2-4c1.8-6.4,3.2-11.3,4.1-15c2.3-8.9,11.1-21.7,19.6-34c5.5-7.9,10.7-15.4,12.9-20.3
		c3.3-7.4,8.9-30.6,13.4-49.2c3.1-12.9,5.5-23,6.8-26.6c0.2-0.7,1-2.1,3.1-2.4c6.6-1,47,14.4,55.2,17.6c14.7,5.6,49.1,19.4,53.5,25
		c1.4,1.9,1,3.5,0.7,4.2c-9.9,23.6-27.3,76.2-17.5,88.8c12,15.2,64,54.8,81.1,67.8l1.5,1.2c13.8,10.5,1.3,30.1-5.3,40.5
		c-1.4,2.2-2.8,4.3-3.1,5.3C367.4,1646.2,366.1,1647,364.8,1647L364.8,1647z M241.5,1592.6l121.7,46.9c0.6-1,1.3-2.1,2.2-3.4
		c5.5-8.7,15.8-25,6.8-31.7l-1.5-1.2c-30-22.8-71.1-54.6-82.3-69c-14-17.7,11.3-82.4,16-93.8c-4.4-3.2-21.7-11.3-49.4-22
		c-25.3-9.8-44.7-16.1-50.8-17.2c-1.3,4.6-3.6,14-5.9,23.8c-4.8,19.9-10.2,42.5-13.9,50.5c-2.4,5.4-7.8,13.1-13.4,21.3
		c-7.8,11.2-16.6,24-18.7,31.9c-1.1,4.1-2.2,8.2-3.3,12.2l63.1,24.3c10.9,4.2,20.5,16.3,26.2,23.5
		C239.5,1590.2,240.8,1592,241.5,1592.6L241.5,1592.6z"/>
	<path class="st1" d="M239.9,1595.5c0.7,6.6,1.1,21,2.6,21.6l117.9,45.4l6.9-18L239.9,1595.5L239.9,1595.5z"/>
	<path class="st1" d="M360.4,1665.9c-0.4,0-0.8-0.1-1.2-0.2l-117.9-45.4c-2.9-1.1-3.3-3.9-4.2-17.6c-0.2-2.5-0.3-5-0.6-6.7
		s1.1-3.4,3-3.6c0.6,0,1,0,1.5,0.2l127.4,49.1c1.7,0.7,2.5,2.5,1.9,4.3l-6.9,18C363,1665,361.8,1665.9,360.4,1665.9L360.4,1665.9z
		 M244.9,1614.6l113.6,43.7l4.5-11.8l-119.4-46.1l0.1,1.7C244,1606,244.5,1612.1,244.9,1614.6L244.9,1614.6z M144.9,1542.8
		c-4.3,15.2-9.5,32.9-9.5,32.9l61.9,23.9c0,0,10.1-22.9,13.4-31.4L144.9,1542.8z"/>
	<path class="st1" d="M197.3,1603c-0.4,0-0.8-0.1-1.2-0.2l-61.9-23.9c-1.7-0.7-2.4-2.3-2-4c0-0.2,5.3-18,9.5-32.9
		c0.4-1.8,2.3-2.8,4.1-2.3c0.1,0,0.2,0.1,0.3,0.1l65.9,25.4c1.7,0.7,2.5,2.5,1.9,4.3l0,0c-3.3,8.6-13.1,30.6-13.6,31.6
		C199.8,1602.2,198.6,1603,197.3,1603L197.3,1603z M139.5,1573.9l56.2,21.6c2.4-5.5,7.8-17.8,10.9-25.3l-59.4-22.9
		C144.5,1556.2,142,1565,139.5,1573.9L139.5,1573.9z"/>
	<path class="st2" d="M338.7,615.6c-8.9,2.4-18.6-14.3-20.5-30.1c-8.8-10.9-40.3-80.5-40.3-102.2s-9.8-198.7-10.2-226
		s-21.3-61.7-33.5-63.9S152,205.2,139,195c-12.9-10.1-104.3-28.3-102.7-17.4c1.7,10.9,5.4,30,7.5,34.7l3.1,5.2
		c-8.8,10.5-26.8,24.7-31.1,63.1c-5,45.2-7.8,197.5-9,226.3c-1.2,28.8-9.1,68.9-11.7,82.3c21.3-18.9,143.1-36.5,187.6-35.9
		c1.7,10.7,3.3,19.9,4.8,25.9c5.4,21.5,15,46.8,17.6,55.1c-10.8,4-24.8,10.6-22.3,16.7c3.7,9.1,38.8,70.5,47.2,63.8
		s108.5-51.3,115.2-52.1C349.9,662.2,343.3,614.2,338.7,615.6L338.7,615.6z"/>
	<path class="st1" d="M228.6,718.7c-0.6,0-1.1-0.1-1.8-0.2c-13.8-3.5-44.8-60.9-47-66.2c-0.8-2-0.7-4.1,0.2-6.2
		c4-8.3,23.8-15.3,35.3-18.7c1.8-0.6,3.6,0.4,4.1,2.2c0.6,1.8-0.4,3.6-2.2,4.1l0,0c-16.6,5-29.2,11.1-31.2,15.2
		c-0.2,0.4-0.1,0.7-0.1,0.8c1.8,4.2,10.5,20.1,19.7,34.5c15.6,24.2,21.5,27.3,22.7,27.8c9.7-6.9,99.8-47.8,114.9-52.2
		c1.3-6.4-2.4-33.7-5.5-40.4c-3.3,1.4-8.9,4.7-15.3,8.5c-15.1,8.8-37.8,22.3-59.8,28.9c-12.8,3.9-19.5-0.3-22.4-3.2
		c-3.7-3.7-5.1-9.1-3.4-14.5c2-6.7,8-11.7,16.3-13.3c37.8-7.7,59.5-24.1,62.8-33.4c1-2.6,0.2-4-0.4-4.7
		c-8.6-10.6-41.1-81.4-41.1-104.3c0-11.3-2.8-65.9-5.3-118.5c-2.4-48.6-4.7-94.4-5-107.3c-0.4-26-20.4-58.8-30.7-60.7
		c-3.9-0.7-16.1,0.7-29,2c-32.9,3.6-58.9,5.8-67.5-1c-5.1-4-26.3-10.2-50.6-15c-28.2-5.5-43-5.6-46.7-4.4c1.9,12,5.4,28.9,7.2,32.8
		c0.8,1.7,0,3.6-1.7,4.4c-1.7,0.8-3.6,0-4.4-1.7c0,0,0,0,0-0.1c-2.3-5.4-6.3-25.7-7.7-35.6c-0.3-2.2,0.7-4.2,2.8-5.4
		c12.2-7.2,92.3,9.6,105.2,19.6c7.3,5.7,40.7,2,62.8-0.3c14.5-1.5,26-2.9,30.8-2c14.2,2.5,35.7,38.3,36.1,67.1
		c0.2,12.9,2.5,58.6,5,107.1c2.6,52.8,5.3,107.4,5.3,118.9c0,21.3,31.5,90.2,39.6,100.3c1.8,2.2,3.4,5.8,1.5,11.1
		c-4.5,12.4-29.7,29.9-67.8,37.6c-5.7,1.2-9.9,4.4-11.2,8.8c-0.9,3-0.2,5.9,1.8,7.9c3.1,3.1,8.8,3.6,15.8,1.5
		c21.3-6.4,43.6-19.5,58.4-28.2c8.7-5.1,15-8.8,18.5-9.8c0.8-0.2,2.6-0.4,4.3,1.4c5.4,5.8,9.9,41.9,7.3,49c-0.9,2.5-2.6,3.1-3.6,3.2
		c-6.3,1.1-105.5,44.9-113.6,51.4C231.1,718.2,229.9,718.7,228.6,718.7L228.6,718.7z"/>
	<path class="st1" d="M204.9,637.7c-1.7,0-3.1-1.3-3.3-3c-0.2-1-1.7-5.3-3.3-9.9c-3.7-10.6-9.9-28.4-14-44.8
		c-5.3-21.2-12.6-80.4-16.4-114c-1-9-4.2-26-7.9-45.6c-2.6-14-5.4-28.6-7.7-42.4c-1.5,1.8-3.2,3.5-4.8,5.3l-1,1.1
		c-1.3,1.3-3.4,1.3-4.6,0.1c-1.2-1.2-1.3-3.2-0.2-4.5l1-1.1c2.6-2.9,5.4-5.9,8.3-9.4c-3-18.1-5-33.7-4.6-43
		c0.4-15.3,6.7-20.6,12.3-20.5c6.9,0.2,14.2,9,14,25.2c-0.3,17.3-7.2,30.2-14.5,40c2.5,15.6,5.8,32.6,8.7,48
		c3.7,19.7,6.9,36.7,7.9,46.1c3.1,26.9,10.8,91.7,16.2,113.1c4.1,16.1,10.1,33.7,13.9,44.3c3,8.5,3.6,10.4,3.6,11.6
		c0.1,1.9-1.3,3.4-3.1,3.5C205,637.7,205,637.7,204.9,637.7L204.9,637.7z M201.6,634.5C201.6,634.6,201.6,634.6,201.6,634.5
		L201.6,634.5z M158.3,312.6c-2,0-5.2,3.9-5.5,14.1c-0.2,7.6,1.2,20.4,3.5,35.1c5.2-8.2,9.3-18.2,9.5-30.7
		C166.1,318.3,161.1,312.7,158.3,312.6L158.3,312.6L158.3,312.6z"/>
	<path class="st1" d="M-5,592.5c-1.9,0-3.3-1.4-3.3-3.3c0-0.2,0-0.4,0.1-0.7l0.7-3.4c3-15.5,9.8-52,11-78.4c0.3-7.4,0.8-23.1,1.3-43
		c1.5-56.1,4.2-149.9,7.9-183.5c3.9-34.3,18.2-49.9,27.8-60.4c3.2-3.4,5.8-6.4,7.3-9c0.8-1.7,2.8-2.3,4.4-1.5
		c1.7,0.8,2.3,2.8,1.5,4.4v0.1c-1.8,3.4-4.7,6.7-8.3,10.6C36,234.7,23,248.9,19.4,281c-3.7,33.3-6.3,127-7.8,183
		c-0.6,19.8-1,35.6-1.3,43.1c-1.1,24.7-7.1,57.6-10.2,75c35.8-19.2,150.9-32.8,183-32.2c1.9,0,3.3,1.5,3.2,3.4
		c0,1.9-1.5,3.3-3.4,3.2c-37.7-0.8-163.8,16-185.3,35.1C-3.3,592.2-4.1,592.5-5,592.5L-5,592.5z"/>
	<path class="st1" d="M151.3,518.5c-1.8,0-3.2-1.3-3.3-3.1c-0.2-2.8-0.4-7.2,0-12.9c0.2-3.6,0.1-11.9,0.1-19.2
		c-0.1-4.5-0.1-8.8-0.1-11.6c0.1-8.8,1-13.6,1.3-15.2c0.3-1.8,2.1-3,4-2.5c1.8,0.3,3,2.1,2.5,4c0,0,0,0,0,0.1
		c-0.2,1.1-1.1,5.4-1.2,13.9c0,2.6,0,6.9,0.1,11.3c0.1,7.8,0.2,15.9-0.1,19.7c-0.3,5.3-0.2,9.4,0,11.9c0.1,1.9-1.2,3.4-3.1,3.5
		C151.4,518.5,151.3,518.5,151.3,518.5L151.3,518.5z"/>
	<path class="st2" d="M151.3,471.8c-9.1,1.2-45.8,2.5-83.1,13c-18.9,5.3-38.1,12.4-53.5,18.9c-18.7,7.8-31.6,13.7-33.7,15.8
		c-1.9,1.8,2.9,29.6,6.5,32.9c1.3,1.2,37.3-19.7,81.5-32.9c37-11,78.2-17.1,82.3-16.7C150.4,490.7,151.3,483.6,151.3,471.8
		L151.3,471.8z"/>
	<path class="st1" d="M-12.7,556c-0.9,0-1.4-0.3-2.2-1c-4.4-4.1-7.8-26.1-8-32.5c0-2.4,0.1-4.1,1.3-5.3c1-1,3.4-3.4,34.7-16.4
		c13.2-5.5,33.3-13.3,54-19.1c30.1-8.5,59.4-10.9,75.1-12.3c3.7-0.3,6.6-0.6,8.4-0.8c1.8-0.2,3.5,1,3.7,2.9c0,0.1,0,0.3,0,0.4
		c0,4.2-0.1,7.7-0.2,11.1c-0.2,6.4-0.3,11.9,0.2,19.6c0.1,1.9-1.2,3.4-3.1,3.5c-0.2,0-0.3,0-0.6,0c-4-0.2-44.7,5.7-81,16.5
		c-29.5,8.8-55.5,21.3-69.5,27.9C-7.7,554.4-10.8,556-12.7,556L-12.7,556z M-16.2,521.5c-0.3,4.6,2.8,21.6,5.2,27.2
		c2-0.9,5.2-2.4,8.6-4c14.1-6.7,40.5-19.3,70.5-28.3c31.9-9.6,67.5-15.5,79.7-16.6c-0.3-6.4-0.1-11.6,0-17c0.1-2.3,0.1-4.6,0.2-7.2
		c-1.4,0.1-3.1,0.2-5,0.4c-15.5,1.3-44.4,3.9-73.9,12.1c-20.4,5.5-40.2,13.2-53.2,18.6C-7.8,516.7-14.4,520.3-16.2,521.5
		L-16.2,521.5z"/>
	<path class="st2" d="M69.5,471.8c-0.3,3.9,3.6,26.9,4.2,34.2c0.6,7.3,2.8,20.6,2.8,23.7l-15.5,2c-0.3-3.9-2.8-18.1-3.9-23.7
		s-3.9-30.1-3.6-31.7L69.5,471.8L69.5,471.8z"/>
	<path class="st1" d="M60.9,534.9c-1.8,0-3.2-1.3-3.3-3.1c-0.2-3.6-2.6-17.4-3.9-23.2c-0.9-4.5-4.1-30.3-3.6-32.9
		c0.3-1.8,2-3,3.9-2.8c1.8,0.3,2.9,1.9,2.8,3.6c-0.1,2.5,2.5,25.4,3.5,30.7c1.1,5.3,3.6,19.9,4,24c0.1,1.9-1.2,3.4-3.1,3.5
		C61,534.9,61,534.9,60.9,534.9L60.9,534.9z M76.4,532.9c-1.9,0-3.3-1.4-3.3-3.3c0-1.3-0.6-5.6-1.1-9.7c-0.7-4.6-1.3-9.9-1.7-13.7
		c-0.2-3-1.1-9.1-2-15.2c-1.5-10.6-2.4-17.2-2.2-19.5c0.1-1.8,1.8-3.2,3.5-3.1c1.9,0.1,3.2,1.8,3.1,3.5c-0.1,1.9,1.2,11.2,2.2,18.1
		c0.9,6.4,1.8,12.3,2,15.5c0.2,3.5,1,8.7,1.5,13.3c0.8,5.5,1.2,8.9,1.2,10.7C79.8,531.5,78.3,532.9,76.4,532.9L76.4,532.9z"/>
</g>
<g transform="translate(1678.5714285714287 104.28571428571429) rotate(0.0 529.9999999999999 1192.142857142857) scale(1.427125070009909 1.4270340964531405)">
	<path class="st1" d="M75.1,842H41.8c-7.2,0-10.8-4.1-11.2-8.2c-0.4-4.1,2.3-7.6,6.4-8.5c8.3-1.8,47.2-11.8,51.4-14.5
		c3.1-2,5.1-1,6.1-0.3c2.9,2.2,1.7,6.7,0.6,9.8C92.5,827.4,84.5,842,75.1,842L75.1,842z M88.9,817.7c-12,4.7-48.1,13.6-50.7,14.1
		c-0.9,0.2-1.3,0.7-1.2,1.3c0.1,1.1,1.7,2.2,4.7,2.2h33.4c1.5,0,3.7-1.4,6.1-4.1C84.9,827.1,87.7,821.4,88.9,817.7L88.9,817.7z
		 M90.1,813.6L90.1,813.6L90.1,813.6z"/>
	<path class="st0" d="M295.1,303c-5.4,4.3-45.5,37.8-54.6,42c-9.1,4.2-8.4,164.5,0,191.3c8.4,26.8,11.7,65.7,11.7,73.5
		c0,7.6-46.2,119.9-95,187.1c-5,6.8-37.6,9.1-50.9,10c-13.3,0.9-36.7,16.7-52.2,23.8c-9.9,4.5-3,8.8,7.1,8.8h113.6
		c22.9,0,25.6-28.2,29-36.8c7.3-18.4,111.1-156.1,116-179.5c5-23.4-1.9-138.6,0-162.8C321.7,436,306.7,294,295.1,303L295.1,303z"/>
	<path class="st1" d="M176.7,842h-69.3c-4.8,0-8.4-3.9-8.4-9.3c0-5.8,4.4-12,12.6-12c21.2,0,39.9-1.7,42.6-3.7
		c1.4-1.1,3.5-0.9,4.6,0.6c1.1,1.4,0.9,3.5-0.6,4.6c0,0,0,0-0.1,0.1c-6.1,4.5-34.7,5.1-46.6,5.1c-4.7,0-5.9,3.4-5.9,5.4
		c0,0.4,0.1,2.6,1.8,2.6h69.3c15.1,0,20.2-13.9,24-28.2c0.7-2.5,1.3-4.8,2-6.5c3.1-7.9,21.6-34.4,44.8-67.9
		c30.4-43.6,68.2-98.1,71.1-111.1c3.1-14.2,1.5-70.1,0.6-110.8c-0.7-25.9-1.2-46.4-0.6-51.7c0.2-1.8,1.9-3.1,3.7-2.9
		c1.8,0.2,3,1.9,2.9,3.6c-0.6,4.7,0,26,0.7,50.7c1.1,43.4,2.5,97.4-0.7,112.4c-3.1,14.4-39.8,67-72.1,113.5
		c-21.3,30.5-41.3,59.4-44.2,66.5c-0.6,1.3-1.1,3.4-1.8,5.8C203.9,820.5,198.1,842,176.7,842L176.7,842z"/>
	<path class="st1" d="M112.4,842H63.1c-7.8,0-14.4-4-15.1-8.9c-0.2-1.8,0-6.2,7.6-8.3c13-3.5,22.4-8.8,30.6-13.4
		c7.8-4.4,14.7-8.3,21.8-8.7l2.2-0.1c7.3-0.4,18.4-1.1,28.2-2.5c15.8-2.3,17.7-5.2,17.8-5.5c0.6-1,2.2-3.6,6.1-9.5
		c7.2-11,20.6-31.6,33.3-53c0.9-1.5,2.9-2.1,4.5-1.2c1.5,0.9,2.1,2.9,1.2,4.5c0,0,0,0.1-0.1,0.1c-12.8,21.6-26.2,42.2-33.4,53.2
		c-2.9,4.4-5.4,8.3-5.7,8.9c-3.7,7.4-22.5,9.9-51.6,11.7l-2.2,0.1c-5.7,0.3-11.6,3.6-18.9,7.8c-8.2,4.6-18.4,10.4-32.2,14
		c-1.7,0.4-2.3,0.9-2.6,1.1c0.7,1,3.9,3,8.5,3h49.2c1.9,0,3.3,1.4,3.3,3.3S114.2,842,112.4,842L112.4,842z"/>
	<path class="st3" d="M273.7,1545.3c0,0,53.4,71.4,55.5,78.4c2.1,7.1,10.6,110.3,11,115.7s-47.7,33.8-39.3,33.8H379
		c12.1,0,44.3-177.8,52.6-190.4c8.3-12.6-61.4-95.6-74.4-112.7C345.9,1478.5,273.7,1545.3,273.7,1545.3L273.7,1545.3z"/>
	<path class="st1" d="M378.9,1776.5h-78.1c-3,0-3.9-2.1-4.1-2.6c-1.1-3.6,1.9-6.1,19.2-18.4c7.6-5.4,19.1-13.6,20.9-16.4
		c-1.1-14.5-9-108.2-10.8-114.4c-1.7-5.1-34.6-50.2-55-77.4c-1-1.3-0.9-3.3,0.4-4.4c3-2.8,72.5-67,83.7-75.4
		c1.4-1.1,3.5-0.8,4.6,0.7c2.1,2.8,5.6,7.3,10.1,12.9c53.5,67.3,70.4,94.4,64.2,103.7c-3,4.5-10.8,38.9-18.3,72.1
		c-5.9,26.3-12.8,56.2-18.8,78.9C387,1773.6,383.1,1776.5,378.9,1776.5L378.9,1776.5z M307.3,1769.9h70.9c1.3-1.3,5.2-7.8,13.3-39.2
		c5.7-22,12.2-50.3,17.8-75.4c9.7-42.6,15.8-69,19.3-74.3c0.3-0.6,2.5-6.1-20.7-39.2c-13.9-19.8-31.5-42-43.2-56.6
		c-2.8-3.4-5.5-6.9-8.3-10.4c-14.9,12.2-67.1,60.4-78.4,70.8c12,16.1,52.2,70.3,54.3,77.1c2.3,7.7,11,115.2,11.1,116.3
		c0.3,4-4.7,8.2-23.8,21.7C315.7,1763.8,310.8,1767.2,307.3,1769.9L307.3,1769.9z M336.9,1739.8L336.9,1739.8L336.9,1739.8z"/>
	<path class="st1" d="M431.5,1582.9l32.9,88.2l-5.8,4.8l-32.5-76.7L431.5,1582.9z"/>
	<path class="st1" d="M458.6,1679.3c-1.3,0-2.5-0.8-3.1-2l-32.5-76.7c-0.3-0.8-0.3-1.5-0.1-2.3l5.4-16.4c0.4-1.3,1.7-2.2,3.1-2.3
		h0.1c1.3,0,2.6,0.9,3.1,2.1l32.9,88.2c0.4,1.3,0.1,2.8-1,3.7l-5.8,4.8C460.2,1679,459.4,1679.3,458.6,1679.3L458.6,1679.3z
		 M429.7,1599.1l30.3,71.5l0.7-0.6l-28.9-77.2L429.7,1599.1L429.7,1599.1z"/>
	<path class="st2" d="M222.3,706c-1.4,7.5-5.9,26.6-15.4,47.7c-9.5,21.2-174.3,374.8-173.2,400.9c1.1,26.1,194.4,395.4,202.1,408.3
		c7.5,12.9,152.8-112.8,155.3-121.6c2.5-8.8-156.6-238.8-155.3-270.1c1.2-31.3,135.8-204,155.3-295.1
		c16.7-78.2-12.6-180.8-16.3-200.8C370.9,655.2,226.3,685.3,222.3,706L222.3,706z"/>
	<path class="st3" d="M168.9,1516.9c-2.3,28.3-12.1,109-17.5,125.3C146,1658.4,77,1770.7,77,1770.7h93.5c10,0,62.7-90.4,67.6-99.6
		c5-9.1-2.1-43.2,4.1-64s35-98.5,35-98.5L168.9,1516.9z"/>
	<path class="st1" d="M170.5,1774H77.1c-1.9,0-3.3-1.4-3.3-3.3c0-0.7,0.2-1.2,0.4-1.8c23.8-38.8,69.8-115.3,74-127.9
		c5.1-15.2,14.9-93.9,17.4-124.5c0.1-1.7,1.4-2.9,3.1-3l108.5-8.4c1.9-0.1,3.4,1.2,3.5,3.1c0,0.4,0,1-0.2,1.4
		c-0.3,0.8-28.9,77.8-35,98.4c-3.2,10.6-2.8,25-2.3,37.8c0.4,12.2,0.7,21.8-2.1,26.9c-2.2,4.1-16.5,28.9-32.1,53.4
		C178.8,1774,173.4,1774,170.5,1774L170.5,1774z M83,1767.4h87.4c1.3-0.6,8.2-5.3,34.2-46.4c15.2-24,28.8-47.7,30.8-51.6
		c1.9-3.5,1.5-13.7,1.2-23.5c-0.4-13.2-0.9-28.2,2.5-39.9c5.4-18,26.9-76.5,33.4-93.9l-100.6,7.7c-2.6,30.2-12,106.9-17.4,123.2
		C149.6,1657.8,96.6,1745.2,83,1767.4L83,1767.4z"/>
	<path class="st2" d="M449.5,726.1c1.9,21.5,6.7,96.8,6.7,159.7c0,75.7-47.6,474.5-52.6,518.3c-5,43.8-13.7,171.1-14.2,189.2
		c-19.2-6.7-97.8-26.7-126-30.4c-27.3-3.6-101.7-15.1-106.8-15.1s62.9-365.9,69.2-389.3c6.3-23.5,32.5-245.9,33.8-274
		c2.1-45.9,18.2-211.1,56.4-213.6C343.3,669,445.2,676.6,449.5,726.1L449.5,726.1z"/>
	<path class="st1" d="M77.1,1770.7c0,0-12.6-40.1-7.1-42.6s93.1,42.6,96.8,42.6H77.1z"/>
	<path class="st1" d="M166.9,1774H77.1c-1.4,0-2.8-1-3.2-2.3c0-0.1-3.2-10.2-5.6-20.6c-4.6-19.4-3.3-24.3,0.3-26s13.7,2,69.1,28.6
		c13.2,6.4,27,12.9,29.5,13.7c1.9,0.1,3.2,1.7,3.1,3.5C170.1,1772.7,168.7,1774,166.9,1774L166.9,1774z M79.5,1767.4H151
		c-5.4-2.5-10.8-5.1-16.2-7.7c-20.7-9.9-54.5-26.2-62.9-28.2C71.4,1736.7,75.1,1753,79.5,1767.4L79.5,1767.4z M389.3,1596.6
		c-0.3,0-0.8-0.1-1.1-0.2c-18.4-6.4-96.5-26.4-125.5-30.2c-11.8-1.5-32.3-4.6-52.1-7.5c-24.1-3.5-51.6-7.6-54.2-7.6
		c-1.1,0-2.1-0.6-2.8-1.3c-1.2-1.7-2.2-3,7.6-62.2c6.8-40.8,16-92.2,22.6-128.1c17.4-95.8,35.4-190,38.4-201.7
		c2.5-9.6,7.4-56.4,12.3-106c4.2-40.7,8.6-84.4,12.8-117.4c-4.2,6.5-6.5,10.7-6.6,10.8c-0.9,1.5-3,2.1-4.5,1.2
		c-1.5-0.9-2.1-3-1.2-4.5c0.1-0.1,5.5-9.5,14.3-22.6c2.4-17.5,4.7-30.5,6.7-35.8c5.2-13.6,13.9-18.7,19.8-19.1
		c3.9-0.2,7.1,1.5,8.6,4.6c1.7,3.3,2.9,10.7-7.7,23.9c-8.2,10-15.3,20.2-21.2,28.8c-4.7,34.4-10,86.2-14.5,130.8
		c-5.3,52-9.9,96.8-12.6,107c-6.1,22.7-67.2,353.1-69.3,385.5c7.3,0.8,25.4,3.5,52.1,7.4c19.8,2.9,40.2,5.9,52,7.5
		c27.4,3.6,98.4,21.6,122.5,29.2c1.3-28.5,9.3-143.3,14-185c0.6-4.4,1.4-12.4,2.8-23.5c33.1-283.1,49.9-449.5,49.8-494.5
		c0-61.3-2.3-137.8-6.6-159.1c-0.3-1.8,0.8-3.5,2.6-3.9c1.8-0.3,3.5,0.8,3.9,2.5c4.4,21.7,6.7,98.8,6.7,160.4
		c0,45.3-16.7,212-49.9,495.3c-1.3,11-2.2,19.1-2.8,23.5c-5.1,44.2-13.7,171-14.2,188.8C392.6,1595.2,391.1,1596.6,389.3,1596.6
		L389.3,1596.6z M276.9,870.8c-0.1,0-0.2,0-0.3,0c-4.1,0.2-10.2,5-14,14.8c-1.3,3.5-2.9,11-4.5,21.3c4.4-6.2,9-12.3,13.9-18.3
		c7.5-9.4,7.9-15,7.1-16.7C278.8,871.6,278.4,870.8,276.9,870.8L276.9,870.8z M238.3,1671.1l-10.5,99.6h-8.4l7.1-79.3L238.3,1671.1z
		"/>
	<path class="st1" d="M227.8,1774h-8.4c-1.9,0-3.3-1.4-3.3-3.3c0-0.1,0-0.2,0-0.3l7.1-79.3c0-0.4,0.2-1,0.4-1.3l11.8-20.4
		c0.9-1.5,3-2.1,4.5-1.2c1.1,0.7,1.8,1.9,1.7,3.2l-10.5,99.6C230.9,1772.8,229.5,1774,227.8,1774L227.8,1774z M223.1,1767.4h1.8
		l8.6-81.3l-3.6,6.4L223.1,1767.4z M272.8,1261.2c-5.6,0-12.2-0.4-19.9-1.5c-1.8-0.2-3.1-1.9-2.9-3.7l0,0c0.2-1.8,1.9-3.1,3.7-2.9
		l0,0c27.2,3.7,41-0.6,44.6-5.3c0.8-1,1-2,0.6-2.8c-0.6-1.1-2.3-2.5-5.7-2.9c-1.9-0.1-45.5-3.5-54.4-10.7c-1.4-1.1-1.7-3.2-0.6-4.6
		c1.1-1.4,3.2-1.7,4.6-0.6c4.6,3.6,30,7.7,50.8,9.3c5.4,0.4,9.6,2.9,11.2,6.7c1.4,3.1,0.9,6.5-1.3,9.5
		C301.2,1255,293.8,1261.2,272.8,1261.2L272.8,1261.2z"/>
	<path class="st0" d="M492.7,520.8c-1.9,12.8-33.9,232.6-40.7,224.2c-6.7-8.4-45.3-14.4-90.7-25c-29.6-6.9-115.5-9.7-141.2,0.3
		c-0.3-16,23.2-138.2,20.7-149.8s-22.6-39.2-20.8-50.9s21.5-40.1,30.8-69.3c0,0,22-109.5,32.7-119.4c10.7-9.9,82.1-40.3,102.1-39.4
		c24.2,1,62.2-3.9,76.3-9.7s46.2,56,46.1,101C508,427.9,496,497.7,492.7,520.8L492.7,520.8z"/>
	<path class="st1" d="M546.3,544.6c0,0-190.9,86.8-194.8,94.3c-3.9,7.5,26.8,191.4,29,195.4c2.2,4.1,17.3,24.6,29,24.3
		c11.7-0.2,252.1-137.4,255.4-143.1C668.2,709.9,546.3,544.6,546.3,544.6L546.3,544.6z"/>
	<path class="st1" d="M409.3,862c-14.1,0-30-22.8-31.7-26.1c-1.8-3.3-12-65.1-17.1-97.5c-15-95.1-12.7-99.4-11.9-101
		c1-2,3-5.7,100.4-51.4c47.7-22.4,95.5-44.2,96-44.3c1.4-0.7,3.1-0.2,4.1,1.1c0.3,0.4,30.8,41.9,60.6,83.4
		c17.5,24.5,31.3,44.2,41,58.6c19.4,28.9,18.5,30.4,17.2,32.6c-0.7,1.1-1.7,2.9-40.9,25.9c-23.2,13.7-54.2,31.5-84.9,48.9
		c-46.1,26-124.6,69.7-132.4,69.8H409.3L409.3,862z M383.4,832.9c2.8,4.8,16.5,22.5,25.8,22.5l0,0c5-0.8,46.6-22.3,128.5-68.5
		c66.2-37.5,115.2-66.4,123.5-72.5c-6.1-14.2-72.8-107-116-165.6c-73.4,33.4-181.9,84.1-190.7,91.8c-0.6,5,2.4,32.8,12.6,97.3
		C374.4,784.6,382.1,828.8,383.4,832.9L383.4,832.9z M383.4,832.8L383.4,832.8L383.4,832.8z"/>
	<path class="st0" d="M841.5,824.7c-12.4-3.2-23-8-34.2-12.3c-13.7-4.3-31.8-13-47.2-13c-10.2,0.9-18.7-7.1-24.8-15.3
		c-11-14.9-31.4-56.2-64.1-111.1c-32.6-54.8-56.1-87.6-65.2-103.8c-11.6-20.5-20.9-59.3-32.1-91.7s-59.7-143.4-64.9-163.1
		c-5.1-19.6-27.3-47.8-50.3-39.2c-23,8.6-51.2,11.9-74.3,12.7l64,159.7c2.5,5.9,79.2,132,88.1,148.1c8.7,15.6,23.7,66.1,58.7,105.4
		c35,39.2,93.2,84.2,99.7,97.4c1.9,3.9-2,18.7-3.1,24.5c-1.5,8-4.6,11,2.6,16.4c4,1.9,35.9,14.3,40.9,14.3c4.4,1.3,10.6,5,13,5
		c6.7,0,8-14.4-12-24c14.5,3.3,24.6,5.2,29.3,7.1c2.2,5.1,2.4,10.8,6.3,16.3c9.3,13.1,15.2,6.3,12.7-2c-2-6.5-4.6-16.3-5.4-24.9
		c8.3,6.2,32.7,24.5,40,21.7c6.6-2.5,2.2-5.9-1.1-9.6c-3.7-4.2-11.6-12.1-14.7-15.6c7.7,1.4,22.6,7.1,29.9,7.2
		c4.6,0.1,11.7,2.1,12-7.9C845.4,825.7,842.6,824.9,841.5,824.7L841.5,824.7z"/>
	<path class="st1" d="M817.1,856.3c-7.1,0-18.3-6.3-36.2-19.9c-0.7-0.4-1.1-0.9-1.5-1.2c-1.4-1.1-1.8-3.2-0.7-4.6s3.1-1.8,4.6-0.7
		c0.4,0.3,1,0.7,1.5,1.2c24.5,18.7,31.4,19.2,33.2,18.5c0.4-0.2,0.8-0.3,1-0.4c-0.6-0.8-1.5-1.8-2.2-2.4c-0.4-0.4-0.9-0.9-1.2-1.3
		c-2.6-2.9-5.5-5.7-8.6-8.8c-5.4-5.4-11-11-15.2-16.7c-1.1-1.4-0.8-3.5,0.8-4.6c1.4-1.1,3.5-0.8,4.6,0.7c4,5.3,9.4,10.7,14.5,16
		c3,3,6.1,6.1,8.8,9c0.3,0.4,0.8,0.8,1.1,1.2c2.3,2.4,5,5.2,4.2,8.6c-0.8,3.3-4.3,4.6-5.4,5.1C819.4,856.2,818.3,856.3,817.1,856.3
		L817.1,856.3z"/>
	<path class="st0" d="M380.1,222c-4.3,2.5-12.3,12-12.6,19.6c-0.4,14.2,14,50,14,50s-44.6,33.2-63.5,38.3
		c-18.9,5.2-19.7-11.9-19.7-19.8c0-5.9-8.4-35.9-16.7-41.8c-8.4-5.8-47.8-0.9-52.9-3.3c-6.3-3-1.1-44.6-2-55.1
		c-0.9-10.5-9.3-13.1-7.1-21c2.2-7.9,29.7-23.5,31.4-31.2c1.7-7.7-2.8-15.2-0.4-19.6c4.4-8.5,31.5-47,65.1-57.6
		c7.4-2.3,45.8,13,65.7,57.3C401.2,182.1,388.2,217.1,380.1,222z"/>
	<path class="st1" d="M311.7,334.1c-3.7,0-6.8-1-9.5-3c-7.2-5.5-7.2-16.9-7.2-21.2c0-5.5-8.4-34.2-15.3-39.1
		c-4.2-3-21.5-2.5-33.1-2.2c-11.2,0.3-16.7,0.3-19.4-0.9c-5.6-2.6-5.6-15.2-4.3-41.1c0.3-7.1,0.7-13.7,0.4-16.7
		c-0.3-4.3-2-6.7-3.6-9.4c-1.9-2.9-4.1-6.1-3.6-11.3c0.3-3.7,4.5-7.1,11.6-12.4c7.5-5.7,16.7-12.9,20.4-20.7c1.2-2.5,0.7-5.8,0-9.3
		c-0.8-4.2-1.7-8.9,0.8-13.3c4.6-8.8,25.9-38,61.6-56.1c1.7-0.9,3.6-0.2,4.4,1.4c0.9,1.7,0.2,3.6-1.4,4.4l0,0
		c-31.6,16.1-53.2,42.9-58.7,53.3c-1.3,2.4-0.8,5.5-0.1,9.1c0.8,4.1,1.5,8.8-0.6,13.3c-4.3,9.1-14.3,16.9-22.4,23.1
		c-3.5,2.8-8.4,6.5-9,7.9c-0.2,2.9,0.9,4.5,2.5,6.9c1.9,2.9,4.3,6.4,4.7,12.4c0.3,3.5,0,10-0.4,17.5c-0.6,10.2-1.7,31.3,0.8,34.9
		c2.1,0.6,9.8,0.3,16.2,0.1c18.2-0.4,31.4-0.6,37,3.4c9.8,6.8,18.1,38.4,18.1,44.5c0,3.4,0,12.4,4.5,16c2.4,1.9,6.1,2.1,11,0.8
		c15.8-4.3,51.4-29.7,60.4-36.2c-3.3-8.4-13.7-36.2-13.3-48.9c0.3-9.4,10.5-19.2,13.7-21.9c1.3-1.2,3.4-1.1,4.6,0.2l0,0
		c1.2,1.3,1.1,3.4-0.2,4.6l0,0c-5.6,5-11.2,12.2-11.5,17.2c-0.4,13.3,13.7,48.3,13.8,48.7c0.6,1.4,0.1,3-1.1,3.9
		c-1.9,1.3-45.4,33.6-64.6,38.9C316.3,333.8,313.9,334.1,311.7,334.1L311.7,334.1z"/>
	<path class="st1" d="M288.9,142.8c-1.7-1.7-3-3.6-4.7-5.3c-2.1-2-4.6-3.1-7.5-3.3c-5.6-0.4-10,3.9-11.8,8.8
		c-0.6,1.7,0.7,3.6,2.3,4.1c1.9,0.4,3.4-0.6,4.1-2.3c0-0.1,0.4-0.9,0-0.1c0.1-0.2,0.2-0.3,0.2-0.6c0.2-0.4,0.4-0.8,0.7-1.2
		c0.3-0.6-0.4,0.4,0.1-0.1c0.1-0.1,0.2-0.3,0.4-0.4c0.1-0.1,0.3-0.3,0.4-0.4s0.8-0.4,0.1-0.1c0.3-0.2,0.7-0.4,1-0.7
		c0.7-0.4-0.7,0.2,0.1,0c0.2-0.1,0.4-0.1,0.6-0.2c0.1,0,0.4-0.2,0.6-0.1c-0.1,0-0.2,0-0.2,0c0.4,0,1,0,1.4,0c-0.1,0-0.1,0-0.2,0
		c0.4,0.1,1,0.2,1.4,0.3c-0.4-0.1-0.3-0.1,0,0c0.2,0.1,0.3,0.2,0.6,0.3c0.2,0.1,0.4,0.3,0.7,0.4c-0.3-0.2-0.2-0.2,0,0
		c0.3,0.3,0.7,0.7,1,1c1.4,1.4,2.6,3.1,4,4.5c1.2,1.2,3.5,1.3,4.6,0C290.1,146.3,290.1,144.2,288.9,142.8L288.9,142.8z M268.4,200.7
		c0.3-0.3,0,0-0.2,0.2c-0.6,0.7-1.1,1.3-1.7,1.9c-0.8,0.9-1.5,1.7-2.4,2.4c-1.5,1.4-3.4,2.8-5,3.3c-1,0.3-2.1,0.4-2.8,0.6
		c-0.6,0-1,0.1-1.5,0.1c-0.3,0-0.6,0-0.9,0c-0.3,0,0.3,0.1-0.3,0c-1.1-0.2-1.7-0.4-2.4-0.9c-1.1-0.7-1.9-1.2-2.8-2.1
		c-3.1-3-7.7,1.7-4.6,4.6c2.2,2.1,4.7,4,7.8,4.6c3,0.7,6.1,0.4,8.9-0.3c5.6-1.5,10-6.5,13.4-10.9c1.1-1.4,0.2-3.7-1.2-4.5
		C271.1,198.5,269.5,199.3,268.4,200.7L268.4,200.7z M275.3,154.4c1.3-0.8,3-0.4,4.3,0.2c1.2,0.7,2.5,1.8,3.3,3.3
		c0.2,0.3,0.3,1,0.4,1.4c0.8,2.6,0.2,4.3-1.4,6.1c-1.1,1.2-3.4,2-4.8,1.1c-1.5-0.8-2.3-2.2-3.1-3.7
		C272.8,160.3,272.2,156.1,275.3,154.4L275.3,154.4z"/>
	<path class="st1" d="M290.9,162.1c-0.6,0.1-1.3-0.8-1.8-1.1c-0.7-0.7-1.3-1.4-2-2.1c-1.8-1.8-3.9-3.4-6.1-4.5
		c-2.3-1.2-4.5-1.2-7.1-0.3c-2.4,0.9-4,2.8-5.7,4.4c-1.5,1.5,0.8,3.9,2.3,2.3c1.7-1.5,2.9-3.3,5.2-3.9c1-0.3,1.9-0.3,2.9,0
		c1.2,0.4,2.2,1.1,3.2,1.9c1.7,1.2,3,2.6,4.4,4.1c1.4,1.5,3.2,2.8,5.4,2.3C293.7,165,292.8,161.8,290.9,162.1L290.9,162.1z"/>
	<path class="st0" d="M288.2,165.2c-2-1.1-16.3-2-19.2-1.9c1.2,1.8,3.2,4.1,4.1,5.9c0.7,1.3,0.3,1.1,1.8,1.2
		c1.2,0.1,2.6-0.1,3.9-0.3c2.6-0.3,6.2,0,8.7-1c1.2-0.4,1,0.2,1.2-1.3C288.6,167.5,288.4,164.9,288.2,165.2L288.2,165.2z"/>
	<path class="st4" d="M294.3,189.2c-4.3,0-7.7-3.4-7.7-7.7c0-4,3-7.3,6.8-7.7c6.5-0.7,11.1-2.8,14.4-4.5c3.7-2,8.5-0.4,10.4,3.3
		c2,3.7,0.4,8.5-3.3,10.4l0,0c-4.2,2.2-10.8,5.2-19.9,6.2C294.8,189.2,294.5,189.2,294.3,189.2L294.3,189.2z"/>
	<path class="st1" d="M303.7,261c-1.9,0-3.3-1.5-3.3-3.3c0-1.3,0.9-2.6,2.1-3.1c2.8-1,11.8-5.2,11.9-5.2c1.7-0.8,3.6,0,4.4,1.7
		c0.8,1.7,0,3.6-1.7,4.3c-0.3,0.2-9.4,4.2-12.3,5.4C304.5,260.8,304.2,261,303.7,261L303.7,261z M295.9,90.6
		c5.5-3.7,34.7-29.4,76.5-11.7c41.8,17.8,61.5,56,52,97.3c-8.4,36.5-42.9,42.5-51,52.8c-3.1,3.9-8.6-14.7-8-33.8
		c0.6-18.9-5.5-22.9-10.6-34.7C361.4,149.9,357,90.6,295.9,90.6L295.9,90.6z"/>
	<path class="st1" d="M372.6,232.7c-0.6,0-1-0.1-1.4-0.2c-6.4-2.3-9.4-23.6-8.9-37.5c0.3-13-2.4-18.3-6.1-24.9
		c-1.4-2.5-2.9-5.2-4.2-8.5c-0.4-1-0.3-2.1,0.2-3c2.4-4.1,3.4-21.9-5.7-38.4c-6.7-12-21-26.4-50.3-26.4l0,0c-1.9,0-3.3-1.4-3.3-3.3
		c0-1.1,0.6-2.1,1.4-2.8c0.4-0.3,1-0.7,1.7-1.2c4.5-3.3,13.8-10.1,27.1-14.2c16.6-5,33.7-3.9,50.8,3.4c42.6,18.2,63.9,57.8,54,101
		c-6.2,27.1-26.4,38.6-39.8,46.1c-5.3,3-9.8,5.5-11.8,8C375.1,232.2,373.8,232.7,372.6,232.7L372.6,232.7z M358.5,160.5
		c1.1,2.4,2.2,4.5,3.3,6.5c3.7,6.8,7.3,13.4,6.8,28.2c-0.3,13.2,2.2,25,4.1,29.5c2.9-2.5,6.9-4.8,11.8-7.6
		c13.1-7.4,31.1-17.5,36.6-41.8c9.1-39.9-10.6-76.6-50.1-93.4c-30.4-13-53.5-2-65.4,5.8c26.1,2.9,39.7,17.1,46.5,29.3
		C361.2,133.4,361.9,152.3,358.5,160.5L358.5,160.5z"/>
	<path class="st0" d="M351.6,168c14.9-14.2,25.6,1.1,27.5,5.5c5.4,11.6-5.3,24.8-16.7,27.1"/>
	<g>
		<path class="st1" d="M353.9,170.4c1-1,2.1-1.9,3.2-2.6c1-0.7,2.2-1.3,3.1-1.7c0.4-0.2,1-0.3,1.5-0.4c0.2-0.1,0.6-0.1,0.8-0.2
			c0.6-0.1-0.8,0,0.2,0c0.4,0,0.9,0,1.4,0c0.2,0,0.6,0,0.8,0c0.8,0-0.4-0.1,0.3,0c0.9,0.2,1.7,0.4,2.4,0.7c-0.7-0.2,0.6,0.3,0.8,0.3
			c0.4,0.2,0.8,0.4,1.2,0.7c0.3,0.2,0.8,0.6,1.1,0.8c-0.6-0.4,0.2,0.2,0.3,0.3c0.7,0.6,1.3,1.2,1.9,1.9c0.3,0.3,0.6,0.7,0.8,1
			c0.7,0.8-0.1-0.2,0.3,0.3s0.8,1.1,1.2,1.8c0.8,1.2,1.2,2.3,1.7,3.6c1.1,4.1-0.2,8.3-2.8,12c-2.9,4.2-7.5,7.3-12.6,8.4
			c-1.8,0.3-2.8,2.4-2.3,4.1c0.6,1.8,2.3,2.6,4.1,2.3c11.2-2.4,21.8-13.8,20.4-25.8c-1-8.2-7.8-16.6-16-18.6
			c-7.1-1.8-13.6,1.7-18.5,6.4C346,168.6,350.8,173.3,353.9,170.4L353.9,170.4z M305.7,103c-3.6,0-6.6-3-6.6-6.6c0-2.1,1-4,2.5-5.3
			c12.8-9.8,25.8-15,26.3-15.2c3.4-1.3,7.3,0.3,8.6,3.7c1.3,3.4-0.3,7.3-3.7,8.6l0,0c-0.1,0-11.9,4.7-23.1,13.4
			C308.6,102.5,307.2,103,305.7,103L305.7,103z"/>
		<path class="st1" d="M305.7,106.3c-3.1,0-5.9-1.4-7.8-3.9c-1.7-2.1-2.3-4.7-2-7.4c0.3-2.6,1.7-5,3.7-6.6
			c13.1-10.1,26.6-15.4,27.1-15.6c5.1-2,10.9,0.6,12.9,5.6c2,5.1-0.6,10.9-5.6,12.9c-0.1,0-11.5,4.6-22.4,13
			C310,105.6,307.9,106.3,305.7,106.3L305.7,106.3z M330.4,78.7c-0.4,0-0.8,0.1-1.2,0.2c-0.6,0.2-13.1,5.3-25.6,14.8
			c-0.7,0.6-1.1,1.3-1.2,2.2c-0.1,0.9,0.1,1.8,0.7,2.4c1.1,1.4,3.2,1.7,4.6,0.7c11.7-8.9,23.8-13.8,23.9-13.9
			c1.7-0.7,2.5-2.5,1.9-4.3C333,79.6,331.8,78.7,330.4,78.7L330.4,78.7z M324.3,120.8c-3.6,0-6.6-3-6.6-6.6c0-2.3,1.2-4.4,3.1-5.6
			c13.7-8.6,27.1-12.6,27.7-12.8c3.5-1,7.2,1.1,8.2,4.6c1,3.4-1,7.1-4.4,8.2c-0.1,0-12.2,3.6-24.2,11.2
			C326.9,120.5,325.6,120.8,324.3,120.8L324.3,120.8z"/>
		<path class="st1" d="M324.3,124.1c-3.4,0-6.6-1.8-8.4-4.6c-1.4-2.2-1.9-4.8-1.3-7.5c0.6-2.6,2.1-4.7,4.4-6.2
			c14-8.8,27.9-13,28.4-13.1c5.3-1.5,10.8,1.5,12.3,6.7c1.5,5.3-1.5,10.8-6.7,12.3c-0.1,0-11.9,3.5-23.5,10.8
			C328.1,123.6,326.2,124.1,324.3,124.1L324.3,124.1z M350.3,99c-0.3,0-0.7,0-0.9,0.1c-0.6,0.1-13.6,4-26.8,12.3c-1.5,1-2,3-1,4.5
			c0.6,1,1.7,1.5,2.8,1.5c0.7,0,1.2-0.2,1.8-0.6c12.3-7.8,25-11.6,25.1-11.6c1.8-0.6,2.8-2.3,2.2-4.1C353.1,99.9,351.8,99,350.3,99
			L350.3,99z M338.9,141.5c-3.6,0-6.6-3-6.6-6.6c0-2.3,1.2-4.5,3.2-5.7c13.9-8.3,27.3-11.9,28-12.1c3.5-0.9,7.2,1.2,8,4.7
			c0.9,3.5-1.2,7.2-4.7,8c-0.1,0-12.3,3.3-24.6,10.7C341.3,141.2,340.1,141.5,338.9,141.5z"/>
		<path class="st1" d="M338.9,144.8c-3.5,0-6.7-1.9-8.5-4.8c-2.9-4.7-1.3-10.8,3.4-13.6C348,118,362,114.2,362.6,114
			c5.3-1.4,10.7,1.8,12.1,7.1c0.7,2.5,0.3,5.3-1,7.5c-1.3,2.3-3.5,4-6.1,4.6c-0.1,0-12,3.3-23.7,10.2
			C342.5,144.4,340.8,144.8,338.9,144.8L338.9,144.8z M365.1,120.3c-0.3,0-0.6,0-0.9,0.1c-0.6,0.1-13.7,3.6-27.1,11.7
			c-1.5,1-2.1,3-1.1,4.5c0.6,1,1.7,1.7,2.9,1.7c0.6,0,1.2-0.1,1.7-0.4c12.4-7.5,24.8-10.9,25.3-11c0.9-0.2,1.5-0.8,2-1.5
			c0.4-0.8,0.6-1.7,0.3-2.5C368,121.3,366.6,120.3,365.1,120.3L365.1,120.3z M351.4,162.6c-2.6,0-5-1.5-6.1-4
			c-1.4-3.3,0.1-7.3,3.4-8.7c14.8-6.5,28.6-8.4,29.2-8.4c3.6-0.4,6.9,2.1,7.4,5.7l0,0c0.4,3.6-2.1,6.9-5.7,7.4l0,0
			c-0.1,0-12.7,1.8-25.7,7.4C353.2,162.3,352.3,162.6,351.4,162.6L351.4,162.6z"/>
		<path class="st1" d="M351.4,165.9c-4,0-7.5-2.3-9-5.9c-2.2-5,0.1-10.9,5.1-13.1c15.2-6.7,29.5-8.6,30.2-8.7c2.6-0.3,5.3,0.3,7.4,2
			c2.1,1.5,3.4,4,3.7,6.6s-0.3,5.2-2,7.4s-4,3.4-6.6,3.7c-0.1,0-12.3,1.8-24.8,7.2C354.1,165.5,352.8,165.9,351.4,165.9L351.4,165.9
			z M378.9,144.7c-0.1,0-0.3,0-0.4,0c-0.6,0.1-14,1.9-28.3,8.2c-1.7,0.8-2.4,2.6-1.7,4.4c0.7,1.7,2.8,2.4,4.4,1.7
			c13.3-5.8,26.4-7.6,26.6-7.7c0.9-0.1,1.7-0.6,2.2-1.2c0.6-0.7,0.8-1.5,0.7-2.4c-0.1-0.9-0.6-1.7-1.2-2.2
			C380.3,144.9,379.6,144.7,378.9,144.7L378.9,144.7z"/>
		<path class="st1" d="M314.3,98.3c9.6-6.9,17.6,3.4,9.9,8.3c-7.7,4.8,3.7,12.9,8.9,10.4c8-3.9,13.7,6.4,6.6,9.9
			c-5.9,3,0.3,14.4,5.1,12.2c8.5-3.7,13.1,5.9,7.3,9.4c-5.8,3.4,21,9.5,21.3,0c0.2-9.5-12.1-36.7-19.6-45.5
			c-7.5-8.9-25.9-29.7-32.2-24.1C315.3,84.6,310.2,101.2,314.3,98.3L314.3,98.3z"/>
		<path class="st1" d="M364.3,156.8c-6.3,0-14.8-1.9-16.2-5.9c-0.6-1.5-0.3-3.9,2.2-5.3c1.3-0.8,1-2,0.7-2.5c-0.7-1.2-2.2-2.1-5-0.9
			c-3.9,1.8-8.5-0.8-10.9-5.9c-2.4-5.2-1.2-10.2,3-12.3c1.7-0.9,1.5-2,1.1-2.9c-0.6-1-2.1-2.4-4.8-1.1c-5.1,2.4-12.7-1.1-15.2-5.7
			c-2.1-3.7-0.9-7.8,3.1-10.4c0.6-0.3,1.5-1.1,1.5-2.1c0-0.8-0.7-1.5-1.5-2c-1.7-0.8-4-0.3-6.2,1.3c-2.3,1.7-4.5,1-5.7-0.4
			c-0.7-0.8-2.4-3,1.2-11.9c1-2.5,3.7-8.7,7.6-12.2c1.4-1.3,3.3-2,5.4-1.8c2.4,0.2,9.9,0.7,31.5,26.2c8,9.6,20.6,37.3,20.4,47.7
			c0,2-1,6.8-8.6,8C367,156.8,365.7,156.8,364.3,156.8L364.3,156.8z M356.3,149.1c3.4,1.1,9.5,1.9,12.7,0.4c1-0.4,1-0.9,1.1-1.1
			c0.2-8.6-11.9-35-18.8-43.3c-18.4-21.7-25.2-23.8-26.9-23.9c-0.4,0-0.6,0.1-0.6,0.1c-2.8,2.5-5.4,7.9-6.7,11.9
			c2.9-0.9,5.7-0.8,8.2,0.4c3.1,1.4,5.2,4.3,5.3,7.5c0.2,3.2-1.4,6.2-4.6,8.2c-1.3,0.8-1.1,1.1-0.9,1.5c1.2,2.1,5.2,3.7,6.6,3
			c6.1-3,11.6,0,13.6,4.2c1.9,3.9,1.1,9-4.1,11.7c-0.2,0.1-0.9,0.4-0.6,2c0.4,2.3,2.2,4.1,2.9,4.2c6.4-2.8,11.5,0.1,13.4,4.1
			C358.5,143.3,358.2,146.6,356.3,149.1L356.3,149.1z M312.3,95.7l2,2.6L312.3,95.7z M372.4,79c-3.9-1.5-8.7-2.6-6.8-5.2
			c1.9-2.5-8.2-5.6-8.7-13.1c-12.9-4.4-10.4-18-4.8-20.8c5.9-3.2-10.4-11.6-5.8-18.8c3.3-5.3,10.7-1.9,15.1-3.3
			c-2.9-11.1,3.3-18.1,9.1-15c-2.1-9.1,7.3-14.9,15.1-10.2c-4-12,0-17.5,8.9-18.4c3.3-14.4,16.2-18.4,24.2-15.5
			c7.5,2.5,5.1-14.1,17.6-17.1c9.3-2.2,13.8,5.4,19.6,10.7c4.4-5,12.2-3.9,17.3,1.1c2-6.4,2.4-13.9,11.7-14
			c7.3-0.1,9.5,3.7,11.1,6.7c6.4-5.3,20.7-2.2,24.8,8.9c7.8-3.1,13.4-2.4,19.6,2.1c4,2.9,6.9,8.9,5.4,14.5c8.9-3.1,16.3,4.4,13,11.7
			c10-1.1,15.3,6.4,13.2,12c8.8-3.1,17.6,8.6,10.8,17.5c9.8,1,14.5,17.1,8.5,23.8c9.5,3.9,9.7,19.6,2.8,27.5
			c9.1,3.5,14,11.5,16,17.4c2.6,7.8,0.4,20.3-5.9,23.9c10,7.5,15.5,26.1,4.2,27.9c8.6,10.6,6.4,26.2-6.3,26.2
			c0.1,11.1-6.3,18.1-18.8,16.7c0.6,7.7-10.2,21-20.5,14.5c-2.6,12.9-16.9,8.5-16.9,8.5s-7.4,13.4-17.4,11c-10-2.5-10-15-17.5-15
			c0.4,8.5-11.6,21-19.6,9.9c-4.2,5.1-14.4,9.1-19.2,2.3c-8.9,3.6-16-0.1-17.5-10.7c-7.3,0.7-13.7,2.8-17.1,0.1
			c-7.4-5.5-1.7-15.3-3.7-15.2c-2.1,0.1-9.1,8.9-13.3-2.8C416.2,167.3,375.1,80.1,372.4,79L372.4,79z"/>
		<path class="st1" d="M479.1,214.2c-0.2,0-0.4,0-0.7,0c-3-0.1-5.5-1.2-7.5-3.1c-4.5,1.3-8.6,1-12.1-1c-2.4-1.4-5.5-4.3-7.1-9.9
			c-0.9,0.1-1.8,0.2-2.6,0.4c-5.2,0.8-10.1,1.5-13.8-1.2c-4.7-3.5-5.4-8.5-5.2-12.2c-1.9,0.9-4.1,1.3-6.5,0.6
			c-2.9-1-5.1-3.5-6.6-7.8c-3.9-10.7-41.2-90.3-46.7-98.3c-0.4-0.2-0.9-0.3-1.3-0.4c-3.2-1.2-6.3-2.3-7.1-5.1
			c-0.2-0.9-0.2-1.9,0-2.8c-0.3-0.3-0.8-0.7-1.1-1c-2.4-2-5.8-5-6.9-9.4c-5.7-2.5-9.1-7.2-9.7-13c-0.4-5.2,1.8-10.4,5.4-12.8
			c-0.6-0.9-1.4-2-2.2-2.9c-3.1-3.7-7.7-9.5-4.1-15.3c3.2-5.1,8.6-4.7,12.4-4.5c0.6,0,1,0,1.5,0.1c-0.7-6.1,1-11.2,4.7-14.2
			c1.4-1.1,3.1-1.8,4.7-2c0.3-3.5,2.1-6.6,5.1-8.7c2.6-1.9,5.7-2.6,8.9-2.4c-0.7-4.4,0-8.2,1.8-10.9c1.9-2.9,5-4.7,9-5.5
			c2.4-7.8,7.3-11.9,11-14c5.3-3,11.7-3.6,17-1.8c0.1,0,0.2,0.1,0.3,0.1c0.6-0.4,1.5-2.5,2.1-4c2-4.5,5.1-11.3,13.4-13.3
			c9.3-2.2,14.8,3.5,19.3,8.3c0.4,0.4,0.8,0.9,1.2,1.2c2-1.3,4.3-2,6.8-2.1c2.9-0.1,5.7,0.7,8.4,2.1c1.5-5.3,4.3-11.6,13.6-11.7h0.2
			c6.7,0,10.1,2.9,12.1,5.6c3.5-1.5,8-1.8,12.4-0.6c5.6,1.5,10.2,5.1,12.9,9.9c7.5-2.2,13.6-1.1,19.8,3.5c3.7,2.8,6.8,7.7,7.2,13.2
			c4-0.1,7.7,1.4,10.4,4.3c2.1,2.3,3.1,5.2,3.1,8c4.3,0.4,7.8,2.4,10.2,5.5c1.4,1.9,2.3,3.9,2.5,5.9c3.7,0.2,7.5,2.3,9.9,5.7
			c3,4.1,3.6,9.1,2,13.7c3.5,1.8,6.4,5.2,8.2,9.7c2,5.3,2,10.8,0.1,15c2.8,2.2,4.7,5.4,5.6,9.5c1.4,5.9,0.3,12.7-2.6,17.8
			c9,5.1,12.9,13.8,14.2,17.6c2.6,7.7,1.2,18.9-4.1,25c6.3,6.5,10.1,16.5,8.4,23.2c-0.7,2.6-2.1,4.7-4.2,6.1
			c3.7,6.5,4.5,14.1,1.8,20.1c-2,4.1-5.5,6.8-9.9,7.7c-0.4,5.3-2.4,9.6-5.7,12.6c-3.3,3-7.8,4.6-13.2,4.6
			c-1.1,5.3-5.2,10.9-10.1,13.9c-3.7,2.2-7.6,2.8-11.3,1.7c-1.2,2.5-3,4.6-5.3,5.9c-4.2,2.4-9,2.2-12,1.8
			c-2.9,4.2-10.1,12.9-19.7,10.5c-6.4-1.7-9.5-6.4-11.9-10.1c-0.9-1.4-1.7-2.4-2.2-3.2c-1.7,5.3-5.9,10.4-10.9,12.1
			c-4.1,1.4-8.2,0.6-11.5-2.3C487.9,212.3,483.6,214.2,479.1,214.2L479.1,214.2z M472,204c1.1,0,2.1,0.6,2.8,1.4
			c1,1.4,2.3,2.1,4.1,2.2c3.6,0.2,7.8-2.3,9.9-4.7c1.2-1.4,3.2-1.7,4.6-0.4c0.2,0.2,0.4,0.3,0.6,0.6c2.9,4,5.5,3,6.4,2.8
			c3.7-1.3,7.4-6.6,7.3-10.5c-0.1-1.9,1.3-3.4,3.1-3.4h0.1c5.5,0,8.2,4.2,10.5,7.8c2.1,3.3,4.1,6.4,7.9,7.3
			c7.3,1.8,13.7-9.3,13.7-9.4c0.8-1.3,2.4-2,3.9-1.5c1.5,0.4,6.2,1.3,9.3-0.6c1.8-1,2.9-2.9,3.4-5.4c0.3-1.8,2.1-3,3.9-2.5
			c0.4,0.1,0.8,0.2,1.1,0.4c2.5,1.7,5.3,1.7,8.2-0.1c4.4-2.6,7.4-8.2,7.2-11.5c-0.1-1.9,1.2-3.4,3.1-3.5c0.2,0,0.4,0,0.6,0
			c5.1,0.6,8.9-0.4,11.5-2.8c3.1-2.9,3.7-7.4,3.6-10.7c0-1.9,1.4-3.3,3.3-3.3l0,0c3.4,0,5.7-1.4,7.1-4.2c2.2-4.6,0.8-11.5-3.4-16.6
			c-1.1-1.4-1-3.5,0.4-4.6c0.4-0.3,1-0.7,1.7-0.7c1.9-0.2,2.9-1.1,3.3-2.9c1.2-4.7-2.5-14.2-8.9-19.1c-1.4-1.1-1.8-3.2-0.7-4.6
			c0.2-0.3,0.7-0.7,1-0.9c4.5-2.5,6.8-13,4.5-19.9c-1.2-3.4-5-11.9-14.1-15.3c-1.7-0.7-2.5-2.5-1.9-4.3c0.1-0.3,0.3-0.7,0.6-1
			c3.4-3.9,4.8-10.2,3.6-15.5c-0.6-2.4-1.9-5.5-5.1-6.8c-1.7-0.7-2.5-2.6-1.8-4.3c0.1-0.3,0.3-0.7,0.7-1c2.2-2.3,2.5-7.1,0.8-11.5
			c-1.5-4-4.2-6.5-7.2-6.8c-1.8-0.2-3.2-1.8-3-3.6c0.1-0.7,0.3-1.2,0.7-1.7c2.8-3.5,1.9-7.4,0.1-9.7c-1.4-2-4.1-3.7-7.2-2.8
			c-1.8,0.7-3.6-0.3-4.2-2c-0.2-0.8-0.2-1.5,0-2.3c0.6-1.4,0.2-3.1-1-4.5c-1.8-2.3-5-3.4-8.8-3c-1.2,0.1-2.3-0.3-3.1-1.3
			c-0.7-1-0.8-2.2-0.3-3.3c0.9-2,0.6-4-0.9-5.6s-4.4-2.9-8.2-1.7c-1.8,0.6-3.6-0.3-4.2-2.1c-0.2-0.7-0.2-1.3-0.1-2
			c1.2-4.4-1.2-8.9-4.2-11c-5.3-3.9-9.8-4.3-16.5-1.7c-1.7,0.7-3.6-0.2-4.3-1.9c0,0,0,0,0-0.1c-1.5-4.3-5.1-7.4-9.8-8.7
			c-3.7-1-7.6-0.6-9.7,1.2c-1.4,1.2-3.5,1-4.6-0.4c-0.1-0.1-0.2-0.3-0.3-0.6c-1.4-2.6-2.8-5.2-8.3-5.1c-5.2,0-6.2,2.9-7.7,8.8
			c-0.2,1-0.6,1.9-0.8,2.9c-0.6,1.8-2.4,2.8-4.1,2.2c-0.6-0.1-1-0.4-1.3-0.8c-2.2-2.2-5.1-3.4-7.7-3.4c-1.9,0.1-3.5,0.8-4.7,2.1
			c-0.6,0.7-1.4,1.1-2.3,1.1c-0.9,0-1.8-0.2-2.4-0.9c-1.3-1.1-2.4-2.4-3.6-3.5c-4.6-4.7-7.7-7.6-13-6.4c-5.2,1.2-7.1,5.5-8.9,9.6
			c-1.7,3.9-4.3,9.6-10.6,7.4c-3.5-1.2-8-0.8-11.6,1.3c-3,1.7-6.7,5-8.4,11.9c-0.3,1.4-1.5,2.4-2.9,2.5c-3.2,0.3-5.4,1.3-6.4,2.9
			c-1.4,2.2-1.3,6.1,0.3,11.1c0.6,1.8-0.3,3.6-2.1,4.2c-0.9,0.3-1.9,0.2-2.6-0.3c-3.2-1.9-6.2-1.2-7.9,0.1c-2,1.4-2.8,3.9-2.2,6.7
			c0.4,1.8-0.8,3.5-2.5,4c-0.8,0.2-1.5,0.1-2.3-0.3c-1-0.6-1.9-0.4-2.6,0.2c-1.9,1.4-3.1,5.5-1.7,11c0.4,1.7-0.6,3.4-2.1,4
			c-2.2,0.8-4.5,0.7-6.8,0.6c-3.7-0.2-5.5-0.1-6.6,1.4c-1,1.7,0.9,4.3,3.6,7.6c2.3,2.9,4.5,5.6,4,8.6c-0.2,1.1-0.9,2.6-3,3.7
			c-1.5,0.8-3,3.7-2.6,6.8c0.2,2.6,1.7,6.2,7.1,7.9c1.2,0.4,2.1,1.5,2.2,2.9c0.2,2.9,2.8,5.1,5,6.9c1.7,1.4,4.5,3.9,3.9,6.7
			c0.8,0.3,1.7,0.7,2.3,0.9c0.8,0.2,1.5,0.6,2.2,0.9c1.5,0.7,3.1,1.2,25.1,47.6c10.2,21.5,22.4,47.8,24.6,54.2
			c0.9,2.5,1.9,3.6,2.4,3.9c0.9,0.3,2.8-0.9,4-1.7c1.2-0.8,2.3-1.5,3.6-1.5c1.1-0.1,2.2,0.3,3,1.2c1.3,1.5,1.1,3.3,0.8,5.3
			c-0.6,3.7-0.9,7.1,2.2,9.4c1.4,1.1,5.1,0.6,8.8,0c1.9-0.3,3.9-0.6,6.1-0.8c1.8-0.1,3.3,1.1,3.5,2.9c0.6,4.1,2.1,6.9,4.4,8.3
			c2.8,1.5,6.2,0.8,8.6-0.2C471.2,204.1,471.6,204,472,204L472,204z"/>
	</g>
	<path class="st3" d="M420,195.7c-1.2-25-11.2-57.8-27.3-83.1c-11.2-17.7-24-33.3-48.6-43.2c-11.2-0.4-28.3,4-34.7,8.5
		c13,0.3,41.1,14.1,59.1,43c18,28.8,29.1,71.5,31.9,94.5C407.4,210.8,415.8,203.2,420,195.7L420,195.7z"/>
	<path class="st1" d="M837.8,838.2c-1,0-2-0.1-2.9-0.1c-0.6,0-1.1-0.1-1.7-0.1c-5.3-0.1-12.2-1.4-18.4-2.5c-3.3-0.6-6.5-1.2-9-1.5
		c-1.8-0.2-3.1-1.9-2.9-3.7l0,0c0.2-1.8,1.9-3.1,3.7-2.9c2.6,0.3,5.8,1,9.3,1.5c5.9,1.1,12.7,2.3,17.4,2.4c0.7,0,1.3,0.1,2,0.1
		c2.1,0.1,4.4,0.3,5.4-0.6c0.6-0.4,0.9-1.4,1.1-2.8c-0.4-0.1-0.9-0.2-1.2-0.3c-9.6-2.4-18.1-5.8-26.3-9.3c-2.6-1.1-5.3-2.1-8-3.2
		c-3.7-1.2-7.7-2.6-11.9-4.2c-11-4.1-23.5-8.6-34.2-8.7c-9.6,0.8-18.9-4.8-27.7-16.7c-5.9-8-14.2-23-25.8-43.8
		c-10.2-18.5-23-41.5-38.6-67.5c-19.3-32.4-35.5-57.2-47.3-75.2c-8.3-12.7-14.3-21.9-18.1-28.6c-8-14.3-14.9-36.6-22.1-60.3
		c-3.3-10.7-6.6-21.7-10.1-31.9c-5.2-15.1-18.7-47.9-31.9-79.7c-15.5-37.5-30.2-72.9-33.1-83.6c-3.1-12-13.6-28.4-26.7-35.3
		c-6.6-3.4-13.1-4.1-19.3-1.8c-11.1,4.1-49.6,17.5-78.3,16.6c-1.9-0.1-3.3-1.5-3.2-3.4c0.1-1.9,1.5-3.3,3.4-3.2
		c27.7,0.9,65.1-12.1,75.9-16.2c7.9-3,16.4-2.2,24.7,2.1c15,7.8,26.4,25.8,30.1,39.4c2.6,10.2,18,47,32.7,82.7
		c13.2,31.8,26.9,64.8,32.1,80.1c3.5,10.4,6.9,21.5,10.2,32.2c7.2,23.2,13.9,45.3,21.6,58.9c3.6,6.5,9.6,15.6,17.8,28.2
		c11.8,18.2,28,43,47.4,75.5c15.5,26.1,28.3,49.1,38.7,67.8c11.5,20.6,19.7,35.5,25.3,43.1c7.3,9.9,14.7,14.7,21.9,14
		c0.1,0,0.2,0,0.2,0c11.8,0,24.9,4.8,36.6,9c4.2,1.5,8,3,11.7,4.1c0.1,0,0.1,0,0.2,0.1c2.8,1.1,5.5,2.2,8.2,3.3
		c8,3.2,16.4,6.6,25.6,8.9c2,0.6,6.5,1.7,6.4,5.4c-0.1,4.1-1.3,7.1-3.4,8.9C843,837.8,840.3,838.2,837.8,838.2L837.8,838.2z
		 M782.4,869.6c-3,0-7.5-1.8-13.1-9.8c-2.8-4-4-8-5-11.7c-0.4-1.5-0.8-3-1.3-4.3c-2.2-0.7-8-1.4-12-2c-4.2-0.6-8.2-1.1-10.9-1.8
		c-1.8-0.4-2.9-2.1-2.5-4c0.3-1.9,2.1-2.9,4-2.5c2.5,0.6,6.5,1.1,10.5,1.7c13.1,1.8,15.8,2.4,16.9,5c0.9,2,1.4,4.1,2,6.1
		c1,3.4,1.9,6.6,4,9.7c4,5.7,6.7,6.9,7.6,6.9c0.1-0.3,0.3-1.5-0.2-3.5c-4.6-15.1-6.8-26.3-6.5-34c-6.3-2.3-18.3-6.8-20.5-8.2
		c-1.5-1-2-3-1-4.5c1-1.5,3-2,4.5-1l0,0c1.4,0.9,12.1,5,21.7,8.5c1.4,0.6,2.3,2,2.2,3.5c-0.9,6.7,1.2,18.1,6.1,33.9
		c1.7,5.2,0.4,9.7-3.1,11.5C784.4,869.4,783.4,869.6,782.4,869.6L782.4,869.6z M763.7,844.2L763.7,844.2L763.7,844.2z"/>
	<path class="st1" d="M748.4,861.9c-2,0-4.3-1-7.9-2.6c-2-0.9-4-1.8-5.7-2.3c-7.6-0.7-39.3-13.4-41.6-14.5c-0.2-0.1-0.4-0.2-0.6-0.3
		c-7.5-5.6-6.3-10.4-5-15.4c0.3-1.3,0.7-2.6,1-4.3c0.2-1.3,0.7-3,1.1-5c1.1-4.7,3.6-15.6,2.4-18.3c-1.3-3-16.2-16.4-30.5-29.3
		c-21.9-19.7-49.1-44.3-68.7-66.4c-26.4-29.7-41.3-65-51.2-88.5c-3.2-7.7-5.8-13.8-7.9-17.6c-4.1-7.3-21.8-36.8-40.7-68.2
		c-27.9-46.4-46.3-77-47.6-80.2c-0.7-1.7,0.1-3.6,1.8-4.3c1.7-0.8,3.6,0,4.3,1.8c1.3,3.2,26.8,45.4,47.3,79.4
		c18.8,31.4,36.7,61,40.8,68.3c2.3,4.2,5,10.4,8.3,18.2c9.7,23,24.2,57.7,50,86.6c19.4,21.8,46.5,46.3,68.3,65.9
		c20.4,18.4,30.3,27.4,32.2,31.5c2,4.3,0.3,12.4-2,22.6c-0.4,1.9-0.8,3.5-1,4.7c-0.3,1.9-0.8,3.4-1.1,4.7c-1.2,4.5-1.4,5.4,2.2,8.3
		c6.2,2.8,35.3,13.8,39.1,13.8c0.3,0,0.7,0,1,0.1c2.2,0.7,4.6,1.8,6.9,2.8c1.8,0.8,4.4,2,5.2,2.1c0.1,0,0.7,0,1-1.2
		c0.8-3.5-2.4-10.8-14.4-16.5c-6.7-3.2-20.1-11-20.6-11.3c-1.5-0.9-2.1-3-1.2-4.5c0.9-1.5,3-2.1,4.5-1.2c0.1,0.1,13.7,7.9,20.2,11.1
		c14.7,7.1,19.6,17.1,18.1,24C755,859.4,752.1,861.9,748.4,861.9L748.4,861.9z"/>
	<path class="st1" d="M452.4,748.6c-1.1,0-2.2-0.6-3-1.4c-4.3-5.4-29.9-10.9-57-16.9c-10.1-2.2-20.7-4.5-31.8-7.1
		c-30.1-7.1-114.6-9.4-139.4,0.2c-1.7,0.7-3.6-0.2-4.3-1.9c-0.1-0.3-0.2-0.8-0.2-1.1c-0.1-7.4,4.3-34.7,9.5-66.3
		c5.6-34.4,12.6-77,11.3-83c-0.9-4.3-4.7-11.6-8.8-19.2c-6.5-12.2-13.2-24.9-12.1-32.9c0.9-6.1,5.6-15.2,11.7-26.8
		c6.4-12.3,14.4-27.8,19.4-43.1c0.6-1.8,2.4-2.6,4.2-2.1s2.6,2.4,2.1,4.2l0,0c-5.2,15.9-13.2,31.5-19.8,44.1
		c-5.5,10.6-10.2,19.7-10.9,24.7c-0.9,5.8,5.9,18.6,11.5,28.9c4.3,8,8.3,15.6,9.5,20.8c1.4,6.6-3.5,38.1-11.2,85.4
		c-4,24.3-8,49.4-9.1,60.5c30.8-8.5,109.2-5.8,138.5,1c11.1,2.5,21.6,4.8,31.7,7.1c31.3,6.8,49.8,11,57.7,16.5
		c8.9-24.7,35.1-198.6,37.8-219.8c0.2-1.8,1.9-3.1,3.7-2.9c1.8,0.2,3.1,1.9,2.9,3.6c-0.8,6.5-8.8,61.7-17.7,116.2
		c-17.8,109.1-21.5,110.1-24.7,110.9C453,748.4,452.7,748.6,452.4,748.6L452.4,748.6z"/>
	<path class="st1" d="M374.6,560.5c-0.3,0-0.7,0-1-0.1c-0.6-0.2-52.6-18.7-60.7-41.4c-0.7-1.8,0.2-3.6,2-4.2c1.8-0.7,3.6,0.2,4.2,2
		c6.3,17.4,50.1,35.3,56.5,37.3c1.8,0.6,2.6,2.4,2.1,4.2C377.2,559.6,376,560.5,374.6,560.5z M237.1,485.5c-1.8,0-3.2-1.4-3.3-3.2
		c-1.3-28.3-1.7-63.3-0.9-91.4c1.5-50.9,5.6-52.8,8-53.9c9.3-4.2,37.2-22.5,44.2-29.4c1.3-1.3,3.4-1.2,4.6,0c1.2,1.3,1.2,3.3,0,4.6
		c-7.9,7.9-35.8,25.9-45.6,30.5c-0.8,1.4-3.6,9.5-4.7,51.2c-0.8,27.8-0.4,60.7,0.9,88c0.1,1.9-1.3,3.4-3.2,3.4
		C237.2,485.5,237.2,485.5,237.1,485.5L237.1,485.5z M653.6,760.5c-1.9,0-3.3-1.4-3.3-3.3c0-1.3,0.8-2.5,2-3.1
		c12.2-5.4,44.1-24.7,46.4-29.3c0.7-1.7,2.6-2.5,4.3-1.9l0,0c1.7,0.7,2.5,2.6,1.9,4.3c-3.3,8.3-43.1,29.9-49.8,32.8
		C654.5,760.3,654.1,760.5,653.6,760.5L653.6,760.5z M389.3,625.1c-0.1,0-0.1,0-0.2,0c-3.1-0.1-5.4-2.6-5.3-5.7l0,0
		c0-0.8,2.9-80.2,7.2-160.7c8.9-164.5,15.5-172.9,18.4-176.5c2-2.3,5.4-2.6,7.7-0.8c2.3,1.9,2.6,5.2,0.9,7.6
		c-2.2,3.4-8.3,27.1-16.1,171.8c-4.3,79.9-7.1,158.3-7.2,159.1C394.7,622.6,392.3,625.1,389.3,625.1L389.3,625.1z"/>
</g>
</svg>
