<?xml version="1.0" encoding="utf-8"?>
<!-- Generator: Adobe Illustrator 26.5.0, SVG Export Plug-In . SVG Version: 6.00 Build 0)  -->
<svg version="1.1" id="Camada_1" xmlns="http://www.w3.org/2000/svg" xmlns:xlink="http://www.w3.org/1999/xlink" x="0px" y="0px"
	 viewBox="0 0 3000 2684" style="enable-background:new 0 0 3000 2684;" xml:space="preserve">
<style type="text/css">
	.st0{fill:#FFFFFF;}
	.st1{fill:#1B1464;}
	.st2{fill:#2C84D1;}
	.st3{fill:#9659FF;}
	.st4{opacity:0.5;fill:#9659FF;enable-background:new    ;}
	.st5{font-family:'MyriadPro-Regular';}
	.st6{font-size:12px;}
</style>
<g transform="translate(407.36842105263156 611.0526315789474) rotate(0.0 397.10526315789474 347.3684210526316) scale(1.5696480618123037 1.5703177585569827)">
	<path class="st0" d="M344,439.4H162V137h182V439.4z"/>
	<path class="st1" d="M344,442.4H162c-1.7,0-3-1.3-3-3V137c0-1.7,1.3-3,3-3h182c1.7,0,3,1.3,3,3v302.4
		C347,441.1,345.7,442.4,344,442.4L344,442.4L344,442.4z M165,436.4h176V140H165L165,436.4L165,436.4z"/>
	<path class="st0" d="M503,305.4H3V3h500V305.4z"/>
	<path class="st1" d="M503,308.4H3c-1.7,0-3-1.3-3-3V3c0-1.7,1.3-3,3-3h500c1.7,0,3,1.3,3,3v302.4C506,307.1,504.6,308.4,503,308.4z
		 M6,302.4h494V6H6V302.4z"/>
	<path class="st2" d="M49,46.3h408v218H49L49,46.3z"/>
	<path class="st1" d="M88.7,241.4l11.7-9.3l28-22.3l33.9-26.9l29.4-23.4l9.7-7.7c1.5-1.2,3.2-2.3,4.6-3.6c0.1-0.1,0.1-0.1,0.2-0.2
		l-4.7-0.6l11.2,20.7l17.7,32.8l4.1,7.5c1.4,2.5,4.6,1.5,5.5-0.7l5.6-13.6l13.4-32.5l16.4-39.5l14.1-34.1l4.6-11.2
		c0.7-1.8,1.6-3.5,2.2-5.4c0-0.1,0.1-0.2,0.1-0.2h-5.8l8,26.8l12.6,42.5l2.9,9.8c0.8,2.6,4,2.8,5.5,0.7l20.6-28.2l3-4.1l-5.5-0.7
		l3.2,20.6l5.1,32.9l1.2,7.5c0.4,2.7,4.3,2.7,5.5,0.7l7-11.5l16.8-27.4l20.4-33.3L414.5,79c2.9-4.6,5.9-9.2,8.6-14
		c0-0.1,0.1-0.1,0.1-0.2c2-3.3-3.2-6.3-5.2-3l-7,11.5l-16.8,27.4l-20.4,33.3l-17.6,28.6l-5.8,9.5c-0.9,1.5-2,3-2.8,4.5
		c0,0.1-0.1,0.1-0.1,0.2l5.5,0.7l-3.2-20.6l-5.1-32.9l-1.2-7.5c-0.4-2.8-4.2-2.5-5.5-0.7l-20.6,28.2l-3,4.1l5.5,0.7l-8-26.8
		l-12.6-42.5l-2.9-9.8c-0.9-3.1-4.7-2.6-5.8,0L285,83.4l-13.4,32.5l-16.4,39.5l-14.1,34.1l-4.6,11.2c-0.7,1.8-1.6,3.5-2.2,5.4
		c0,0.1-0.1,0.2-0.1,0.2l5.5-0.7l-11.2-20.7L210.8,152l-4.1-7.5c-1-1.9-3.3-1.8-4.7-0.6l-11.7,9.3l-28,22.3l-33.9,26.9l-29.4,23.4
		l-9.7,7.7c-1.5,1.2-3.2,2.3-4.6,3.6c-0.1,0.1-0.1,0.1-0.2,0.2c-1.3,1-1.1,3.2,0,4.2C85.7,242.7,87.4,242.5,88.7,241.4L88.7,241.4z"
		/>
</g>
<g transform="translate(1945.2631578947369 1050.0) rotate(0.0 201.31578947368428 127.89473684210532) scale(1.6216704350189242 1.6163325414634204)">
	<path class="st0" d="M245.3,155.3H53.9c-13.6,0-24.6-11-24.6-24.6c0-13.6,11-24.6,24.6-24.6h191.4"/>
	<g>
		<path class="st1" d="M245.3,158.3H53.9c-15.2,0-27.6-12.4-27.6-27.6c0-15.2,12.4-27.6,27.6-27.6h191.4c1.7,0,3,1.3,3,3s-1.3,3-3,3
			l0,0H53.9c-11.9,0-21.6,9.7-21.6,21.6c0,11.9,9.7,21.6,21.6,21.6h191.4c1.7,0,3,1.3,3,3S246.9,158.3,245.3,158.3L245.3,158.3
			L245.3,158.3z"/>
		<path class="st1" d="M238.9,124.4H52.6c-1.7,0-3-1.3-3-3s1.3-3,3-3h186.4c1.7,0,3,1.3,3,3S240.6,124.4,238.9,124.4z M241,141.2
			H52.6c-1.7,0-3-1.3-3-3s1.3-3,3-3H241c1.7,0,3,1.3,3,3S242.6,141.2,241,141.2z"/>
	</g>
	<path class="st0" d="M208.1,54.3V106H3V54.3H208.1z"/>
	<path class="st1" d="M208.1,109H3c-1.7,0-3-1.3-3-3V54.3c0-1.7,1.3-3,3-3h205.1c1.7,0,3,1.3,3,3V106
		C211.1,107.7,209.8,109,208.1,109z M6,103h199.1V57.3H6V103z"/>
	<ellipse class="st0" cx="149.7" cy="80.1" rx="21.5" ry="21.4"/>
	<path class="st1" d="M149.7,96.4c-9,0-16.2-7.3-16.2-16.2s7.3-16.2,16.2-16.2s16.2,7.3,16.2,16.2S158.7,96.4,149.7,96.4z
		 M149.7,69.9c-5.7,0-10.2,4.6-10.2,10.2s4.6,10.2,10.2,10.2s10.2-4.6,10.2-10.2S155.3,69.9,149.7,69.9z"/>
	<path class="st0" d="M227.8,3v51.7H22.7V3H227.8z"/>
	<path class="st1" d="M227.8,57.7H22.7c-1.7,0-3-1.3-3-3V3c0-1.7,1.3-3,3-3h205.1c1.7,0,3,1.3,3,3v51.7
		C230.8,56.4,229.4,57.7,227.8,57.7C227.8,57.7,227.8,57.7,227.8,57.7z M25.7,51.7h199.1V6H25.7L25.7,51.7z"/>
	<ellipse class="st0" cx="169.4" cy="28.9" rx="21.5" ry="21.4"/>
	<path class="st1" d="M169.4,45.1c-9,0-16.2-7.3-16.2-16.2s7.3-16.2,16.2-16.2c9,0,16.3,7.3,16.3,16.2S178.3,45.1,169.4,45.1z
		 M169.4,18.6c-5.7,0-10.2,4.6-10.2,10.2s4.6,10.2,10.2,10.2s10.3-4.6,10.3-10.2S175,18.6,169.4,18.6z"/>
</g>
<g transform="translate(363.15789473684214 1042.1052631578948) rotate(0.0 94.73684210526315 129.47368421052624) scale(1.6160767313232032 1.6009308827376691)">
	<path class="st0" d="M50.4,38.7C40.8,15.7,9.7,6.8,9.7,6.8S-1,46.9,8.6,69.9s22.9,25.5,35.8,20.1C57.3,84.7,60,61.7,50.4,38.7z"/>
	<path class="st1" d="M33.6,95.5C19.4,95.5,10.8,83,5.8,71.1C-4.1,47.4,6.3,7.7,6.8,6c0.4-1.6,2.1-2.6,3.7-2.1c0,0,0,0,0.1,0
		c0.3,0.1,8.2,2.4,17.4,7.6c12.3,7,21.1,16,25.3,26c10.4,24.9,7,49.2-7.6,55.3C41.2,94.7,37.2,95.5,33.6,95.5z M11.8,10.6
		c-2.2,9.7-8.1,40-0.5,58.2c11.3,27.1,26.8,20.7,31.9,18.5c11.2-4.7,13.2-26.4,4.4-47.5C40.4,22.5,19.6,13.5,11.8,10.6z"/>
	<path class="st0" d="M80.7,51.4C84.4,26.7,62.3,3,62.3,3S32.4,31.9,28.7,56.6s6.5,33.7,20.3,35.7S77.1,76,80.7,51.4L80.7,51.4z"/>
	<path class="st1" d="M51.2,95.5c-0.9,0-1.7-0.1-2.6-0.2c-23.2-3.4-25.2-23.2-22.8-39.1C29.5,30.8,58.9,2.1,60.2,0.8
		C60.8,0.3,61.5,0,62.3,0c0.8,0,1.6,0.4,2.1,1c0.9,1,23,25.1,19.2,50.8C80,77,66,95.5,51.2,95.5z M62.1,7.4
		C55.2,14.6,34.6,37.5,31.7,57C27.4,86.1,44,88.5,49.5,89.4c12,1.8,24.9-15.8,28.3-38.4C80.5,32.3,67.3,13.9,62.1,7.4z M80.7,51.4
		L80.7,51.4L80.7,51.4z"/>
	<path class="st0" d="M102.6,69.7c15.6-19.5,8.4-51.1,8.4-51.1s-40.4,9.9-56,29.4s-11.4,32.4-0.5,41.1S87,89.1,102.6,69.7z"/>
	<path class="st1" d="M65.2,95.5c-4.7,0-9-1.3-12.5-4.1C46,86.1,42.4,79.8,41.9,72.8c-0.6-8,3.1-17,10.8-26.7
		c16-20,55.9-30,57.6-30.4c0.8-0.2,1.6-0.1,2.3,0.4c0.7,0.4,1.2,1.1,1.3,1.9c0.1,0.3,1.9,8.4,1.7,18.9c-0.2,14.2-3.9,26.2-10.7,34.7
		C92.8,86.7,77.5,95.5,65.2,95.5L65.2,95.5z M108.7,22.3c-9.6,2.7-38.9,12.1-51.2,27.5c-6.8,8.5-10,16-9.5,22.5
		c0.4,5.4,3.2,10.1,8.6,14.4c9.4,7.6,29.5-1.1,43.8-18.9C112,53.1,109.9,30.5,108.7,22.3L108.7,22.3z M102.6,69.7L102.6,69.7
		L102.6,69.7z"/>
	<path class="st3" d="M98.9,161.7H18.3L0,86.6h117.2L98.9,161.7z"/>
</g>
<g transform="translate(1678.421052631579 138.94736842105263) rotate(0.0 499.73684210526324 388.42105263157896) scale(2.192996891348957 2.192592513366124)">
	<path class="st1" d="M109.7,62.2l11.9-4.5L150,46.8l34.3-13.1L214,22.3l9.8-3.8c1.5-0.6,3.2-1.1,4.6-1.8c0.1,0,0.1-0.1,0.2-0.1
		h-1.6l11.9,4.5l28.5,10.9l34.3,13.1l29.7,11.4l9.8,3.8c1.5,0.6,3.1,1.3,4.6,1.8c0.1,0,0.1,0.1,0.2,0.1c1.5,0.6,3.3-0.6,3.7-2.1
		c0.5-1.7-0.6-3.1-2.1-3.7l-11.9-4.6L307.4,41l-34.5-13.2l-29.7-11.4l-9.7-3.7c-1.5-0.6-3-1.3-4.6-1.8c-1.3-0.4-2.4,0.2-3.6,0.6
		l-7.4,2.8l-26.9,10.3l-34.3,13.1l-30.9,11.8l-16.9,6.5l-0.8,0.3c-1.5,0.6-2.6,2-2.1,3.7C106.4,61.6,108.2,62.8,109.7,62.2
		L109.7,62.2z"/>
	<path class="st0" d="M3,49.5h449.8v301.8H3V49.5z"/>
	<path class="st1" d="M3,354.3h431.5c5.8,0,11.7,0.1,17.5,0c0.3,0,0.5,0,0.8,0c1.6,0,3-1.4,3-3V86.7c0-12.2,0.4-24.5,0-36.7
		c0-0.2,0-0.3,0-0.5c0-1.6-1.4-3-3-3H21.3c-5.8,0-11.7-0.1-17.5,0c-0.3,0-0.5,0-0.8,0c-1.6,0-3,1.4-3,3v264.6
		c0,12.2-0.4,24.5,0,36.7c0,0.2,0,0.3,0,0.5c0,3.9,6,3.9,6,0V61.7c0-3.8,0.4-7.9,0-11.7c0-0.2,0-0.3,0-0.5l-3,3h431.5
		c5.8,0,11.7,0.3,17.5,0c0.3,0,0.5,0,0.8,0l-3-3v289.6c0,3.8-0.4,7.9,0,11.7c0,0.2,0,0.3,0,0.5l3-3H21.3c-5.8,0-11.7-0.1-17.5,0
		c-0.3,0-0.5,0-0.8,0C-0.9,348.3-0.9,354.3,3,354.3L3,354.3z"/>
	<ellipse class="st0" cx="227.9" cy="14.9" rx="26" ry="26"/>
	<path class="st1" d="M236.7,14.9c-0.1,3.6-2.4,7.2-5.7,8.3c-1.1,0.4-1.8,0.5-2.7,0.6c-1.3,0.1-1.8,0-2.9-0.3
		c-1.9-0.5-3.3-1.5-4.6-3.1c0.3,0.3-0.1-0.1-0.1-0.1c-0.2-0.3-0.3-0.5-0.5-0.8c-0.1-0.2-0.2-0.4-0.3-0.5c0,0-0.4-0.9-0.2-0.4
		c-0.2-0.5-0.4-1-0.5-1.5c-0.2-0.7-0.2-0.8-0.2-1.3c-0.1-1.1,0-1.9,0.1-2.6c0.3-1.3,0.5-1.8,1.1-2.8c0.1-0.2,0.3-0.4,0.4-0.7
		c0.1-0.1,0.5-0.6,0.2-0.3c0.3-0.4,0.7-0.8,1.1-1.1c0.6-0.5,1.4-1.1,2.5-1.6c-0.1,0.1-0.4,0.2,0.2-0.1c0.5-0.2,1-0.3,1.5-0.4
		c-0.1,0,0.9-0.2,0.6-0.1c0.5,0,0.9-0.1,1.4-0.1c0.3,0,0.5,0,0.8,0c0.6,0-0.1-0.1,0.5,0.1c2.3,0.5,3.8,1.3,5.3,3
		c0.6,0.7-0.3-0.4,0.3,0.4c0.2,0.3,0.3,0.5,0.5,0.8c0.2,0.3,0.3,0.5,0.4,0.8c0.3,0.5,0-0.2,0.2,0.4c0.2,0.6,0.4,1.2,0.5,1.8
		c0,0.1,0.1,0.6,0,0.2C236.7,14,236.7,14.4,236.7,14.9c0.1,3.9,6.1,3.9,6,0c-0.1-6.3-4-11.8-9.8-14c-5.7-2.1-12.6-0.3-16.4,4.4
		c-4,4.9-4.7,11.7-1.4,17.2s9.5,8.1,15.7,7c6.9-1.2,11.9-7.7,12-14.6C242.8,11,236.8,11,236.7,14.9L236.7,14.9z"/>
	<path class="st2" d="M107.9,182.6h54v100.2h-54L107.9,182.6z"/>
	<path class="st2" d="M161.9,179.6h-54c-1.6,0-3,1.4-3,3v87.8c0,4-0.1,8.1,0,12.2c0,0.1,0,0.1,0,0.2c0,1.6,1.4,3,3,3h54
		c1.6,0,3-1.4,3-3v-87.8c0-4,0.1-8.1,0-12.2c0-0.1,0-0.1,0-0.2c0-3.9-6-3.9-6,0v96.1c0,1.3-0.1,2.6,0,3.9c0,0.1,0,0.1,0,0.2l3-3h-54
		l3,3v-96.1c0-1.3,0.1-2.6,0-3.9c0-0.1,0-0.1,0-0.2l-3,3h54C165.7,185.6,165.7,179.6,161.9,179.6L161.9,179.6z"/>
	<path class="st0" d="M200.9,157.3h54v125.5h-54V157.3z"/>
	<path class="st1" d="M254.9,154.3h-54c-1.6,0-3,1.4-3,3v110c0,5.1-0.2,10.2,0,15.2c0,0.1,0,0.1,0,0.2c0,1.6,1.4,3,3,3h54
		c1.6,0,3-1.4,3-3v-110c0-5.1,0.2-10.2,0-15.2c0-0.1,0-0.1,0-0.2c0-3.9-6-3.9-6,0v120.4c0,1.6-0.1,3.3,0,4.9c0,0.1,0,0.1,0,0.2l3-3
		h-54l3,3V162.4c0-1.6,0.1-3.3,0-4.9c0-0.1,0-0.1,0-0.2l-3,3h54C258.7,160.3,258.7,154.3,254.9,154.3L254.9,154.3z"/>
	<g>
		<path class="st2" d="M293.9,103.3h54v179.4h-54V103.3z"/>
		<path class="st2" d="M347.9,100.3h-54c-1.6,0-3,1.4-3,3v172.1c0,2.3-0.1,4.7,0,7c0,0.1,0,0.2,0,0.3c0,1.6,1.4,3,3,3h54
			c1.6,0,3-1.4,3-3V110.6c0-2.3,0.1-4.7,0-7c0-0.1,0-0.2,0-0.3c0-3.9-6-3.9-6,0v172.1c0,2.3-0.1,4.7,0,7c0,0.1,0,0.2,0,0.3l3-3h-54
			l3,3V110.6c0-2.3,0.1-4.7,0-7c0-0.1,0-0.2,0-0.3l-3,3h54C351.7,106.3,351.7,100.3,347.9,100.3L347.9,100.3z"/>
	</g>
</g>
<g transform="translate(69.47368421052632 1297.8947368421052) rotate(0.0 1411.578947368421 4.736842105263236) scale(1.2301207589184615 1.502090409152762)">
	<path class="st1" d="M2292.1,0.2H95.8c-29.7,0-59.4-0.3-89,0c-1.3,0-2.6,0-3.9,0c-3.9,0-3.9,6,0,6h2196.3c29.7,0,59.4,0.3,89,0
		c1.3,0,2.6,0,3.9,0C2296,6.2,2296,0.2,2292.1,0.2z"/>
</g>
<g transform="translate(832.1052631578948 78.94736842105263) rotate(0.0 511.57894736842104 1245.0) scale(1.5850355683123016 1.5836329940076344)">
	<path class="st0" d="M635,353.3c-7.2-12,7.2-19-13.7-35.2c-20.8-16.2-77.8-101.7-85-115.1c-7.2-13.4-22-5.7-28.1-1.5
		c-9.6,6.6-63,10.2-76.7,10.2c-9.6,0-22.3-9.4-19.5-27l9.9-62.6c0,0,29.9-9.5,36.7-9.5c12.6,0.2-8.6-55-9.7-60.3
		c-1.5-7.4,7.5-11.8,3.5-18.5c-2.4-4.1-9.6-3.4-13.7-4.8c-5.5-1.8-10.9-3.8-15.9-6.7c-3.7-2.2-5.3-5.1-5.6-9.4
		c-0.4-7,4.6-14.3-2.5-17.6c-5.2-2.4-9.9-4.9-14.2-8.1l-17.2-17.6c-3.4-15.2-104.6-4.8-117.5,35.2c-8.9,27.7-15.7,75.4-16.6,121.9
		c-0.6,28.8-55.5,137.7-35.8,182.8c-1.6,6.1-5.2,19.9-7.1,27.3c-11.1,44.1-68.1,168.2-81,190c-12.8,21.7,6.9,37.5,15,54.4
		s18.5,47.2,38.6,40.8c20.1-6.4,58.4-20.5,77.8-45.5c9.8-12.6,58.1-20.3,70.2-28.5c15.2-10.3,214.1-47.7,235.6-42.6
		c2.7,4.7-2.8,8,1.8,14.7c14.2,20.5,53.7,24.9,64.2,3.2c10.4-21.7,42.5-50.2,50.5-72.8C687.1,427.9,642.2,365.3,635,353.3L635,353.3
		z M88.3,1320.4c-2.4,11.2-18.9,100.7-22.5,112.3c-3.6,11.6-11.4,20.4-13.5,28.5c-2,7.8,0.7,18.9-2.1,24.1
		c-2.8,5.2-44.9,96.3-46.9,102.3c-2,6,31.3,30.1,38.1,30.9c6.8,0.8,60.6-18.9,60.6-24.1s10-92.6,12-103.9c2-11.2,1.2-36.9,8.8-53.3
		c7.6-16.4,37.1-84.7,39.5-91C164.8,1339.9,89.5,1314.5,88.3,1320.4L88.3,1320.4z"/>
	<path class="st1" d="M41.7,1621.6c-0.3,0-0.5,0-0.7,0c-7-0.8-33.4-19.5-39.4-29c-1.5-2.3-1.9-4.3-1.3-6.1
		c2.1-6.3,44.5-97.9,47.1-102.8c1.1-2.1,1-6.4,1-10.5c-0.1-4.3-0.2-8.8,0.9-12.9c1.1-4.3,3.6-8.6,6.2-13.1c2.8-4.8,5.6-9.8,7.4-15.5
		c2.5-8,11.3-54.3,17.1-84.9c2.5-13.3,4.5-23.7,5.3-27.1c0.2-0.7,0.8-2.5,3.2-3.1c9.6-2.5,68.3,17.5,75.7,25.8
		c1.9,2.1,1.5,3.9,1.2,4.9c-2.4,6.1-31.9,74.5-39.6,91.1c-5.1,11-6.3,26.5-7.2,38.9c-0.4,5.4-0.8,10.1-1.4,13.6
		c-2.2,12.1-12,99.2-12,103.3c0,2.1-1.6,3.5-2.1,4C95.5,1604.9,51.4,1621.6,41.7,1621.6L41.7,1621.6z M6.4,1588.2
		c0.6,1.8,5.2,7.2,15.9,15.2c9.8,7.4,17.6,11.6,19.5,11.8c5.5,0.5,51.7-16.1,57-21.7c0.6-10.4,10.2-93.2,12.1-103.7
		c0.6-3.2,0.9-7.7,1.3-13c1-13,2.2-29.1,7.8-41.1c7.3-15.8,34.4-78.7,39-89.6c-2.7-2.3-13.8-7.8-33.1-14.4
		c-18.5-6.4-30.8-9-34.7-9.1c-0.9,4.4-2.7,13.8-4.9,25.4c-6.2,32.6-14.7,77.3-17.3,85.6c-2,6.4-5.2,11.9-8,16.8
		c-2.5,4.3-4.6,8.1-5.5,11.5c-0.8,3.2-0.7,7.2-0.7,11.2c0.1,5.2,0.2,10.1-1.7,13.6C50.6,1491.2,9.5,1579.9,6.4,1588.2L6.4,1588.2z
		 M88.3,1320.4L88.3,1320.4L88.3,1320.4z"/>
	<path class="st1" d="M17.7,1555.1c-7.6,16.6-13.7,30.2-14.4,32.4c-2,6,31.3,30.1,38.1,30.9c6.8,0.8,60.6-18.9,60.6-24.1
		c0-2,1.5-16.2,3.4-33.5C61.8,1568.7,34,1563,17.7,1555.1z"/>
	<path class="st1" d="M41.7,1621.6c-0.3,0-0.5,0-0.7,0c-7-0.8-33.4-19.5-39.4-29c-1.5-2.3-1.9-4.3-1.3-6.1
		c0.7-2.1,5.6-13.1,14.5-32.7c0.7-1.6,2.6-2.3,4.2-1.6c0,0,0,0,0.1,0c14.4,6.9,41,13.5,85.7,5.4c1.7-0.3,3.4,0.8,3.7,2.6
		c0.1,0.3,0.1,0.6,0,0.9c-2.5,22.4-3.4,31.9-3.4,33.2c0,2.1-1.6,3.5-2.1,4C95.5,1604.9,51.4,1621.6,41.7,1621.6L41.7,1621.6z
		 M6.4,1588.2c0.6,1.8,5.2,7.2,15.9,15.2c9.8,7.4,17.6,11.6,19.5,11.8c5.5,0.5,51.7-16.1,57-21.7c0.2-4,1.8-18.2,2.9-28.9
		c-41.1,6.8-67.2,1.3-82.5-5.3C9.4,1581,7,1586.7,6.4,1588.2L6.4,1588.2z"/>
	<path class="st0" d="M366.2,1344.1c0.4,24.5,6,120.7,6,140.4c0,28.9,40.1,128,48.5,134c8.4,6,105.5-1.6,119.1-1.6
		c13.6,0-58.6-38.1-65.8-50.5c-7.2-12.4-38.5-76.2-39.7-89.8c-1.2-13.6,18.9-135.6,19.5-153.6
		C454.5,1304.8,365.9,1323.3,366.2,1344.1z"/>
	<path class="st1" d="M445.2,1623.9c-14.6,0-23.5-0.9-26.3-2.9c-6.3-4.5-20.9-39.7-28.6-59.9c-5-13.1-21.3-57.5-21.3-76.7
		c0-10.2-1.5-41.6-3-72c-1.4-27.8-2.8-56.6-3-68.4c-0.1-5.7,4.4-11.2,13.3-16.3c20.4-11.8,63.3-20.2,76.3-12.4
		c3,1.8,4.5,4.5,4.4,7.6c-0.3,8.2-4.4,36.7-8.7,67c-5.3,37-11.4,79-10.7,86.2c1.1,12.4,31.2,74.6,39.3,88.5
		c3.1,5.4,22.6,17.9,38.2,27.9c25.9,16.6,30.8,20.3,29.6,24.5c-0.3,1.1-1.4,2.9-4.7,2.9c-3.4,0-12.4,0.5-23.7,1.1
		C485.3,1622.8,461.6,1623.9,445.2,1623.9L445.2,1623.9z M369.4,1344c0.2,11.7,1.6,40.4,3,68.2c1.5,30.5,3.1,61.9,3.1,72.3
		c0,28.8,39.9,125.8,47.2,131.4c6.1,3.8,67.1,0.4,93.2-1.1c8-0.4,14.8-0.8,19.4-1c-5.2-4-15.2-10.4-23.6-15.9
		c-21.3-13.7-36.6-23.8-40.2-30c-6.1-10.5-38.8-76.2-40.1-91.2c-0.7-8,5.1-48.5,10.8-87.7c4.3-30.1,8.4-58.5,8.7-66.3
		c0-0.4,0-1.1-1.4-1.9c-9.9-6-50.4,1.3-69.8,12.5C373,1337,369.4,1340.9,369.4,1344L369.4,1344z"/>
	<path class="st1" d="M372.3,1486.8c0,40.6,9.9,121.2,12.8,126.4c2.8,5.2,7.3-55.6,7.3-55.6S373,1507.9,372.3,1486.8z"/>
	<path class="st1" d="M385.5,1616.7c-1.1,0-2.4-0.5-3.2-2c-3.5-6.6-13.1-88.6-13.1-127.9c0-1.8,1.4-3.2,3.2-3.2
		c1.7,0,3.1,1.4,3.2,3.1c0.6,20.4,19.7,69.2,19.9,69.7c0.2,0.4,0.2,0.9,0.2,1.4c0,0.1-1,14-2.4,27.8c-0.8,8.1-1.6,14.6-2.3,19.4
		c-1.3,8.9-2.2,11.1-4.8,11.6C385.9,1616.6,385.7,1616.7,385.5,1616.7L385.5,1616.7z M387.9,1611.7L387.9,1611.7L387.9,1611.7z
		 M377.2,1523.5c2.1,27.7,5.6,58.1,8.2,75.1c1.3-10.6,2.8-26,3.8-40.5C387.9,1554.6,382.1,1539.6,377.2,1523.5L377.2,1523.5z
		 M474.2,1566.3c-23.4-2.4-51.3,9-68.7,23.5c6.8,15.4,12.6,26.7,15.3,28.6c8.4,6,105.5-1.6,119.1-1.6
		C553.5,1616.8,481.6,1578.8,474.2,1566.3L474.2,1566.3z"/>
	<path class="st1" d="M445.2,1623.9c-14.6,0-23.5-0.9-26.3-2.9c-3.1-2.2-8.6-12.3-16.3-29.9c-0.6-1.3-0.2-2.8,0.9-3.7
		c16.7-14,45.2-26.9,71-24.3c1,0.1,1.9,0.7,2.4,1.5c3.2,5.4,22.6,17.9,38.1,27.9c25.9,16.6,30.8,20.3,29.6,24.5
		c-0.3,1.1-1.4,2.9-4.7,2.9c-3.4,0-12.4,0.5-23.7,1.1C485.3,1622.8,461.6,1623.9,445.2,1623.9L445.2,1623.9z M409.4,1590.8
		c7.9,17.8,12,24.1,13.2,25.1c6.1,3.8,67.1,0.4,93.2-1.1c8-0.4,14.8-0.8,19.4-1c-5.2-4-15.2-10.4-23.6-15.9
		c-19.7-12.6-34.3-22.3-39.2-28.5C449.8,1567.6,424.5,1578.9,409.4,1590.8L409.4,1590.8z"/>
	<path class="st2" d="M316.1,569.4c0,0-13.2,18.4-39.7,86c-19.9,50.8-72.9,255.5-76.3,279.6c-8.3,58-58.2,127.3-69.9,176.5
		c-12.3,51.3-53.6,201.7-52.3,206.9c2.2,8.2,132,56.8,133.6,40c1.5-16.8,38.1-157.3,43.3-178.2c4.7-19,34.7-119.6,41.9-140.1
		c7.2-20.5,111.8-245.4,111.8-245.4c-7.9,45.6-17.6,300-34.1,348c-7.3,21.3-25,204.9-25.8,213.4c-0.7,7,66.2-2.9,94.9-15.6
		c22.3-9.9,32.4-18.5,34-21.1c0,0,23.5-178.6,23.5-236.4s24.9-118.3,40.1-198.6c15.2-80.2,36.1-168.5,29.7-239.8
		c-6.4-71.4-27.3-129-29.7-135.6c-2.4-6.5-224,29.3-224,29.3L316.1,569.4z"/>
	<path class="st0" d="M477.2,549.9l-138.7,25c-6.2,1.1-12.2-3-13.3-9.2l-36.5-202.5c-1.1-6.2,3-12.2,9.2-13.3l138.7-25
		c6.2-1.1,12.2,3,13.3,9.2l36.5,202.5C487.5,542.9,483.4,548.8,477.2,549.9L477.2,549.9z"/>
	<path class="st1" d="M336.4,578.3c-6.9,0-13.1-5-14.4-12l-36.5-202.5c-0.7-3.8,0.2-7.7,2.4-10.9c2.2-3.2,5.6-5.4,9.4-6l138.7-25
		c7.9-1.4,15.5,3.9,17,11.8l36.5,202.5c0.7,3.8-0.2,7.7-2.4,10.9c-2.2,3.2-5.6,5.4-9.4,6l-138.7,25
		C338.1,578.2,337.3,578.3,336.4,578.3L336.4,578.3z M438.7,327.9c-0.5,0-1,0-1.5,0.1l-138.7,25c-2.2,0.4-4.1,1.6-5.3,3.4
		c-1.3,1.8-1.7,4-1.3,6.2l36.5,202.5c0.8,4.5,5.1,7.5,9.6,6.7l138.7-25l0.6,3.1l-0.6-3.1c2.2-0.4,4.1-1.6,5.3-3.4s1.7-4,1.3-6.2
		l-36.5-202.5C446.1,330.7,442.6,327.9,438.7,327.9z"/>
	<path class="st3" d="M246.5,258.6c25-20.7,91.5-10,97.8-55.9c3.9-28.3-1-97.3-11.3-109.1c-6.5-7.5-3.7-18.6,1.2-25.4
		c5.3-7.3,27.5-50.7,29.2-55.7c7.9-23.9,16.3-34.2,16.3-34.2l5.7-8.7C382-45.6,303-38.3,281.5-2.1c-12.5,21.1-30.6,80-30.2,128.9
		c0.1,16.2-16.4,59.7-28.3,102.8c-9.7,35.1-7,73.6,2.6,55.3C230.3,275.9,237,266.5,246.5,258.6L246.5,258.6z"/>
	<path class="st1" d="M394.5,20.7c-1.4-0.4-2.9,0.3-4,1.2c-1,0.9-1.9,2.3-2.3,3.9c-0.1,0.4-0.1,1-0.1,1.4c-0.1,2.7,0.8,4,2.8,5.3
		c1.3,0.8,3.6,1,4.8-0.1c1.2-1.1,1.6-2.6,2-4.2C398.2,25.5,397.7,21.5,394.5,20.7z M398.8-10c2.3,1.7,4.8,3.3,7.3,4.7
		c2.6,1.4,5.4,2.4,7.9,4c0.5,0.3,0.9,0.8,1.1,1.2c-0.2-0.4,0.2,1.3,0.1,0.4c0.1,0.5,0.1,1,0,1.5c0,0.3,0,0.5-0.1,0.8
		c0,0.1-0.1,0.8,0,0.3c-0.1,0.5-0.2,1-0.2,1.5c-0.2,1.1-0.4,2.2-0.6,3.3c-0.8,5.1-0.4,10.5,3.2,14.5c1.8,2,4.3,3.4,6.7,4.6
		c2.8,1.4,5.8,2.6,8.7,3.7c2.4,0.9,4.8,1.8,7.3,2.2c2.1,0.4,4.2,0.5,6.3,1.1c0.5,0.1,0.9,0.3,1.4,0.4c0.6,0.2,0.2,0.1,0.1,0
		c0.3,0.1,0.5,0.3,0.8,0.4c0.1,0.1,0.5,0.4,0.1,0c0.2,0.1,0.3,0.3,0.4,0.4c0.6,0.6-0.1-0.3,0.1,0.2c0.1,0.1,0.5,0.8,0.4,0.6
		c0,0,0.2,0.8,0.3,1c-0.1-0.6,0-0.2,0,0c0,0.3,0,0.5,0,0.8c0,0.2-0.1,0.6,0-0.1c0,0.2-0.1,0.3-0.1,0.5c-0.1,0.2-0.1,0.4-0.2,0.6
		c0,0.1-0.3,0.9-0.2,0.5c0.1-0.2-0.3,0.7-0.4,0.9c-0.2,0.4-0.5,0.9-0.7,1.3c-0.5,0.8-0.9,1.6-1.3,2.5c-1,2-1.7,4.2-1.7,6.5
		c0,1.9,0.5,3.6,1.1,5.4c3.6,11.2,7.5,22.2,10.3,33.6c0.7,3,1.4,6.1,1.9,9.2c0.1,0.3,0.1,0.7,0.2,1c0,0.2,0.2,1.3,0.1,0.4
		c0.1,0.7,0.2,1.4,0.2,2.1c0.1,1.2,0.2,2.4,0.2,3.5c0,0.5,0,1-0.1,1.5c0,0.1,0,0.2,0,0.3c-0.1,0.7,0-0.3,0-0.3c0,0-0.1,0.6-0.1,0.7
		c-0.1,0.4-0.2,0.7-0.3,1.1c-0.2,0.7,0.4-0.7,0.1-0.1c-0.1,0.2-0.2,0.3-0.3,0.5c-0.3,0.5-0.1-0.1,0.2-0.2c-0.1,0.1-0.2,0.2-0.3,0.3
		c-0.2,0.2,0.8-0.5,0.2-0.2c-0.6,0.3,0.4-0.1,0.2-0.1c-0.1,0-0.3,0.1-0.4,0.1c-0.5,0.2,0.9,0,0.3,0c-0.4,0-0.9,0-1.3,0
		c-6.4,0.5-12.8,2.5-19,4.3c-5.5,1.6-11,3.2-16.5,4.9l-1,0.3c-1,0.3-2,1.1-2.2,2.2l-3.3,21.2l-5.3,33.7l-1.2,7.7
		c-0.3,1.7,0.4,3.4,2.2,3.9c1.5,0.4,3.6-0.5,3.9-2.2l3.3-21.2l5.3-33.7l1.2-7.7l-2.2,2.2c4.2-1.3,8.5-2.6,12.8-3.9
		c6.7-2,13.5-4,20.5-5.2c0.3-0.1,0.6-0.1,0.9-0.2c0.5-0.1-0.8,0.1,0,0c0.5,0,1-0.1,1.5-0.1c1.2,0,2.3-0.2,3.4-0.8c1.9-1,3-3,3.5-5.1
		c1.2-5.3,0.1-11.1-1-16.3c-2.5-12.4-6.6-24.5-10.6-36.5c-0.5-1.6-1.1-3.2-1.5-4.8c-0.1-0.2-0.1-0.5-0.2-0.7c0-0.2-0.1-0.3-0.1-0.5
		c0.1,0.6,0-0.4,0-0.4c0-0.3,0-0.6,0-0.9c-0.1,0.6,0.1-0.6,0.2-0.8c0.1-0.4,0.3-0.9,0.4-1.3c-0.2,0.5,0.3-0.7,0.4-0.9
		c0.2-0.4,0.5-0.9,0.7-1.3c2.2-4,4-8,1.9-12.4c-2.1-4.7-7.2-5.6-11.8-6.2c-5.2-0.7-10.4-2.8-15.2-5c-2.4-1.1-4.9-2.3-6.5-4.1
		c-0.4-0.4-0.3-0.3-0.6-0.8c-0.1-0.2-0.3-0.5-0.4-0.7c-0.3-0.5,0.2,0.7-0.1-0.3c-0.4-1-0.6-2-0.6-3c-0.3-4.5,1.9-9,1.1-13.8
		c-1-5.9-7.5-7.5-12-9.9c-2.6-1.4-5-3-7.3-4.7c-1.4-1-3.5-0.2-4.3,1.1C396.7-12.8,397.5-11.1,398.8-10L398.8-10z"/>
	<path class="st1" d="M385.5,15.2c0.7-0.9,1.4-1.8,2.1-2.8c0.3-0.4,0.6-0.8,0.8-1.2c0.1-0.2,0.3-0.3,0.4-0.5
		c-0.4,0.6,0.1-0.1,0.1-0.2c0.3-0.3,0.5-0.6,0.8-0.9c0.2-0.2,0.3-0.3,0.5-0.5c0.1-0.1,0.6-0.5,0.2-0.2c-0.4,0.3,0.2-0.1,0.3-0.2
		c0.2-0.1,0.4-0.2,0.6-0.4c0.5-0.3-0.3,0.1,0,0c0.2-0.1,0.5-0.2,0.7-0.2c0.2-0.1,0.4-0.1,0.6-0.1c-0.7,0.2,0,0,0.2,0
		c0.2,0,0.4,0,0.6,0c0.7,0,0,0,0,0c0,0,1.2,0.3,1.3,0.4c0.4,0.1-0.5-0.3,0,0c0.2,0.1,0.4,0.2,0.6,0.4c0.2,0.1,0.3,0.2,0.5,0.3
		c0.3,0.2-0.4-0.4,0,0c0.3,0.3,0.7,0.7,1,1c-0.3-0.3-0.2-0.2,0,0c0.1,0.2,0.2,0.3,0.3,0.5c0.3,0.4,0.5,0.9,0.7,1.3
		c0.7,1.5,3,2,4.3,1.1c1.6-1,1.9-2.7,1.1-4.3c-2.1-4.8-7-7.8-12.3-7c-2.4,0.4-4.6,1.8-6.3,3.6c-0.8,0.9-1.6,1.9-2.3,2.9
		c-0.3,0.4-0.6,0.9-0.9,1.3c-0.2,0.2-0.3,0.4-0.5,0.6c-0.2,0.3-0.2,0.3,0,0c-0.1,0.1-0.2,0.3-0.3,0.4c-1.1,1.3-1.3,3.3,0,4.5
		C382.2,16.3,384.4,16.6,385.5,15.2L385.5,15.2z M406.7,66.8c4.5,3.5,10,7.1,15.9,6.9c2.7-0.1,5.4-0.6,7.8-1.9
		c2.6-1.4,4.5-3.6,6-6.1c2.1-3.5-3.4-6.7-5.5-3.2c-0.6,1.1-1,1.6-1.8,2.4c-0.2,0.2-0.4,0.4-0.6,0.6c-0.4,0.4,0,0-0.2,0.2
		c-0.4,0.3-0.8,0.5-1.2,0.7c0,0-0.7,0.4-0.4,0.2c0.3-0.1-0.4,0.1-0.5,0.2c-0.5,0.2-1,0.3-1.5,0.4c-0.2,0-0.4,0.1-0.6,0.1
		c0.5-0.1-0.2,0-0.3,0c-0.6,0.1-1.1,0.1-1.7,0.1c-0.2,0-0.4,0-0.7,0c-0.2,0-0.7-0.1-0.3,0c-0.6-0.1-1.1-0.2-1.7-0.4
		c-1.1-0.3-1.8-0.6-2.9-1.2c-1.1-0.6-2.1-1.2-3.1-1.8c-0.7-0.4-1.4-0.9-2-1.4c0,0-0.8-0.6-0.4-0.3c-1.4-1.1-3.2-1.3-4.5,0
		C405.6,63.4,405.4,65.7,406.7,66.8L406.7,66.8z M381.9,34.8c2.1-0.1,3.4-1.7,4.3-3.4c0.9-1.6,1.8-3.2,3-4.7
		c1.2-1.5,2.7-3.3,4.7-3.5c1.1-0.1,2.2,0,3.2,0.4c1.2,0.5,2.2,1.3,3.3,1.9c1.8,1,3.4-1.7,1.6-2.7c-2.3-1.3-4.3-2.7-7.1-2.8
		c-1.3,0-2.5,0.1-3.7,0.6c-1,0.5-2,1.3-2.8,2.1c-1.5,1.6-2.9,3.3-4,5.3c-0.4,0.8-0.8,1.6-1.3,2.3c-0.3,0.5-0.9,1.3-1.3,1.3
		C379.8,31.7,379.8,34.9,381.9,34.8L381.9,34.8z"/>
	<path class="st0" d="M385,33.9c1.5-1.5,14.7-5.8,17.4-6.3c-0.7,1.9-2,4.5-2.4,6.5c-0.3,1.3,0,1.1-1.3,1.6c-1.1,0.4-2.5,0.5-3.6,0.7
		c-2.6,0.3-5.8,1.5-8.4,1.1c-1.2-0.2-0.8,0.5-1.4-0.9C385.1,36.1,384.8,33.6,385,33.9L385,33.9z"/>
	<path class="st4" d="M379,57.8c-5.2,0-9.5-0.8-12.5-1.5c-4-0.9-6.5-4.9-5.5-8.9c0.9-4,4.9-6.4,8.8-5.5c3.5,0.8,8.3,1.6,14.5,0.7
		c4.1-0.6,7.8,2.2,8.4,6.3c0.6,4.1-2.2,7.8-6.3,8.4l0,0C383.9,57.6,381.5,57.8,379,57.8z"/>
	<g>
		<path class="st1" d="M409.7,117.7l-9.3,0.7c-0.9,0.1-1.6,0.3-2.2,0.9c-0.6,0.6-1,1.5-0.9,2.2c0.1,1.6,1.4,3.3,3.2,3.2l9.3-0.7
			c0.9-0.1,1.6-0.3,2.2-0.9c0.6-0.6,1-1.5,0.9-2.2C412.8,119.3,411.5,117.6,409.7,117.7z M383.3,212.3c1,1.1,1.9,2.3,2.9,3.3
			c1.4,1.4,3.1,2.9,5.1,3.2c2.6,0.4,4.8-0.8,6.3-3c1-1.4,1.5-3.2,1.9-4.9c0.4-1.5,0.6-3.1,1.1-4.6c0.6-1.6-0.6-3.5-2.2-3.9
			c-1.8-0.4-3.3,0.5-3.9,2.2c-0.4,1.2-0.6,2.4-0.9,3.6c-0.2,0.7-0.3,1.4-0.5,2.2c-0.1,0.3-0.2,0.6-0.3,0.9c-0.1,0.2-0.1,0.3-0.2,0.5
			c0.4-1,0.2-0.4,0-0.1c-0.1,0.3-0.3,0.5-0.4,0.8c-0.4,0.6,0.5-0.5,0.2-0.2c-0.1,0.1-0.2,0.2-0.3,0.4c-0.4,0.4,0.6-0.4,0.3-0.2
			c-0.1,0.1-0.2,0.1-0.4,0.2c-0.4,0.2,0.9-0.3,0.3-0.1c-0.6,0.2,0.7-0.1,0.3,0c-0.6,0,0.7,0.2,0.3,0.1c0,0-0.4-0.1-0.4-0.1
			c0,0,0.8,0.4,0.4,0.2c-0.1,0-0.2-0.1-0.2-0.1c-0.2-0.1-0.3-0.2-0.5-0.3c-0.1-0.1-0.4-0.2-0.5-0.3c0,0,0.7,0.6,0.3,0.2
			c-0.1-0.1-0.2-0.1-0.2-0.2c-0.3-0.3-0.6-0.5-0.9-0.8c-1.1-1.1-2-2.3-3.1-3.4c-1.1-1.2-3.4-1.2-4.5,0
			C382.1,209.1,382,211,383.3,212.3L383.3,212.3z M347.6,91.9c-0.1,0.2-0.2,0.4-0.3,0.5c-0.2,0.6,0.4-0.6,0,0
			c-0.1,0.2-0.7,0.5,0,0.1c-0.2,0.1-0.4,0.2-0.5,0.4c-0.1,0.1-0.3,0.1-0.4,0.2c-0.6,0.4,0.6-0.1-0.1,0c-0.6,0.1-1.1,0.3-1.7,0.5
			c0,0-0.9,0.1-0.4,0.1c0.5-0.1-0.4,0-0.4,0c-0.6,0-1.1,0.1-1.7,0.1c-0.8,0-1.6,0-2.3-0.1c-0.2,0-0.4,0-0.6-0.1c0.4,0,0.4,0,0,0
			c-1-0.2-2-0.4-3-0.7c-0.5-0.1-1-0.3-1.5-0.5c-0.5-0.2,0,0,0.1,0c-0.3-0.1-0.5-0.2-0.8-0.4c-0.2-0.1-0.3-0.2-0.5-0.3
			c-0.3-0.2-0.4-0.5,0.1,0.1c-0.3-0.3-0.6-0.6-0.9-0.9c-0.7-0.9-1.4-2.2-1.7-3.2c-1.7-5-0.3-10.6,2.3-15.2c0.3-0.6,0.6-1.1,1-1.6
			c0.2-0.2,0.3-0.5,0.5-0.7c0.6-0.9-0.4,0.4,0.2-0.3c0.4-0.4,0.8-0.8,1.2-1.2c-0.4,0.4-0.1,0,0,0c0.3-0.2,0.6-0.4,1-0.6
			c0.5-0.3,1-0.6,1.6-0.8c0.9-0.4-0.6,0.2,0.3-0.1c0.2-0.1,0.4-0.1,0.6-0.2c1.1-0.4,2.3-0.7,3.4-0.9c1.8-0.4,3.7-0.5,6.1-0.6
			c1,0,2.1,0,3.1,0.1c1.7,0.1,3.1-1.6,3.2-3.2c0.3-16.3,3.6-32.5,8.6-48c2.2-6.6,4.5-12.8,7.3-18.7c1.8-3.9,3.8-7.7,6.1-11.3
			c0.7-1.1,1.4-2.1,2.1-3.2c0.2-0.3,0.4-0.5,0.6-0.8c0.2-0.3-0.7,0.8-0.3,0.3c1.1-1.3,1.3-3.2,0-4.5c-1.1-1.1-3.4-1.3-4.5,0
			c-3.5,4.3-6.2,9.5-8.6,14.5c-3,6.1-5.5,12.4-7.7,18.9c-3,8.7-5.6,17.7-7.2,26.7c-1.5,8.6-2.6,17.4-2.7,26.1l3.2-3.2
			c-3.4-0.3-7,0-10.4,0.6c-2.7,0.5-5.5,1.3-7.9,2.7c-2.6,1.5-4.5,3.8-6.1,6.4c-3.4,5.9-5.3,13.3-3.3,20c0.9,3.1,2.7,6.4,5.4,8.2
			c1.9,1.3,4.4,2,6.6,2.4c5.1,1,13.8,1.3,16.4-4.4c0.7-1.6,0.4-3.4-1.1-4.3C350.6,90,348.3,90.3,347.6,91.9L347.6,91.9z"/>
		<path class="st1" d="M213.4,312.7c-1.2,0-2.2-0.6-2.8-1.7c-14.9-27.7,4.7-85.2,20.5-131.5c7.9-23.1,14.7-43.1,14.9-52.9
			c0.9-45.6,7.5-93.8,16.8-122.8c10.3-32,71-45.5,102.1-44c13.1,0.6,20.3,3.7,21.5,9.1c0.4,1.7-0.7,3.4-2.4,3.8
			c-1.7,0.4-3.4-0.7-3.8-2.4l0,0c-0.2-1.1-4.4-3.6-15.6-4.1c-16.3-0.8-38.4,2.8-56.2,9c-21.6,7.6-35.7,18.5-39.6,30.6
			c-9.1,28.5-15.6,76-16.5,121c-0.2,10.8-7.2,31.2-15.2,54.8c-14.6,42.7-34.5,101.2-20.9,126.4c0.8,1.5,0.3,3.5-1.3,4.3
			C214.5,312.6,213.9,312.7,213.4,312.7L213.4,312.7z"/>
		<path class="st1" d="M253,207.2c-1.8,0-3.2-1.4-3.2-3.2c0-0.1,0-0.2,0-0.4c2.4-20.8,8.8-38.2,16.2-58.4
			c11.7-31.8,25-67.9,26.8-130.4c0-1.8,1.5-3.2,3.2-3.1c1.8,0,3.2,1.5,3.1,3.2c0,0,0,0.1,0,0.1c-1.8,63.6-15.3,100.2-27.2,132.5
			c-7.3,19.7-13.6,36.8-15.9,56.9C256,206,254.6,207.2,253,207.2L253,207.2z M244.4,261.8c-1.8,0-3.2-1.4-3.2-3.2c0-1,0.5-2,1.3-2.6
			c10.4-7.4,28.1-9.8,46.8-12.2c30.9-4,62.9-8.2,67.3-34.7c1.6-9.7-1.1-34.6-3.7-58.7c-1.5-14.1-3.1-28.7-3.8-40.3
			c-0.1-1.8,1.2-3.3,3-3.4c1.8-0.1,3.3,1.2,3.4,3c0.7,11.4,2.3,25.9,3.8,40c2.8,25.6,5.4,49.8,3.7,60.4c-5.1,31.1-41,35.8-72.7,39.9
			c-17.9,2.3-34.8,4.5-44,11.1C245.7,261.6,245,261.8,244.4,261.8L244.4,261.8z"/>
		<path class="st1" d="M250.7,243.3c-1.8,0-3.2-1.4-3.2-3.2c0-0.6,0.2-1.2,0.5-1.7c12-18.2,48.9-39.6,68.7-51.1l2.9-1.7
			c1.5-0.9,3.5-0.3,4.3,1.2c0.9,1.5,0.4,3.4-1.1,4.3l-2.9,1.7c-19.4,11.2-55.4,32.1-66.6,49.1C252.7,242.8,251.7,243.3,250.7,243.3
			L250.7,243.3z M279.9,503.5c-2.4,0-4.4-0.3-6.1-0.8c-2.6-0.8-6.3-2.2-7.2-5.5c-0.9-3.4,1.5-6.1,3.5-8.4c0.7-0.8,1.8-2.1,2.2-2.8
			c-0.2-0.2-0.7-0.5-1.6-0.9c-5.4-2.3-15-4.5-25.3-5.1c-6.2,9-15.2,18-23.8,20.7c-9.8,3.2-18.3,1.2-20.8-4.8
			c-1.8-4.4,0.1-11,10.9-16.6c8.5-4.4,19.6-6,30.4-5.8c2.9-4.6,4.6-8.7,4.7-10.8c-2-0.2-4.9-0.2-8-0.3c-13.2-0.2-28.1-0.5-28.7-9
			c-0.2-2.8,0.7-5.2,2.7-7.2c4.4-4.5,14.1-6.2,29.6-5.3c10.8,0.6,11.3-0.1,14.5-4.7c1.7-2.4,4-5.7,8.2-9.8c1.2-1.2,3.3-1.2,4.5,0
			s1.2,3.3,0,4.5l0,0c-3.8,3.8-5.8,6.7-7.5,9c-4.6,6.5-7.2,8.1-20.1,7.4c-18.2-1.1-23.3,2-24.7,3.4c-0.7,0.7-0.9,1.3-0.8,2.3
			c0,0,0.8,1.4,7.3,2.3c4.6,0.6,10.2,0.7,15.2,0.8c3.9,0.1,7.3,0.1,9.5,0.4c2.6,0.3,4.4,2.3,4.6,5.1c0.3,2.9-1.2,7.3-3.8,12.2
			c9.5,0.8,18.3,2.9,24.1,5.4c1.1,0.5,4.6,2,5.4,5.4c0.7,3.4-1.7,6.1-3.7,8.4c-0.6,0.7-1.6,1.7-2,2.4c0.4,0.2,1.2,0.7,2.7,1.1
			c2,0.6,6.1,1,14.5-0.8c1.7-0.4,3.4,0.8,3.8,2.5c0.4,1.7-0.8,3.4-2.5,3.8c0,0,0,0,0,0C286.9,503.1,283.1,503.5,279.9,503.5
			L279.9,503.5z M237.6,480.1c-8.2,0.3-16.5,1.7-23,5.1c-6.9,3.6-8.5,7-7.9,8.5c0.8,2,5.8,3.5,13,1.2
			C226.1,492.8,232.6,486.6,237.6,480.1z M342.9,252.9c-11.3,0-21.5-2.1-28.6-7.5c-1.4-1.1-1.7-3-0.6-4.4c1.1-1.4,3-1.7,4.4-0.6
			c0,0,0,0,0.1,0c26.7,20.7,115.5-16,122.8-23.3c1.2-1.2,3.3-1.2,4.5,0c1.2,1.2,1.2,3.3,0,4.5c-5,5-31.1,16.6-57.1,23.9
			C374.3,249.4,357.7,252.9,342.9,252.9z M579.6,518.5c-6.2,0-27.3-9.9-36.4-19.2c-1.2-1.3-1.2-3.3,0.1-4.5c1.3-1.2,3.3-1.2,4.5,0.1
			c0,0,0,0,0,0c8.6,8.9,28.4,17.3,31.8,17.3c1.8,0,3.2,1.4,3.2,3.2C582.8,517,581.4,518.5,579.6,518.5z"/>
		<path class="st1" d="M599.1,541.5c-17,0-31.8-7.9-37.6-20c-0.7-1.6-0.1-3.5,1.5-4.2c1.6-0.7,3.4-0.1,4.2,1.5
			c5.5,11.3,20,16.4,31.9,16.4h0c12.4,0,22.6-5.1,26.5-13.2c4.9-10.2,14.1-21.4,23.8-33.3c11-13.5,22.4-27.5,26.6-39.3
			c6.3-17.8-26.2-67.5-38.5-86.2c-2.4-3.6-4.3-6.5-5.4-8.3c-3.3-5.5-2.8-10.1-2.4-14.2c0.6-6,1.1-11.1-10.5-20.1
			c-21.4-16.7-79.2-103.7-85.9-116.1c-2-3.7-5-5.8-8.8-6.3c-5.7-0.6-11.9,2.7-14.1,5.3c-1.1,1.3-3.1,1.5-4.5,0.4
			c-1.3-1.1-1.5-3.1-0.4-4.5c0,0,0,0,0,0c3.6-4.3,11.8-8.3,19.6-7.5c5.9,0.6,10.7,3.9,13.7,9.6c8.1,15,64.1,98.5,84.2,114.1
			c14.3,11.1,13.6,18.9,12.9,25.7c-0.4,3.7-0.7,6.7,1.6,10.4c1,1.7,2.9,4.5,5.2,8.1c23,35.1,45.7,73.5,39.2,91.8
			c-4.6,12.8-16.3,27.2-27.7,41.2c-9.5,11.6-18.4,22.5-23,32C626.3,535.2,614.3,541.5,599.1,541.5
			C599.2,541.5,599.2,541.5,599.1,541.5L599.1,541.5z M460.4,143.8c-1.4,0-2.6-0.9-3-2.3l-13.9-46.5c-0.5-1.7,0.4-3.5,2.1-4
			c1.7-0.5,3.5,0.4,4,2.1c0,0,0,0,0,0.1l13.9,46.5c0.5,1.7-0.4,3.4-2.1,4C461,143.7,460.7,143.8,460.4,143.8L460.4,143.8z"/>
		<path class="st1" d="M608.9,399.7c-1.5,0-2.7-1-3.1-2.4c-3.9-15.7-22.5-14.2-41.3-11.2c-8.2,1.3-12.3,1.9-14.5-0.6
			c-1-1.1-1.2-2.6-0.8-4.1c2.9-9.6,18-18.4,44-15c5,0.6,12.5,1.6,13.9,0.2c0.2-0.2,0.4-1,0.2-2.5c-0.3-2.4-2.5-5.1-6-7.4
			c-6.3-4.1-18.2-7.5-31.3-3.8c-1.7,0.5-3.4-0.5-3.9-2.2c-0.5-1.7,0.5-3.4,2.2-3.9c12.5-3.5,26.8-1.7,36.5,4.6
			c5.1,3.3,8.2,7.5,8.8,11.8c0.5,3.4-0.2,6-2,7.8c-3.4,3.5-9.5,2.9-19.2,1.6c-20.4-2.7-31.8,2.9-35.7,8.1c1.9-0.2,4.6-0.6,6.9-1
			c14.9-2.4,42.8-6.7,48.4,16c0.4,1.7-0.6,3.4-2.3,3.8C609.4,399.7,609.1,399.7,608.9,399.7L608.9,399.7z M203,1365
			c-0.6,0-1.2,0-1.9,0c-16.8-0.8-49.4-10.7-74.3-19.8c-13.6-5-26.2-10.1-35.4-14.4c-15.5-7.3-16.7-10-16.7-12.4
			c0-4.9,9.3-40.9,24.6-99.7c9.1-35,18.5-71.2,22.4-88.4c11-48.3,27.4-79,41.9-106.2c14.9-28,27.8-52.1,33.3-89.6
			c4.8-33,56.6-229.7,76.5-280.3c26.3-67.2,39.5-85.9,40.1-86.7c1-1.4,3-1.8,4.4-0.8c1.4,1,1.8,3,0.8,4.4c0,0,0,0,0,0.1
			c-0.3,0.4-13.5,19.5-39.3,85.3C259.6,707,208,902.7,203.2,935.5c-5.6,38.6-19.4,64.4-34,91.7c-14.3,26.8-30.5,57.1-41.3,104.6
			c-3.9,17.3-13.4,53.5-22.5,88.5c-11,42.3-23.4,90-24.3,97.4c2.8,2.8,19.2,11.2,49.2,22c22.9,8.3,53.1,17.5,69.4,18.8
			c6.3,0.5,8.2-0.4,8.6-0.6c1-10.9,9.5-44.5,22.4-95.1c7.5-29.4,16.7-66,26.5-106c6.9-28.4,12.7-46,18.9-64.7
			c3.8-11.5,7.7-23.4,12.2-38.7c7.1-24.1,105.1-240,138.6-312.5c-6.7,2.4-12.9,4.8-17.9,7.3c-9,4.4-9.8,6.9-9.8,7.6
			c-0.1,1.8-1.6,3.1-3.4,3c-1.7-0.1-3-1.5-3-3.2c0.3-8.7,14.6-14.3,37.8-22.7c3.6-7.8,6.1-13,7-14.8c5.5-10.6,14.3-13.2,20.7-12.1
			c5.7,1,9.9,4.9,10.5,9.6c0.3,2.4-0.1,8.6-10.2,13.3c-6.8,3.1-15.2,6.2-23.4,9.1c-30.5,65.5-133.7,292.6-140.9,317.3
			c-4.5,15.4-8.5,27.3-12.3,38.9c-6.1,18.5-11.8,36-18.7,64.2c-9.8,40-19,76.6-26.5,106c-12.4,48.8-21.3,84-22.2,94.3
			C214.2,1362.9,210.3,1365,203,1365L203,1365z M455.5,712.1c-3,0-8.3,1.2-12.2,8.9c-0.7,1.3-2.1,4.3-4.2,8.8
			c6.1-2.2,12-4.5,16.9-6.7c4.4-2,6.9-4.5,6.6-6.7c-0.2-1.9-2.5-3.6-5.3-4.1C456.6,712.2,456.1,712.1,455.5,712.1L455.5,712.1z"/>
	</g>
	<path class="st0" d="M291.3,501.2c11.7-4.5,23.4-5.9,35.6-8.2c11.8-2.2,25.9-3,36.9-8.1c5.5-2.6,12.3-8.7,16.5-12.9
		c8-8.1,10.5-20,18.2-27.8c5.2-5.3,14.3-3.6,21.2-4.9c5.9-1.1,10.3-4.1,15.7-6.5c4.1-1.8,4-1,8-3c1.3-0.7,6.1-5.1,6.8-5
		c5.2,0.9,3.7,12.7,2.2,14.6c-2.9,3.9-6.9,6-10.9,8.5c6.4,1.4,13.2,1.1,19.8,2.3c8.9,1.5,19.3-0.6,27.7,2.5c3.7,1.3,6.7,3.5,6.3,7.5
		c-0.8,7.4-10,7.7-13.4,12.7c-2.9,4.2-0.1,5.2,1.4,8.9c2.2,5.2,0,6.2-1.2,11.1c-2.3,9,14.4,20.2,1.2,24.5c-7.3,2.4-16,2.7-23.7,4.2
		c-16.1,3-38.4,6.5-57.7,6.6c-62.6,38.5-140.2,58.2-145.2,58.8c-29.7,3.8-28.7-48.2-27-56c1.5-6.8,11.7-11.1,17.3-13.9
		C261.3,509.9,276.7,506.8,291.3,501.2L291.3,501.2z"/>
	<path class="st1" d="M414.4,458.4c4.1-1.4,8-2.9,12-4.4c3.8-1.4,7.6-2.7,11.5-3.5c2.1-0.4,4.2-0.6,6.4-0.7c0.6,0,1.3,0,1.9,0
		c0.2,0,0.5,0,0.7,0c-0.2,0-0.6,0.1-0.2,0c-0.2,0-0.5-0.4-0.1,0c0.1,0.1,0.2,0.2,0.3,0.2c0.4,0.2,0.7,0.5,1.1,0.8
		c1.5,1.1,3.2,1.9,5.2,1.9c1,0,1.9,0,2.9,0.1c5.9,0.1,11.9,0.4,17.8,0.7c3,0.2,6.1,0.3,9.1,0.6c1.2,0.1,2.4,0.2,3.6,0.4
		c0.7,0.1,0.2,0,0.1,0c0.2,0,0.4,0.1,0.7,0.1c0.4,0.1,0.8,0.1,1.2,0.2c0.2,0.1,0.5,0.2,0.7,0.2c0.5,0.1-0.8-0.3-0.4-0.2
		c0.2,0.1-0.2,0-0.1-0.1c-0.3-0.2-0.2-0.1,0.1,0.1l0.2,0.3c-0.2-0.3,0.4,0.6,0.5,0.7c0.1,0.2,0.2,0.4,0.3,0.6c0,0,0.3,0.5,0.1,0.2
		c0.1,0.4,0.3,0.7,0.4,1.1c0,0.2,0.3,1.4,0.2,0.9c0.1,0.7,0.1,1.3,0,2c0-0.1,0.1-0.5,0,0.1c-0.1,0.4-0.2,0.8-0.3,1.3
		c0,0.1-0.2,0.5-0.1,0.1c-0.1,0.2-0.2,0.4-0.3,0.6c-0.5,0.9-0.8,0.8-1.4,1.7c0.1-0.2,0.5-0.2-0.1,0.1c-0.3,0.1-0.7,0.2-1,0.4
		c-3,1.1-6.5,2.2-8.6,4.7c-1.2,1.4-1.9,3.2-1.7,5.1c0.2,2.3,1.5,4.3,2.7,6.2c1,1.7,2.2,3.5,2.7,5.2c0.3,1,0.4,1.5,0.4,2.5
		c0,0.4,0,0.6-0.2,1.1c-0.1,0.3-0.1,0.6-0.2,0.8c0.2-0.4-0.3,0.3-0.1,0.1c-1.3,1.4-3,3.2-3.1,5.4c-0.2,2.2,0.5,4.3,1.5,6.2
		c1,1.7,2.3,3.3,3.6,4.8c0.9,1.1,1.6,2,2.1,3.5c0.1,0.2,0.1,0.5,0.2,0.7c-0.1-0.5,0,0,0,0.1c0,0.2,0,0.4,0,0.6c0-0.2,0.2-0.5,0-0.1
		c-0.1,0.2-0.1,0.6,0.1-0.1c0,0.1-0.2,0.3-0.2,0.4c0.4-0.6-0.1,0.1-0.3,0.3c-0.3,0.4-0.1,0.1,0,0c-0.1,0.1-0.3,0.2-0.4,0.3
		c-0.3,0.2-0.7,0.4-1,0.6c-0.8,0.5-1.7,1-2.5,1.3c-7.1,3.1-15.1,3-22.6,4.3c-6.5,1.2-13,2.5-19.6,3.8c-3,0.6-6,1.1-8.9,1.6
		c-0.6,0.1-1.2,0.2-1.8,0.3c-0.8,0.1,0.3,0-0.1,0c-0.2,0-0.5,0.1-0.7,0.1c-1.2,0.1-2.5,0.2-3.7,0.2c-4.5,0-8.9-0.3-13.4-0.5
		c-3.3-0.1-7-0.5-10.2,0.6c-1.7,0.6-3.4,1.7-4.9,2.6c-3.3,1.8-6.6,3.7-9.9,5.5c-11,6-22.1,11.8-33.4,17.2
		c-14.7,7.1-29.5,13.7-44.8,19.6c-16.3,6.2-32.9,11.7-49.9,15.4c-4,0.9-8,1.6-12,2.3c-1.7,0.3-2.6,2.4-2.2,3.9
		c0.5,1.8,2.2,2.5,3.9,2.2c17.4-2.8,34.3-7.8,50.9-13.6c16.4-5.8,32.4-12.6,48.1-19.9c12.5-5.9,24.9-12.1,37.1-18.6
		c6.3-3.4,12.4-7,18.8-10.3c0.2-0.1,0.4-0.2,0.6-0.3c-0.4,0.3-1,0.3-0.2,0.1c0.3-0.1,0.6-0.1,0.9-0.2c0.6-0.1,0,0-0.1,0
		c0.3,0,0.5-0.1,0.8-0.1c4-0.3,8.1,0.1,12.2,0.3c3.6,0.2,7.4,0.5,11,0.1c2.7-0.3,5.3-0.7,8-1.2c6.8-1.2,13.5-2.6,20.3-3.9
		c2.7-0.5,5.4-1,8.1-1.5c0.5-0.1,0.9-0.1,1.4-0.2c0.8-0.1-0.9,0.1,0.2,0c0.8-0.1,1.6-0.2,2.4-0.3c2.7-0.3,5.4-0.6,8-1.1
		c4.4-0.9,9-2.3,12.7-4.9c1.6-1.1,3-2.5,3.5-4.4c0.6-2.1,0.1-4.4-0.7-6.4c-0.8-1.9-2-3.3-3.3-4.9c-0.6-0.7-1.1-1.3-1.4-1.8
		c-0.3-0.4-0.5-0.8-0.8-1.2c-0.1-0.1-0.2-0.3-0.3-0.4c0,0-0.4-0.9-0.3-0.5c-0.2-0.4-0.3-0.8-0.4-1.3c0.1,0.5,0-0.7,0-0.8
		c0-0.5,0,0,0,0l0,0.1c-0.1,0.2,0,0.2,0.1-0.1c-0.1,0.1-0.4,0.5,0.1-0.1c0.2-0.2,0.4-0.4,0.6-0.6c1.8-2,2.7-4.1,2.9-6.8
		c0.3-4.7-2.6-8.7-4.8-12.6c-0.3-0.5-0.5-1-0.8-1.5c0-0.1-0.3-0.7-0.1-0.2c-0.1-0.2-0.1-0.4-0.2-0.5c0.2,0.7,0-0.3,0,0
		c0,0.5,0.1-0.1,0.1-0.1c0.1-0.2,0-0.1-0.1,0.2l0.1-0.2c0,0,0.2-0.3,0.2-0.4c-0.4,0.6-0.2,0.2,0,0.1c0.1-0.1,0.9-0.7,0.3-0.3
		c0.7-0.5,1.4-0.9,2.2-1.2c0.2-0.1,0.3-0.2,0.5-0.2c0,0,0.5-0.2,0.1-0.1c-0.4,0.1,0.2-0.1,0.3-0.1l0.5-0.2c0.7-0.3,1.4-0.5,2.1-0.8
		c2.1-0.8,3.7-2,5.1-3.9c2.4-3.3,2.9-8,1.5-11.8c-1-2.8-2.8-5.7-5.9-6.4c-2.2-0.5-4.6-0.7-6.9-0.9c-6.3-0.5-12.6-0.8-19-1
		c-2.8-0.1-5.5-0.2-8.3-0.3c-0.9,0-1.9-0.1-2.8-0.1c-0.1,0-0.2,0-0.3,0c0.1,0,0.3,0.2,0.1,0c0,0-0.5-0.2-0.8-0.4
		c-0.7-0.5-1.4-1-2.1-1.5c-2-1.3-4.3-1.1-6.5-0.9c-2.5,0.1-4.9,0.4-7.4,0.9c-4,0.7-7.9,2.1-11.7,3.5c-3.9,1.5-7.9,2.9-11.9,4.3
		c-1.6,0.6-2.7,2.2-2.2,3.9C410.9,457.7,412.7,458.9,414.4,458.4L414.4,458.4z"/>
	<path class="st1" d="M466.3,503.5c0.2,0.3,0.3,0.6,0.4,0.9l-0.3-0.8c0.6,1.5,1,3.1,1.2,4.6l-0.1-0.8c0.1,0.5,0.1,1,0.1,1.6l0.1-0.8
		l0,0c-0.1,0.4-0.2,0.8-0.1,1.3c0,0.4,0.1,0.8,0.4,1.2c0.4,0.7,1.1,1.3,1.9,1.5c0.8,0.2,1.7,0.1,2.4-0.3c0.6-0.4,1.3-1.1,1.5-1.9
		c0.1-0.7,0.2-1.4,0.1-2.1c-0.1-0.9-0.2-1.8-0.4-2.7c-0.4-1.6-0.9-3.3-1.7-4.8c-0.4-0.7-1.1-1.3-1.9-1.5c-0.8-0.2-1.8-0.1-2.4,0.3
		C465.9,500.1,465.4,501.9,466.3,503.5L466.3,503.5z M462.9,484.3c0.2,0.3,0.3,0.6,0.4,0.9l-0.3-0.8c0.6,1.5,1,3.1,1.2,4.6l-0.1-0.8
		c0.1,0.5,0.1,1,0.1,1.6l0.1-0.8l0,0c-0.1,0.4-0.2,0.8-0.1,1.3c0,0.4,0.1,0.8,0.4,1.2c0.4,0.7,1.1,1.3,1.9,1.5
		c0.8,0.2,1.7,0.1,2.4-0.3c0.6-0.4,1.3-1.1,1.5-1.9c0.1-0.7,0.2-1.4,0.1-2.1c-0.1-0.9-0.2-1.8-0.4-2.7c-0.4-1.6-0.9-3.3-1.7-4.8
		c-0.4-0.7-1.1-1.3-1.9-1.5c-0.8-0.2-1.8-0.1-2.4,0.3C462.6,480.9,462.1,482.8,462.9,484.3L462.9,484.3z M459.5,464.3
		c0.2,0.3,0.3,0.6,0.4,0.9l-0.3-0.8c0.6,1.5,1,3.1,1.2,4.6l-0.1-0.8c0.1,0.5,0.1,1,0.1,1.6l0.1-0.8l0,0c-0.1,0.4-0.2,0.8-0.1,1.3
		c0,0.4,0.1,0.8,0.4,1.2c0.4,0.7,1.1,1.3,1.9,1.5c0.8,0.2,1.7,0.1,2.4-0.3c0.6-0.4,1.3-1.1,1.5-1.9c0.1-0.7,0.2-1.4,0.1-2.1
		c-0.1-0.9-0.2-1.8-0.4-2.7c-0.4-1.6-0.9-3.3-1.7-4.8c-0.4-0.7-1.1-1.3-1.9-1.5c-0.8-0.2-1.8-0.1-2.4,0.3
		C459.2,460.9,458.6,462.7,459.5,464.3L459.5,464.3z M286.2,503c14.5-3.8,29.3-7.2,44.2-9.4c3.5-0.5,7-0.9,10.8-1.5
		c3.8-0.5,7.5-1.1,11.2-2c7.4-1.6,14.9-4.1,21.1-8.6c7.2-5.2,12.3-12.9,17.2-20.2c2.6-3.8,5.1-7.6,8-11.2c0.7-0.9,1.4-1.7,2-2.6
		c0.2-0.3,0.5-0.7,0.7-1c0.1-0.2,0.7-1,0.4-0.6c0.1-0.1,0.9-0.8,0.5-0.5c0.1-0.1,0.7-0.4,0.4-0.3c1.1-0.4,2.4-0.5,3.5-0.7
		c8.3-1.5,16.3-4.2,24-7.7c3.8-1.7,7.6-3.6,11.4-5.5c1.9-0.9,3.7-1.8,5.4-3c0.7-0.5,1.5-1.2,2.1-1.7c0.3-0.3,0.7-0.5,1-0.7
		c0.1-0.1,0.3-0.2,0.4-0.3c0,0,0.8-0.4,0.4-0.3c-0.3,0.1,0.4-0.1,0.5-0.1c0.5-0.2-0.1,0-0.3,0c0.1,0,0.2,0,0.4,0
		c0.5,0.1-0.8-0.2-0.1,0c0.6,0.2-0.6-0.3-0.1,0c0.1,0-0.6-0.5-0.2-0.1c-0.4-0.3-0.3-0.5-0.1-0.1c0.2,0.7-0.1-0.6,0-0.1
		c0,0.2,0.1,0.5,0.2,0.7c0.2,0.8,0-0.4,0,0.1c0,0.2,0,0.5,0.1,0.7c0,0.6,0,1.1,0,1.7c0,0.5-0.1,1.1-0.1,1.6c0.1-0.9,0,0.1-0.1,0.3
		c0,0.3-0.1,0.6-0.2,0.9c-0.4,1.9-1,3.7-1.5,5.5c0.2-0.7,0.2-0.5,0,0c-0.4,0.7-0.9,1.2-1.5,1.7c-1.1,1-2.3,1.8-3.8,2.6
		c-1.7,1-3.5,1.9-5.1,3.1c-1.4,1-2.1,2.8-1.1,4.3c0.8,1.4,2.9,2.1,4.3,1.1c3.3-2.4,7.1-3.8,10.1-6.6c1.9-1.8,3.1-3.8,3.9-6.3
		c0.7-2.4,1.2-4.9,1.5-7.4c0.2-2.4,0.2-5.1-1-7.3c-1.4-2.7-4.4-3.5-7.2-2.7c-2,0.6-3.5,1.9-5.1,3.1c-1.5,1.2-3.1,2.1-4.9,3
		c-7.6,3.8-15.1,7.6-23.1,10.1c-4.3,1.4-8.8,2.4-13.2,3.2c-2.1,0.4-4.1,1-5.6,2.6c-1.3,1.4-2.2,3.1-3.3,4.5
		c-5.9,7.6-10.8,16-16.9,23.4c-2.6,3.1-5.3,5.9-8.5,8c-3.3,2.1-6.5,3.5-10.1,4.7c-7.3,2.4-15.4,3.6-22.7,4.6
		c-15.8,2.1-31.4,5.3-46.8,9.1c-1.6,0.4-3.2,0.8-4.7,1.2C280.6,497.9,282.2,504.1,286.2,503L286.2,503z M357,1361.4
		c-3.4,0-6.1-0.3-7.8-0.8c-3.8-1.3-3.8-4-3.7-4.8c0.1-0.6,0.2-1.9,0.3-3.9c13.8-160.6,27.3-224.2,34.1-247.9
		c4.2-14.7,10.1-101.9,15.3-178.8c3.9-57.7,7.5-112.1,10.1-131c0.2-1.7,1.8-3,3.6-2.7c1.7,0.2,3,1.8,2.7,3.6
		c-2.6,18.7-6.2,73.1-10.1,130.6c-5.4,81-11.1,164.8-15.5,180.1c-16.3,56.5-29.1,191.3-33.9,246.6l-0.2,2.4c5,1,24.1-0.4,50.7-6
		c31.5-6.7,48.2-13.8,50.8-18c0.9-1.5,2.8-2,4.4-1.1c1.5,0.9,2,2.8,1.1,4.4c0,0,0,0,0,0.1c-5.6,9.1-35.8,16.8-53.3,20.6
		C388.7,1358.3,368.7,1361.4,357,1361.4z M233.8,1098.7c-5.7,0-13-1.5-21.9-6c-1.6-0.8-2.2-2.7-1.4-4.3c0.8-1.6,2.7-2.2,4.2-1.4
		c13.6,6.7,25.3,7,31.4,0.9c2.9-2.9,3.5-6.5,2.5-8.3c-0.8-1.7-2.9-1.7-4.4-1.5c-37.4,5.5-53.2-11.7-54.9-13.7
		c-1.1-1.3-1-3.3,0.4-4.5c1.3-1.1,3.3-1,4.5,0.4c5.3,6.2,21.5,15.6,49.1,11.5c5-0.7,9.1,1.1,11,4.9c2.4,4.7,0.8,11.1-3.7,15.7
		C248.3,1094.8,243,1098.7,233.8,1098.7z"/>
	<path class="st1" d="M294.1,581.4c-1.3,0-2.4-0.7-2.9-1.9c-8.7-19.4-9.7-67.4,4.6-84.2c1.1-1.3,3.1-1.5,4.5-0.4
		c1.3,1.1,1.5,3.1,0.4,4.5l0,0c-11.7,13.7-12.1,58.6-3.6,77.5c0.7,1.6,0,3.5-1.6,4.2C295,581.3,294.6,581.4,294.1,581.4z
		 M173.4,626.1c-16.3,0-25.8-21.1-32.9-37c-1.1-2.3-2.1-4.6-3-6.6c-1.9-4.1-4.6-8.1-7.4-12.4c-8.4-12.7-18-27.1-7.4-45
		c12.2-20.7,69.4-144.3,80.6-189.1c11-44,16.6-66.1,39.5-80.2c1.5-0.9,3.4-0.5,4.4,1c0.9,1.5,0.5,3.4-1,4.4
		c-20.7,12.7-25.7,32.7-36.6,76.3c-11.3,45.3-69,169.9-81.3,190.8c-8.6,14.5-0.9,26,7.2,38.3c2.8,4.3,5.8,8.7,7.9,13.1
		c1,2.1,2,4.3,3.1,6.7c9.2,20.4,17.9,36.9,31.7,32.5c2-0.6,4.2-1.3,6.7-2.1c21.4-6.5,57.2-17.5,69.3-41.8c0.8-1.6,2.7-2.2,4.3-1.4
		c1.6,0.8,2.2,2.7,1.4,4.2c-13.3,26.8-50.8,38.2-73.1,45.1c-2.4,0.7-4.6,1.4-6.6,2C177.6,625.7,175.4,626.1,173.4,626.1L173.4,626.1
		z"/>
	<path class="st0" d="M603.7,440.7c-0.6-3.5-76.3-148.1-85.1-162.5c-8.8-14.4-4-22.5-3.9-31.8c0.1-7.8-5.5-50.8-12.6-65.3
		c3.9-9,0.1-14.1-0.6-15c-2.7-3.4-9.3-6-15.3-5.3c-0.2-4-3.6-8-7.5-10.2c0.1-2.9-0.8-5-1.1-5.4c-2.9-4.7-15.7-7-20.5-0.4
		c-5.2,7.1-16,21.5-19.8,28.5c-2.6,4.8,1.5,12.1,10.4,5.7c6.4-4.6,13.6-11.3,17.7-15.3c-2.8,11.8-6.1,26.1-8.3,36.5
		c-3,13.8,0.4,31.9,1,34.4c2.6,11.1,8.7,24.7,14.3,24.1c7-0.8,33.4,172,48.7,207.5c5.5,12.8,14.5,23,24.5,30.9
		C573.6,501,608,464.7,603.7,440.7z"/>
	<path class="st1" d="M545.5,500.2c-0.7,0-1.4-0.2-2-0.7c-11.7-9.2-20.2-20.1-25.4-32.2c-8-18.7-19-74.2-28.6-123.1
		c-7-35.5-14.9-75.7-18.4-82.5c-1.5-0.2-3-0.9-4.4-2.1c-6.9-5.7-12.3-22.9-13-32.1c-0.1-1.7,1.2-3.3,2.9-3.4
		c1.7-0.1,3.3,1.2,3.4,2.9c0.6,8.8,5.8,23.6,10.7,27.7c0.7,0.6,1.1,0.7,1.3,0.7c3.5-0.4,5.1,3.6,6.7,8.9c1.3,4.2,2.9,10.4,4.8,18.8
		c3.5,15.7,7.8,37.1,12.2,59.8c9.6,48.6,20.5,103.7,28.3,121.8c4.8,11.1,12.7,21.1,23.5,29.7c1.4,1.1,1.6,3.1,0.5,4.5
		C547.4,499.8,546.5,500.2,545.5,500.2L545.5,500.2z M464.3,212.1c-1.5,0-3-0.4-4.4-1c-3.8-1.9-7.3-6.9-5.6-15
		c0.8-3.9,2.6-11.3,4.5-19.1c2.2-9.1,4.5-18.5,5.7-24.2c1-4.8,4.6-7.6,9.4-7.2c6.8,0.6,12.8,6.3,14.7,11.8
		c5.1,0.2,10.4,2.1,13.7,5.1c2.2,2,3.3,4.3,3.3,6.6c0,1.8-1.4,3.2-3.2,3.2c-1.8,0-3.2-1.4-3.2-3.2c0-0.4-0.3-1.1-1.2-1.9
		c-2.2-2-7.1-3.9-11.7-3.4c-1.7,0.2-3.3-1.1-3.5-2.8c0-0.1,0-0.1,0-0.2c-0.2-3.9-5.8-8.6-9.5-8.9c-1.4-0.1-2.2,0.2-2.6,2.2
		c-1.2,5.8-3.5,15.3-5.8,24.4c-1.9,7.7-3.7,15-4.5,18.9c-0.8,3.9,0,6.9,2.2,8c1.4,0.7,3,0.4,4-0.7c1.2-1.3,3.2-1.4,4.5-0.2
		c1.3,1.2,1.4,3.1,0.3,4.4C469.7,211,467.1,212.1,464.3,212.1L464.3,212.1z"/>
	<path class="st1" d="M441.4,184.5c-2.8,0-4.6-1.3-5.4-1.9c-3-2.6-3.6-7.2-1.6-11c3.4-6.3,12.1-18.1,17.9-25.8l2.2-3
		c4.2-5.8,12.6-6.3,18.6-4.3c5.1,1.7,8.2,4.9,8.2,8.6c0,1.8-1.4,3.2-3.2,3.2s-3.2-1.4-3.2-3.2c0-0.4-1.1-1.7-3.8-2.6
		c-3.9-1.3-9.3-1-11.5,2.1l-2.2,3c-5.3,7.2-14.2,19.2-17.4,25.1c-0.7,1.2-0.4,2.6,0.2,3.2c0.9,0.8,3.1,0.2,5.6-1.6
		c9.3-6.7,17.2-14.9,17.3-15c1.2-1.3,3.2-1.3,4.5-0.1c1.2,1.2,1.3,3.2,0.1,4.5c-0.3,0.4-8.4,8.7-18.2,15.8
		C446.2,183.8,443.5,184.5,441.4,184.5L441.4,184.5z M549.7,500.5c-1.6,0-3.1-0.1-4.6-0.3c-1.7-0.3-2.9-1.9-2.7-3.6
		c0.3-1.7,1.8-2.9,3.6-2.7c12.1,1.7,27.2-5,39.4-17.6c10.9-11.3,16.9-24.9,15.2-34.8c-3-7.9-76.8-148.5-84.8-161.6
		c-7.2-11.8-6-19.9-5-27c0.3-2.3,0.6-4.4,0.7-6.5c0-4.2-1.7-20.2-4.7-35.9c-4.9-26.1-8.9-30.3-9.6-30.9c-2.1,0.3-7.8,4.5-16.1,15.2
		c-7,9.1-11.8,17.7-12.4,20.6c2.9-0.2,11.1-4.1,18.1-10.2c2.2-1.9,4.1-2.3,5.9-1.3c3.2,1.8,2.3,6.1,0.8,13.8
		c-0.7,3.4-1.4,7.3-1.4,9.7c0,1.8-1.4,3.2-3.2,3.2s-3.2-1.4-3.2-3.2c0-3,0.8-7,1.6-10.9c0.2-1.2,0.5-2.8,0.8-4.2
		c-6.2,4.7-17.5,11.7-23,8.7c-1-0.6-3.3-2.3-2.7-6.4c0.8-5.1,7.7-15.8,13.7-23.7c6.2-8.1,15-17.7,21.3-17.7c1.6,0,3.1,0.7,4.5,2.1
		c9.3,9.4,16,62.7,15.9,71.2c0,2.6-0.4,5-0.7,7.4c-1,6.7-1.9,13,4.1,22.8c4.6,7.5,26.3,48.3,45.7,85.5c14.7,28,39.3,75.3,39.8,78.1
		c2.1,12-4.3,27.5-16.9,40.5C577.8,493.2,562.8,500.5,549.7,500.5z M600.5,441.3L600.5,441.3C600.6,441.3,600.5,441.3,600.5,441.3z
		 M475.9,179.5c-1.8,0-3.2-1.4-3.2-3.2c0-0.1,0-0.3,0-0.4c0.7-5.2,4-10.8,4.4-11.5c0.9-1.5,2.8-2,4.4-1.1c1.5,0.9,2,2.8,1.1,4.4l0,0
		c-1,1.7-3.1,5.8-3.5,9.1C478.8,178.4,477.4,179.5,475.9,179.5L475.9,179.5z"/>
</g>
<g transform="translate(2412.6315789473683 821.0526315789474) rotate(0.0 74.2105263157896 243.15789473684214) scale(1.6126763221372447 1.5861985618466377)">
	<path class="st0" d="M74.6,164.1H40.3v-117c0-5.3,4.3-9.6,9.6-9.6h15c5.3,0,9.6,4.3,9.6,9.6V164.1z"/>
	<path class="st1" d="M74.6,167.1H40.3c-1.7,0-3-1.3-3-3v-117c0-7,5.7-12.6,12.6-12.6h15c7,0,12.6,5.7,12.6,12.6v117
		C77.6,165.7,76.2,167.1,74.6,167.1z M43.3,161.1h28.2v-114c0-3.7-3-6.6-6.6-6.6H50c-3.7,0-6.6,3-6.6,6.6V161.1z"/>
	<path class="st0" d="M11.8,3h28.7v198.9H11.8V3z"/>
	<g>
		<path class="st1" d="M40.5,204.9H11.8c-1.7,0-3-1.3-3-3V3c0-1.7,1.3-3,3-3h28.7c1.7,0,3,1.3,3,3v198.9
			C43.5,203.6,42.2,204.9,40.5,204.9z M14.8,198.9h22.7V6H14.8L14.8,198.9z"/>
		<path class="st1" d="M39.8,29.9H25.6c-1.7,0-3-1.3-3-3s1.3-3,3-3h14.2c1.7,0,3,1.3,3,3C42.8,28.6,41.5,29.9,39.8,29.9z M39.8,67.7
			H25.6c-1.7,0-3-1.3-3-3s1.3-3,3-3h14.2c1.7,0,3,1.3,3,3C42.8,66.3,41.5,67.7,39.8,67.7z M39.8,105.5H25.6c-1.7,0-3-1.3-3-3
			s1.3-3,3-3h14.2c1.7,0,3,1.3,3,3C42.8,104.1,41.5,105.5,39.8,105.5z M39.8,143.3H25.6c-1.7,0-3-1.3-3-3c0-1.7,1.3-3,3-3h14.2
			c1.7,0,3,1.3,3,3S41.5,143.3,39.8,143.3z M39.8,181H25.6c-1.7,0-3-1.3-3-3s1.3-3,3-3h14.2c1.7,0,3,1.3,3,3
			C42.8,179.7,41.5,181,39.8,181z"/>
	</g>
	<path class="st0" d="M52.1,98.6h31.5v141H52.1V98.6z"/>
	<path class="st1" d="M83.6,242.6H52.1c-1.7,0-3-1.3-3-3l0,0v-141c0-1.7,1.3-3,3-3h31.5c1.7,0,3,1.3,3,3v141
		C86.6,241.3,85.3,242.6,83.6,242.6L83.6,242.6L83.6,242.6z M55.1,236.6h25.5v-135H55.1L55.1,236.6z"/>
	<path class="st0" d="M79.8,98.6h-24l12-20L79.8,98.6z"/>
	<path class="st1" d="M79.8,101.6h-24c-1.7,0-3-1.3-3-3c0-0.5,0.1-1.1,0.4-1.5l12-20c0.9-1.4,2.7-1.9,4.1-1c0.4,0.3,0.8,0.6,1,1
		l12,20c0.9,1.4,0.4,3.3-1,4.1C80.9,101.5,80.4,101.6,79.8,101.6L79.8,101.6z M61.2,95.6h13.4l-6.7-11.2L61.2,95.6z"/>
	<path class="st0" d="M8.3,272h75.5v31.6H8.3V272z"/>
	<path class="st1" d="M83.8,306.6H8.3c-1.7,0-3-1.3-3-3V272c0-1.7,1.3-3,3-3h75.5c1.7,0,3,1.3,3,3v31.6
		C86.8,305.2,85.4,306.6,83.8,306.6z M11.3,300.6h69.5V275H11.3L11.3,300.6z"/>
	<path class="st0" d="M3,140.3h86v137H3V140.3z"/>
	<path class="st1" d="M89,280.3H3c-1.7,0-3-1.3-3-3v-137c0-1.7,1.3-3,3-3h86c1.7,0,3,1.3,3,3v137C92,278.9,90.7,280.3,89,280.3z
		 M6,274.3h80v-131H6V274.3z"/>
</g>
<g transform="translate(230.5263157894737 214.73684210526315) rotate(0.0 346.57894736842104 138.15789473684214) scale(1.5764480339526445 1.5785414577604862)">
	<path class="st2" d="M329.9,24.5l29-10.5l53.5,147.5l-29,10.5L329.9,24.5z"/>
	<path class="st1" d="M436.8,169H20.5c-5.6,0-11.3-0.1-16.9,0c-0.2,0-0.5,0-0.7,0c-3.9,0-3.9,6,0,6h416.3c5.6,0,11.3,0.1,16.9,0
		c0.2,0,0.5,0,0.7,0C440.7,175,440.7,169,436.8,169z"/>
	<path class="st0" d="M258.6,15.1h30.9V172h-30.9V15.1z"/>
	<path class="st1" d="M289.5,175h-30.9c-1.7,0-3-1.3-3-3V15.1c0-1.7,1.3-3,3-3h30.9c1.7,0,3,1.3,3,3V172
		C292.5,173.7,291.2,175,289.5,175L289.5,175z M261.6,169h24.9V18.1h-24.9V169z"/>
	<path class="st0" d="M294.4,18.3l30.2-6.2L356,165.8l-30.2,6.2L294.4,18.3z"/>
	<path class="st1" d="M325.7,175c-1.4,0-2.7-1-2.9-2.4L291.4,18.9c-0.3-1.6,0.7-3.2,2.3-3.5c0,0,0,0,0,0L324,9.2
		c1.6-0.3,3.2,0.7,3.5,2.3c0,0,0,0,0,0l31.4,153.7c0.3,1.6-0.7,3.2-2.3,3.5c0,0,0,0,0,0l-30.2,6.2C326.1,175,325.9,175,325.7,175z
		 M297.9,20.6l30.2,147.8l24.4-5L322.3,15.7L297.9,20.6z"/>
	<ellipse class="st0" cx="141.5" cy="81.6" rx="123.9" ry="124.1"/>
	<path class="st1" d="M217.1,81.6c0,8.1-1.2,15.7-3.7,23.5c-2.4,7.2-5.8,14.1-10.4,20.5c-8.6,12.2-21.5,22-35.5,27.1
		c-7.6,2.7-15.2,4.2-23,4.5c-8.2,0.3-15.8-0.6-23.7-2.8c-14.7-4.2-27.8-12.8-37.7-24.7c-2.3-2.7-4.5-5.9-6.4-9.2
		c-1.5-2.5-2.9-5.1-4.1-7.7c-0.4-0.8-0.7-1.5-1-2.3c-3-7.4-4.9-15.3-5.4-22.9C64.9,71.7,68.6,56,76.8,42.4
		c7.9-13,19.5-23.4,33.6-29.8c14.1-6.5,30.9-8.3,46.1-5.2c15.2,3.1,29,10.7,39.7,21.9c10.6,11.1,17.6,25.3,20,40.7
		C216.8,73.6,217,77.7,217.1,81.6c0,3.9,6,3.9,6,0c0-16.8-5.3-33.5-15.1-47.2c-9.6-13.4-23.1-23.7-38.6-29.4
		c-16-5.9-33.9-6.5-50.2-1.8C103.4,7.6,89,16.9,78.6,29.6c-10.7,13-17.2,28.9-18.5,45.7c-1.3,16.9,2.8,34.1,11.6,48.6
		c8.5,13.9,21.1,25.2,35.9,31.9c15.8,7.1,33.3,9.1,50.3,5.7c16.1-3.3,31.2-11.6,42.5-23.5c11.4-11.9,19.1-27.2,21.6-43.5
		c0.7-4.3,1-8.6,1-12.9C223.1,77.7,217.1,77.7,217.1,81.6L217.1,81.6z"/>
	<ellipse class="st0" cx="141.5" cy="81.6" rx="101" ry="101.2"/>
	<path class="st1" d="M202.5,81.6c0,12.7-3.9,24.9-11.3,35.4c-1.7,2.4-3.6,4.7-5.8,6.9c-2,2.1-4.7,4.5-6.7,6
		c-2.5,1.9-5.1,3.6-7.8,5.1c-2.8,1.6-5.5,2.8-8.3,3.8c-12.2,4.5-25.4,4.9-37.8,1.4c-12-3.4-22.6-10.4-30.6-20.1
		c-3.6-4.3-7.2-10.3-9.2-15.4c-2.4-5.9-3.9-12.3-4.4-18.4c-0.5-6.7,0-13,1.5-19.3c1.5-6.3,3.8-11.7,7.1-17.2
		c3.2-5.4,7-9.9,11.8-14.2c2.4-2.1,4.4-3.6,7.1-5.4c2.7-1.7,5.5-3.3,8.4-4.6c11.3-5.2,24.9-6.6,37.1-4.1c12.3,2.5,23.4,8.6,32,17.6
		c4.3,4.5,7.7,9.3,10.6,15c2.8,5.5,4.7,11.7,5.7,18C202.3,75,202.5,78.5,202.5,81.6c0,3.9,6,3.9,6,0c0-13.8-4.3-27.5-12.3-38.7
		c-7.9-11.1-19.1-19.6-31.9-24.3c-13.1-4.8-27.7-5.3-41.1-1.5c-13,3.7-24.8,11.3-33.3,21.7C81,49.5,75.7,62.6,74.6,76.5
		c-1.1,13.8,2.3,27.8,9.4,39.7c6.9,11.5,17.4,20.9,29.6,26.4c13,5.9,27.5,7.5,41.4,4.7c13.3-2.7,25.6-9.6,35-19.3
		c9.4-9.8,15.8-22.5,17.8-35.9c0.5-3.5,0.8-7,0.8-10.5C208.6,77.7,202.6,77.7,202.5,81.6z"/>
	<path class="st0" d="M141.5,34.4v47.2l31.4-23"/>
	<path class="st1" d="M138.5,34.4v47.2c0,2.1,2.6,4,4.5,2.6l27.5-20.1l3.9-2.8c1.3-1,2-2.6,1.1-4.1c-0.8-1.3-2.8-2-4.1-1.1
		l-27.5,20.1l-3.9,2.8l4.5,2.6V34.4C144.5,30.6,138.5,30.6,138.5,34.4z"/>
	<ellipse class="st0" cx="195.4" cy="158.1" rx="21.9" ry="21.9"/>
	<path class="st1" d="M206.3,158.1c0,2.3-0.6,4.4-2.1,6.4c-1.1,1.5-3.1,3.1-4.9,3.7c-4.5,1.6-9.2,0.4-12.4-3.3
		c-2.8-3.4-3.2-8.5-0.9-12.4c2.3-3.8,7-6,11.3-5.1C202.6,148.5,206.2,152.9,206.3,158.1c0,3.9,6,3.9,6,0
		c-0.1-7.1-4.5-13.4-11.2-15.9c-6.4-2.4-14.2-0.3-18.6,5.1c-4.5,5.5-5.3,13.3-1.6,19.4c3.7,6.2,10.9,9.2,17.9,7.9
		c7.8-1.5,13.4-8.7,13.5-16.5C212.3,154.3,206.3,154.3,206.3,158.1L206.3,158.1z"/>
	<ellipse class="st0" cx="89.1" cy="158.1" rx="21.9" ry="21.9"/>
	<path class="st1" d="M100,158.1c0,2.3-0.7,4.4-2.1,6.4c-1.1,1.5-3.1,3.1-4.9,3.7c-4.5,1.6-9.2,0.4-12.4-3.3
		c-2.8-3.4-3.2-8.5-0.9-12.4c2.3-3.8,7-6,11.3-5.1C96.3,148.5,99.9,152.9,100,158.1c0,3.9,6,3.9,6,0c-0.1-7.1-4.5-13.4-11.2-15.9
		c-6.4-2.4-14.2-0.3-18.6,5.1c-4.5,5.5-5.3,13.3-1.6,19.4c3.7,6.2,10.9,9.2,17.9,7.9c7.8-1.5,13.4-8.7,13.5-16.5
		C106,154.3,100,154.3,100,158.1L100,158.1z"/>
</g>
<text transform="matrix(1 0 0 1 894.5547 1237.8351)" class="st5 st6">90,2</text>
</svg>
