<?xml version="1.0" encoding="utf-8"?>
<!-- Generator: Adobe Illustrator 26.5.0, SVG Export Plug-In . SVG Version: 6.00 Build 0)  -->
<svg version="1.1" id="Camada_1" xmlns="http://www.w3.org/2000/svg" xmlns:xlink="http://www.w3.org/1999/xlink" x="0px" y="0px"
	 viewBox="0 0 3000 2057" style="enable-background:new 0 0 3000 2057;" xml:space="preserve">
<style type="text/css">
	.st0{fill:#FFFFFF;}
	.st1{fill:#1B1464;}
	.st2{fill:#2C84D1;}
	.st3{fill:#9659FF;}
	.st4{opacity:0.5;fill:#9659FF;enable-background:new    ;}
</style>
<g transform="translate(118.8 296.4) rotate(0.0 1313.3999999999999 553.8) scale(1.2599769762087487 1.255639950119034)">
	<path class="st0" d="M665.7,193.8l18.6-242c0.1-1.9,1.7-3.3,3.5-3.3s3.4,1.4,3.5,3.2l24.8,239.8L665.7,193.8z"/>
	<path class="st1" d="M668.7,193.8c0.2-2.2,0.3-4.4,0.5-6.5c0.5-5.9,0.9-11.8,1.4-17.7c0.7-8.7,1.3-17.4,2-26.2
		c0.8-10.7,1.6-21.3,2.5-32c0.9-11.7,1.8-23.4,2.7-35l2.7-35.1c0.8-11,1.7-21.9,2.5-32.9l2.1-27.6c0.5-6.5,1-13.1,1.5-19.6
		c0.2-3,0.7-6,0.7-9V-48c0,0.1,0,0.1-0.1,0.2c0.1-0.4,0.2-0.4,0.5-0.5c-0.3,0.1,0.5,0,0.1,0h0.2c-0.3-0.1,0.1,0.1,0.2,0.1
		c-0.1-0.1,0.2,0.2,0.2,0.3c-0.1-0.2,0.2,1.1,0-0.2v0.2l0.3,2.7c0.5,4.7,1,9.4,1.5,14.2c0.8,7.9,1.6,15.7,2.4,23.6
		c1,10.1,2.1,20.2,3.1,30.4c1.2,11.4,2.3,22.8,3.5,34.2c1.2,11.8,2.4,23.5,3.6,35.3c1.2,11.3,2.3,22.5,3.5,33.8c1,9.8,2,19.6,3,29.3
		c0.8,7.4,1.5,14.8,2.3,22.2c0.4,4.1,0.8,8.2,1.3,12.4c0.1,0.5,0.1,1.1,0.2,1.6l3-3c-5.7,0.3-11.3,0.5-17,0.8
		c-9.1,0.4-18.1,0.8-27.2,1.2c-2.1,0.1-4.1,0.2-6.2,0.3c-1.6,0.1-3,1.3-3,3c0,1.6,1.4,3.1,3,3c5.7-0.3,11.3-0.5,17-0.8
		c9.1-0.4,18.1-0.8,27.2-1.2c2.1-0.1,4.1-0.2,6.2-0.3c1.5-0.1,3.2-1.3,3-3c-0.2-2.2-0.5-4.4-0.7-6.7c-0.6-6-1.2-12.1-1.9-18.1
		l-2.7-26.7l-3.3-32.4c-1.2-11.7-2.4-23.5-3.6-35.2l-3.6-35.4c-1.1-10.8-2.2-21.7-3.3-32.5c-0.9-9-1.9-18-2.8-27
		c-0.6-6.2-1.3-12.4-1.9-18.6c-0.2-2.4-0.5-4.9-0.7-7.3c-0.2-1.7-0.8-3.2-2-4.4c-2-1.9-4.9-2.3-7.3-1.1c-2.3,1.1-3.5,3.3-3.7,5.8
		c-0.1,0.9-0.1,1.8-0.2,2.6c-0.4,4.7-0.7,9.4-1.1,14.2c-0.6,7.9-1.2,15.9-1.8,23.8c-0.8,10.2-1.6,20.3-2.4,30.5
		c-0.9,11.5-1.8,23-2.7,34.6c-0.9,11.9-1.8,23.8-2.8,35.8c-0.9,11.4-1.8,22.8-2.6,34.1c-0.8,9.9-1.5,19.8-2.3,29.7
		c-0.6,7.5-1.2,14.9-1.7,22.4c-0.3,4.2-0.6,8.3-1,12.5c0,0.5-0.1,1.1-0.1,1.6c-0.1,1.6,1.5,3,3,3
		C667.4,196.8,668.5,195.4,668.7,193.8L668.7,193.8z"/>
	<path class="st0" d="M530.8,556.7h-91.4c-3.4,0-6.2-2.8-6.2-6.2s2.8-6.2,6.2-6.2h91.4c3.4,0,6.2,2.8,6.2,6.2
		S534.2,556.7,530.8,556.7z"/>
	<path class="st1" d="M530.8,553.7h-91.4c-0.4,0-0.8,0-1.2-0.2c-0.5-0.2-0.8-0.4-1.3-0.9c-0.3-0.3-0.6-0.9-0.7-1.3
		c-0.1-0.2-0.1-0.4-0.1-0.6c0,0.1,0,0.3,0,0v-0.4c0-0.2,0.2-0.9,0.2-0.9c0,0.1,0.5-0.9,0.3-0.7c0.5-0.7,0.8-0.8,1.4-1.1
		c0.3-0.2,1-0.3,1.3-0.3h91.5c1.4,0,2.9,1,3.2,2.5c0.2,0.8,0.1,1.7-0.5,2.5c0,0-0.4,0.5-0.6,0.6c-0.3,0.3-0.1,0.1-0.6,0.4
		S531.3,553.7,530.8,553.7c-3.9,0.1-3.9,6.1,0,6c4.1-0.1,7.9-2.8,8.9-6.9c1-3.9-0.8-8.2-4.3-10.2c-2.1-1.2-4.3-1.3-6.7-1.3h-89.3
		c-6.7,0.1-11.3,6.8-8.6,13c1.7,3.8,5.4,5.4,9.3,5.4h90.6C534.7,559.7,534.7,553.7,530.8,553.7L530.8,553.7z"/>
	<path class="st0" d="M485.1,569.1c-3.9,0-7.1-3.2-7.1-7.1V428.1h14.3v133.8C492.3,565.9,489.1,569.1,485.1,569.1z"/>
	<path class="st1" d="M485.1,566.1c-2.3,0-4.1-1.9-4.1-4.2v-128c0-1.8,0.1-3.7,0-5.6v-0.2l-3,3h14.3l-3-3v133.8
		c0,0.8-0.1,1.3-0.4,1.8s-0.4,0.8-0.6,1c-0.4,0.4-0.6,0.6-0.9,0.8C486.5,565.9,486,566,485.1,566.1c-3.9,0.1-3.9,6.1,0,6
		c5.6-0.1,10-4.5,10.1-10.1V446.3c0-5.9,0.2-11.9,0-17.8v-0.2c0-1.6-1.4-3-3-3h-14.3c-1.6,0-3,1.4-3,3v131.5c0,3.6,0.3,7,3.2,9.7
		c1.9,1.7,4.4,2.7,6.9,2.7C489,572.1,489,566.1,485.1,566.1L485.1,566.1z"/>
	<path class="st0" d="M492.3,492.4l43.8-51.9l10.4,6.7l-54.2,54.7V492.4z"/>
	<path class="st1" d="M494.4,494.5c4.9-5.8,9.8-11.7,14.8-17.5c7.9-9.3,15.8-18.7,23.6-28c1.8-2.1,3.6-4.3,5.4-6.4
		c-1.2,0.2-2.4,0.3-3.6,0.5c3.5,2.2,7,4.4,10.5,6.7c-0.2-1.6-0.4-3.1-0.6-4.7c-6.1,6.2-12.3,12.4-18.4,18.5L497,493
		c-2.2,2.3-4.5,4.5-6.7,6.8l5.1,2.1v-9.5c0-3.9-6-3.9-6,0v9.5c0,2.6,3.3,4,5.1,2.1c6.1-6.2,12.3-12.4,18.4-18.5l29.1-29.4
		c2.2-2.3,4.5-4.5,6.7-6.8c1.4-1.4,1-3.7-0.6-4.7c-3.5-2.2-7-4.4-10.5-6.7c-1-0.7-2.8-0.5-3.6,0.5c-4.9,5.8-9.8,11.7-14.8,17.5
		c-7.9,9.3-15.8,18.7-23.6,28c-1.8,2.1-3.6,4.3-5.4,6.4c-1,1.2-1.2,3,0,4.2C491.2,495.6,493.3,495.8,494.4,494.5L494.4,494.5z"/>
	<path class="st2" d="M162.7,430.4c-4.4-4.2-6.8-10.1-6.3-16.2l0.7-10.7l24.7,1.7l-0.7,10.6c-0.4,6-3.5,11.5-8.3,15l-0.2,0.2
		C169.5,433.2,165.4,432.9,162.7,430.4z"/>
	<path class="st0" d="M601.5,225.7l-364.2-51.3c-2.5-0.3-4.8,1.7-4.8,4.2c0,2,1.4,3.8,3.4,4.2l354.5,80.5L601.5,225.7z"/>
	<path class="st1" d="M602.3,222.8c-3.3-0.5-6.6-0.9-9.9-1.4c-9-1.3-18-2.5-26.9-3.8c-13.2-1.9-26.4-3.7-39.7-5.6
		c-16.2-2.3-32.3-4.6-48.5-6.8c-17.6-2.5-35.2-5-52.8-7.4c-17.7-2.5-35.4-5-53.2-7.5c-16.4-2.3-32.9-4.6-49.3-6.9
		c-13.8-1.9-27.6-3.9-41.4-5.8c-9.8-1.4-19.6-2.8-29.4-4.1c-4.3-0.6-8.6-1.2-13-1.8c-2.5-0.3-4.9,0.1-6.7,1.9
		c-4.1,4.1-1.9,10.8,3.5,12.2c1,0.3,2.1,0.5,3.2,0.7c6.6,1.5,13.2,3,19.9,4.5c11.4,2.6,22.9,5.2,34.3,7.8
		c14.9,3.4,29.8,6.8,44.7,10.1c16.9,3.8,33.8,7.7,50.8,11.5c17.6,4,35.1,8,52.7,12c16.9,3.8,33.7,7.7,50.6,11.5
		c14.7,3.3,29.3,6.7,44,10c11.2,2.5,22.3,5.1,33.5,7.6c6.2,1.4,12.3,2.8,18.5,4.2c0.8,0.2,1.6,0.4,2.4,0.5c1.6,0.4,3.2-0.5,3.7-2.1
		c3.2-11,6.5-21.9,9.7-32.9c0.5-1.6,0.9-3.2,1.4-4.7c1.1-3.7-4.7-5.3-5.8-1.6c-3.2,11-6.5,21.9-9.7,32.9c-0.5,1.6-0.9,3.2-1.4,4.7
		c1.2-0.7,2.5-1.4,3.7-2.1c-3.2-0.7-6.5-1.5-9.7-2.2c-8.8-2-17.6-4-26.3-6c-13-2.9-25.9-5.9-38.9-8.8l-47.4-10.8
		c-17.2-3.9-34.5-7.8-51.7-11.7c-17.3-3.9-34.6-7.9-52-11.8c-16-3.6-32.1-7.3-48.1-10.9c-13.4-3-26.8-6.1-40.2-9.1
		c-9.4-2.1-18.7-4.3-28.1-6.4c-4-0.9-8-1.7-12-2.7h-0.2c-0.7-0.2-1.3-0.6-1.2-1.5c0-0.3,0.2-0.6,0.5-0.8c0.2-0.1,1.2-0.3,0.5-0.3
		c0.2,0,0.5,0.1,0.7,0.1c1.7,0.2,3.4,0.5,5.1,0.7c7.6,1.1,15.3,2.2,22.9,3.2c12.2,1.7,24.4,3.4,36.6,5.2c15.4,2.2,30.8,4.3,46.2,6.5
		c17.2,2.4,34.4,4.9,51.7,7.3c17.6,2.5,35.3,5,52.9,7.5c16.8,2.4,33.7,4.7,50.5,7.1c14.6,2.1,29.2,4.1,43.8,6.2
		c11,1.6,22.1,3.1,33.1,4.7c6.1,0.9,12.2,1.7,18.3,2.6l2.4,0.3c1.6,0.2,3.2-0.4,3.7-2.1C604.8,225.1,603.9,223.1,602.3,222.8
		L602.3,222.8z"/>
	<path class="st0" d="M-28.7,388.6c0,0,4,0.4,11.5,1.1"/>
	<path class="st1" d="M-28.7,391.6c3.8,0.4,7.6,0.7,11.5,1.1c1.6,0.1,3.1-1.5,3-3c-0.1-1.8-1.3-2.8-3-3c-3.8-0.4-7.6-0.7-11.5-1.1
		c-1.6-0.1-3.1,1.5-3,3C-31.6,390.3-30.4,391.4-28.7,391.6z"/>
	<path class="st0" d="M9.9,392.2c125.2,12,513.5,49.3,536.7,54.9c13.3,4.8,55.2,33.3,101.3,38.4c63.8,7-84-113-84-113L69.3,356.9"/>
	<path class="st1" d="M9.9,395.2c22.5,2.2,45,4.3,67.5,6.5c29.5,2.8,59.1,5.7,88.6,8.6c32.8,3.2,65.7,6.4,98.5,9.6
		s65.5,6.5,98.3,9.8c29,2.9,58,5.9,86.9,9c21.5,2.3,43,4.6,64.5,7.1c6.7,0.8,14.3,1.7,20.5,2.5c2.9,0.4,7.3,0.8,10.6,1.7
		c4.5,1.2,8.8,4,12.8,6.1c7.8,4.1,15.6,8.2,23.5,11.9c19.9,9.4,40.9,17.2,62.8,20.1c6.4,0.8,16.6,2.2,20.7-4.2
		c3.3-5.1,0.4-11.8-2.1-16.6c-4.4-8.1-10.6-15.4-16.7-22.3c-7.7-8.7-16-17-24.4-25.1c-15.2-14.5-30.9-28.4-47-41.9
		c-3-2.5-6-5.3-9.2-7.6c-1.7-1.2-3.7-1-5.7-1c-10.4-0.3-20.8-0.7-31.2-1l-56.4-1.8c-24.3-0.8-48.6-1.5-72.9-2.3
		c-27.2-0.9-54.5-1.7-81.7-2.6c-27.3-0.9-54.6-1.7-81.9-2.6c-24.5-0.8-48.9-1.5-73.4-2.3c-19.1-0.6-38.1-1.2-57.2-1.8
		c-10.8-0.3-21.5-0.7-32.3-1c-1.4,0-2.8-0.1-4.2-0.1c-3.9-0.1-3.9,5.9,0,6c4.4,0.1,8.8,0.3,13.2,0.4c12,0.4,24.1,0.8,36.1,1.1
		c17.7,0.6,35.5,1.1,53.2,1.7c21.6,0.7,43.2,1.4,64.9,2c23.7,0.7,47.4,1.5,71,2.2c24,0.8,48,1.5,72,2.3l66.9,2.1
		c18.8,0.6,37.7,1.2,56.5,1.8c13.6,0.4,27.1,0.9,40.7,1.3c6.4,0.2,12.9,0.9,19.3,0.6h0.8l-2.1-0.9c11.7,9.5,23.1,19.3,34.3,29.3
		c19,17,38.3,34.4,54.1,54.5c2.8,3.6,5.5,7.3,7.7,11.3c1,1.7,1.7,3.2,2.2,4.6c0.2,0.7,0.5,1.4,0.6,2.1c0.1,0.3,0.2,0.7,0.2,1
		c0.1,0.7,0-0.4,0,0.5c0,0.4-0.1,2,0,1.1c-0.1,0.3-0.1,0.6-0.2,0.9c-0.3,0.8,0,0.1-0.1,0.3c-0.4,1-0.5,1-1.5,1.5
		c-0.4,0.2-2.6,0.8-3.2,0.9c-2.1,0.2-4.2,0.2-6.2,0c-23.8-1.9-47.1-11.2-68.4-21.6c-8.2-4-16.2-8.3-24.3-12.5
		c-3.4-1.7-7-3.9-10.8-4.6c-13.4-2.6-27.2-3.7-40.7-5.2c-26.1-3-52.3-5.7-78.5-8.4c-34-3.5-68.1-7-102.1-10.4
		c-37-3.7-73.9-7.3-110.9-11c-34.9-3.4-69.8-6.8-104.8-10.2c-27.9-2.7-55.9-5.4-83.8-8.1c-5.1-0.5-10.3-1-15.4-1.5
		C6,388.9,6,394.9,9.9,395.2L9.9,395.2z"/>
	<path class="st0" d="M385.6,458.1c6.7,46.2-37.5,66.2-83.8,66.2c-20,0-39.6-4.3-54.9-12.6c-20.1-11-32.7-29-28.9-53.6
		c5.6-36.1,37.5-66.2,83.8-66.2S380.4,421.9,385.6,458.1L385.6,458.1z"/>
	<path class="st1" d="M382.7,458.9c0.5,3.2,0.7,7.3,0.5,10.9c-0.2,3.5-0.6,6.2-1.5,9.8c-0.4,1.6-0.9,3.1-1.5,4.7
		c-0.4,0.9-0.3,0.7-0.7,1.6c-0.4,0.8-0.7,1.5-1.1,2.3c-0.7,1.4-1.5,2.8-2.4,4.1c-0.4,0.7-0.9,1.3-1.4,1.9c-0.1,0.2-0.2,0.3-0.3,0.4
		c0.1-0.1,0.3-0.4,0,0.1c-0.3,0.3-0.5,0.7-0.8,1c-8.7,10.4-21,16.6-33.8,20.4c-3.6,1.1-7.3,1.9-11,2.7c-1.9,0.4-3.8,0.7-5.7,1
		c-1.7,0.2-3.4,0.5-5.4,0.7c-8.7,0.9-17.5,1.1-26.2,0.4c-18.2-1.4-37.2-6.4-51.9-17.6c-5.7-4.3-10.8-9.9-14.2-16.4s-5-13.8-4.9-21.3
		c0.1-7.3,1.8-14.5,4.4-21.3c0.7-1.8,1-2.7,1.8-4.4c0.7-1.6,1.5-3.2,2.4-4.7c1.7-3.1,3.6-6,5.7-8.9c0.3-0.3,0.6-0.7,0.6-0.8
		c0.3-0.3,0.5-0.7,0.8-1c0.6-0.7,1.2-1.5,1.8-2.2c1.2-1.3,2.4-2.7,3.6-3.9c2.4-2.4,5.4-5,7.8-6.8c5.9-4.5,12.8-8.2,19.4-10.8
		c15.4-5.9,32.6-7.4,48.7-4.8c7.7,1.3,15.6,3.6,22.4,6.7c6.7,3.1,13.1,7.2,18.5,11.8c5.4,4.7,10,9.9,13.7,15.7
		c3.9,6.1,6.6,11.9,8.6,18.7C381.5,452.2,382.2,455.5,382.7,458.9c0.2,1.6,2.3,2.5,3.7,2.1c1.7-0.5,2.3-2.1,2.1-3.7
		c-2.2-14.8-8.9-28.6-18.7-39.7c-10.5-11.8-24.5-20.3-39.7-24.7c-17-5-35.6-5.3-52.8-1c-15.5,3.8-30,11.8-41.1,23.3
		c-10.3,10.7-17.7,24.3-20.6,38.9c-1.7,8.4-1.9,17,0.3,25.4c2,7.8,6.1,14.9,11.4,20.8c12.3,13.7,30.6,21.1,48.3,24.5
		c18.2,3.5,37.2,3.3,55.4-0.3c14.6-2.9,29.1-8.4,40.4-18.2c10.9-9.4,17.3-22.7,17.8-37.1c0.1-4-0.2-7.9-0.7-11.9
		c-0.2-1.6-2.3-2.5-3.7-2.1C383.1,455.7,382.5,457.3,382.7,458.9L382.7,458.9z"/>
	<path class="st0" d="M367.9,458.1c5.3,36.5-29.6,52.2-66.1,52.2s-71.4-18-66.1-52.2c4.4-28.5,29.6-52.2,66.1-52.2
		S363.8,429.6,367.9,458.1z"/>
	<path class="st1" d="M365,458.9c0.4,2.6,0.5,6,0.3,8.9c0,0.7-0.1,1.4-0.2,2c0,0.1-0.1,1-0.1,0.6c-0.1,0.4-0.1,0.8-0.2,1.2
		c-0.2,1.4-0.5,2.7-0.9,4s-0.8,2.6-1.3,3.8c0.2-0.4-0.1,0.2-0.2,0.3c-0.1,0.3-0.3,0.6-0.4,0.9c-0.3,0.6-0.6,1.3-1,1.9
		c-0.6,1.1-1.3,2.2-2.1,3.3c-0.2,0.2-0.3,0.5-0.5,0.7c-0.3,0.5-0.1,0.2,0,0.1l-0.3,0.3c-0.4,0.5-0.9,1.1-1.4,1.6
		c-0.9,1-1.8,1.9-2.8,2.8c-0.5,0.4-0.9,0.8-1.4,1.2c-0.3,0.2-0.5,0.4-0.8,0.6c-0.1,0.1-0.9,0.7-0.5,0.4c-2.2,1.7-4.5,3.1-6.8,4.4
		c-5.1,2.8-10.2,4.6-16.1,6.2c-6.3,1.6-12.1,2.5-18.4,2.9c-6.7,0.4-13.4,0.4-20-0.4c-6-0.6-12.5-2-18.4-3.9
		c-5.7-1.8-10.8-4.2-15.9-7.5c-2.4-1.6-4.1-2.9-6.3-4.9c-1-0.9-2-1.9-2.9-2.9c-0.4-0.5-0.9-1-1.3-1.6c-0.3-0.4,0.1,0.1-0.2-0.3
		c-0.2-0.3-0.5-0.6-0.7-0.9c-0.8-1.1-1.5-2.2-2.1-3.4c-0.3-0.5-0.6-1.1-0.9-1.7c-0.1-0.3-0.3-0.6-0.4-0.9c-0.1-0.1-0.1-0.3-0.2-0.4
		c-0.1-0.3,0.1,0.3-0.1-0.2c-1-2.5-1.8-5.2-2.2-7.9c0-0.1-0.1-0.9-0.1-0.4c0-0.4-0.1-0.7-0.1-1.1c-0.1-0.8-0.1-1.5-0.2-2.3
		c-0.1-1.5,0-3,0.1-4.5c0.2-2.7,0.7-5.4,1.4-8.3c1.4-5.7,3.4-10.3,6.4-15.3s6.4-9.1,10.8-13.1c4.3-3.9,9.3-7.2,14.8-9.8
		c2.7-1.3,5.5-2.3,8.5-3.3c3.1-1,6.3-1.7,9.6-2.2c6.6-1.1,13.9-1.2,20.8-0.4c6.2,0.7,12.9,2.4,18.9,4.8c2.4,1,5.5,2.5,8,4
		s5.1,3.3,7.1,4.9c2.3,1.9,4.5,3.9,6.5,6.1c2.1,2.3,3.5,4,5.1,6.5c3.3,4.9,5.5,9.6,7.1,15C364,453.3,364.6,456.1,365,458.9
		c0.2,1.6,2.3,2.5,3.7,2.1c1.7-0.5,2.3-2.1,2.1-3.7c-1.8-12.2-7.5-23.7-15.9-32.7c-9-9.7-21-16.3-33.8-19.4
		c-14.2-3.5-29.6-3.1-43.5,1.4c-12.3,4-23.6,11.3-31.8,21.5c-7.8,9.8-13,22-13.7,34.6c-0.6,12.2,4.3,23.8,13.2,32.1
		c9.4,8.7,21.8,13.8,34.2,16.4c13.7,2.8,28,2.9,41.8,0.6c12.3-2,24.6-6.3,34.5-14.1c9.3-7.5,14.9-18.3,15.5-30.3
		c0.2-3.4-0.1-6.7-0.6-10c-0.2-1.6-2.3-2.5-3.7-2.1C365.4,455.7,364.8,457.3,365,458.9L365,458.9z"/>
	<ellipse class="st3" cx="301.8" cy="460.5" rx="12" ry="11.9"/>
	<path class="st0" d="M518.4,588.1c-7.1,0-12.9-5.8-12.9-12.9v-53.3c0-7.1,5.8-12.9,12.9-12.9c7.1,0,12.9,5.8,12.9,12.9v53.3
		C531.3,582.4,525.5,588.1,518.4,588.1z"/>
	<path class="st1" d="M518.4,585.1c-3.9,0-7.6-2.4-9.1-6.1c-0.7-1.6-0.7-3.1-0.7-5v-53.1c0.1-1.6,1-3.8,2.1-5.1
		c1.4-1.7,3-2.7,4.8-3.3c2-0.6,3.8-0.6,5.8,0c1.9,0.6,3.5,1.6,4.8,3.3c1,1.2,2,3.5,2.1,5.1v54.2c0,1.4-0.2,2.4-0.7,3.9
		c0.2-0.4-0.3,0.5-0.2,0.5l-0.3,0.6c-0.2,0.3-0.3,0.6-0.5,0.8c-0.3,0.5-0.2,0.3-0.1,0.2c-0.6,0.8-1.7,1.8-2.2,2.2
		C522.3,584.5,520.5,585.1,518.4,585.1c-3.9,0.1-3.9,6.1,0,6c5.6-0.1,10.9-3,13.7-7.9c1.5-2.7,2.1-5.6,2.1-8.6v-51.1
		c0-2.1-0.1-4.2-0.7-6.3c-1.7-5.2-6-9.3-11.3-10.6c-5.4-1.3-11.3,0.3-15.2,4.3c-3,3-4.5,7.1-4.5,11.3V576c0.3,5.5,3.4,10.6,8.2,13.2
		c2.3,1.3,5,2,7.6,2C522.3,591.1,522.3,585.1,518.4,585.1L518.4,585.1z"/>
	<path class="st0" d="M451.8,589.1c-7.1,0-12.9-5.8-12.9-12.9v-53.3c0-7.1,5.8-12.9,12.9-12.9s12.9,5.8,12.9,12.9v53.3
		C464.6,583.3,458.9,589.1,451.8,589.1z"/>
	<path class="st1" d="M451.8,586.1c-3.9,0-7.6-2.4-9.1-6.1c-0.7-1.6-0.7-3.1-0.7-5v-53.1c0.1-1.6,1-3.8,2.1-5.1
		c1.4-1.7,3-2.7,4.8-3.3c2-0.6,3.8-0.6,5.8,0c1.9,0.6,3.5,1.6,4.8,3.3c1,1.2,2,3.5,2.1,5.1v54.2c0,1.4-0.2,2.4-0.7,3.9
		c0.2-0.4-0.3,0.5-0.2,0.5l-0.3,0.6c-0.2,0.3-0.3,0.6-0.5,0.8c-0.3,0.5-0.2,0.3-0.1,0.2c-0.6,0.8-1.7,1.8-2.2,2.2
		C455.6,585.5,453.9,586,451.8,586.1c-3.9,0.1-3.9,6.1,0,6c5.6-0.1,10.9-3,13.7-7.9c1.5-2.7,2.1-5.6,2.1-8.6v-51.1
		c0-2.1-0.1-4.2-0.7-6.3c-1.7-5.2-6-9.3-11.3-10.6c-5.4-1.3-11.3,0.3-15.2,4.3c-3,3-4.5,7.1-4.5,11.3V577c0.3,5.5,3.4,10.6,8.2,13.2
		c2.3,1.3,5,2,7.6,2C455.6,592.1,455.6,586.1,451.8,586.1L451.8,586.1z"/>
	<path class="st0" d="M863.2,556.7h90.5c3.4,0,6.2-2.8,6.2-6.2s-2.8-6.2-6.2-6.2h-90.5c-3.4,0-6.2,2.8-6.2,6.2
		S859.8,556.7,863.2,556.7z"/>
	<path class="st1" d="M863.2,559.7h90.5c4-0.1,7.4-2.5,8.7-6.3c1.3-3.7-0.1-7.9-3.2-10.3c-2.2-1.7-4.7-1.8-7.3-1.8h-88.4
		c-6.1,0-10.9,5.8-9.1,11.8C855.6,557,859.2,559.6,863.2,559.7c3.9,0.1,3.9-5.9,0-6c-2.1-0.1-3.6-2-3.1-4c0.4-1.4,1.7-2.4,3.2-2.3
		h90.6c0.2,0,1,0.2,1.3,0.4c0.4,0.2,0.3,0.1,0.6,0.4c0.2,0.1,0.7,0.8,0.6,0.6c0.5,0.7,0.5,0.8,0.6,1.7v0.4c0,0.2-0.1,0.4-0.1,0.6
		c-0.1,0.3-0.4,0.9-0.6,1.2c-0.1,0.2-0.6,0.6-0.6,0.6c0.1,0-0.8,0.4-0.7,0.4c-0.4,0.2-0.8,0.2-1.2,0.2h-90.3
		C859.4,553.7,859.3,559.7,863.2,559.7L863.2,559.7z"/>
	<path class="st0" d="M908.2,569.1c3.9,0,7.1-3.2,7.1-7.1V428.1H901v133.8C901,565.9,904.2,569.1,908.2,569.1z"/>
	<path class="st1" d="M908.2,572.1c5.6,0,10-4.6,10.1-10.1V446.2c0-5.9,0.2-11.9,0-17.8v-0.2c0-1.6-1.4-3-3-3H901c-1.6,0-3,1.4-3,3
		v131.5c0,3.5,0.3,6.8,3,9.5C902.9,571,905.5,572,908.2,572.1c3.9,0.1,3.9-5.9,0-6c-2.3-0.1-4.1-1.9-4.1-4.2V434
		c0-1.8,0.1-3.7,0-5.6v-0.2l-3,3h14.3l-3-3v133.1c0,1.2,0,1.7-0.5,2.6c-0.8,1.4-2.2,2.1-3.6,2.1
		C904.3,566.1,904.3,572.1,908.2,572.1L908.2,572.1z"/>
	<path class="st0" d="M901,492.4l-43.8-51.9l-10.5,6.7l54.3,54.7V492.4z"/>
	<path class="st1" d="M903.2,490.3c-4.9-5.8-9.8-11.7-14.8-17.5c-7.9-9.3-15.8-18.7-23.6-28c-1.8-2.1-3.6-4.3-5.4-6.4
		c-0.8-1-2.6-1.1-3.6-0.5c-3.5,2.2-7,4.4-10.5,6.7c-1.6,1-2,3.3-0.6,4.7c6.1,6.2,12.3,12.4,18.4,18.5l29.1,29.4
		c2.2,2.3,4.5,4.5,6.7,6.8c1.8,1.8,5.1,0.5,5.1-2.1v-9.5c0-3.9-6-3.9-6,0v9.5l5.1-2.1c-6.1-6.2-12.3-12.4-18.4-18.5l-29.1-29.4
		c-2.2-2.3-4.5-4.5-6.7-6.8c-0.2,1.6-0.4,3.1-0.6,4.7c3.5-2.2,7-4.4,10.5-6.7c-1.2-0.2-2.4-0.3-3.6-0.5c4.9,5.8,9.8,11.7,14.8,17.5
		c7.9,9.3,15.8,18.7,23.6,28c1.8,2.1,3.6,4.3,5.4,6.4c1,1.2,3.2,1.1,4.2,0C904.4,493.3,904.2,491.5,903.2,490.3L903.2,490.3z"/>
	<path class="st2" d="M1230.6,430.4c4.4-4.2,6.8-10.1,6.3-16.2l-0.7-10.7l-24.7,1.7l0.7,10.6c0.4,6,3.5,11.5,8.3,15l0.2,0.2
		C1223.8,433.2,1227.9,432.9,1230.6,430.4L1230.6,430.4z"/>
	<path class="st0" d="M791.8,225.7l364.2-51.3c2.5-0.3,4.8,1.7,4.8,4.2c0,2-1.4,3.8-3.4,4.2l-354.5,80.5L791.8,225.7z"/>
	<path class="st1" d="M792.6,228.6c3.2-0.5,6.5-0.9,9.7-1.4c8.8-1.2,17.7-2.5,26.5-3.7c13.1-1.8,26.1-3.7,39.2-5.5
		c15.9-2.2,31.9-4.5,47.8-6.7c17.5-2.5,34.9-4.9,52.4-7.4c17.6-2.5,35.2-5,52.9-7.4c16.4-2.3,32.9-4.6,49.3-6.9
		c13.9-2,27.8-3.9,41.7-5.9l30-4.2c4.7-0.7,9.5-1.4,14.2-2c0.4-0.1,0.8,0.1,0.3,0c1.9,0.4,1.4,2.1-0.1,2.6l-3.9,0.9
		c-7,1.6-13.9,3.2-20.9,4.7c-11.6,2.6-23.3,5.3-34.9,7.9c-14.9,3.4-29.9,6.8-44.8,10.2c-16.9,3.8-33.8,7.7-50.6,11.5
		c-17.4,4-34.8,7.9-52.2,11.9c-16.7,3.8-33.3,7.6-50,11.4l-43.5,9.9c-11,2.5-21.9,5-32.9,7.5c-6.1,1.4-12.2,2.8-18.2,4.1
		c-0.8,0.2-1.6,0.4-2.3,0.5c1.2,0.7,2.5,1.4,3.7,2.1c-3.2-11-6.5-21.9-9.7-32.9c-0.5-1.6-0.9-3.2-1.4-4.7c-1.1-3.7-6.9-2.1-5.8,1.6
		c3.2,11,6.5,21.9,9.7,32.9c0.5,1.6,0.9,3.2,1.4,4.7c0.5,1.6,2.1,2.5,3.7,2.1c3.3-0.7,6.5-1.5,9.8-2.2c8.9-2,17.9-4.1,26.8-6.1
		c13.1-3,26.3-6,39.4-8.9c16-3.6,32-7.3,48-10.9c17.4-3.9,34.8-7.9,52.1-11.8c17.4-4,34.8-7.9,52.2-11.9c16-3.6,32.1-7.3,48.1-10.9
		c13.3-3,26.6-6,39.8-9.1c9.1-2.1,18.3-4.2,27.4-6.2c3.5-0.8,7.1-1.5,10.7-2.4c5.9-1.6,7.7-9.4,2.5-13c-1.8-1.2-3.8-1.4-5.8-1.1
		c-1.5,0.2-2.9,0.4-4.4,0.6c-7.3,1-14.6,2.1-22,3.1c-12,1.7-24,3.4-36.1,5.1c-15.3,2.2-30.7,4.3-46,6.5c-17.3,2.4-34.6,4.9-51.8,7.3
		c-17.8,2.5-35.7,5-53.5,7.5c-17.1,2.4-34.1,4.8-51.2,7.2c-14.8,2.1-29.6,4.2-44.4,6.2c-11.2,1.6-22.4,3.2-33.7,4.7
		c-6.2,0.9-12.4,1.7-18.6,2.6l-2.4,0.3c-1.6,0.2-2.5,2.3-2.1,3.7C789.4,228.3,791,228.8,792.6,228.6L792.6,228.6z"/>
	<path class="st0" d="M829.5,372.5l592.5-18.7l293.9-7.6c5.4-0.1,6,7.9,0.6,8.5L1422,388.5c0,0-547.6,51.9-575.2,58.6
		c-13.3,4.8-55.2,33.3-101.3,38.4C681.7,492.5,829.5,372.5,829.5,372.5L829.5,372.5z"/>
	<path class="st1" d="M829.5,375.5c14-0.4,28-0.9,41.9-1.3c35.1-1.1,70.3-2.2,105.4-3.3c46.1-1.5,92.2-2.9,138.2-4.4
		c46.8-1.5,93.7-3,140.5-4.4c37.4-1.2,74.8-2.4,112.2-3.5c17.7-0.6,35.5-1.1,53.2-1.7c19-0.6,38-1,56.9-1.5
		c45.8-1.2,91.6-2.4,137.3-3.6c32.3-0.8,64.7-1.7,97-2.5c0.9,0,8.1-0.3,4.2,2.4c-1.3,0.9-5.2,0.6-6.7,0.8
		c-13.4,1.5-26.9,3.1-40.3,4.6c-44.9,5.2-89.7,10.3-134.6,15.5c-35.1,4-70.1,8.1-105.2,12.1c-10.2,1.2-20.5,2.1-30.7,3.1
		c-31.7,3-63.4,6.1-95.2,9.1c-45.8,4.4-91.5,8.9-137.3,13.3c-48.3,4.7-96.6,9.5-144.9,14.4c-39.4,4-78.7,8-118.1,12.4
		c-12.7,1.4-25.5,2.8-38.2,4.4c-6.3,0.8-13.1,1-19.2,2.8c-4.2,1.2-8.3,3.7-12.2,5.8c-6.1,3.2-12.2,6.4-18.4,9.5
		c-17.2,8.5-35,16-53.8,20.2c-7,1.6-14.3,3.2-21.5,3.1c-2.3,0-4.8-0.3-6.5-1.4c-0.8-0.5-1.2-1.4-1.2-2.8c0-1.8,0.8-4,1.6-5.9
		c3-6.5,7.6-12.4,12.2-17.9c6.3-7.5,13-14.7,20-21.6c14.1-14.2,29-27.6,44.2-40.7c7-6,14-12,21.2-17.9c3-2.4-1.3-6.7-4.2-4.2
		c-23.6,19.2-46.6,39.5-68,61.2c-11.4,11.6-25.1,24.6-31.3,40c-1.7,4.2-2.7,9.6,0.6,13.3c3.7,4.2,10.4,4.2,15.5,3.8
		c35-3,65.9-20.1,96.7-35.5c6.9-3.5,13.7-4.3,20.9-5.2c29.8-3.9,59.8-6.9,89.7-10c45.5-4.8,91-9.3,136.5-13.9
		c49.2-4.9,98.4-9.7,147.5-14.5c40.9-4,81.8-7.9,122.7-11.8c20.6-2,41.3-4,61.9-5.9c17.7-1.7,35.4-4,53.1-6.1l138-15.9
		c33.6-3.9,67.1-7.7,100.7-11.6c2.4-0.3,5.4-0.3,7.6-1.4c4.8-2.4,5.1-9.6,0.6-12.5c-1.5-1-3.2-1.1-5-1.2c-9.7-0.1-19.4,0.5-29.1,0.8
		c-43.4,1.1-86.7,2.2-130.1,3.4c-39.5,1-79,2-118.6,3.1l-30.7,0.9l-84.6,2.7c-43.6,1.4-87.2,2.8-130.8,4.1
		c-48.4,1.5-96.8,3.1-145.1,4.6c-42.5,1.3-85.1,2.7-127.6,4c-26.1,0.8-52.2,1.6-78.3,2.5l-10.7,0.3
		C825.7,369.6,825.6,375.6,829.5,375.5L829.5,375.5z"/>
	<path class="st0" d="M1007.7,458.1c-6.7,46.2,37.5,66.2,83.8,66.2s90.5-22.9,83.8-66.2c-5.6-36.1-37.5-66.2-83.8-66.2
		S1012.9,421.9,1007.7,458.1z"/>
	<path class="st1" d="M1004.8,457.3c-1.2,8.1-1.1,16.4,1.2,24.4c2,7,5.5,13.4,10.2,18.9c9.9,11.6,24.4,18.4,38.8,22.2
		c16.6,4.4,34.3,5.6,51.3,3.7c16.5-1.8,33.2-6.3,47.2-15.6c12.4-8.2,22.2-20.5,24.7-35.4c2.6-15.6-1.9-32.1-9.8-45.5
		c-8.1-13.8-20.4-24.9-34.8-31.8c-16.4-7.9-35.1-10.7-53.2-8.7c-17.2,1.9-33.7,8.1-47.3,19c-12.1,9.7-21.3,23.1-25.8,37.9
		C1006.1,450,1005.3,453.6,1004.8,457.3c-0.2,1.6,0.4,3.2,2.1,3.7c1.4,0.4,3.5-0.5,3.7-2.1c0.5-3.7,1.3-7.3,2.4-10.9
		c0.5-1.7,1.1-3.4,1.8-5.1c0.6-1.6,1.1-2.7,2-4.5c3.2-6.7,7.2-12.5,12.1-17.8c10.6-11.5,24.4-19.2,39.6-23
		c16.7-4.2,34.8-3.7,51.3,1.4c7.5,2.4,14.4,5.6,21.1,10.1c3.2,2.2,5.7,4.1,8.6,6.8c2.8,2.5,5.4,5.3,7.8,8.2
		c8.8,10.8,14.9,25.1,15.8,39.2c0.1,1.9,0.1,3.7,0,5.6c0,0.9-0.1,1.8-0.2,2.6c0,0.2,0,0.4-0.1,0.6c0-0.1-0.1,0.9-0.1,0.5
		c0,0-0.1,0.8-0.2,1.1c-0.3,1.8-0.7,3.5-1.2,5.2c-0.2,0.8-0.5,1.6-0.8,2.4c-0.1,0.4-0.3,0.8-0.4,1.2c-0.1,0.2-0.1,0.4-0.2,0.5
		c0,0-0.4,0.9-0.1,0.3c-1.3,3.1-3,6.1-5,8.9c-0.6,0.9-0.6,0.9-1.2,1.6c-0.5,0.7-1.1,1.3-1.7,2c-1.2,1.3-2.4,2.6-3.7,3.8
		c-5.1,4.8-11.3,8.6-18,11.7c-6.8,3.2-14.7,5.6-22.4,7.2c-15.8,3.3-33.3,3.4-49.1,0.9c-7.7-1.2-15.3-3.1-22.6-6
		c-1.9-0.7-2.9-1.2-4.8-2c-1.7-0.8-3.3-1.6-4.9-2.5c-1.5-0.8-3-1.7-4.5-2.7c-0.7-0.5-1.4-0.9-2.1-1.4c-0.3-0.2-0.6-0.5-0.9-0.7
		c-0.1-0.1-1.1-0.8-0.8-0.6c-2.7-2.1-5.2-4.4-7.4-7c-0.5-0.6-1-1.1-1.4-1.7c0,0-0.5-0.7-0.3-0.4s-0.1-0.2-0.2-0.3
		c-0.3-0.4-0.6-0.8-0.8-1.1c-0.9-1.3-1.8-2.7-2.6-4.1c-3.2-5.7-5-12.6-5.3-19.1c-0.1-1.8-0.1-3.7,0-5.5c0-1,0.1-1.9,0.2-2.9
		c0.1-0.9,0.2-2.1,0.3-2.7c0.2-1.6-0.4-3.2-2.1-3.7C1007.1,454.8,1005,455.7,1004.8,457.3L1004.8,457.3z"/>
	<path class="st0" d="M1025.4,458.1c-5.3,36.5,29.6,52.2,66.1,52.2s71.4-18,66.1-52.2c-4.4-28.5-29.6-52.2-66.1-52.2
		S1029.5,429.6,1025.4,458.1z"/>
	<path class="st1" d="M1022.5,457.3c-0.9,6.5-0.9,13.1,0.9,19.5c1.6,5.6,4.4,10.7,8.2,15.2c7.8,9.2,19.4,14.7,30.9,17.8
		c13.1,3.5,27.3,4.4,40.8,3c13.2-1.4,26.5-5.1,37.6-12.5c9.9-6.6,17.8-16.4,19.7-28.4c2-12.4-1.5-25.6-7.9-36.3
		c-6.4-10.9-16.2-19.7-27.6-25.2c-13-6.3-27.9-8.5-42.2-7c-13.8,1.5-27,6.4-37.9,15.1c-9.7,7.7-17,18.4-20.6,30.3
		C1023.5,451.5,1022.9,454.4,1022.5,457.3c-0.2,1.6,0.4,3.2,2.1,3.7c1.4,0.4,3.5-0.5,3.7-2.1c0.4-2.9,1-5.7,1.9-8.4
		c0.4-1.4,0.9-2.7,1.4-4.1c0.1-0.3,0.3-0.7,0.4-1c0.1-0.1,0.1-0.3,0.2-0.4c0,0.1-0.1,0.3,0,0c0.3-0.7,0.6-1.4,1-2.1
		c1.2-2.6,2.7-5.1,4.3-7.5c1.7-2.4,3.1-4.2,5.2-6.5c8.3-8.9,18.9-14.9,30.7-17.9c13.1-3.3,27.3-3,40.2,1.1
		c5.8,1.8,11.2,4.3,16.4,7.8c4.7,3.1,9,7,12.8,11.6c0.9,1.1,1.4,1.8,2.4,3.1l2.4,3.6c0.7,1.2,1.4,2.5,2.1,3.8
		c0.3,0.6,0.6,1.3,0.9,1.9c0.1,0.3,0.3,0.6,0.4,0.8s0.2,0.4,0.2,0.6c-0.1-0.3,0,0,0.1,0.1c1.1,2.7,2,5.4,2.7,8.2
		c0.7,3,1.2,5.5,1.4,8.4c0.1,1.5,0.1,3,0,4.5c0,0.7-0.1,1.3-0.1,2c0,0.4-0.1,0.7-0.1,1.1c0.1-0.5-0.1,0.6-0.1,0.7
		c-0.4,2.7-1.2,5.4-2.3,7.9c0.2-0.4-0.1,0.2-0.2,0.3c-0.1,0.3-0.3,0.6-0.4,0.9l-0.9,1.8c-0.7,1.2-1.4,2.3-2.1,3.4
		c-0.2,0.3-0.4,0.5-0.6,0.8c0,0-0.3,0.4-0.1,0.2c0.2-0.3-0.2,0.2-0.2,0.3c-0.4,0.5-0.9,1-1.3,1.6c-0.9,1-1.9,2-2.9,2.9
		c-2.2,2.1-3.8,3.3-6.3,4.9s-5.1,3-7.7,4.3c-5.2,2.5-11.5,4.4-17.5,5.7c-12.3,2.6-26,2.7-38.3,0.8c-6.1-1-12.1-2.5-17.8-4.7
		c-2.4-0.9-4.9-2-7.4-3.4l-3.6-2.1c-0.5-0.3-1.1-0.7-1.6-1.1c-0.3-0.2-0.6-0.4-0.8-0.6c-0.1-0.1-0.9-0.7-0.6-0.4
		c-2.1-1.6-4.1-3.5-5.8-5.4c-0.4-0.5-0.8-0.9-1.2-1.4l-0.3-0.3c0.3,0.4,0,0,0-0.1c-0.2-0.3-0.4-0.6-0.7-0.9
		c-0.8-1.1-1.4-2.2-2.1-3.3c-2.4-4.3-3.8-9.7-4.1-14.6c-0.1-1.5-0.1-2.9,0-4.4c0-0.8,0.1-1.6,0.2-2.4c0.1-0.7,0.2-1.5,0.2-2
		c0.2-1.6-0.4-3.2-2.1-3.7C1024.8,454.8,1022.7,455.7,1022.5,457.3L1022.5,457.3z"/>
	<ellipse class="st3" cx="1091.5" cy="460.5" rx="12" ry="11.9"/>
	<path class="st0" d="M874.8,588.1c7.1,0,12.9-5.8,12.9-12.9v-53.3c0-7.1-5.8-12.9-12.9-12.9c-7.1,0-12.9,5.8-12.9,12.9v53.3
		C862,582.4,867.7,588.1,874.8,588.1z"/>
	<path class="st1" d="M874.8,591.1c5.5,0,10.7-3,13.6-7.7c1.6-2.7,2.3-5.7,2.3-8.8v-51.1c0-2,0-4.1-0.6-6.1
		c-1.6-5.2-5.8-9.4-11.1-10.8c-5.4-1.5-11.3,0.1-15.3,4c-3.1,3-4.7,7.2-4.8,11.5c-0.1,11.1,0,22.2,0,33.3v20.2
		c0.2,5.5,3.2,10.7,7.9,13.4C869.3,590.4,872.1,591.1,874.8,591.1c3.9,0.1,3.9-5.9,0-6c-2.1,0-3.8-0.5-5.7-1.8
		c-1.4-0.9-2.9-2.9-3.5-4.4c-0.7-1.8-0.7-3.1-0.7-5V524c0-1.2-0.1-2.4,0.1-3.5c0.2-1.6,1.1-3.7,2.3-5c1.5-1.7,3-2.6,5-3.1
		c3.8-1,8,0.3,10.5,3.6c-0.2-0.3,0.2,0.2,0.2,0.3c0.1,0.2,0.3,0.5,0.4,0.7s0.3,0.5,0.4,0.7c0,0.1,0.3,0.7,0.2,0.3
		c0.4,1.1,0.7,2.2,0.7,3.1V575c0,1.3-0.3,2.8-0.7,3.8c-0.8,1.9-2.2,3.5-3.7,4.5c-1.7,1.1-3.5,1.6-5.4,1.6
		C871,585.1,871,591.1,874.8,591.1L874.8,591.1z"/>
	<path class="st0" d="M941.5,589.1c7.1,0,12.9-5.8,12.9-12.9v-53.3c0-7.1-5.8-12.9-12.9-12.9c-7.1,0-12.9,5.8-12.9,12.9v53.3
		C928.6,583.3,934.4,589.1,941.5,589.1z"/>
	<path class="st1" d="M941.5,592.1c5.5,0,10.7-3,13.6-7.7c1.6-2.7,2.3-5.7,2.3-8.8v-51.1c0-2,0-4.1-0.6-6.1
		c-1.6-5.2-5.8-9.4-11.1-10.8c-5.4-1.5-11.3,0.1-15.3,4c-3.1,3-4.7,7.2-4.8,11.5c-0.1,11.1,0,22.2,0,33.3v20.2
		c0.2,5.5,3.2,10.7,7.9,13.4C936,591.3,938.7,592,941.5,592.1c3.9,0.1,3.9-5.9,0-6c-2.1,0-3.8-0.5-5.7-1.8c-1.4-0.9-2.9-2.9-3.5-4.4
		c-0.7-1.8-0.7-3.1-0.7-5V525c0-1.2-0.1-2.4,0.1-3.5c0.2-1.6,1.1-3.7,2.3-5c1.5-1.7,3-2.6,5-3.1c3.8-1,8,0.3,10.5,3.6
		c-0.2-0.3,0.2,0.2,0.2,0.3c0.1,0.2,0.3,0.5,0.4,0.7s0.3,0.5,0.4,0.7c0,0.1,0.3,0.7,0.2,0.3c0.4,1.1,0.7,2.2,0.7,3.1V576
		c0,1.3-0.3,2.8-0.7,3.8c-0.8,1.9-2.2,3.5-3.7,4.5c-1.7,1.1-3.5,1.6-5.4,1.6C937.6,586.1,937.6,592.1,941.5,592.1L941.5,592.1z"/>
	<path class="st0" d="M851.4,329c0,86-76.2,166.2-155.2,166.2C620,495.2,540,415,540,329s69.7-155.7,155.7-155.7
		S851.4,243,851.4,329z"/>
	<path class="st1" d="M848.4,329c0,16.8-3,33.4-8.4,49.3c-5.4,15.8-13.2,30.8-22.8,44.5c-9.5,13.5-21,25.7-33.8,36.2
		c-12.4,10-26.3,18.4-41.1,24.2c-14.6,5.7-30,9-45.7,9.1c-15.2,0.1-30.2-3.2-44.3-8.6c-14.8-5.7-28.7-13.9-41.1-23.6
		c-13-10.2-24.8-22.2-34.7-35.6c-10-13.4-18.2-28.2-24-43.9c-5.8-15.6-9.2-32.2-9.5-48.9c-0.3-15.8,1.9-31.6,6.5-46.7
		c4.4-14.6,11-28.4,19.4-41c8.4-12.5,18.6-23.6,30.2-33.2c11.6-9.5,24.6-17.3,38.4-23c14.4-5.9,29.6-9.6,45.1-10.9
		c15.8-1.3,31.8-0.2,47.3,3.3c14.9,3.4,29.2,9.1,42.4,16.8c13.1,7.6,24.9,17.1,35.2,28.2c10.3,11,18.8,23.6,25.5,37.1
		c6.8,13.8,11.3,28.7,13.6,43.9C847.9,313.7,848.4,321.3,848.4,329c0,3.9,6,3.9,6,0c0-16.3-2.5-32.7-7.5-48.2
		c-4.8-15-11.8-29.3-20.8-42.2c-8.9-12.7-19.6-24.2-31.7-33.8c-12.4-9.8-26.2-17.8-40.9-23.6c-15-5.9-31-9.4-47.1-10.5
		c-16.4-1.1-33,0.4-49,4.3c-15.3,3.8-30,9.9-43.5,18.1c-13.3,8.1-25.5,18.1-36,29.7s-19.3,24.8-25.9,39
		c-6.8,14.7-11.4,30.2-13.5,46.3c-2.3,16.9-1.7,34,1.7,50.7c3.4,16.9,9.7,33.2,18.1,48.2c8.4,15.1,18.9,29.1,31.1,41.5
		c11.9,12,25.3,22.6,40.1,30.9c14,7.9,29.2,13.9,45.1,16.9c15.7,2.9,31.7,2.7,47.3-0.6c16-3.3,31.4-9.6,45.5-18
		c14.5-8.7,27.8-19.5,39.3-31.9c11.7-12.7,21.8-26.9,29.6-42.3s13.5-32,16.3-49.1c1.4-8.3,2.1-16.7,2.1-25.2
		C854.4,325.1,848.4,325.1,848.4,329L848.4,329z"/>
	<path class="st2" d="M690.9,312.5l-65.8,4.6l6.4-33.1h59.4L690.9,312.5z M584.5,304.3l31.1,12.7l7.4-33l-34.2-5.6
		c-3.9-0.6-7.5,2.2-7.8,6.1l-1,12.3C579.7,300.1,581.5,303.1,584.5,304.3z M700.5,312.2l65.8,4.5l-6.4-33h-59.4L700.5,312.2z
		 M806.9,304l-31.1,12.7l-7.4-33l34.2-5.6c3.9-0.6,7.5,2.2,7.8,6.1l1,12.3C811.7,299.7,809.9,302.8,806.9,304z"/>
	<path class="st1" d="M561.9,411.2c13.3,6,26.9,11.2,40.8,15.5c15.4,4.8,31,8.5,46.9,11.1c17.6,2.8,35.4,4.2,53.2,3.9
		c19.3-0.3,38.7-2.4,57.6-6.4c21.1-4.4,41.6-11.1,61.4-19.7c2.6-1.1,5.1-2.3,7.7-3.4c1.5-0.7,1.8-2.8,1.1-4.1
		c-0.9-1.5-2.6-1.8-4.1-1.1c-19.3,8.9-39.6,16-60.3,20.9c-18.7,4.4-37.8,7-57,7.6c-17.4,0.6-35-0.3-52.2-2.7
		c-16-2.2-31.8-5.7-47.3-10.3c-7.1-2.1-14.2-4.4-21.2-7c-3.4-1.2-6.7-2.5-10-3.8c-1.6-0.6-3.2-1.3-4.8-1.9c-0.4-0.2-0.8-0.3-1.2-0.5
		s-0.1,0-0.6-0.3c-0.8-0.3-1.6-0.7-2.5-1.1c-1.5-0.7-3-1.3-4.5-2s-3.2-0.4-4.1,1.1C560.1,408.4,560.4,410.5,561.9,411.2L561.9,411.2
		z"/>
	<path class="st0" d="M1803.1,706v-876.2H2251l-93.1-28.3L420.4-199l-124.7,28.3l370.5,0.5V706l-416.5-0.5l68.7,28.3l1845.3,0.5
		l67-28.8L1803.1,706z M1774.8,547.4V706H694.5v-876.2h1080.3V547.4z"/>
	<g>
		<path class="st1" d="M318.3,737.3h382.8c80.5,0,161,0,241.5,0.1c88.8,0,177.5,0,266.3,0.1c89,0,178,0,267,0.1
			c83.5,0,167.1,0,250.6,0.1H2089c23.9,0,47.8,0.3,71.6,0h3.2c4.4,0,4.4-6.8,0-6.8H1781c-80.5,0-161,0-241.5-0.1
			c-88.8,0-177.5,0-266.3-0.1c-89,0-178,0-267-0.1c-83.5,0-167.1,0-250.6-0.1H393.2c-23.9,0-47.8-0.3-71.6,0h-3.2
			C313.9,730.5,313.9,737.3,318.3,737.3z M295.7-167.3h37c29.5,0,58.8,0.1,88.3,0.1c35.6,0,71.2,0.1,106.8,0.1
			c30.9,0,61.8,0.1,92.7,0.1H651c4.5,0,10,0.9,14.4,0h0.7l-3.4-3.4v876.1l3.4-3.4h-41.3c-33.2,0-66.4-0.1-99.6-0.1
			c-40,0-80.1-0.1-120.2-0.1c-34.7,0-69.5-0.1-104.2-0.1h-34c-5.4,0-11-0.3-16.4,0h-0.7c-4.4,0-4.4,6.8,0,6.8H291
			c33.2,0,66.4,0.1,99.6,0.1c40,0,80.1,0.1,120.2,0.1c34.7,0,69.5,0.1,104.2,0.1h34c5.4,0,11,0.3,16.4,0h0.7c1.8,0,3.4-1.6,3.4-3.4
			v-876.2c0-1.8-1.6-3.4-3.4-3.4h-37c-29.5,0-58.8-0.1-88.3-0.1c-35.6,0-71.2-0.1-106.8-0.1c-30.9,0-61.8-0.1-92.7-0.1h-30.5
			c-4.8,0-9.6-0.3-14.4,0h-0.7C291.2-174.1,291.2-167.3,295.7-167.3L295.7-167.3z M176.6-167.3h64.6c4.4,0,4.4-6.8,0-6.8h-64.6
			C172.2-174.1,172.2-167.3,176.6-167.3z M2157.9-201.9h-360.4c-75.7,0-151.6,0-227.3-0.1c-83.5,0-167.1,0-250.6-0.1
			c-83.8,0-167.5,0-251.3-0.1c-78.7,0-157.3,0-235.9-0.1H491c-22.4,0-45-0.3-67.4,0h-2.9c-4.4,0-4.4,6.8,0,6.8H781
			c75.7,0,151.6,0,227.3,0.1c83.5,0,167.1,0,250.6,0.1c83.8,0,167.5,0,251.3,0.1c78.7,0,157.3,0,235.9,0.1h341.4
			c22.4,0,45,0.3,67.4,0h2.9C2162.2-195.1,2162.2-201.9,2157.9-201.9L2157.9-201.9z M2282.7-166.8h21.3c1.8,0,3.5-1.6,3.4-3.4
			c-0.1-1.8-1.5-3.4-3.4-3.4h-21.3c-1.8,0-3.5,1.6-3.4,3.4C2279.4-168.4,2280.8-166.8,2282.7-166.8z M2230.7,702.6h-410.2
			c-5.2,0-11.4-0.9-16.7,0h-0.8l3.4,3.4v-876.4l-3.4,3.4h429.7c5.8,0,11.7,0.3,17.3,0h0.8c4.4,0,4.4-6.8,0-6.8h-429.7
			c-5.8,0-11.7-0.3-17.3,0h-0.8c-1.8,0-3.4,1.6-3.4,3.4v876.2c0,1.8,1.6,3.4,3.4,3.4h410.2c5.6,0,11.1,0.3,16.7,0h0.8
			C2235.1,709.5,2235.1,702.6,2230.7,702.6L2230.7,702.6z M697.9,547.4v-706.8c0-2.9,0.6-6.5,0-9.4c-0.1-0.3,0-0.8,0-1.2l-3.4,3.4
			h1064.1c4.8,0,9.7,0.5,14.4,0c0.6-0.1,1.2,0,1.8,0l-3.4-3.4v876.2l3.4-3.4H710.7c-4.8,0-9.7-0.5-14.4,0h-1.8l3.4,3.4V547.4
			c0-4.4-6.8-4.4-6.8,0V706c0,1.8,1.6,3.4,3.4,3.4H1731c13.9,0,28,0.2,42.1,0h1.8c1.8,0,3.4-1.6,3.4-3.4v-833.5
			c0-13.6,0.2-27.3,0-40.9v-1.8c0-1.8-1.6-3.4-3.4-3.4H738.3c-13.9,0-28-0.2-42.1,0h-1.8c-1.8,0-3.4,1.6-3.4,3.4v688.3
			c0,9.3-0.5,18.7,0,27.9v1.2C691.1,551.7,697.9,551.7,697.9,547.4L697.9,547.4z"/>
	</g>
	<path class="st0" d="M2131.3,50.7h-461.7v-156.6h461.7V50.7z"/>
	<path class="st0" d="M1669.6-105.9h461.7V50.7h-461.7v-95.4L1669.6-105.9L1669.6-105.9z"/>
	<path class="st1" d="M1669.6-102.8h443.1c6,0,12,0.3,18,0h0.8l-3.1-3.1V50.7l3.1-3.1h-461.6l3.1,3.1v-156.6c0-4-6.1-4-6.1,0V50.7
		c0,1.6,1.4,3.1,3.1,3.1h461.7c1.6,0,3.1-1.4,3.1-3.1v-156.6c0-1.6-1.4-3.1-3.1-3.1h-443.1c-6,0-12-0.1-18,0h-0.8
		C1665.6-108.9,1665.6-102.8,1669.6-102.8L1669.6-102.8z"/>
	<path class="st3" d="M1984.5,32.2h-109c-3.1,0-5.5-2.4-5.5-5.5V-82.5c0-3.1,2.4-5.5,5.5-5.5h109c3.1,0,5.5,2.4,5.5,5.5V26.8
		C1989.9,29.8,1987.5,32.2,1984.5,32.2z"/>
	<path class="st0" d="M1951-40.3c0.4,0.5-23.9,16.8-25.8,17.1c-1.9,0.4-26.8-7.6-27.6-7.7c-0.7-0.1,4.9-4,5.7-4.5
		C1904.3-35.5,1950.6-40.7,1951-40.3z"/>
	<path class="st0" d="M1975.1-52.4c-1.1-1.7-3.9-5-11.2-3.3c0,0-5.4-3.4-10.4-0.1s-63.4,50.3-62.7,52.4c0.5,2,2.9,4.9,4.2,5.2
		s18.6-5.4,43.2-21.8C1960.6-34.8,1977.4-48.9,1975.1-52.4L1975.1-52.4z"/>
	<path class="st0" d="M1894.9,1.8l-14.6-6.3l5.3-3.9l17.9-1.3L1894.9,1.8z"/>
	<path class="st3" d="M2071.1-12.9h-41.4c-0.6,0-1.2-0.5-1.2-1.2v-25.1c0-0.6,0.5-1.2,1.2-1.2h41.4c0.6,0,1.2,0.5,1.2,1.2v25.1
		C2072.3-13.4,2071.8-12.9,2071.1-12.9z"/>
	<path class="st3" d="M2095.9-27.5l-23.6-24c-0.7-0.7-2-0.2-2,0.8v48c0,1,1.3,1.6,2,0.8l23.6-24C2096.3-26.2,2096.3-27,2095.9-27.5
		L2095.9-27.5z"/>
	<path class="st2" d="M1702.2-75.4h126.1v11.2h-126.1V-75.4z M1702.2-32.6h81.4v11.2h-81.4V-32.6z M1702.2,10.1h31.5v11.2h-31.5
		V10.1z M1760.1,10.1h68.1v11.2h-68.1V10.1z"/>
	<path class="st1" d="M2061.4-106.1v-134.5c0-6.2,0.2-12.4,0-18.6v-0.3c0-4-6.1-4-6.1,0V-125c0,6.2-0.2,12.4,0,18.6v0.3
		C2055.3-102.2,2061.4-102.2,2061.4-106.1z M1745.9-105.9v-134.5c0-6.2,0.2-12.4,0-18.6v-0.3c0-4-6.1-4-6.1,0v134.5
		c0,6.2-0.2,12.4,0,18.6v0.3C1739.8-102,1745.9-102,1745.9-105.9L1745.9-105.9z"/>
</g>
<g>
	<g transform="translate(1429.2 644.4) rotate(0.0 366.6 774.0) scale(1.2669383015561986 1.2663747242076364)">
		<path class="st3" d="M434.2,741.1c29.2,2.6,57.5-8.9,85.6-16.9c19.7-5.5,31.9-0.3,51.5,3.6c8.5,1.7,26.1-4,33.4,0.8
			c-35.1-99.5-59.5-255-60.5-360.5l7.5-15.4c20.7,54.6,38.9,149.6,46.9,207.5c26.8-2.5,43.5,11.8,65.9,11.1
			c22.4-0.7,45.4-9.2,58.7-27.2c6.4-8.7,5.7-22.9,14.3-29.4c4.9-3.7,16.4-8.9,14.3-13.8c-28.3-67.1-60-132.6-95.1-196.3
			c-6.5-11.8-13.2-23.8-21.9-34.2c-14.9-17.9-34.8-30.6-54.4-43c-16.4-10.5-33.4-21.2-52.5-25.2c-19.1-4.2-42.1,7.6-55.2,22.2
			l-32.4,23C440.6,247.2,436.3,731.7,434.2,741.1L434.2,741.1z"/>
		<path class="st0" d="M132.2,839c0,0-63.3,8.2-89,35.4l28.9,78.3l52.4,117.5l28.5,4.2l27.3-3.1l3.2-19.5l-23.3-27.1l-4.2-64.1
			l16.8-33.1L148,846L132.2,839z M309.4,960.8l-16.8,83.4l2.6,18.6l8,9.6l105,3.9l111.1-0.6l12.6-4.8l0.7-22.1l-6.1-13.3
			l-105.3-37.4l-32.4-33L309.4,960.8z"/>
		<path class="st2" d="M506.9,650.2c-13.5-127.7-24.6-202.7-24.6-202.7c12.3-67.1,15.1-140.5,9.2-208.6l-76.3-11.1l-129.3,18.4
			c-22.2,54.1-6.5,104,10.1,151.5l32.9,94.4l-1-0.8c2.5,37,8.7,87.1,12.9,112.6c0.6,4,1.4,8,1.2,11.9c-0.2,4.2-1.4,8.4-2.3,12.5
			c-3.8,15.2-4.3,15.8-9.2,38l0.9,0.1c-6.6,3.6-13.5,6.6-19.9,10.5c-66,39.9-66.2,82.9-106,120.2c-2.7,2.5-5.9,5.1-9.5,4.9
			c-3.2-0.2-5.9-2.5-9-3.4c-9.1-2.5-15.3,11-20.4,19c-5.2,8-33.3,2.7-38,16.2c28.3,34.4,43.6,101.4,43.6,101.4
			c35.3-21.3,85.8-57,112.9-80.4c9.7-8.5,19.6-16.9,29.5-25.1c-2.4,48.7,3.5,61-10.9,88.9c-1.7,3.2-3.5,6.5-3.8,10.2
			c-0.4,5.3,2.5,10.7,1.3,15.8c-1.4,5.5-7.3,11.8-3.1,15.8c1.5,1.4,3.7,1.6,5.7,1.8c29.8,2.2,59.7,4,89.5,5.2
			c2.3,0.1,4.9,0.1,6.7-1.5c2.1-1.8,2.1-4.9,2-7.7c-0.8-30.7,6.6-61,14-90.9c11.6-46.8,22.4-95.1,34-141.9v-0.3
			c6.3-4.6,12.9-9.4,19.8-14.4c6.6-4.8,27.1-12.4,38.2-32C511.8,670.8,507.8,659,506.9,650.2L506.9,650.2z"/>
		<path class="st0" d="M533.3,202c-7.7-22.8-7.7-85-13.5-98.5c-2.2-5.1-18.4-34.4-23.3-88.7l12.7-32.5c0.8-3.8,1-6.6,1-8.7
			c0.1-8-3.5-15.5-7-22.7c-10.9-22.3-22.7-48.2-34-73.2l-1-5.1l10.6,26.6c-0.7-24.4-0.6-29.9-1.9-54.2c-1.3-23.3-25.3-35.1-39.4-37
			c3.6,9,1,21.7-7.6,25.9c-8.7,4.3-19,3.5-28.3,1c-20.5-5.2-47.5-27.1-60.1-44.2c-41.9-7.4-60.9,17.5-71.4,38.2
			c-10.5,20.6-12.4,40.6-23.3,71.4c-17.8,48.8-33.8,93.9-54.4,141.5c-20.8,48.1-31.2,76.3-51.6,124.6c-26,61.5-37.1,57.8-42,87.3
			l64.1,34.4c30.1-40.7,72.4-102.8,101-153.2v0.5c3.5,22.2-5.5,46.9-11.1,65c-4.9,16.2-6.2,23.7,8.6,35.9
			c14.2,11.8,14.8,11.1,45.7,5.9c25.8-4.3,52-5.7,78-8.5c27.3-2.9,55.2-5.9,82,0c10.6,2.3,25.8,3.8,31.7,1.3
			c4.4-1.9,25.4-19.7,29.8-28.3L533.3,202z M134.8,362.4c2.4-10.6,6.8-21,9.8-31.4c4.7-16.3,6.6-32,4.4-48.9l-44.3-20.9
			c-4.6,8.8-11,19.1-17.5,26.5c-3.7,4.2-7.5,8.2-10.5,12.9c-7.6,12.4-7.1,28-6.1,42.4c0.8,12.7,2.9,27.1,13.3,34.3
			c7.7,5.4,19.9,3.7,29.3,3.2l-1.3-53c1.3,13.5,2.4,36.5,3.5,48.9c0.7,8.3,2.6,18.2,10.4,21.4c2,0.7,4.3,0.9,6.1-0.1
			c4.1-2.4,2.8-8.4,1.9-13c-0.7-3.5-0.9-7-0.8-10.5l2.4,3.8c3.7,0,7.5-0.8,9.8-1.3C151.9,375.8,158.5,366.9,134.8,362.4L134.8,362.4
			z M574.6,291.9c-5.7-1.3-8.7,0.3-9.3,2.5l19.7,16c3.7,0,9.3,0.2,9.8-3.7C596.1,298.1,581.7,293.4,574.6,291.9z M532.1,340
			c-1,0.5-6.2,4.9,2.5,16c2.1,2.6,5,7.4,8.1,9s11.7-1.6,9.2-11.4C551.8,353.5,538.8,336.3,532.1,340z"/>
		<path class="st0" d="M570.2,301.8c-4-3.9-6.2-6.2-9.8-12.4c-1.5-2.4-3.7-5.1-5.8-7.1c-4.1-4-10.3-0.3-9.1,5.9v1.7
			c-2.2-5-3.2-9.9-8.6-9.1c-7.4,1.3-4.9,13.5-0.5,25.2l0.1,0.3c-0.3-0.6-0.5-1.2-0.8-1.8c-2.9-0.7-5.9,1.7-6.8,4.5
			c-0.9,2.8-0.5,6.1,0.3,8.9c4.1,14.4,16.4,28.6,22.5,32.9c3.6,2.5,10.9,2.4,14.1-0.4s3.9-8.3,1.3-11.7c0,0-3.7-1.4-8.6-4.9l9.2,4.7
			c11.1,0,16-9.8,8.9-16.3c-1.4-1.3-3.2-1.4-5-1.9c-2.7-0.8-5.1-2.3-7.3-4.1l12,5c11.5,0.5,14.8-4.9,9.8-9.8
			C581.2,306.6,575.8,307,570.2,301.8L570.2,301.8z M433.7-195.6l9.8,19.7l-41.9,51.7c-0.5-0.9-74.2-86.1-72.8-88.2
			c-11.9-1.5-23.6-8.3-35-11.3c-2.9-0.7-5.8-1-8.7-2c-3-0.9-9.9-3.7-11-5c0.2,1.6-0.7-2.9-0.2-1.5c-0.1-3.4-0.4-5.5-1.3-8.7
			c-12.8-3.6-21.9-9.2-24.1-18.4c-0.6-2.6-5.8-8.3-5.1-11.4c0.2-0.9-0.1-5.8,0.1-6.7c1.9-6.1,7.4-3,24.8-14.7
			c9.7-6.5-5.7-30.2,14.2-44.9c9-6.7,28.4-4.8,35.3-12.1c4.7-5-2.8-19.3,1.7-24.5c7.9-8.9,15.8-18,25.4-27.1
			c16.8-15.8,34.9-19.2,52.4-20.3c17.3-1,34,0,50.6,12.9c7,5.4,23,15.8,28.7,23.5c3.1,4.2,6.8,8.4,10.8,12.4
			c4.3,4.5-8.3,22.1-4,26.6c12.3,12.7,27.4,16.4,22.6,25.1c-1.7,3-9,3.4-9.2,17.1c-0.3,19.6-5.3,44.6-6.4,48.8
			c-11.6-0.9-25.4-6.4-36.8-3.6c-0.8,0.2-1.6,0.4-2.3,0.6c-0.5,3.4-1.6,6.6-2.3,9.9c-0.9,4.2-4.5,9.5-5.5,13.7
			c-2.5,9.7-7.3,34.6-12.4,48.1"/>
		<g>
			<path class="st1" d="M435.3-187.7c7.6,16.4,15.1,32.9,22.5,49.4c8.5,18.8,17,37.7,25.7,56.4c4.2,9,8.4,18,12.7,26.9
				c2.2,4.6,4.6,9.2,6.6,13.8c2.1,4.6,3.7,9.6,3.7,14.8c0,1-0.1,2.2-0.2,3.2c0,0.3-0.1,0.6-0.1,0.9c-0.1,1.2,0.1-0.8,0,0.2
				c-0.1,0.7-0.2,1.6-0.4,2.3c-0.8,4.1-2.1,8.2-3.6,12.1c-0.5,1.3-0.9,2.5-1.5,3.8l-0.2,0.5c0-0.1,0.3-0.7,0,0
				c-0.1,0.3-0.3,0.6-0.4,0.9c-0.3,0.7-0.6,1.5-0.9,2.2c-1.5,3.4-3.1,6.6-4.8,9.7c-4.4,8.4-9.3,16.4-14.6,24.3
				c-1.6,2.5-3.2,4.9-4.9,7.3c-1.2,1.7-0.3,4.1,1.4,5c1.8,1,3.9,0.3,5-1.4c10.2-14.8,19.8-30.2,26.6-46.7c3-7.3,5.5-15.1,6-23
				c0.5-9.2-3.2-17.6-7.2-25.7c-4.3-8.9-8.6-17.8-12.8-26.8c-8.9-19-17.5-38.1-26.1-57.2c-7.7-17.3-15.5-34.4-23.5-51.6
				c-0.8-1.8-1.7-3.7-2.5-5.4c-0.8-1.8-3.5-2.3-5-1.4C434.7-191.7,434.4-189.5,435.3-187.7L435.3-187.7z"/>
			<path class="st1" d="M338-207.4c5.3,7.2,11.6,13.7,18.4,19.7c7.3,6.5,15.2,12.4,23.6,17.4c7.7,4.6,16.1,8.3,25,9.9
				c9.9,1.8,22.6,2,30.5-5.3c7.1-6.6,8.7-18.4,5.2-27.2c-0.7-1.9-2.5-3.1-4.5-2.6c-1.8,0.5-3.4,2.7-2.6,4.5
				c1.4,3.6,1.8,6.5,1.3,10.4c0-0.4-0.1,0.6-0.1,0.8c-0.1,0.4-0.2,0.9-0.3,1.4c-0.2,0.8-0.6,2-0.8,2.5c-0.3,0.7-0.6,1.4-1,2
				c-0.2,0.4-0.5,0.7-0.7,1.2c-0.4,0.5-0.1,0.2-0.6,0.7c-1.4,1.5-2,2-3.8,2.8c-2.1,0.9-4.3,1.6-6.5,2c-4.6,0.8-9.4,0.5-14-0.4
				c-16.4-3-31.1-13.1-43.8-24c-3.7-3.1-7.2-6.5-10.6-10.1c-1.6-1.7-3.1-3.4-4.6-5.1c-1-1.2-2-2.4-2.9-3.6c0-0.1-0.4-0.5-0.7-0.9
				c-1.2-1.6-3.2-2.4-5-1.4C337.8-211.5,336.8-209,338-207.4L338-207.4z"/>
			<path class="st1" d="M342.2-212.9c-16.1-2.7-33-1.7-47.2,6.9c-11,6.6-19.4,16.8-25.7,27.9c-7.6,13.5-11.9,28.3-16,43.2
				c-5.5,20.4-12.6,40.1-19.8,60c-15,41.6-30.8,82.6-48.2,123.2c-15.3,35.7-29.4,71.9-44.4,107.7c-6.9,16.5-14.1,33.1-23,48.7
				c-6.6,11.6-15.3,22.5-19.8,35.3c-1.5,4.1-2.4,8.4-3.1,12.7c-0.3,1.6,0.2,3.4,1.7,4.2l56,30.2l8,4.3c1.9,1,3.9,0.3,5-1.4
				c19.2-26,37.6-52.6,55.4-79.5c18.4-27.9,36.3-56.2,52.2-85.6c15.9-29.4,29-60.4,41.6-91.4c3.6-8.7,6.9-17.5,10.3-26.3
				c3.6-9.4,6.6-19.3,10.9-28.4c4-8.3,9-16.1,10.8-25.2C348-53,349-61.2,344.9-67c-3.7-5.1-11.8-7.6-17.4-4
				c-5.5,3.8-6.4,11.5-6,17.6c0.5,9,3.7,17.5,6.5,26c2.1,6.2,4.3,12.4,6.5,18.5c1.5,4.1,2.8,8.3,4.3,12.4c1.5,4.5,8.7,2.5,7.1-2
				c-4.7-13.9-9.9-27.6-14.2-41.8c-2-6.6-4.3-14.9-1.9-21.7c0.6-1.9,1.6-2.9,2.8-3.2c1.8-0.4,4.6,0.3,6.1,2.1c1.7,2,1.9,5,1.9,7.5
				c0,3.6-0.6,7.2-1.6,10.7c-2.3,8.4-7.4,15.6-10.8,23.6c-3.9,9-6.9,18.4-10.5,27.5c-3.2,8.5-6.6,17-9.9,25.4
				c-11.9,29.7-24.5,59.4-39.7,87.6c-15.1,28-31.9,54.9-49.2,81.5c-17.2,26.3-35,52.1-53.5,77.6c-2,2.7-4,5.4-6,8.2l5-1.4l-56-30.2
				l-8-4.3l1.7,4.2c1.4-8,3.7-15.4,7.6-22.4c3.2-5.8,6.9-11.1,10.4-16.8c7.9-12.9,14.6-26.5,20.6-40.3
				c15.5-35.4,29.2-71.5,44.1-107.1c8.3-19.8,17-39.5,25-59.4c8.1-20,15.6-40.2,23-60.4c7.4-20.3,15.3-40.5,21.8-61.1
				c5-16.1,8.4-32.9,14.7-48.6c4.6-11.3,11-22.4,19.9-31c10.2-9.7,23.5-14.7,37.6-14.6c4.5,0,9,0.4,13.4,1.2
				C344.9-204.9,346.9-212,342.2-212.9L342.2-212.9z M436.4-190.3c7.2,2.1,15,5.1,20.5,9.8c2.1,1.8,4,3.8,5.8,5.9
				c0.2,0.2,0.4,0.4,0.5,0.7c0.6,0.7-0.4-0.6,0.1,0.2c0.3,0.5,0.7,0.9,1,1.5c0.7,1,1.5,2.2,2.1,3.4c0.6,1.2,1.2,2.3,1.7,3.5
				c-0.3-0.7,0.1,0.3,0.1,0.3c0.4,1,0.8,2.2,1.2,3.2c1,3.1,1.7,6.4,2.3,9.7c1.3,8,1.6,16.4,1.8,24.6c0.3,7.6,0.4,15.3,0.7,23
				c0.1,2,1.7,3.7,3.7,3.7c1.9,0,3.8-1.7,3.7-3.7c-0.7-15.8-0.2-31.8-2.5-47.5c-0.9-6.7-2.6-13.3-5.7-19.3c-2.4-4.9-6-9.3-9.9-13.1
				c-7-6.5-16-10.3-25.1-12.9C433.8-198.7,431.8-191.6,436.4-190.3L436.4-190.3z M492.6,17.5c2.5,12.9,4.1,26,6.3,38.9
				c1.3,7.6,3.6,15.1,6.4,22.3c1.6,4.1,3.4,8.2,5.1,12.3c0.7,1.8,1.5,3.5,2.2,5.2c0.7,1.7-0.3-0.8,0.1,0.1c0.1,0.2,0.1,0.4,0.2,0.5
				c2.2,5.4,3.6,11.1,4.7,16.9c2.6,12.8,3.9,25.1,4.8,38.3c1.4,18.3,3.5,36.5,7.7,54.4c1.2,4.6,8.3,2.6,7.1-2
				c-3.7-15.5-5.9-31.2-7-47.1c-1-14.1-2.3-28.4-4.8-42.3c-1.2-6.4-2.6-12.9-4.9-19c-1.7-4.6-3.9-9.1-5.8-13.6
				c-3.1-7.5-6.1-15.2-7.7-23.1c-1.5-6.8-2.3-13.8-3.4-20.7c-1.2-7.6-2.3-15.4-3.8-22.9c-0.4-2-2.7-3-4.5-2.6
				C493.2,13.5,492.3,15.5,492.6,17.5L492.6,17.5z"/>
			<path class="st1" d="M260.1,136.5c2.9,19.9-3.9,40-9.7,58.7c-2.3,7.2-5.3,15.1-4.8,22.8c0.5,8,5.2,14.2,11.1,19.4
				c4.1,3.7,8.6,7.7,13.6,10.1c4.6,2.1,9.4,2.4,14.3,2c8.6-0.7,17.2-2.5,25.7-3.9c11.5-1.9,23-3.1,34.7-4.2
				c11.7-1.2,23.5-2.1,35.2-3.2c11.4-1.2,22.9-2.5,34.4-3.2s23.1-0.9,34.6,0.1c10.4,0.9,20.3,3.7,30.7,4.7c4.3,0.4,8.7,0.7,13.1,0.4
				c3.4-0.2,6.7-0.8,9.4-2.7c3.1-2.2,5.9-5,8.3-8.1c2.8-3.5,5.4-7.2,7.5-11.2c1.8-3.5,3.7-7.2,3.4-11.2c-0.3-4.3-2-8.4-3.7-12.3
				s-3.7-7.7-5.1-11.4c-1.9-4.8-3-10.1-4.3-15.1c-5.7-22.1-10.1-44.6-12.3-67.3c-2.1-22.6-2.1-45.5,1-68.1
				c0.7-5.7,1.8-11.3,2.9-16.9c0.4-2-0.5-4-2.6-4.5c-1.8-0.5-4.2,0.6-4.5,2.6c-4.5,22.3-6.3,45.1-5.4,68c0.8,22.6,4.1,45.1,8.8,67.2
				c2.3,11,4.8,22.2,8.1,33c2.5,8.1,7.4,15,9.3,23c0.1,0.3,0.2,0.7,0.2,1c0,0.2,0.1,0.4,0.1,0.7c0-0.1-0.1-0.5,0-0.1
				c0,0.4,0.1,0.7,0.1,1.2c0,0.3-0.1,1.4,0,0.5c-0.3,1.9-0.9,3-1.7,4.6c-1.8,3.7-4.2,7.3-6.5,10.4c-1.3,1.6-2.5,3.1-4,4.6
				c-0.6,0.6-1.3,1.3-1.9,1.8c-0.3,0.2-0.6,0.5-0.8,0.7c0,0-0.4,0.4-0.1,0.1c0.4-0.3-0.3,0.2-0.3,0.2c-0.5,0.3-1,0.6-1.6,0.9
				c-0.5,0.3,0.6-0.2,0,0c-0.3,0.1-0.7,0.2-1,0.3c-0.7,0.2-1.5,0.3-2.2,0.4c0.7-0.1-0.4,0-0.6,0c-0.5,0-1,0.1-1.6,0.1
				c-8.9,0.4-17.5-1.2-26.1-2.8c-11.2-2.2-22.7-3.1-34.1-3c-22.9,0.1-45.7,3.5-68.5,5.5c-11.5,1-23,2-34.6,3.4
				c-10.9,1.3-21.8,3-32.7,4.8c-2,0.3-4,0.6-5.9,0.9l-1.3,0.2c-0.1,0-0.7,0.1-0.1,0l-0.5,0.1c-0.8,0.1-1.6,0.2-2.4,0.3
				c-2.5,0.2-4.9,0.4-7.4,0.2c-0.2,0-0.4-0.1-0.6-0.1c1.2,0.1,0.3,0,0,0c-0.5-0.1-1-0.2-1.5-0.3c-0.4-0.1-0.9-0.2-1.4-0.4
				c-0.2-0.1-0.4-0.2-0.6-0.2c-0.7-0.3,0.7,0.3,0,0c-1.9-0.9-3.8-2.1-5.4-3.4c-0.2-0.2-0.5-0.4-0.7-0.5c-0.4-0.3,0.5,0.4,0.1,0.1
				c-0.1-0.1-0.2-0.2-0.3-0.2c-0.6-0.4-1.2-0.9-1.7-1.4c-1.5-1.3-3-2.5-4.4-3.8c-1.6-1.4-3-2.8-4.3-4.4c-1-1.2-1.9-2.5-2.6-3.9
				c-0.2-0.3-0.3-0.7-0.5-1c-0.3-0.5,0.1,0.3-0.2-0.4c-0.2-0.7-0.5-1.5-0.6-2.2c-0.1-0.3-0.1-0.7-0.2-1c-0.1-0.4,0,0.2,0,0.2
				c0-0.2,0-0.4-0.1-0.6c-0.1-1.5-0.1-2.9,0.1-4.5c0-0.2,0-0.4,0.1-0.6c0,0.1-0.1,0.5,0,0.1s0.1-0.9,0.2-1.4
				c0.3-1.9,0.8-3.7,1.3-5.4c2.4-8.9,5.4-17.5,8-26.4c2.7-9.9,4.9-20.2,5.4-30.6c0.2-5,0-10.2-0.8-15.2c-0.3-2-2.8-3-4.5-2.6
				C260.5,132.6,259.8,134.5,260.1,136.5L260.1,136.5z M304.6,434.1c17.8,51.2,35.3,102.6,53.5,153.7c6.1,17.3,14.4,37.3,32.2,45.2
				c4.6,2.1,10.1,3.8,15.1,2c3.8-1.4,6.4-4.6,7.3-8.5c2-8.6-3.6-17.1-12.1-18.8c-10.6-2.2-20.7,4-28.1,11
				c-7.3,7-12.8,15.7-18.8,23.8c-6.9,9.1-15,15.6-25.1,20.9c-11.3,6-22.5,11.7-33,19.2c-19.3,13.7-35.2,30.7-48.3,50.3
				c-12.1,18.2-22.3,37.8-37.2,53.9c-2,2.2-4,4.3-6.2,6.3c-1.9,1.9-4.1,4.3-6.8,4.9c-2.6,0.6-5.1-1.4-7.4-2.3
				c-2.1-0.8-4.3-1.4-6.6-1c-8.7,1-13.6,10.5-17.7,17.2c-1.7,2.7-2.2,4.3-5.1,5.4c-2.9,1-6.2,1.5-9.3,2c-6.8,1-14.6,1.8-20.4,5.9
				c-2.8,2-4.7,4.5-6,7.6c-0.5,1.3,0.2,2.6,0.9,3.6c11.7,14.3,19.8,31.6,26.5,48.8c5.4,13.8,10.1,28.1,13.9,42.4
				c0.7,2.8,1.5,5.7,2.1,8.5c0.5,2.3,3.5,3.4,5.4,2.2c23.9-14.4,47-30.2,69.5-46.6c11-8,21.9-16.2,32.5-24.7
				c11.1-8.9,21.8-18.4,32.7-27.6c43.1-36.4,88-70.6,133.5-104c6.4-4.7,12.8-9.3,19.2-14c4.7-3.5,9.2-7.1,14.2-9.9
				c9.5-5.4,19-10.8,26.5-18.8c4.3-4.5,9.1-10.2,10.7-16.3c1.7-6.6,0.3-13.5-0.8-20.1c-2.9-17-4-34.3-6-51.4
				c-8.1-69-18-137.7-29.8-206.1c-6-34.6-12.5-69-19.4-103.3c-0.8-4.3-1.8-8.6-2.6-12.9c-0.7-3.6-1.8-7.1-1.8-10.7
				c0-1.6,0.2-5.5,2.7-5.2c1.7,0.2,2.6,3.2,3,4.5c2.2,6.8-0.1,14.3-1.2,21.3c-2.7,17.5-5.9,35-9.3,52.2c-0.9,4.6,6.2,6.6,7.1,2
				c3.7-18.2,6.9-36.5,9.7-54.9c1-6.9,2.8-13.9,1.2-20.9c-1.2-4.7-3.9-10.3-9-11.3c-6.3-1.4-10.9,4.1-11.6,9.8
				c-0.8,7.3,1.9,15.3,3.4,22.4c3.6,17.7,7,35.4,10.4,53.2c13.2,70,24.4,140.4,33.6,211.1c2.3,17.6,4.5,35.2,6.5,52.8
				c2,17,3.1,34.2,6.1,51.1c1.3,7.1,2,13.5-2,19.8c-3.6,5.7-8.4,10.5-13.6,14.6c-7.7,6-16.8,9.9-24.7,15.7
				c-47.1,34.4-94.2,68.9-139.3,106c-22.5,18.5-44.2,38.3-67.4,56c-23.2,17.7-47.1,34.4-71.7,50.2c-5.3,3.4-10.7,6.7-16,9.9l5.4,2.2
				c-6-26.1-15.1-52.2-27.2-76.1c-4.8-9.5-10.5-18.5-17.2-26.8l0.9,3.6c2-5.3,9.7-6.5,14.4-7.3c6.1-1.2,12.7-1.4,18.3-4
				c6.2-2.9,8.5-10.9,12.5-16c1.8-2.4,4.5-5.8,7.9-5.4c2.2,0.2,4.2,1.8,6.2,2.5c2.4,0.9,4.9,1.4,7.4,0.8c4.8-1,8.5-4.9,11.8-8.2
				c3.9-3.9,7.6-8,11.1-12.3c6.4-7.9,11.9-16.2,17.4-24.8c11.4-18.2,22.4-36.4,37.6-51.8c7.7-7.7,16.2-14.8,25.2-20.9
				c9.7-6.7,20.1-11.9,30.6-17.4c9.2-4.9,17.4-10.8,24.1-19c6.1-7.3,11.1-15.5,17.3-22.6c5.9-6.7,14.7-14.8,24.4-13.4
				c3.9,0.5,6.8,2.8,7.5,6.7c0.6,3.4-0.6,6.6-4.4,6.8c-8.5,0.4-17.1-7.6-21.8-13.8c-5.4-7.1-9.2-15.6-12.4-23.9
				c-8.6-22.7-16.1-46-24.1-69l-25-71.9l-6.2-17.7C310.1,427.7,303,429.6,304.6,434.1z"/>
			<path class="st1" d="M282.2,245.3c-8.6,21.3-12.1,44.2-10.8,67c0.4,6.2,1.2,12.4,2,18.4c0.3,2,2.8,3,4.5,2.6
				c2.1-0.6,2.9-2.5,2.6-4.5c-3.2-20.8-2.8-42.2,2.4-62.6c1.7-6.4,3.8-12.7,6.3-18.8c0.7-1.9-0.8-4.1-2.6-4.5
				C284.7,242.2,283,243.5,282.2,245.3L282.2,245.3z M324,491.4c1.7,25.5,4.5,50.9,7.7,76.3c1.4,10.9,2.8,21.9,4.6,32.7
				c0.9,6,2.4,12.1,1.5,18.2c-0.8,5.7-2.5,11.2-4,16.8c-2.6,9.9-5,19.9-7.2,29.9c-0.4,2,0.6,4,2.6,4.5c1.9,0.5,4.1-0.6,4.5-2.6
				c2.1-9.2,4.2-18.3,6.6-27.4c1.3-4.7,2.4-9.4,3.6-14.1c0.9-3.8,1.7-7.6,1.6-11.6c0-4-0.7-7.9-1.4-11.7
				c-3.8-22.7-6.5-45.1-8.9-68.2c-1.5-14.2-2.8-28.5-3.8-42.8c-0.1-2-1.6-3.7-3.7-3.7C325.7,487.7,323.9,489.4,324,491.4z
				 M487.7,238.9c2.3,26.9,3.2,54,2.9,81c-0.4,27.4-2.1,54.9-5.3,82.1c-1.8,14.9-4,29.7-6.6,44.5c-0.3,2,0.5,4,2.6,4.5
				c1.8,0.5,4.2-0.6,4.5-2.6c4.9-26.9,8.3-54.1,10.2-81.4c2-27.4,2.5-55,1.8-82.5c-0.4-15.2-1.4-30.5-2.6-45.7
				c-0.2-2-1.6-3.7-3.7-3.7C489.6,235.3,487.5,236.9,487.7,238.9L487.7,238.9z M310.5,828.8c-0.7,15.2-0.5,30.4-0.7,45.7
				c-0.1,5.2-0.3,10.5-0.9,15.6l-0.1,0.4c0,0,0.1-0.7,0-0.3l-0.1,0.8c-0.3,1.8-0.6,3.7-1,5.4c-0.5,2.4-1.3,4.8-2,7.2
				c-0.6,1.9-1.4,3.8-2.1,5.5v-0.1c-0.2,0.5-0.5,1.2-0.7,1.7c-1.5,3.2-3.2,6.3-4.7,9.5c-1.2,2.4-2,4.9-2.3,7.5
				c-0.3,2.5,0.1,4.9,0.6,7.3c0.4,2,0.9,4.1,0.9,6.2c0,1.8-0.6,3.4-1.3,4.8c-1.6,3.4-3.8,6.9-3.7,10.8c0.1,2.2,0.9,4.2,2.5,5.8
				c1.9,1.8,4.4,2.4,6.9,2.7c5,0.6,10.2,0.7,15.2,1.2c23.7,1.7,47.4,2.9,71.2,4.1c2.3,0.1,4.7,0.3,7,0.2c2.6-0.1,4.8-0.8,6.9-2.5
				c1.6-1.3,1.3-3.9,0-5.2c-1.6-1.6-3.7-1.3-5.2,0c-0.7,0.6-2.8,0.4-4.1,0.3c-2.6-0.1-5.3-0.2-8-0.3c-25.3-1.2-50.8-2.6-76.1-4.5
				c-2.3-0.2-4.7-0.1-6.9-0.5c-0.6-0.1-1.2-0.3-1.7-0.5c0.3,0.2-0.7-0.4-0.1-0.1c-0.2-0.4-0.2-0.4-0.1,0c-0.1-0.2-0.1-0.4-0.2-0.6
				c0.2,0.8,0-0.2,0-0.4c0,0.7,0.1-0.3,0.1-0.4c0.1-0.4,0.2-0.7,0.3-1.2c0,0.1,0.4-1.2,0.2-0.6c0.7-1.8,1.7-3.5,2.4-5.1
				c0.8-2,1.6-4,1.8-6.2c0.2-2.4-0.2-4.9-0.7-7.2c-0.4-2-0.8-3.9-0.8-5.9c0-2.1,0.7-4.1,1.6-6c2.6-5.7,5.5-11.1,7.6-17
				c3.4-9.4,4.4-19.4,4.6-29.3c0.4-16.2,0-32.4,0.8-48.6c0.1-2-1.8-3.7-3.7-3.7C312,825.1,310.6,826.7,310.5,828.8L310.5,828.8z
				 M308.1,310.4c10.9,0.7,22.9,0.8,32.9-4.5c4.9-2.6,8.7-6.8,11.1-11.7c2.5-5.1,4-10.8,5.5-16.2c0.8-2.8,1.8-5.5,2.8-7.9
				c1.4-2.7,2.5-4.3,4.8-6.2c1.6-1.3,1.3-4,0-5.2c-1.6-1.6-3.7-1.3-5.2,0c-8.6,6.8-9.5,19-13.1,28.5c-0.8,2.2-1.9,4.4-3.2,6.6
				c-0.5,0.7-1.2,1.5-2,2.4c-1,1-1.6,1.5-2.6,2.2c-3.9,2.6-8.7,4-13.1,4.5c-6,0.8-12,0.6-18,0.2c-2-0.1-3.7,1.8-3.7,3.7
				C304.5,308.9,306.2,310.3,308.1,310.4L308.1,310.4z M410.3,40.8c6.1-4.9,12-9.9,17.1-16c4.8-5.9,8.7-12.4,11.8-19.3
				c2.4-5.1,4.5-10.4,6.5-15.7c0.7-1.9-0.8-4.1-2.6-4.5c-2.1-0.5-3.9,0.7-4.5,2.6c-3,7.9-6.1,15.6-10.5,22.9c-0.8,1.5-1.8,3-2.8,4.4
				c-0.6,0.9-1.4,2-2.1,2.9c0.4-0.5,0,0,0,0.1l-0.5,0.6c-2.2,2.7-4.6,5.2-7,7.5c-3.4,3.2-6.9,6.2-10.6,9.1c-1.6,1.3-1.3,3.9,0,5.2
				C406.6,42.4,408.8,42.1,410.3,40.8L410.3,40.8z M728.3,517.9c-1.9,4-2.2,8.4-3.1,12.6c-1.2,5.2-3.1,9.8-6.6,13.9
				c-6.6,7.9-15.3,13.7-24.8,17.5c-9.8,3.9-20.4,6-31,6c-9.4,0-18.5-3-27.9-5.9c-11.8-3.7-23.8-6.3-36.2-5.2l3.6,2.7
				c-3.8-26.9-8.4-53.7-13.6-80.4c-5.8-29-12.1-57.8-20.1-86.3c-3.9-13.8-8.1-27.4-13.2-40.8c-0.7-1.9-2.5-3.1-4.5-2.6
				c-1.8,0.5-3.2,2.6-2.6,4.5c9.6,25.3,16.4,51.7,22.7,78.1c6.8,28.8,12.6,57.8,17.6,86.9c2.4,14.1,4.7,28.3,6.6,42.5
				c0.2,1.5,2.1,2.8,3.6,2.7c11.1-0.9,21.6,1,32.1,4.3c9.7,2.9,19.4,6.3,29.6,6.7c5.5,0.2,11.2-0.3,16.6-1.3
				c5.3-0.8,10.7-2.2,15.8-4c10.5-3.7,20.3-9.4,28.1-17.4c4.7-4.8,8.4-10.3,10.3-16.8c0.8-2.7,1.4-5.4,1.9-8.3
				c0.2-1.2,0.4-2.4,0.7-3.6c0.1-0.4,0.2-0.9,0.4-1.4c0.1-0.2,0.2-0.5,0.2-0.7c0.2-0.7-0.3,0.6,0.1-0.1c0.8-1.8,0.5-4-1.4-5
				C731.8,515.6,729.3,516.1,728.3,517.9L728.3,517.9z M512.5,226.8c2.5-2.7,4.9-5.5,7.5-8.3c0.8-0.9,1.8-1.8,2.6-2.6
				c0.5-0.5,1.2-1,1.7-1.5c0.1-0.1,0.7-0.6,0.2-0.1c-0.5,0.4,0.5-0.3,0.7-0.5c0.3-0.2,0.7-0.5,1-0.7c0.7-0.4,1.6-0.8,2.3-1.3
				c2.1-1,4.3-2,6.5-2.9c1.8-0.8,2.3-3.5,1.4-5c-1.2-1.9-3.1-2.2-5-1.4c-3.9,1.8-8,3.2-11.3,5.9c-4.8,3.8-8.8,8.6-12.8,13.1
				c-1.3,1.5-1.6,3.9,0,5.2C508.7,228,511.2,228.4,512.5,226.8L512.5,226.8z M603.2,724.2c-5.5-0.9-11.1-1.2-16.8-0.6
				c-4.1,0.4-8.3,1-12.5,0.8c-0.1,0-1.6-0.2-0.8-0.1c-0.6-0.1-1.3-0.2-1.9-0.3c-1.5-0.3-3-0.6-4.5-0.9c-2.8-0.6-5.5-1.3-8.4-1.9
				c-5.2-1.2-10.5-2.2-15.8-2.7c-21.7-2.1-41.1,9-61.1,15.4c-10.9,3.5-21.7,4.7-33.1,3.8l3.6,4.7c0.6-3.1,1.3-6.2,1.7-9.3
				c0.1-0.8,0.2-1.7,0.3-2.5c-0.1,1.3,0.1-0.5,0.1-0.8c0.1-0.7,0.2-1.4,0.4-2.1c0.4-2-0.5-4-2.6-4.5c-1.8-0.5-4.2,0.6-4.5,2.6
				c-0.4,2.3-0.7,4.6-1,6.9c0,0.3-0.2,1.6-0.1,0.5c-0.1,0.6-0.2,1.2-0.3,1.8c-0.3,1.9-0.7,3.7-1.2,5.5c-0.5,2.5,1,4.5,3.6,4.7
				c10.4,0.9,20.7,0,30.8-2.8c9.2-2.5,17.9-6.3,26.9-9.5c10.4-3.8,21-7.4,32.2-7.1c10.6,0.3,20.7,3.5,31.1,5.5c5,1,9.7,0.7,14.8,0.1
				c5.8-0.6,11.4-0.9,17.2,0.1c2,0.3,4-0.5,4.5-2.6C606.3,727,605.2,724.6,603.2,724.2L603.2,724.2z M568.9,295.4
				C569.1,294.7,568.5,296,568.9,295.4c0,0.2-0.6,0.7-0.1,0.3c0.1-0.1,0.4-0.3,0,0c-0.4,0.3,0.3-0.1,0.4-0.2
				c0.3-0.2-0.2,0.1-0.2,0.1c0.2-0.1,0.4-0.1,0.6-0.2c0.2,0,0.3-0.1,0.5-0.1c0.6-0.1-0.5,0,0.1,0c0.4,0,0.8,0,1.3,0
				c0.8,0,1.7,0.2,2.6,0.4c2.7,0.6,5.3,1.4,8,2.4c0.3,0.1,0.6,0.2,0.9,0.4c0.5,0.2-0.4-0.2,0.1,0c0.2,0.1,0.3,0.1,0.5,0.2
				c0.7,0.3,1.4,0.6,2.1,1c0.6,0.3,1.3,0.7,1.9,1.2c0.3,0.2,0.5,0.4,0.8,0.5c0,0,0.5,0.3,0.1,0.1c-0.3-0.3,0.3,0.3,0.4,0.3
				c0.4,0.4,0.8,0.8,1.4,1.3c0.4,0.4-0.2-0.4,0.2,0.3c0.2,0.3,0.3,0.6,0.5,0.8c0.4,0.5-0.1-0.4,0.1,0.1c0.1,0.2,0.1,0.5,0.2,0.8
				c0.2,0.5,0-0.5,0,0.3c0,0.3,0,0.7,0,1c0.1-0.4,0-0.2,0-0.2c-0.1,0.2-0.1,0.2,0,0c0.1-0.2,0.1-0.2-0.1,0.1c0-0.1,0.4-0.4,0.1-0.2
				c-0.4,0.3,0.5-0.3,0.1,0c-0.6,0.4,0.2,0.1-0.4,0.2c-0.4,0.1-0.8,0.2-1.3,0.3c0,0-0.6,0.1-0.2,0c0.4,0-0.3,0-0.4,0
				c-0.4,0-0.8,0.1-1.3,0.1c-0.9,0-1.9,0-2.7,0c-4.7,0-4.7,7.4,0,7.4c4.3,0,9.6,0.1,12.4-3.9c2.6-3.8,1-8.8-1.6-11.9
				c-2.4-3-6-5-9.5-6.5c-3.5-1.5-7-2.6-10.7-3.5c-5.1-1-11.9-0.8-13.8,5c-0.6,1.9,0.7,4.1,2.6,4.5
				C566.3,298.5,568.2,297.3,568.9,295.4L568.9,295.4z"/>
			<path class="st1" d="M548.2,354.4c0.1,0.4,0.2,0.8,0.3,1.3c0.1,0.6,0-0.5,0,0c0,0.2,0,0.3,0,0.5c0,0.4,0,0.8,0,1.3
				c0,0.1,0,0.6,0,0.1c0.1-0.5,0,0.2-0.1,0.3c-0.1,0.3-0.2,0.6-0.2,0.9c-0.2,0.8,0.2-0.3-0.1,0.2c-0.1,0.2-0.3,0.5-0.4,0.7
				c-0.1,0.1-0.4,0.5,0,0.1c0.3-0.5-0.1,0.1-0.1,0.2c-0.2,0.2-0.4,0.4-0.5,0.5c-0.5,0.5,0.5-0.3,0,0c-0.4,0.3-0.9,0.5-1.4,0.7
				c-0.1,0,0.7-0.2,0,0c-0.2,0.1-0.5,0.1-0.7,0.2c-0.7,0.2,0.2,0,0.2,0c-0.2,0-0.4,0-0.7,0c-0.1,0-0.4-0.1-0.5,0
				c0.4-0.2,0.9,0.2,0.3,0c-0.7-0.2,0.3,0,0.3,0.2c0,0-1.3-0.8-0.9-0.6c0.3,0.2-0.1-0.1-0.1-0.1c-0.2-0.2-0.3-0.3-0.5-0.5
				c-0.3-0.3-0.6-0.6-0.9-0.9c-0.3-0.3-0.6-0.6-0.8-1c-0.2-0.2-0.3-0.4-0.5-0.6c0.2,0.3-0.1-0.1-0.1-0.2c-2.3-3-4.7-6.1-6.4-9.5
				c0.3,0.6-0.1-0.2-0.1-0.4c-0.1-0.3-0.2-0.6-0.3-0.9c-0.1-0.3-0.2-0.6-0.2-1c0-0.1,0-0.2-0.1-0.3c-0.1-0.4,0,0.9,0,0.2
				c0-0.4,0-0.9,0-1.5c0-0.6-0.2,0.9,0,0.2c0.1-0.2,0.1-0.4,0.2-0.7c0.1-0.6-0.1,0.3-0.1,0.2c0.1-0.1,0.1-0.3,0.2-0.4
				c0.1-0.1,0.2-0.2,0.2-0.4c0.3-0.6-0.2,0.3-0.2,0.3c0.2-0.1,0.3-0.3,0.5-0.5c0.5-0.5-0.9,0.5-0.3,0.2l0.2-0.1
				c0,0.2-0.9,0.3-0.1,0.1c0.8-0.2,0,0.1-0.2,0c0.1,0,0.7,0,0.8,0c0.7,0-0.6-0.2-0.1,0c0.2,0.1,0.4,0.1,0.6,0.2
				c0.2,0.1,0.4,0.1,0.6,0.2c0.3,0.1,0.4,0-0.3-0.1c0.1,0,0.3,0.1,0.4,0.2c1,0.5,2.1,1.2,3,1.9c0.1,0.1,0.8,0.6,0.4,0.3
				c-0.4-0.3,0.3,0.2,0.4,0.3c0.5,0.4,1,0.9,1.6,1.4c1.9,1.8,3.8,3.7,5.4,5.7c0.6,0.7,1.2,1.4,1.8,2.1c0.2,0.2,0.3,0.4,0.5,0.6
				c-0.9-1.2-0.5-0.7-0.3-0.4c1.2,1.6,3.1,2.4,5,1.4c1.6-0.9,2.5-3.5,1.4-5c-2.5-3.4-5.3-6.5-8.4-9.3c-4.1-3.8-10.7-8.8-16.4-5.5
				c-4.6,2.6-4.9,8.9-3.2,13.3c1.6,4.3,4.5,7.9,7.2,11.4c2.5,3.2,5.3,7,9.7,7.4c3.1,0.3,6.6-1.3,8.8-3.6c3.4-3.5,3.9-8.4,2.7-12.9
				c-0.4-2-2.6-3.1-4.5-2.6C548.8,350.4,547.7,352.5,548.2,354.4L548.2,354.4z"/>
			<path class="st1" d="M564,340.7c1.3,1.8,1.5,3.2,0.8,5.2c-0.2,0.6-0.6,1.2-1.2,1.8c-0.8,0.8,0.2-0.1-0.2,0.2
				c-0.2,0.1-0.4,0.2-0.6,0.3c-0.1,0-0.7,0.3-0.4,0.2c0.2-0.1-0.6,0.2-0.8,0.2c-1.8,0.5-4.1,0.5-5.9,0c-0.1,0-1.5-0.5-0.8-0.3
				c-0.4-0.2-0.8-0.5-1.3-0.7c-0.6-0.4,0.4,0.4-0.4-0.3c-0.3-0.3-0.7-0.6-1-0.8c-7.5-6.6-14-15.5-17.7-24.8
				c-1.2-2.9-2.4-6.3-2.3-9.4c0-1.3,0.3-2.3,0.9-3.1c0.3-0.4,0.6-0.6,1.2-0.8c0.4-0.2-0.4,0,0.5-0.1c-0.5,0.1,0.6,0.1,0.1,0
				l-2.6-2.6c6.1,14.4,16.3,28,30.5,35.3c1.2,0.6,2.3,1.2,3.6,1.6c1.9,0.7,4.1-0.7,4.5-2.6c0.5-2.1-0.7-3.9-2.6-4.5
				c-0.9-0.3,0.9,0.4,0,0c-0.7-0.3-1.5-0.7-2.2-1c-2.6-1.4-5-2.9-7.3-4.7c0.6,0.5-0.2-0.2-0.4-0.3c-1.3-0.9-2.4-2-3.6-3.1
				c-1.7-1.6-3.4-3.4-4.8-5.1c-3.4-3.9-6.4-8.7-8.8-13.5c-0.6-1.3-1.2-2.5-1.8-3.8c-1.2-2.6-3.6-3.1-6.2-2.7c-3.2,0.5-6,3-7.2,6
				c-2.9,6.5,0.1,14.1,2.8,20.2c2.6,5.8,6.1,11,9.9,15.9c2.9,3.7,6.2,7.3,9.8,10.2c4.9,3.9,12.1,4.4,17.8,1.6
				c6.3-3.1,8.1-12.1,4.1-17.8c-1.2-1.6-3.2-2.4-5-1.4C563.7,336.6,562.8,339,564,340.7L564,340.7z"/>
			<path class="st1" d="M540,305.1c-1.5-4-2.8-8.1-3.6-12.3c-0.3-1.5-0.4-2.8-0.4-4.5c0-0.4,0-0.7,0-1.2c0-0.1,0.2-1.3,0-0.4
				c0.1-0.3,0.1-0.6,0.2-0.9c0.1-0.2,0.1-0.4,0.2-0.6c-0.2,0.4-0.2,0.4-0.1,0.2c0.1-0.2,0.2-0.4,0.3-0.6c0.4-0.8-0.5,0.5,0.1-0.1
				l0.2-0.2c-0.4,0.3-0.4,0.3-0.1,0.1c-0.1-0.1,1.3-0.4,0.1-0.1c0.8-0.2,0.7-0.2,1.5-0.2c-0.7-0.1,0.2,0.1,0.3,0.1
				c-0.4-0.2-0.4-0.1,0,0c-0.3-0.3-0.3-0.3,0,0c0.1,0.1,0.7,0.8,0.3,0.2c0.2,0.3,0.4,0.6,0.5,0.9c0.4,0.6,0.7,1.4,1,2.1
				c-0.2-0.5,0.3,0.7,0.2,0.6c0.2,0.4,0.3,0.8,0.5,1.2c0.5,1.2,0.9,2.3,1.5,3.5c3.8,8.2,8.8,15.6,14.9,22.2c2.7,2.9,6,5.8,9.6,7.5
				c1.9,0.8,3.9,1.3,5.9,1.9c1.2,0.4,1.8,1.2,2.4,2.3c0.1,0.1,0.4,1,0.2,0.3c0.1,0.3,0.2,0.6,0.3,0.9c0.1,0.2,0.1,1.2,0.1,0.2
				c0,0.4,0,0.8,0,1.2c0,0.8,0.2-0.6,0,0.2c-0.1,0.4-0.2,0.7-0.3,1.2c0.3-0.8,0,0.1-0.1,0.2s-0.8,1.2-0.3,0.5
				c-0.2,0.2-0.4,0.5-0.6,0.7c-0.1,0.1-1,0.9-0.5,0.5c-0.6,0.5-1.4,0.9-2.1,1.3c0.6-0.3-0.5,0.2-0.5,0.2c-0.5,0.2-1,0.3-1.6,0.4
				c-0.8,0.2-1.4,0.2-2.4,0.2c-4.7,0.1-4.8,7.4,0,7.4c7.5-0.1,16.2-4.8,15.9-13.4c-0.1-4-2.4-8.3-5.9-10.3c-2.1-1.2-4.4-1.3-6.6-2.2
				c-1.8-0.7-3.5-2-4.9-3.2c-7.3-6.4-13-15.3-17-24.1c-1.5-3.2-2.5-7.6-5.7-10.2c-3.5-2.7-8.6-2.5-11.8,0.4c-3.2,2.9-3.5,7.7-3,11.8
				c0.6,5.4,2.2,10.8,4.2,15.9c0.7,1.9,2.5,3.1,4.5,2.6C539.2,309.2,540.7,307,540,305.1L540,305.1z"/>
			<path class="st1" d="M549.2,287.2c-0.1-0.4,0-1.4,0.2-1.8c-0.2,0.4,0.1-0.2,0.2-0.3c0.3-0.5-0.6,0.5,0.1-0.2
				c0.1-0.1,0.3-0.3,0.4-0.4c-0.4,0.3-0.1,0.1,0.2,0c0.5-0.2-0.8,0.1,0.1,0c0.2,0,0.4-0.1,0.6-0.1c-0.8,0.1,0.7,0.3-0.1,0
				c0.2,0.1,0.4,0.1,0.6,0.2c-0.6-0.2,0,0,0.1,0.1c0.5,0.4,0.3,0.2,0.2,0.1c0.3,0.3,0.6,0.6,0.9,0.9c4,4.1,6.4,9.3,10.2,13.7
				c3.6,4.3,7.7,8,12.9,10.3c2.3,1,4.7,2,6.7,3.6c0.5,0.4,0.9,0.8,1.5,1.4c0,0,0.6,0.7,0.3,0.3c-0.3-0.3,0.1,0.1,0.1,0.2
				c0.1,0.1,0.6,1.2,0.4,0.6c-0.2-0.6,0.1,0.2,0.1,0.2l0.1,0.2c-0.1-0.5-0.1-0.7,0-0.4c0,0.1,0,0.3,0,0.4c-0.1,0.4,0.2-0.9,0-0.1
				c-0.2,0.7,0.4-0.6-0.1,0.2c-0.3,0.5,0.1-0.1,0.1-0.2c-0.2,0.2-0.3,0.3-0.5,0.5c0.6-0.6-0.4,0.2-0.6,0.3c-0.5,0.3-0.1,0.1,0,0
				c-0.9,0.3-1.9,0.6-2.9,0.7c-0.8,0.1-2.9,0.1-4.3,0.1c-2-0.1-3.7,1.8-3.7,3.7c0,2.1,1.7,3.6,3.7,3.7c5.4,0.2,13.3-0.6,15.4-6.7
				c2-6-3.8-11.1-8.5-13.5c-2.9-1.6-6.3-2.5-9-4.6c-2.3-1.8-4.4-4-6.2-6.2c-1.8-2.2-3.5-5.1-5.2-7.9c-2-2.8-4.4-6.3-7.4-8.2
				c-3.2-1.9-7.3-1.5-10.2,0.9c-3,2.5-3.8,6.4-3,10.1c0.3,2,2.7,3,4.5,2.6C548.7,291.2,549.5,289.2,549.2,287.2L549.2,287.2z
				 M145.4,282.1c1.9,14.8,0.6,29.5-3.1,43.9c-3.7,14-10.2,27.4-12.1,41.9c-0.5,3.7-0.8,7.3-0.5,11c0.2,3.4,0.9,6.5,1.5,9.7
				c0.2,0.9,0.3,2,0.3,3.4c0,1-0.2,1.8-0.7,2.5c0.1-0.2,0.3-0.4-0.1,0.1c0.3-0.3,0,0-0.1,0.1c-0.5,0.2-0.8,0.3-1.4,0.2
				c-1.4-0.1-2-0.5-3-1.3c-0.7-0.5-0.4-0.2-1-0.8c-0.4-0.3-0.7-0.7-1-1.2c0.4,0.5-0.3-0.5-0.3-0.5c-0.1-0.2-0.3-0.4-0.4-0.6
				c-0.4-0.6-0.7-1.3-1-1.9s0.3,0.8-0.2-0.4c-0.3-0.9-0.6-1.8-0.9-2.7c-0.4-1.4-0.6-2.7-0.9-4.1c-0.3-2.1-0.5-4.4-0.7-6.8
				c-0.2-2.6-0.4-5.1-0.6-7.7c-0.9-13.1-1.6-26.2-2.7-39.2c-0.2-2-1.6-3.7-3.7-3.7c-1.9,0-3.9,1.7-3.7,3.7c1.2,12.4,1.8,24.7,2.6,37
				c0.4,5.7,0.7,11.4,1.5,17.1c0.8,5.8,2.5,11.8,6.7,16.1c4.7,4.8,14.1,6.9,18-0.1c3.1-5.8,0-12.7-0.4-18.7
				c-0.9-15.2,6-29.5,10.5-43.7c5.4-17.2,7.9-35.2,5.5-53.1c-0.2-2-1.5-3.7-3.7-3.7C147.3,278.3,145.1,280.1,145.4,282.1
				L145.4,282.1z"/>
			<path class="st1" d="M101.6,259.2c-5.3,10.2-11.6,19.9-19.3,28.5c-4,4.5-8,9-10.6,14.4c-2.5,5.3-4,11-4.6,17
				c-0.7,5.5-0.6,11.2-0.4,16.9c0.2,5.1,0.5,10.4,1.3,15.5c1.3,9.7,4,20.3,11.7,27c9.4,8.2,22.3,6.3,33.8,5.8c2-0.1,3.7-1.7,3.7-3.7
				c0-1.9-1.7-3.8-3.7-3.7c-4.8,0.2-9.7,0.6-14.6,0.5c-4.4-0.1-8.9-0.6-12.6-3c-3.5-2.2-5.9-5.7-7.5-9.6c-1.7-3.7-2.7-8.5-3.4-12.8
				s-0.9-9.3-1.3-13.9c-0.3-5.3-0.4-10.8,0-16.1c0.4-4.9,1.4-10.1,3.4-14.7c2.1-5,5.5-9.3,9.1-13.3c8.5-9.4,15.5-19.8,21.4-31
				c0.9-1.8,0.4-4-1.4-5C104.9,256.9,102.5,257.5,101.6,259.2z M135.6,381.8c2.5,0,5-0.3,7.4-0.7c1.5-0.2,2.9-0.4,4.3-0.8
				c2-0.5,4.2-1.6,5.5-3.1c1.8-1.9,2.6-4.3,2-6.9c-0.5-2.5-2.6-4.5-4.7-5.8c-3.8-2.2-8.2-2.9-12.4-3.5c-0.8-0.1-2,0.5-2.6,1
				c-0.6,0.6-1.2,1.7-1,2.6c0,0.9,0.3,2,1,2.6c0.7,0.7,1.6,0.9,2.6,1c0,0-0.8-0.1-0.4,0h0.3c0.2,0,0.4,0.1,0.7,0.1
				c0.5,0.1,1,0.2,1.6,0.3c0.8,0.2,1.7,0.3,2.4,0.5c0.8,0.2,1.8,0.5,2.6,0.8c0.1,0.1,0.7,0.3,0,0c-0.6-0.3-0.1,0,0,0
				c0.1,0.1,0.3,0.1,0.4,0.2c0.5,0.2,0.9,0.5,1.5,0.8c0.1,0.1,0.2,0.1,0.3,0.2c0.5,0.3-0.3-0.2-0.4-0.3c0.1,0.2,0.3,0.3,0.5,0.4
				c0.1,0.1,0.3,0.3,0.4,0.4c0.5,0.6-0.5-0.8-0.2-0.2c0.1,0.1,0.2,0.3,0.2,0.4s0.1,0.1,0.1,0.2c0.1,0.1-0.4-1-0.2-0.5l0.1,0.4
				c0.2,0.6-0.1-1.2-0.1-0.4c0,0.1,0,0.3,0,0.4c0,0.5,0.1-0.7,0.1-0.7c0,0.1,0,0.2,0,0.2c0,0.1-0.1,0.3-0.1,0.4
				c-0.1,0.4,0.5-1,0.2-0.4c-0.1,0.1-0.1,0.2-0.2,0.4c0,0.1-0.1,0.1-0.1,0.2c-0.3,0.4,0.6-0.7,0.4-0.5c-0.2,0.2-0.4,0.5-0.7,0.7
				c-0.5,0.5,0.7-0.5,0.3-0.2c-0.2,0.1-0.3,0.2-0.5,0.3c-0.3,0.2-0.6,0.3-0.9,0.5c-0.5,0.2,0.7-0.3,0.5-0.2c-0.1,0-0.2,0.1-0.2,0.1
				c-0.2,0.1-0.4,0.1-0.6,0.2c-1.3,0.4-2.7,0.5-4,0.7c-0.5,0.1-1,0.2-1.6,0.2c-0.3,0-0.5,0.1-0.8,0.1c-0.4,0.1,0.4-0.1,0.4-0.1
				c-0.2,0-0.3,0-0.5,0.1c-1.3,0.1-2.4,0.2-3.7,0.2c-1.9,0-3.8,1.7-3.7,3.7C131.9,380.1,133.5,381.8,135.6,381.8L135.6,381.8z"/>
			<path class="st1" d="M112.1,360.8c-1.7,0-3.4-0.1-5-0.3c-0.4,0,0.2,0-0.4,0c-0.9-0.1-2-0.3-2.9-0.5c-1-0.2-2.1-0.5-3-0.9
				c-0.1,0-0.1,0-0.2,0c0.6,0.2,0,0-0.1,0c-0.2-0.1-0.5-0.3-0.7-0.4c-0.4-0.2,0.7,0.6,0.4,0.3c-0.4-0.4,0.4,0.7,0.5,0.7
				c0.2,0.3,0.1,0.2,0-0.2l-0.1-0.4c-0.6-2.1-1.2-4.2-1.6-6.3c-0.6-3.2-0.8-6.7-0.8-10.2l-1.8,3.1c0.4-0.3,0.8-0.5,1.3-0.7
				c0.5-0.2,0.9-0.4,1.5-0.7c0.4-0.2-0.7,0.2-0.2,0.1c0.1,0,0.3-0.1,0.4-0.2c1.4-0.5,2.8-0.9,4.2-1.2c0.1,0,0.7-0.1,0.3-0.1
				c-0.4,0.1,0.3,0,0.3,0c1.6-0.1,3.1-0.1,4.7,0c-0.5-0.1,0.3,0.1,0.4,0.1c0.6,0.1,1.3,0.3,1.9,0.4c1.9,0.5,4.1-0.6,4.5-2.6
				c0.4-1.9-0.6-4-2.6-4.5c-4.6-1.2-9.4-1.3-13.9,0c-2.2,0.6-4.6,1.6-6.5,2.8c-1.3,0.8-1.9,1.9-1.9,3.5c-0.1,1.5,0,2.9,0.1,4.4
				c0.2,2.8,0.6,5.7,1.2,8.4c0.3,1.4,0.6,2.7,1,4.1c0.3,1.2,0.6,2.6,1.3,3.7c0.7,1.2,1.9,1.8,3,2.3c4.6,2,9.8,2.6,14.9,2.7
				c1.9,0,3.8-1.7,3.7-3.7C115.8,362.6,114.2,360.9,112.1,360.8L112.1,360.8z M158.4,843.1c0.5,0.9,1,1.8,1.5,2.8l-0.4-0.8
				c0.4,0.9,0.6,2,0.8,3c0.4,1.7,1.3,3.1,2.3,4.5c0.5,0.8,1.3,1.5,2.2,1.7c0.8,0.2,2.1,0.1,2.8-0.4c0.8-0.5,1.5-1.3,1.7-2.2
				c0.2-0.9,0.2-2-0.4-2.8c-0.6-0.8-1.2-1.7-1.6-2.6l0.4,0.8c-0.4-0.8-0.5-1.8-0.7-2.7c-0.5-1.8-1.4-3.5-2.3-4.9
				c-0.5-0.8-1.3-1.5-2.2-1.7c-0.8-0.2-2.1-0.1-2.8,0.4C158.1,839.1,157.3,841.3,158.4,843.1z M172.7,868.7c0,1.3,0.1,2.5,0.2,3.8
				c0.1,0.7,0.3,1.4,0.5,2c0.5,1.5,1.4,2.8,2.1,4.2c0.4,0.8,1.4,1.5,2.2,1.7c0.8,0.2,2.1,0.1,2.8-0.4c0.8-0.5,1.5-1.3,1.7-2.2
				c0.2-1,0.1-1.9-0.4-2.8c-0.5-0.9-1-2-1.6-2.9l0.4,0.8c-0.3-0.8-0.5-1.7-0.7-2.5l0.1,0.9c-0.1-0.8-0.1-1.8-0.1-2.6
				c0-0.9-0.4-2-1-2.6c-0.6-0.6-1.7-1.2-2.6-1C174.2,865.1,172.7,866.6,172.7,868.7z M320,948.9c1.4,0.2,2.6,0.4,4,0.3
				c0.9,0,1.8-0.1,2.7,0l-0.9-0.1c0.3,0,0.6,0.1,0.9,0.1c0.9,0.2,2,0.1,2.8-0.4c0.7-0.4,1.5-1.4,1.7-2.2c0.2-0.9,0.2-2-0.4-2.8
				c-0.5-0.7-1.3-1.5-2.2-1.7c-1.4-0.2-2.6-0.4-4-0.3c-0.9,0-1.8,0.1-2.7,0l0.9,0.1c-0.3,0-0.6-0.1-0.9-0.1c-0.9-0.2-2-0.1-2.8,0.4
				c-0.7,0.4-1.5,1.4-1.7,2.2c-0.2,0.9-0.2,2,0.4,2.8C318.3,948,319,948.7,320,948.9z M344.9,950.7c0.6,0,1.3,0,1.8,0.1l-0.9-0.1
				c1.2,0.2,2.2,0.4,3.5,0.6c0.4,0,0.8,0.1,1.3,0c0.9-0.1,1.9-0.2,2.8-0.5c0.9-0.3,1.7-0.8,2.2-1.7c0.4-0.8,0.6-2,0.4-2.8
				c-0.3-0.9-0.8-1.8-1.7-2.2c-0.8-0.4-1.9-0.6-2.8-0.4c-0.5,0.1-1,0.2-1.6,0.3l0.9-0.1c-0.5,0.1-1,0.1-1.6,0l0.9,0.1
				c-0.6-0.1-1.2-0.2-1.7-0.3c-1.2-0.2-2.3-0.3-3.5-0.3c-0.9,0-1.9,0.4-2.6,1c-0.6,0.6-1.2,1.7-1,2.6c0,0.9,0.3,2,1,2.6
				C343,950.3,343.9,950.7,344.9,950.7L344.9,950.7z"/>
		</g>
		<path class="st3" d="M448.3-413.6c4.6,19.6-23.8,37.6-33.9,51.3c-5.7,7.5-10.2,18.6-16.5,25.2c-4.7,4.9-1.5,3.6-7.9,6.4
			c-4.2,1.9-3.6,2.2-6.3,6.8c-5.8,9.4-4.5,13.4,4.5,20.1c5.4,4,4.5,0.3,6.5,8c1.4,4.9,1,13.2,0.6,18c-1.6,20.3-15.3,34.7-15,55.1
			c0.1,6.9,0.2,13.9-0.8,20.9c-13.5-0.8-31.2-4.9-44.8-8.1c-14.2-3.2-30.2-7.2-43.2-14.1c-0.9-13.1,5.8-28.3,10.2-40.3
			c-9.3,8.4-21.5,4.6-26.4,35.1c-13.7-7.9-28.2-24.2-32-40.1c9.8-4.7,17.6-5.3,24.5-14.9c7-9.6,6.5-21.6,11.4-31.9
			c9.3-19.9,38.4-13.7,46-34.3c3.8-10.5,2-22.1,7.1-32.2c4.2-8.3,12.1-14.8,19.6-19.9c17.6-12.5,35.6-19.1,55.8-18.3
			c13,0.4,23.3,2.1,38,6.6C448.3-413.8,446.5-413.5,448.3-413.6L448.3-413.6z"/>
		<path class="st1" d="M460.4-354.4c-1.2-0.7-2.6-0.7-3.8-0.2c-1.4,0.5-2.4,1.5-3.2,2.6c-0.2,0.3-0.4,0.8-0.5,1.2
			c-0.9,2.3-0.5,3.8,0.7,5.4c0.8,1.2,2.8,2,4.2,1.5c1.4-0.5,2.2-1.8,3-2.9C462.1-349.2,462.9-352.7,460.4-354.4L460.4-354.4z
			 M473-379.5c1.5,2.3,3.1,4.5,5,6.7c1.7,2,4,4,5.5,5.9c-0.1-0.1,0.5,0.9,0.3,0.4c0.1,0.2,0.1,0.4,0.2,0.6c0-0.1-0.2-0.6,0,0
			c0,0,0,0.6,0,0.2s-0.1,0.2-0.1,0.3l-0.1,0.5c-0.3,1,0.1-0.3-0.1,0.3c-0.8,2-2.1,3.7-3.1,5.5c-2.5,4.6-3.5,9.9-0.8,14.8
			c1.4,2.5,3.5,4.6,5.4,6.6c2,1.9,4,3.7,6.2,5.4c1.8,1.5,3.6,2.8,5.7,4c0.8,0.4,1.6,0.8,2.4,1.3c0.4,0.2,0.8,0.5,1.4,0.8
			c0.2,0.1,0.3,0.2,0.4,0.3c0.3,0.2-0.2-0.2,0.3,0.2c0.3,0.3,0.7,0.6,0.9,1c-0.5-0.6,0.3,0.7,0.1,0.2c-0.2-0.4,0.2,1,0.1,0.2
			c0,0.3-0.1,1.4,0.1,0.6c0,0.2-0.4,1.4-0.1,0.5c-0.1,0.3-0.3,0.6-0.5,0.8c-0.4,0.7,0.2-0.1-0.2,0.3c-0.3,0.3-0.6,0.6-0.9,0.9
			c-2.7,2.6-5.5,4.7-6.9,8.5c-0.5,1.6-0.6,3.2-0.6,4.9c-0.5,10.7-0.6,21.4-1.8,31.9c-0.1,0.7-0.2,1.4-0.2,2.1c0,0.2-0.2,1.4-0.1,0.4
			c-0.1,0.4-0.1,0.7-0.2,1.2c-0.2,1.4-0.4,2.7-0.6,4.1c-0.4,2.3-0.9,4.6-1.8,6.8c-0.1,0.2-0.2,0.4-0.2,0.6c-0.2,0.5,0.4-0.8,0,0
			c-0.2,0.4-0.4,0.8-0.6,1.2c-0.1,0.1-0.2,0.3-0.3,0.4c-0.4,0.7,0.2-0.2,0.2-0.2c0.1,0.1-0.6,0.6-0.7,0.7c-0.3,0.4,0.8-0.6,0.3-0.2
			c-0.1,0.1-0.2,0.1-0.3,0.2c1.3-0.5,0.7-0.3,0.4-0.2c-0.7,0.2,0.8-0.1,0.4-0.1c-0.8,0,0.9,0.4,0,0c-0.3-0.1-0.7-0.2-1-0.3
			c-2.6-0.7-5.3-1-8.1-1.4c-3.2-0.4-6.6-0.7-9.8-0.9c-5.7-0.4-11.3-0.8-17-1c-1.2,0-2.7,0.7-3.1,1.8c-1.8,4.3-3.4,8.6-4.8,13
			c-4,11.6-7.2,23.3-10.2,35.3c-2.3,9.6-4.4,19.4-6.2,29.1c-0.3,2,0.5,4,2.6,4.5c1.8,0.5,4.2-0.6,4.5-2.6
			c4.5-24.5,10.4-49,19.2-72.4c0.4-1,0.7-2,1.2-3c0.2-0.4,0.8-2.1,0.1-0.2l-3.1,1.8c4.2,0.2,8.3,0.4,12.5,0.7
			c3.5,0.2,6.9,0.5,10.5,0.8c1.6,0.2,3.2,0.3,4.8,0.5c-0.9-0.1,0.2,0,0.4,0.1c0.3,0,0.7,0.1,1,0.2c0.6,0.1,1.3,0.2,1.9,0.3
			c2.1,0.4,4,1.4,6.2,0.8c2.1-0.5,3.7-2,4.8-3.8c2.6-4,3.5-9.2,4.2-13.9c1.8-11.7,2.2-23.6,2.6-35.4c0.1-1.6,0.1-3.1,0.2-4.8
			c0-0.2,0.1-0.4,0.1-0.6c0-0.4-0.3,1.4-0.1,0.5c0.1-0.5,0.2-1,0.4-1.5c-0.3,0.6,0.2-0.2,0.3-0.4c0.1-0.2,0.2-0.3,0.3-0.5
			c0.3-0.4-0.3,0.4,0,0c0.6-0.6,1.2-1.3,1.8-1.8c2.8-2.5,5.5-4.8,6.1-8.8c0.6-5.1-2.6-8.6-6.8-11c-0.8-0.5-1.7-0.9-2.5-1.4
			c-0.4-0.2-0.7-0.4-1.2-0.6c-0.2-0.1-0.4-0.2-0.6-0.4c-0.1,0-0.8-0.5-0.4-0.3c-0.5-0.3-2-1.6-2.8-2.3c-1.2-0.9-2.2-1.9-3.4-2.9
			c-1.9-1.8-4-3.7-5.4-5.8c-1.2-1.7-1.5-3.1-0.9-5c0.9-4,4.5-7.4,5.4-11.7c0.5-2.4,0.2-4.9-1.3-7c-1.6-2.3-4-4.2-5.8-6.4
			c-1.7-2-3.2-4-4.7-6.2c-1-1.7-3.2-2.4-5-1.4C472.6-383.6,471.9-381.2,473-379.5L473-379.5z"/>
		<path class="st1" d="M455-361.5c1.6-0.9,3-2.1,4.7-3c0.3-0.2,0.5-0.3,0.8-0.4c0.2-0.1,0.1-0.1-0.3,0.1c0,0,1-0.3,1.2-0.3
			c0.1,0,0.2-0.1,0.3-0.1c0.3,0,0.1,0-0.4,0c0,0,0.5,0,0.6,0h0.6c-0.5-0.1-0.7-0.1-0.4-0.1c0.1,0,0.2,0,0.3,0.1
			c0.3,0.1,0.7,0.3,1,0.3c-0.5-0.2-0.6-0.3-0.4-0.1c0.1,0,0.2,0.1,0.3,0.1c0.1,0.1,0.3,0.2,0.4,0.3c0.5,0.3-0.1,0-0.2-0.1
			c0.1,0.1,0.3,0.3,0.4,0.4s0.2,0.2,0.3,0.4c0.4,0.5-0.1,0-0.1-0.2c0,0.3,0.4,0.7,0.6,0.9c0.1,0.1,0.1,0.3,0.2,0.5
			c-0.4-0.6-0.2-0.5-0.1-0.1c0.1,0.3,0.2,0.7,0.3,1c0.1,0.4,0,0.7,0-0.1c0,0.2,0,0.4,0.1,0.6c0.1,1.9,1.6,3.8,3.7,3.7
			c1.9-0.1,3.9-1.7,3.7-3.7c-0.3-4.9-3-9.5-8-11c-2.7-0.7-5.4-0.3-8,0.8c-2,0.9-3.8,2.4-5.7,3.5c-1.7,0.9-2.4,3.4-1.4,5
			C451.1-361.1,453.3-360.5,455-361.5L455-361.5z M455.8-310.3c2.7,4.4,6.3,9,11.2,10.9c2.3,0.9,5,1.5,7.5,1.2
			c3.2-0.3,6-1.8,8.5-3.8c1.6-1.3,1.4-4,0-5.2c-1.6-1.5-3.6-1.3-5.2,0c0.3-0.3-0.2,0.1-0.3,0.2c-0.4,0.3-0.9,0.6-1.4,0.8
			c-0.1,0-0.9,0.4-0.4,0.2c0.4-0.2-0.4,0.1-0.4,0.1c-0.2,0.1-0.4,0.1-0.6,0.2c-0.1,0-0.9,0.2-0.4,0.1c0.5-0.1-0.2,0-0.2,0
			c-0.5,0-1,0-1.6,0s0.6,0.1,0,0c-0.3-0.1-0.5-0.1-0.8-0.1c-0.5-0.1-0.9-0.2-1.5-0.4c-0.3-0.1-0.5-0.2-0.8-0.3c-0.6-0.2,0.3,0.2,0,0
			c-0.4-0.2-0.7-0.4-1.2-0.6c-0.2-0.1-0.3-0.2-0.5-0.3c0.6,0.4,0,0-0.1-0.1c-0.8-0.7-1.6-1.5-2.2-2.2c-0.3-0.4-0.6-0.7-0.9-1.2
			c-0.2-0.2-0.4-0.6-0.1-0.2c-0.1-0.2-0.2-0.3-0.4-0.5c-0.5-0.8-1.2-1.6-1.7-2.4c-1-1.7-3.4-2.4-5-1.4
			C455.5-314.3,454.6-312,455.8-310.3L455.8-310.3z M445.1-345.9c2,0.6,3.7-0.5,5.1-1.8c1.5-1.3,2.4-2.1,4.2-3.1
			c0.8-0.5,1.8-1,2.7-1.3c0.9-0.2,1.7-0.1,2.5,0.2c1.9,0.7,2.8,2.4,4.1,3.9c0.6,0.7,2,0.6,2.6,0c0.7-0.7,0.6-1.9,0-2.6
			c-1.4-1.7-2.5-3.5-4.6-4.3c-1-0.5-2.2-0.9-3.4-1c-1.2-0.1-2.3,0.2-3.4,0.7c-2.1,0.8-4,2.1-5.8,3.6c-0.6,0.5-1.2,1-1.8,1.6
			c-0.3,0.2-0.6,0.5-1,0.6c0,0-0.3,0.1-0.4,0.1c0.1,0,0.3,0,0-0.1C443.7-350.2,442.8-346.6,445.1-345.9L445.1-345.9z"/>
		<path class="st0" d="M448-346.1c1.8-0.8,14.4-0.3,17,0.1c-1.3,1.5-3.1,3.2-4.1,4.8c-0.6,1-0.3,0.9-1.7,0.9c-1,0-2.3-0.3-3.4-0.6
			c-2.3-0.5-5.4-0.5-7.5-1.7c-1-0.5-0.8,0.1-0.9-1.3C447.5-344.3,447.9-346.5,448-346.1z"/>
		<path class="st4" d="M447.1-322.3c-0.6,0-1.3-0.1-1.8-0.2c-8.2-1.8-13.9-5.1-17.5-7.4c-4-2.6-5-8.1-2.3-11.9
			c2.6-3.9,7.9-4.9,11.8-2.4c2.6,1.8,6.4,3.9,11.6,5c4.6,1,7.6,5.5,6.6,10.3C454.6-325.1,451.1-322.3,447.1-322.3z"/>
		<path class="st1" d="M392-334.5c-7.7,1.3-13.2,8.4-14.1,15.9c-0.4,3.9,0.5,8,2.6,11.2c2.2,3.5,5.3,5.5,9.2,6.6
			c4.1,1,9.2,1.2,12.1-2.4c1.3-1.6,1.5-3.8,0-5.2c-1.4-1.4-4-1.6-5.2,0c-0.2,0.2-1,0.8-0.4,0.5c-0.2,0.1-0.3,0.2-0.5,0.3
			c0.4-0.2,0.4-0.2,0,0c-0.2,0.1-0.4,0.1-0.6,0.1c0.4,0,0.5,0,0,0c-0.3,0-0.6,0-0.9,0c-0.2,0-1.6-0.1-0.6,0
			c-0.4-0.1-0.8-0.1-1.3-0.2c-0.6-0.1-1.4-0.3-2-0.5c-0.1,0-1-0.4-0.5-0.2c-0.4-0.2-0.8-0.4-1.3-0.7c0.5,0.3-0.5-0.5-0.6-0.6
			c-0.2-0.2-0.5-0.5-0.7-0.8c0.3,0.4-0.4-0.6-0.5-0.7c-0.2-0.4-0.5-0.8-0.7-1.4c-0.2-0.4-0.2-0.4-0.1-0.2c-0.2-0.6-0.4-1.3-0.6-1.9
			c0-0.2-0.2-1.4-0.1-0.6c0-0.4-0.1-0.9-0.1-1.4c0-0.4,0-0.9,0.1-1.4c-0.1,0.7,0.1-0.4,0.1-0.5c0.1-0.4,0.2-0.7,0.3-1.2
			c0-0.1,0.5-1.4,0.2-0.7c0.3-0.8,0.7-1.6,1.3-2.3c0.1-0.1,0.7-1,0.3-0.5c0.3-0.3,0.6-0.7,0.9-1c0.3-0.3,0.6-0.6,0.9-0.9
			c0.3-0.3,0.3-0.3,0,0c0.1-0.1,0.3-0.2,0.4-0.3c0.3-0.2,0.6-0.4,1-0.6c0.1-0.1,1.4-0.6,0.6-0.3c0.8-0.3,1.7-0.5,2.6-0.7
			c2-0.3,3-2.7,2.6-4.5C396-334,394-334.8,392-334.5L392-334.5z M442.6-267l-8.2-2.3c-0.9-0.2-2-0.1-2.8,0.4
			c-0.7,0.4-1.5,1.4-1.7,2.2c-0.4,2,0.6,4,2.6,4.5l8.2,2.3c0.9,0.2,2,0.1,2.8-0.4c0.7-0.4,1.5-1.4,1.7-2.2
			C445.6-264.4,444.6-266.4,442.6-267z M447.1-419.2c-11.3-2.4-22.6-5.8-34.3-5.7c-5.7,0-11.3,0.3-17,0.5
			c-5.8,0.2-11.5,0.7-17.2,2.1c-10.8,2.5-21,8.3-30.2,14.4c-4.7,3.2-9.2,6.7-13.5,10.4c-3.9,3.2-7.7,6.6-11,10.5
			c-3.7,4.2-6.7,9-7.5,14.6c-0.7,5.2,0.3,10.4,0,15.5c-0.1,1-0.2,2-0.4,2.9c-0.1,0.3-0.4,0.9-0.1,0.3c-0.2,0.3-0.3,0.6-0.5,0.9
			c-0.1,0.2-0.2,0.3-0.3,0.4c0.1-0.1,0.5-0.5,0.1-0.1c-0.2,0.2-0.4,0.5-0.6,0.7s-0.5,0.4-0.7,0.6c0.6-0.5-0.2,0.1-0.4,0.3
			c-0.6,0.4-1.4,0.8-2,1.2c-0.3,0.2-0.7,0.3-1,0.5c0.6-0.3-0.6,0.2-0.8,0.3c-1.7,0.6-3.4,1-5,1.5c-3.4,0.8-6.7,1.4-10.1,2.2
			c-3.6,0.7-6.9,2-10.3,3.6c-8.6,4.1-15.5,11-16,20.9c-0.3,5.4,0.9,10.9,1,16.3c0,2.5,0,4.2-0.7,6.5c0,0.2-0.4,1.2-0.2,0.6
			c-0.2,0.4-0.4,0.8-0.6,1.3c-0.2,0.3-0.4,0.6-0.6,1c-0.1,0.1-0.2,0.3-0.3,0.4c0.4-0.5,0,0.1-0.1,0.2c-0.5,0.6-1.2,1.3-1.8,1.8
			c-0.1,0.1-0.8,0.7-0.6,0.5c0.3-0.2-0.1,0.1-0.2,0.1c-0.3,0.2-0.5,0.4-0.8,0.5c-1.5,0.9-3,1.8-4.5,2.5c-3.2,1.6-6.6,2.9-9.7,4.8
			c-1.7,0.9-3.4,2.1-4.8,3.4c-1.6,1.3-1.4,3.9,0,5.2c1.6,1.6,3.7,1.3,5.2,0c0.1-0.1,0.5-0.4,0.1-0.1c0.1-0.1,0.3-0.2,0.4-0.3
			c0.3-0.2,0.6-0.5,1-0.7c0.8-0.5,1.6-1,2.4-1.5c1.6-0.8,3.2-1.7,4.8-2.4c3.1-1.5,6.5-2.9,9.3-4.9c3-2.1,5.7-4.8,7.2-8.3
			c2.1-4.7,2.1-9.9,1.6-15c-0.4-4.8-1.5-10.2-0.3-14.7c0.9-3.6,3.5-6.5,6.4-8.6c3.1-2.3,6.7-4.1,10.3-5.2c2.9-0.9,6-1.5,9-2
			c6.4-1.4,14.3-2.8,18.8-8.1c6.6-7.6,1-18.2,4-27c1.5-4.5,5-8.3,8.3-11.4c3.7-3.6,7.6-7,11.7-10.2c8.3-6.6,17.4-12.4,27.1-16.4
			c5-2.1,10.4-3.6,15.8-4.2s10.9-0.7,16.3-0.8c5.8-0.1,11.4-0.5,17.2,0.1c5.3,0.6,10.7,1.9,16,3.1c2.8,0.6,5.5,1.3,8.4,1.9
			c2,0.4,4-0.5,4.5-2.6C450.1-416.5,449-418.8,447.1-419.2L447.1-419.2z M449.8-399.1c-11.9,7.1-22.2,19.5-25.7,33.1
			c-1.9,7.3-0.6,14.6-0.2,22c0.2,3.7,0.1,7.4-1,11c-1,3.2-2.9,6.1-4.9,8.9c-4.2,6-9.6,11.5-12.3,18.4c-1.3,3.1-0.8,5.9-0.1,9
			c0.8,3.9,1.5,7.9,2.3,11.8c0.9,4.1,2.2,8.2,3.4,12.3c1,3.4,2.4,7.1,1.6,10.7c-1.5,6.1-7.4,10.6-11.3,15.4c-2.4,3-4.4,6.5-5,10.5
			c-0.5,3.4-0.1,6.7,1,9.9c1.2,3,2.6,5.9,3.9,8.9c-0.1-0.1-0.2-0.5,0.1,0.2c0.2,0.5,0.4,0.9,0.5,1.5c0.2,0.7,0.5,1.5,0.6,2.3
			c0.4,1.7,0.5,2.4,0.4,4.3c-0.1,4.7,7.3,4.7,7.4,0c0.1-6.1-2.5-11.4-5-16.8c-0.4-1-0.7-1.6-1.2-2.9c-0.2-0.6-0.3-1.2-0.5-1.8
			c-0.1-0.3-0.1-0.7-0.2-1c-0.1-0.7,0,0.4-0.1-0.4c0-0.6-0.1-1.3,0-1.9c0-0.9,0-0.4,0.2-1.4c0.3-1.6,0.8-2.7,1.7-4.1
			c3.4-5.7,8.9-9.6,12.3-15.3c2-3.5,3-7.3,2.6-11.4c-0.4-4.1-1.9-8.1-3-11.9c-1.2-4-2.2-8-3-11.9c-0.7-3.5-1.3-7-2.1-10.5
			c0-0.2-0.1-1.2-0.1-0.2c0-0.2,0-0.5,0-0.7c0-0.2,0.1-0.8,0-0.2c0.1-0.3,0.1-0.6,0.2-0.9c0.5-1.6,1.4-3.1,2.3-4.5
			c2-3,4.2-6,6.4-8.8c4.2-5.7,8.7-11.5,9.7-18.6c1.3-7.7-0.6-15.3-0.5-23c0.1-7.1,3.2-14.1,7.3-20.1c4.1-6,9.5-11.2,15.7-14.9
			C457.6-395.2,453.9-401.5,449.8-399.1L449.8-399.1z M326.2-322.3c0.3-0.7,0-0.1-0.2,0.2c-0.2,0.3-0.6,0.8-0.1,0.2
			c-0.4,0.5-0.9,1-1.5,1.5c-0.3,0.3,0.1-0.1,0.2-0.1c-0.2,0.1-0.3,0.2-0.5,0.3c-0.3,0.2-0.6,0.4-0.9,0.6c-0.7,0.4-1.4,0.8-2.1,1.2
			s-1.5,0.6-2.1,0.9l-0.5,0.2c-0.5,0.2,0.5-0.2-0.1,0l-1.3,0.5c-1.7,0.7-3.5,1.4-5.1,2.2c-2.9,1.4-5.8,3.2-7.5,6
			c-2.4,3.7-1.9,8.3-0.6,12.3c0.6,2.1,1.6,4.2,2.4,6.2c0.4,0.9,0.7,1.9,1,2.8c0.1,0.4,0.2,0.7,0.3,1.2c0.1,0.2,0.1,0.5,0.1,0.7
			c-0.1-0.5,0,0.1,0,0.3c0,0.4,0,0.8,0,1.4c0,0.6,0.1-0.1-0.1,0.5c-0.1,0.5-0.2,0.9-0.4,1.5c-0.1,0.2-0.1,0.3-0.2,0.5
			c-0.2,0.6,0.3-0.7-0.1,0.4c-0.7,1.6-1.7,3-2.8,4.4c-5.2,6.3-12.3,11.1-18.5,16c-4.1,3.2-7.6,6.9-9.5,11.9
			c-1.9,4.9-3,10.2-4.2,15.3c-0.4,2,0.6,4,2.6,4.5c1.9,0.5,4.1-0.6,4.5-2.6c1-4.6,2.1-9.2,3.6-13.6c1.4-4,3.8-6.7,7.1-9.4
			c6.3-5.1,13.2-9.7,18.6-15.8c2.8-3.1,5.4-6.8,6.4-11c0.9-4.3-0.3-8.2-1.9-12.3c-0.8-2.1-1.7-4.1-2.3-6.3c-0.5-1.9-0.4-3-0.1-4.6
			c0.1-0.5-0.3,0.4,0.1-0.2c0.2-0.2,0.3-0.5,0.5-0.8c-0.4,0.6,0,0.1,0.2-0.2c0.3-0.3,0.5-0.5,0.8-0.7c0.3-0.3-0.1,0.1-0.2,0.1
			c0.2-0.1,0.3-0.2,0.5-0.3c0.3-0.2,0.6-0.4,0.9-0.6c0.7-0.4,1.4-0.8,2.1-1.2c0.8-0.4,1.8-0.8,2.6-1.2c-0.4,0.2,0.4-0.2,0.5-0.2
			l1.3-0.5c1.9-0.7,3.8-1.6,5.5-2.4c3.6-1.8,6.5-4.3,8-8.1c0.7-1.9-0.8-4.1-2.6-4.5C328.6-325.4,326.9-324.2,326.2-322.3
			L326.2-322.3z M379,951.8c1.4,0.2,2.6,0.4,4,0.3c0.9,0,1.8-0.1,2.7,0l-0.9-0.1c0.3,0,0.6,0.1,0.9,0.1c0.9,0.2,2,0.1,2.8-0.4
			c0.7-0.4,1.5-1.4,1.7-2.2c0.2-0.9,0.2-2-0.4-2.8c-0.5-0.7-1.3-1.5-2.2-1.7c-1.4-0.2-2.6-0.4-4-0.3c-0.9,0-1.8,0.1-2.7,0l0.9,0.1
			c-0.3,0-0.6-0.1-0.9-0.1c-0.9-0.2-2-0.1-2.8,0.4c-0.7,0.4-1.5,1.4-1.7,2.2c-0.2,0.9-0.2,2,0.4,2.8
			C377.4,950.8,378.2,951.6,379,951.8z M183.8,901.7c-0.1,0.8-0.3,1.7-0.2,2.4c0,0.7,0.1,1.6,0.3,2.3c0.4,1.4,1,2.7,1.7,4
			c0.4,0.8,1.4,1.5,2.2,1.7c0.8,0.2,2.1,0.1,2.8-0.4c0.8-0.5,1.5-1.3,1.7-2.2l0.1-0.9c0-0.6-0.2-1.3-0.5-1.9c-0.3-0.6-0.6-1.3-0.9-2
			l0.4,0.8c-0.3-0.6-0.5-1.4-0.6-2.1l0.1,0.9c-0.1-0.5-0.1-1.2,0-1.7l-0.1,0.9c0-0.1,0-0.2,0-0.3c0.1-0.5,0.2-0.9,0.1-1.5
			c0-0.5-0.2-0.9-0.4-1.4c-0.4-0.7-1.4-1.5-2.2-1.7c-0.9-0.2-2-0.2-2.8,0.4C184.6,899.9,183.9,900.8,183.8,901.7z M422.3,1072.9
			c-21.5-0.2-42.9-0.5-64.4-1.3c-17.5-0.5-35.1-1.3-52.5-2.6l-1.2-0.1c-0.2,0-1.5-0.2-0.8-0.1c0.6,0.1-0.2-0.1-0.4-0.1
			c-0.4,0,0.6,0.4-0.1-0.1c-0.2-0.1-0.4-0.2-0.6-0.3c-0.5-0.3,0.5,0.5-0.1-0.1c-0.2-0.2-0.3-0.3-0.5-0.5c-0.1-0.1-0.2-0.3-0.3-0.4
			c-0.3-0.3,0.4,0.5,0.1,0.1c-0.3-0.5-0.7-1-1-1.6c-0.2-0.3-0.3-0.6-0.5-0.9c-0.1-0.2-0.5-1.2-0.4-0.8c0.1,0.3-0.2-0.5-0.2-0.6
			c-0.1-0.4-0.3-0.7-0.4-1.2c-0.3-0.7-0.5-1.6-0.7-2.4c-0.4-1.7-0.8-3.4-1.2-5.1c-0.1-0.4-0.1-0.7-0.2-1.2c-0.1-0.7,0-0.3,0-0.2
			c-0.1-1.2-0.3-2.3-0.3-3.5c-0.2-3.2-0.3-6.5,0-9.6c0-0.3,0.1-0.6,0.1-0.9c0.1-0.5-0.1,0.6,0,0.1c0-0.1,0-0.2,0-0.3
			c0.1-0.4,0.1-0.8,0.2-1.3c0.2-1,0.3-2,0.5-3c0.5-2.5,0.9-5.1,1.5-7.6c1.4-6.7,2.7-13.3,4.2-20c2.7-13,5.5-25.9,7.9-38.8
			c0.2-1,0.4-2.2,0.5-3.2c0.3-2-0.5-4-2.6-4.5c-1.8-0.5-4.2,0.6-4.5,2.6c-2,12.7-4.8,25.2-7.4,37.8c-2.5,11.9-5.3,24-7.3,36
			c-1.2,6.9-0.7,13.9,0.5,20.8c1.2,6,3.2,13.6,8.8,17c2.9,1.8,6.7,1.6,10.1,1.8c4,0.3,8,0.5,11.9,0.7c9.4,0.5,18.7,0.9,28.2,1.3
			c21.7,0.7,43.3,1.3,65,1.5c2.8,0,5.5,0.1,8.4,0.1C427.1,1080.3,427.1,1072.9,422.3,1072.9L422.3,1072.9z M392.2,972.3
			c2.6,4.3,5.9,8.2,9.1,11.9c3.9,4.5,8.1,9,12.6,12.9c2.4,2.1,4.7,4.1,7.7,5.2c1.9,0.7,3.8,1.4,5.7,2.1
			c15.2,5.3,30.5,10.2,45.8,15.2c10.3,3.4,20.6,6.7,30.9,9.9c6.1,2,12.3,3.7,17.6,6.9c2.4,1.5,4.6,3.1,5.7,5.9
			c-0.2-0.4,0.1,0.4,0.1,0.5c0.1,0.4,0.2,0.8,0.3,1.3c0.2,0.8,0.4,1.7,0.6,2.6c0.4,1.8,0.8,3.5,1.2,5.2c0.5,2.7,0.7,4.9,0.8,8
			c0,1,0,2.1-0.1,3.1c0,0.4-0.1,0.9-0.1,1.4c-0.1,0.9,0.2-0.8,0,0.1c-0.1,0.3-0.1,0.5-0.1,0.8c-0.1,0.7-0.3,1.6-0.6,2.3
			c-0.1,0.3-0.2,0.6-0.3,0.9c0.4-1.2,0,0-0.2,0.3c-0.1,0.2-0.6,1.5-0.9,1.5c0,0,0.7-0.7,0.2-0.2c-0.1,0.1-0.2,0.2-0.2,0.3
			c-0.2,0.2-0.4,0.4-0.6,0.6c-0.7,0.6,0.2-0.1,0,0c-0.2,0.1-0.4,0.2-0.5,0.4c-0.2,0.1-0.4,0.2-0.5,0.3s-0.2,0.1-0.3,0.2
			c-0.5,0.3,0.4-0.3,0.4-0.2c0,0-1,0.3-1.2,0.4c-0.2,0.1-0.4,0.1-0.6,0.1c-0.6,0.1-0.8-0.2,0.2,0c-0.5-0.1-1.3,0.1-1.9,0.1
			c-0.2,0-0.5,0-0.7-0.1c-0.7,0,1.3,0.2,0.4,0c-1.4-0.2-2.8-0.1-4.2-0.1c-3.5,0.1-6.8,0.2-10.3,0.3c-7.7,0.2-15.4,0.3-23.1,0.4
			c-4.2,0-8.4,0.1-12.6,0.1c-4.7,0-4.7,7.4,0,7.4c15.6-0.1,31.2-0.3,46.8-0.8c0.4,0,0.8,0,1.3,0c0.8-0.1,0.1-0.2-0.1-0.2h0.1
			l0.3,0.1c0.7,0.1,1.6,0.2,2.3,0.2c2.1,0,4.2-0.4,6.2-1.3c6.3-2.8,8.4-10.1,8.5-16.4c0.2-6.1-0.9-12.4-2.4-18.2
			c-0.9-3.7-2.1-6.8-4.8-9.6c-2.3-2.4-5.3-4.3-8.3-5.7c-6.4-3-13.3-5-20.1-7.2c-6-1.9-11.9-3.9-17.9-5.8
			c-16.3-5.2-32.7-10.6-48.9-16c-2.8-0.9-5.5-1.9-8.3-2.9c-0.9-0.3-1.9-0.6-2.7-1c-0.3-0.1-0.6-0.2-0.9-0.3
			c-0.7-0.3,0.9,0.4,0.4,0.2c-0.1-0.1-0.2-0.1-0.3-0.1c-0.2-0.2-0.5-0.3-0.7-0.5c-0.5-0.3-0.9-0.7-1.5-1c-0.5-0.4,0.6,0.5-0.2-0.2
			c-0.4-0.3-0.7-0.6-1.2-0.9c-2.3-1.9-4.4-4-6.5-6.1c-2.2-2.2-4.2-4.5-6.3-6.8c-1.6-1.9-3.1-3.8-4.7-5.7c-0.1-0.2-0.3-0.3-0.4-0.5
			c-1.3-1.6-2.4-3.2-3.5-4.9C396.1,964.4,389.7,968.2,392.2,972.3L392.2,972.3z"/>
		<path class="st1" d="M314.5,1056.6c25,1,50.2,2.1,75.2,3c19.3,0.7,38.5,1.5,57.8,2c13.2,0.4,26.4,0.9,39.6,0.7
			c5.3-0.1,10.8-0.6,16.1-1c4.6-0.3,9.4-0.8,13.6-3c4.7-2.5,7.7-7.1,9.4-12.1c1.2-3.4,1.7-7,2.1-10.6c0.2-2-1.9-3.7-3.7-3.7
			c-2.2,0-3.5,1.7-3.7,3.7c-0.3,3.2-1,6.4-2.1,9.4c-0.1,0.1-0.3,0.8-0.1,0.2c-0.1,0.3-0.3,0.6-0.4,0.9c-0.3,0.5-0.6,1.2-0.9,1.7
			c-0.2,0.4-0.5,0.8-0.8,1.3c0.5-0.7,0,0-0.1,0.1c-0.2,0.3-0.5,0.5-0.7,0.8c-0.3,0.3-0.6,0.6-0.9,0.8c0.7-0.6-0.4,0.3-0.7,0.5
			s-0.7,0.4-1.2,0.6c-0.2,0.1-0.4,0.2-0.7,0.3c-0.5,0.3,0.7-0.2-0.3,0.1c-0.9,0.3-1.8,0.6-2.7,0.8c-0.4,0.1-0.8,0.2-1.4,0.2
			c-0.3,0-0.5,0.1-0.8,0.1c-0.6,0.1,0.7-0.1-0.4,0c-4.6,0.5-9.3,0.5-14,1c-1.4,0.1-2.6,0.2-4,0.2c-12.3,0.3-24.6-0.2-36.9-0.6
			c-18.8-0.5-37.8-1.3-56.6-1.9c-17.8-0.6-35.5-1.4-53.3-2.1c-9-0.4-17.9-1-26.9-1.2c-0.1,0-0.3,0-0.4,0c-2-0.1-3.7,1.8-3.7,3.7
			C310.9,1055,312.5,1056.5,314.5,1056.6L314.5,1056.6z M405.1,985.1c-6,7.1-12.3,14-17.7,21.6c-1.7,2.4-3.4,5.5-0.8,8.1
			c1.8,1.8,4.3,1.8,6.7,1.3c5.1-1.4,10.4-2.7,15.5-3.9c5.2-1.3,10.4-2.3,15.7-3.4c0.3-0.1,1.9-0.2,2.1-0.4c-0.5,0.7-1.8-2.6-1.9-1.2
			c0,0.6,0.2,1.3,0.3,1.9c0.2,1.4,0.4,2.8,0.6,4.2c0.4,3.1,0.8,6.4,1.7,9.4c0.6,2.7,1.8,6,4.7,6.9c3.1,0.9,6-0.5,8.4-2.4
			c1.8-1.5,3.6-2.8,5.4-4.2c4.3-2.9,8.7-5.8,12.7-9.1c1.5-1.3,1.4-3.9,0-5.2c-1.5-1.5-3.7-1.3-5.2,0c-4.8,4.2-10.6,7.2-15.6,11.2
			c-1,0.7-1.9,1.8-3,2.4l-0.4,0.2l0,0c-0.5,0.5-0.5-0.3,0.1,0.2c1.2,1-0.8-1,0.8,0.5c-0.4-0.3,0.3,0.8,0.2,0.2
			c0-0.1-0.5-1.2-0.3-0.5c0.2,0.5-0.2-0.6-0.2-0.7c-0.3-1-0.5-2.1-0.7-3.1c-0.8-4.2-1.3-8.5-2-12.8c-0.2-1.4-0.6-2.7-1.7-3.8
			c-1.6-1.6-3.7-1.6-5.8-1.3c-3.8,0.6-7.5,1.5-11.2,2.3c-6.3,1.4-12.6,2.9-18.8,4.5c-0.9,0.2-2,0.5-2.9,0.7c0.4-0.1-1.4,0.4-0.8,0.2
			c0.2,0,0.2,0-0.2,0c0.6,0,1.2,0.3,1.7,0.9l0.5,1.9c-0.3,0.6-0.2,0.7,0.1,0.1c0.5-0.7,1.2-1.6,1.7-2.3c0.6-0.9,1.4-1.8,2-2.6
			c1.5-1.8,2.9-3.7,4.4-5.4c3.1-3.8,6.4-7.3,9.5-11.1c1.3-1.6,1.5-3.8,0-5.2C409,983.7,406.4,983.5,405.1,985.1L405.1,985.1z
			 M166.8,930.4c-3.4,4.4-6.2,9.1-8.7,14c-1.5,2.9-2.8,6-4,9.1c-0.8,2.3-1.8,4.8-1.9,7.3c-0.4,4.5,0.2,9.1,0.5,13.6
			c0.9,14.9,2.1,29.6,3.2,44.5c0.1,1.7,0.3,3.5,0.4,5.1c0.2,2,0.7,3.7,1.9,5.4c4.6,6.8,11,12.5,16.8,18.2c1.2,1.3,2.4,2.4,3.6,3.7
			c0.4,0.4,0.8,0.9,1.3,1.4c0.4,0.5,0.1,0.2-0.1-0.1c0.1,0.2,0.2,0.4,0.3,0.5c0.4,0.5-0.3-0.3-0.2-0.4c-0.1,0.1,0.1,0.7,0.2,0.9
			c0.2,0.7,0-0.7,0,0.3c0,0.5,0.1,1.2,0.1,1.7c0.1,2.1,0,4.1-0.3,6.2c0.1-0.7-0.1,0.8-0.2,1c-0.1,0.5-0.2,1-0.3,1.7
			c-0.1,0.4-0.2,0.9-0.4,1.4c-0.1,0.2-0.2,0.5-0.2,0.7c-0.2,0.7,0.3-0.5-0.1,0.2c-0.2,0.4-0.4,0.7-0.6,1.2c-0.1,0.2-0.2,0.4-0.4,0.5
			c0.4-0.7,0.2-0.3,0.1-0.1c-0.2,0.2-0.3,0.3-0.5,0.5c0.1-0.1,0.7-0.4,0.2-0.1c-0.1,0.1-0.3,0.1-0.4,0.2c-0.5,0.4,0.7-0.1-0.1,0
			h-0.1c0.7-0.1,0.6-0.1-0.1,0c-0.4,0-0.8,0.1-1.2,0.1c-2.8,0.3-5.7,0.5-8.4,0.7c-3.2,0.2-6.5,0.4-9.7,0.6
			c-4.8,0.2-9.6,0.3-14.4,0.1c-1.8-0.1-3.6-0.1-5.3-0.3c-0.7-0.1-1.5-0.1-2.2-0.2c-0.3,0-0.7-0.1-1-0.1c-0.2,0-0.7-0.1,0.4,0.1
			c-0.2,0-0.4,0-0.5-0.1c-1.9-0.3-3.7-0.6-5.4-1.3c-0.3-0.1-0.6-0.2-0.9-0.3c0.6,0.2,0.7,0.4,0.1,0c-0.3-0.2-0.6-0.4-0.9-0.6
			c0.8,0.3,0.6,0.6,0.2,0.1c-0.3-0.3,0.7,1,0.4,0.4c1,1.9,0-0.1-0.3-0.7l-1-2.2c-8.8-19-17.5-38-26-57.1C92.1,990,84,971.5,76.1,953
			c-1.9-4.4-3.8-8.9-5.7-13.4s-3.8-9.1-5.7-13.7c-3.4-8.4-6.7-16.8-9.8-25.1c-2.6-6.9-5.1-13.9-7.3-20.9c-0.2-0.7-0.4-1.5-0.6-2.2
			c-0.1-0.3-0.1-0.8-0.3-1c-0.2-0.3,0,0.8,0,0.2c0-0.2,0-0.5,0-0.7c0-0.6,0,0.1,0,0.3c0.1-0.2,0.1-0.5,0.2-0.7
			c0-0.2,0.1-0.3,0.2-0.5c-0.2,0.8-0.1,0.3,0,0c0.2-0.4,0.4-0.7,0.6-1c0.1-0.2,0.3-0.4,0.4-0.6c0.1-0.2,0.1-0.2-0.1,0.1
			c0.1-0.2,0.3-0.3,0.4-0.5c3.1-3.8,6.8-6,11.3-8.4c1.7-0.9,3.4-1.7,5-2.5c0.6-0.3,0.9-0.4,1.3-0.5c2-0.8,4.1-1.6,6.2-2.1
			c4.6-1.3,2.6-8.4-2-7.1c-4.9,1.4-9.7,3.5-14.2,5.9c-4.5,2.4-9.1,5.4-12.6,9.3c-3,3.6-4.8,7.5-3.4,12.1c1,3.2,2.1,6.5,3.1,9.7
			c5.9,17,12.6,33.6,19.4,50.3c8,19.3,16.3,38.5,24.7,57.6c7.2,16.4,14.6,32.8,22.1,49c3.5,7.5,6.9,15.2,10.5,22.7
			c0.3,0.7,0.6,1.5,0.9,2.1c0.2,0.4,0.5,1.3-0.1-0.3c0.1,0.3,0.2,0.6,0.4,0.9c1,1.9,3.4,2.9,5.3,3.6c4.9,1.8,10.4,2,15.5,2.2
			c11.7,0.4,23.7-0.2,35.3-1.6c5.2-0.6,7.9-4.9,9.1-9.6c1.2-4.2,1.5-8.9,1-13.3c-0.2-1.6-0.3-3-1.3-4.4c-0.8-1.3-1.9-2.3-2.8-3.4
			c-2.7-2.9-5.7-5.7-8.4-8.5c-3-3-6.1-6.1-8.8-9.4c-0.2-0.3-0.5-0.6-0.7-0.9c-0.3-0.4,0.5,0.7,0,0c-0.1-0.1-0.2-0.2-0.3-0.4
			c-0.4-0.6-0.8-1.3-1.3-1.9c-0.1-0.2-0.5-0.9-0.2-0.3c0.4,0.8,0-0.2,0-0.2c-0.1,0-0.1-0.8,0,0.1c0.7,5.7,0,0.4,0,0.4v-0.1
			c0-4.2-0.7-8.5-1-12.7c-0.6-8-1.3-15.9-1.8-23.9c-0.5-7.1-1-14.3-1.4-21.5c-0.1-1.8-0.1-3.7-0.1-5.4c0-0.1,0-0.2,0-0.3
			c0.2,0.9-0.2,1.3,0.1,0c0.3-1.5,0.7-2.9,1.3-4.4c1-2.9,2.3-5.7,3.7-8.5c2.5-4.8,5.3-9.4,8.6-13.8c1.3-1.6,0.2-4.1-1.4-5
			C170,927.9,168.1,928.7,166.8,930.4L166.8,930.4z"/>
		<path class="st1" d="M62.3,882.3c8.8,22.5,17.5,44.9,26.4,67.4c6.9,17.7,13.9,35.4,21,53.1c5.2,13.1,10.4,26.1,15.9,39.1
			c1.8,4.2,3.5,8.2,6.5,11.5c9.4,10.5,25.7,10.6,37.9,5.7c3.7-1.5,7.2-3.2,10.6-5.4c1.7-1,2.4-3.2,1.4-5c-0.9-1.7-3.4-2.4-5-1.4
			c-5.9,3.9-12.9,6.9-19.6,7.4c-1.6,0.1-3.1,0.2-4.7,0.1c-1.8-0.1-2.6-0.2-4.3-0.5c-2.9-0.6-4.8-1.4-7.3-3c-2.7-1.8-4.8-4.2-6.4-7.4
			c-0.6-1.4-1.3-2.7-1.9-4.2c-0.4-0.9-0.8-2-1.3-2.9l-0.3-0.7c-0.2-0.6,0.4,0.9,0.1,0.3l-0.2-0.4l-0.7-1.9c-1.2-2.8-2.3-5.5-3.5-8.4
			c-2.9-7.1-5.8-14.2-8.6-21.4c-6.9-17.3-13.7-34.6-20.5-51.8c-6.3-15.9-12.5-31.8-18.7-47.7c-3.1-8-6.2-16-9.3-24l-0.1-0.3
			c-0.7-1.9-2.5-3.1-4.5-2.6C63.1,878.4,61.6,880.5,62.3,882.3L62.3,882.3z"/>
		<path class="st1" d="M161.8,940.5c-8.7-2.9-17.3-6.2-26.3-8.5c-2.8-0.7-6-0.8-7.5,2.1c-1.5,2.6,0.1,5.3,1.7,7.4
			c6.2,8.4,12.1,16.9,17.7,25.7c0.3,0.4,0.6,1.5,1,1.7c1.2,0.8-0.1-2.4,0.8-2.2c-0.1,0-0.3,0.2-0.4,0.3c-0.5,0.2-1,0.6-1.6,0.9
			c-1.3,0.7-2.6,1.5-3.9,2.2c-2.8,1.6-5.7,3.1-8.2,5c-2.6,2-5.1,4.3-4.3,7.9c0.6,2.5,2.7,4.3,4.9,5.5c2.1,1.2,4.2,2.3,6.2,3.7
			c4.2,2.8,8.3,5.9,12.8,8.3c1.8,0.9,4,0.4,5-1.4c0.9-1.7,0.4-4.1-1.4-5c-5.7-3-10.7-7.1-16.1-10.4c-1.2-0.7-2.4-1.3-3.6-2
			c-0.1-0.1-0.8-0.6-0.8-0.7c0,0-0.2,1.6-0.2,1.7c0.4-0.7-0.5,0.4,0-0.1c0.3-0.2,0.5-0.5,0.7-0.7c0.1-0.1,0.3-0.2,0.4-0.3
			c0.7-0.6-0.4,0.3,0.1-0.1c0.5-0.3,0.9-0.7,1.5-1c3.7-2.4,7.6-4.4,11.4-6.7c1.2-0.7,2.3-1.5,3-2.6c1.3-2,0.8-4.2-0.3-6.2
			c-1.9-3.2-4.1-6.3-6.2-9.4c-4.1-6.1-8.3-12-12.7-17.9c-0.3-0.4-0.5-0.7-0.8-1.2c-0.1-0.2-0.2-0.3-0.3-0.5c0.4,0.8,0.1,1.7-0.8,2.5
			l-1.9,0.5c1-0.1,2.2,0.4,3.2,0.6c1.3,0.3,2.4,0.6,3.7,1c2.3,0.6,4.6,1.4,6.9,2.2c4.7,1.6,9.3,3.2,14,4.8c1.9,0.6,4.1-0.7,4.5-2.6
			C164.9,943,163.7,941.1,161.8,940.5L161.8,940.5z"/>
		<path class="st0" d="M114.7,337.5l2.9,37.7l9.4-11.8l1.3-28.5L114.7,337.5z"/>
		<path class="st1" d="M127,394.3c0.4,0.2-0.2-0.1-0.2-0.1c-0.2-0.1-0.4-0.2-0.6-0.4c-0.1-0.1-1.2-0.8-0.8-0.5c-0.4-0.3-0.7-0.6-1-1
			c-0.6-0.6-0.3-0.3-0.8-1c-1.3-1.9-1.8-3.1-2.4-5.3c-1.3-4.3-1.6-8-1.9-12.5c-0.8-9.9-1.4-19.9-2-29.9c-0.3-5.3-0.7-10.6-1.2-15.9
			c-0.2-2-1.6-3.7-3.7-3.7c-1.9,0-3.9,1.7-3.7,3.7c0.9,10.4,1.6,20.8,2.2,31.3c0.3,4.9,0.6,9.9,1,14.9c0.4,4.8,0.8,9.7,2.2,14.4
			c1.8,6,5.2,10.8,11.1,13.2c1.9,0.7,4.1-0.8,4.5-2.6C130.2,396.7,128.8,395,127,394.3L127,394.3z M692.3,411.2
			c-3.1-6.4-6.3-12.7-9.5-18.8c-0.9-1.7-3.5-2.4-5-1.4c-1.8,1.2-2.3,3.2-1.4,5c3.2,6.3,6.5,12.6,9.5,18.8c0.8,1.8,3.5,2.3,5,1.4
			C692.7,415.2,693.1,413.1,692.3,411.2z M735,518.7c-8.1-21.3-14.1-43.2-22.9-64.2c-3-7-6.1-14-9.3-21c-0.8-1.8-3.5-2.3-5-1.4
			c-1.9,1-2.2,3.2-1.4,5c4.9,10.7,9.8,21.5,13.9,32.6c3.6,9.7,6.7,19.8,10.1,29.6c2.4,7.1,4.9,14.2,7.6,21.3
			c0.7,1.9,2.5,3.1,4.5,2.6C734.3,522.7,735.8,520.5,735,518.7L735,518.7z M546.8,683.2c0.2,1.3,0.4,2.4,0.6,3.7l0.1,0.4
			c0.1,0.4-0.1,0.5-0.1-0.7c0,0.1,0,0.2,0,0.2c0,1.3,0.2,2.5,0.3,3.7c0.3,3.1,0.7,6.2,1.2,9.3c0.1,1,0.3,1.9,1,2.6
			c0.6,0.6,1.7,1.2,2.6,1c1.8-0.1,4-1.7,3.7-3.7c-0.5-4.1-1.2-8.1-1.5-12.1c-0.1-0.8-0.1-1.7-0.2-2.5c-0.2-1.4-0.4-2.6-0.6-4
			c-0.3-1.9-2.8-3.1-4.5-2.6C547.3,679.3,546.5,681.2,546.8,683.2L546.8,683.2z M529.7,356.2c-4.3,22.9-4.9,46.4-5.3,69.6
			c-0.2,9.7-0.2,19.4-0.9,29.1c-0.3,3.9-0.9,7.6-1.2,11.5c-0.2,4,0,8,0.4,11.9c1,10.1,3.1,20,5.1,30c1.2,5.8,2.2,11.4,3.1,17.2
			c0.4,2.4,0.8,4.8,1.2,7.2c0.2,1,0.3,2.1,0.4,3.2c0.1,0.8-0.1-0.4,0.1,0.4c2,15,3.2,30,4.5,45.1c1.8,21.3,3.6,42.5,5.5,63.8
			c0.3,3.1,0.6,6.2,0.8,9.3c0.2,2,1.6,3.7,3.7,3.7c1.9,0,3.9-1.7,3.7-3.7c-2.1-22-4-43.9-5.9-65.9c-1.4-15.8-2.6-31.7-4.5-47.5
			c-1-8.4-2.3-16.8-3.9-25c-1.9-10.4-4.2-20.7-5.9-31.2c-0.6-4.1-1.2-8-1.4-12.3c-0.2-3.8,0.1-7.4,0.5-11.2c1-9,1.3-18,1.4-27
			c0.4-22.5,0.4-45.2,3.8-67.6c0.4-2.9,0.9-5.8,1.5-8.6c0.3-2-0.5-4-2.6-4.5C532.4,353.1,530.1,354.2,529.7,356.2L529.7,356.2z"/>
	</g>
	
		<g transform="translate(799.1999999999999 1442.3999999999999) rotate(0.0 355.8 375.0000000000001) scale(1.2558769960608243 1.2558522715855893)">
		<path class="st2" d="M588.9-256.9l12.6,9.9L327.1,98.4l-12.6-9.9L588.9-256.9z"/>
		<ellipse class="st2" cx="62" cy="431.1" rx="28.6" ry="28.6"/>
		<path class="st3" d="M48.8,419.8l-102.9-81.8c-13.1-10.4-15.3-29.5-4.9-42.6L169.2,8.2c34-42.8,96.4-49.9,139.3-15.9L334,12.6
			c26.1,20.7,30.5,58.7,9.7,84.8L91.4,415C80.9,428.1,61.8,430.3,48.8,419.8L48.8,419.8z"/>
		<path class="st2" d="M-59.1,295.5c-0.6-22.3,6.3-44.1,19.7-62L119.3,21.4l24.1,19.2L-59.1,295.5z"/>
		<path class="st3" d="M128,28.3c35.2-41.7,71.8-92.3,161.7-47.7l-146.3,60L128,28.3z"/>
		<path class="st2" d="M295.2-16.6c0,0,15.5-4.9,19.2-3.7c3.7,1.4,23.8,17.6,26,20.8c2.2,3.2,0.7,19.3,0.7,19.3L295.2-16.6z
			 M-58.8,333.7l-17.3,17l12,9.5l36.1-1.3L-58.8,333.7z"/>
		<path class="st3" d="M574-215.3l-9.8-7.9c-2.8-2.3-3.4-6.5-1-9.3l37-46.5c2.3-2.8,6.5-3.4,9.3-1l9.8,7.9c2.8,2.3,3.4,6.5,1,9.3
			l-37,46.5C581-213.5,576.8-213,574-215.3L574-215.3L574-215.3z"/>
		<g>
			<path class="st1" d="M88.8,412.4c-6.7,8.3-17.5,12.3-28,9.5c-4.3-1.2-8-3.5-11.3-6.2l-24.1-19.2l-37-29.4l-31.2-24.8l-7.7-6.2
				c-5-4-8.8-8.9-10.5-15.2c-2.1-8-0.2-16.4,4.7-22.9c0.6-0.8,1.3-1.6,1.9-2.3l10.7-13.4l18.2-22.9l24.1-30.3l28-35.2l29.9-37.7
				l30.1-37.8L114.4,83l24.5-30.9l19-23.8L169.3,14c5.1-6.5,10.5-12.6,16.9-17.9c16.6-13.8,38-21.5,59.7-21.7s43,7,60.1,20.4
				c8.7,6.9,17.5,13.7,26.1,20.7c9.6,7.7,16.4,18.4,19.5,30.4c1.2,4.6,8.3,2.6,7.1-2c-3.4-12.9-10.6-24.7-20.8-33.2
				c-4.4-3.7-8.9-7.1-13.4-10.7c-4.4-3.6-8.8-7-13.3-10.6c-9.1-7.2-19.3-13-30.3-16.9C259.6-34.8,236-35,214.7-28
				c-19,6.3-35.8,17.9-48.3,33.5c-2.2,2.7-4.4,5.5-6.6,8.3l-15.4,19.4l-22.3,28L95,95.6L65.3,133l-30.8,38.6L5,209l-26.3,33.2
				L-42.5,269l-14.1,17.8c-2,2.5-4.2,5.1-6.1,7.7c-7,9.4-8.4,22.3-3.9,33.1c2.4,5.8,6.3,10.4,11.2,14.2l23.2,18.4L5,389.8l32.2,25.5
				l8.1,6.4c5.7,4.5,11.8,7.4,19.1,8.3c11.2,1.3,22.6-3.7,29.7-12.4c1.3-1.6,1.5-3.7,0-5.2C92.6,411,90,410.8,88.8,412.4L88.8,412.4
				z"/>
			<path class="st1" d="M119.6,26.4l18.6,14.8l2.6,2.1c1.5,1.2,3.8,1.6,5.2,0c1.3-1.4,1.6-4,0-5.2l-18.6-14.8l-2.6-2.1
				c-1.5-1.2-3.8-1.6-5.2,0C118.4,22.5,118,25.1,119.6,26.4z M141.5,203.3l16.6-20.9l40-50.4l48.2-60.5l41.8-52.6l13.7-17.3
				c2.2-2.7,4.6-5.3,6.5-8.2c0.1-0.1,0.2-0.2,0.3-0.4h-5.2l25,19.9V7.7l-8.3,10.4l-22.4,28.3c-11.1,13.9-22.2,27.9-33.2,41.8
				l-40.5,51L179.6,195c-15,18.8-29.8,37.6-44.8,56.4L93.1,304l-35.3,44.4l-25.3,31.9c-4,5-8.2,9.9-12,15.1
				c-0.2,0.2-0.3,0.4-0.5,0.6h5.2l-25-19.9v5.2l25.4-31.9l3.7-4.6c1.3-1.6,1.6-3.7,0-5.2c-1.3-1.3-4-1.6-5.2,0l-25.7,32.1l-3.7,4.6
				c-1.2,1.5-1.7,3.9,0,5.2l25,19.9c1.5,1.2,3.9,1.7,5.2,0l8.3-10.4l22.5-28.3c11.1-13.9,22.2-27.9,33.2-41.8l40.5-51l44.4-55.9
				l44.8-56.4l41.8-52.6l35.3-44.4L321,28.9c4-5,8-10.1,12-15.1l0.5-0.6c1.2-1.5,1.7-3.9,0-5.2l-25-19.9c-1.5-1.2-3.9-1.7-5.2,0
				L286.6,9l-40,50.4l-48.1,60.5l-41.8,52.6c-6.7,8.5-13.5,17-20.2,25.4l-0.3,0.4c-1.3,1.6-1.6,3.7,0,5.2
				C137.6,204.7,140.3,204.9,141.5,203.3L141.5,203.3z"/>
			<path class="st1" d="M107.1,246.8l8.2-10.3l1.2-1.5c0.6-0.8,1-1.6,1-2.6c0-0.9-0.4-2-1-2.6c-0.7-0.6-1.7-1.2-2.6-1
				c-0.9,0-2,0.3-2.6,1l-8.2,10.3l-1.2,1.5c-0.6,0.8-1,1.6-1,2.6c0,0.9,0.4,2,1,2.6c0.7,0.6,1.7,1.2,2.6,1
				C105.3,247.8,106.5,247.5,107.1,246.8z"/>
			<circle class="st1" cx="255.1" cy="79.9" r="8"/>
			
				<ellipse transform="matrix(6.437013e-03 -1 1 6.437013e-03 -245.5502 381.0287)" class="st1" cx="69" cy="314.1" rx="10" ry="10"/>
			<circle class="st1" cx="162.1" cy="196.9" r="8"/>
		</g>
	</g>
</g>
<g transform="translate(1502.3999999999999 1430.3999999999999) rotate(0.0 16.200000000000045 31.800000000000068) scale(0.9969230769230797 1.0000000000000022)">
	<g>
		<g>
			<g>
				<path class="st0" d="M29.4-323.9c-4.2,14.5-11.8,29-8.7,43.7c0.8,3.7,1.8,8.6-1.5,10.5c-1.5,0.9-3.4,0.7-4.9,0.1
					c-6.3-2.5-7.9-10.5-8.5-17.3c-0.9-10-1.8-28.7-2.8-39.7"/>
			</g>
		</g>
		<g>
			<g>
				<g>
					<path class="st1" d="M26.5-324.7c-2.6,8.9-6.3,17.5-8.3,26.6c-1,4.5-1.5,9.2-1.1,13.8c0.2,2.2,0.6,4.4,1,6.6
						c0.2,0.9,0.2,1.2,0.3,1.9c0,0.4,0.1,0.9,0.1,1.3c0,0.2-0.1,1.2,0,0.8c-0.1,0.4-0.2,0.8-0.3,1.1c0.2-0.6-0.4,0.5-0.2,0.2
						c0,0,0,0.1-0.3,0.2s-0.6,0.2-0.9,0.2s-0.6-0.1-1-0.2c-0.5-0.1-0.6-0.2-0.9-0.4l-0.9-0.6c-0.5-0.3-0.2-0.1-0.6-0.5
						c-2.1-2.1-3.1-4.8-3.8-8c-0.6-3-0.8-5.9-1.1-9.2c-0.3-3.5-0.5-7.1-0.7-10.7c-0.6-8.3-1-16.7-1.8-25c-0.1-1.6-1.3-3-3-3
						c-1.5,0-3.1,1.4-3,3c0.7,7.9,1.2,15.8,1.7,23.7c0.3,3.9,0.5,7.7,0.8,11.6c0.3,3.7,0.5,7.3,1.2,10.9c0.8,3.7,2.1,7.5,4.7,10.3
						c2.9,3.2,8.2,5.4,12.3,3c4-2.4,4-7.2,3.4-11.3c-0.3-1.9-0.8-3.8-1-5.8c-0.2-2.4-0.2-4.9,0.1-7.3c1.1-11,6-21.2,9.1-31.7
						C33.4-326.8,27.6-328.4,26.5-324.7z"/>
				</g>
			</g>
		</g>
	</g>
</g>
</svg>
